<?xml version="1.0" encoding="UTF-8" standalone="no"?>
<!-- Created with Inkscape (http://www.inkscape.org/) -->

<svg
   xmlns:dc="http://purl.org/dc/elements/1.1/"
   xmlns:cc="http://creativecommons.org/ns#"
   xmlns:rdf="http://www.w3.org/1999/02/22-rdf-syntax-ns#"
   xmlns:svg="http://www.w3.org/2000/svg"
   xmlns="http://www.w3.org/2000/svg"
   xmlns:sodipodi="http://sodipodi.sourceforge.net/DTD/sodipodi-0.dtd"
   xmlns:inkscape="http://www.inkscape.org/namespaces/inkscape"
   width="500"
   height="500"
   viewBox="0 0 132.29166 132.29167"
   version="1.1"
   id="svg8"
   inkscape:version="0.92.4 (5da689c313, 2019-01-14)"
   sodipodi:docname="icon-template.svg">
  <defs
     id="defs2">
    <linearGradient
       gradientUnits="userSpaceOnUse"
       y2="102.64404"
       x2="95.929001"
       y1="10.168474"
       id="a-1"
       x1="0"
       gradientTransform="matrix(0.26458334,0,0,0.26458334,80.47921,214.36822)">
      <stop
         id="stop943-6"
         stop-color="#ff6d6f"
         offset="0" />
      <stop
         id="stop945-0"
         stop-color="#f5a98e"
         offset="1" />
    </linearGradient>
  </defs>
  <sodipodi:namedview
     id="base"
     pagecolor="#ffffff"
     bordercolor="#a52828"
     borderopacity="1"
     inkscape:pageopacity="0.0"
     inkscape:pageshadow="2"
     inkscape:zoom="0.98994949"
     inkscape:cx="125.08963"
     inkscape:cy="258.22417"
     inkscape:document-units="px"
     inkscape:current-layer="layer1"
     showgrid="false"
     units="px"
     borderlayer="false"
     inkscape:pagecheckerboard="false"
     inkscape:window-width="1920"
     inkscape:window-height="1012"
     inkscape:window-x="-8"
     inkscape:window-y="-8"
     inkscape:window-maximized="1"
     showguides="true"
     inkscape:guide-bbox="true"
     inkscape:measure-start="249.821,63.0357"
     inkscape:measure-end="249.821,0">
    <sodipodi:guide
       position="9.5882942,66.182616"
       orientation="0,1"
       id="guide859"
       inkscape:locked="false" />
    <sodipodi:guide
       position="66.145833,14.717448"
       orientation="1,0"
       id="guide863"
       inkscape:locked="false" />
    <sodipodi:guide
       position="91.281245,132.29167"
       orientation="0,1"
       id="guide865"
       inkscape:locked="false" />
    <sodipodi:guide
       position="4.943e-007,86.758659"
       orientation="1,0"
       id="guide867"
       inkscape:locked="false" />
  </sodipodi:namedview>
  <metadata
     id="metadata5">
    <rdf:RDF>
      <cc:Work
         rdf:about="">
        <dc:format>image/svg+xml</dc:format>
        <dc:type
           rdf:resource="http://purl.org/dc/dcmitype/StillImage" />
        <dc:title></dc:title>
      </cc:Work>
    </rdf:RDF>
  </metadata>
  <g
     inkscape:label="Capa 1"
     inkscape:groupmode="layer"
     id="layer1"
     transform="translate(0,-164.70832)">
    <path
       style="opacity:1;fill:#ffffff;fill-opacity:1;fill-rule:nonzero;stroke:none;stroke-width:0.26458332;stroke-linecap:butt;stroke-linejoin:miter;stroke-miterlimit:1.41420996;stroke-dasharray:none;stroke-opacity:1;paint-order:markers stroke fill"
       d="M 0,164.70832 V 296.99998 H 132.29167 V 164.70832 Z"
       id="rect815"
       inkscape:connector-curvature="0" />
    <path
       id="path950"
       d="m 44.556871,180.58332 h 43.18107 a 28.681872,28.681872 0 0 1 28.678719,28.68187 v 43.18107 A 28.681872,28.681872 0 0 1 87.734797,281.12499 H 44.553726 A 28.681872,28.681872 0 0 1 15.875,252.44312 v -43.18107 a 28.681872,28.681872 0 0 1 28.681871,-28.67873 z"
       class="a"
       inkscape:connector-curvature="0"
       style="clip-rule:evenodd;fill:url(#a-1);fill-rule:evenodd;stroke-width:0.26458332;stroke-linejoin:round;stroke-miterlimit:1.41420996"
       inkscape:export-xdpi="96"
       inkscape:export-ydpi="96" />
    <path
       id="path952"
       d="m 96.466384,218.5114 a 9.3279494,9.3279494 0 0 0 -13.191189,0 l -3.49955,3.49954 2.595054,2.59506 3.413609,-3.41257 a 5.8168672,5.8168672 0 0 1 3.931365,-1.73877 5.6240199,5.6240199 0 0 1 4.240551,1.74402 5.737213,5.737213 0 0 1 -0.173985,7.99897 l -2.566759,2.56677 a 3.7259393,3.7259393 0 0 1 -5.272911,0 C 83.614775,229.42928 72.631903,218.44431 72.631903,218.44431 a 9.3279494,9.3279494 0 0 0 -15.000182,2.55104 l 2.872797,2.8728 a 5.6596546,5.6596546 0 0 1 9.537566,-2.82983 l 15.704493,15.70973 a 0.19808792,0.19808792 0 0 1 0,0.27985 l -7.72333,7.72333 a 0.2190496,0.2190496 0 0 1 -0.278789,0 L 67.094873,234.10164 c -0.10481,-0.13306 -5.475191,-5.52655 -5.475191,-5.52655 -0.02621,-0.0325 -0.05031,-0.066 -0.07547,-0.0985 L 51.054989,218.0115 a 9.3283218,9.3283218 0 0 0 -13.192235,13.19224 l 15.709735,15.71079 a 3.8642863,3.8642863 0 0 0 5.468902,0 l 6.044303,-6.04431 -2.595059,-2.59505 -6.04535,6.04535 a 0.22114576,0.22114576 0 0 1 -0.277742,0 L 40.455716,228.60654 a 5.6596546,5.6596546 0 0 1 8.002123,-8.00212 l 10.441015,10.44101 c 0.170839,0.20227 0.349011,0.40036 0.538715,0.59111 l 15.709734,15.7066 a 3.9523256,3.9523256 0 0 0 5.608299,0.0734 l 15.707639,-15.70763 a 9.3394783,9.3394783 0 0 0 0.0033,-13.19747 z"
       class="b"
       inkscape:connector-curvature="0"
       style="clip-rule:evenodd;fill:#f4f9fe;fill-rule:evenodd;stroke-width:0.26458332;stroke-linejoin:round;stroke-miterlimit:1.41420996" />
  </g>
</svg>
