<?xml version="1.0" encoding="UTF-8" standalone="no"?>
<!-- Created with Inkscape (http://www.inkscape.org/) -->

<svg
   xmlns:dc="http://purl.org/dc/elements/1.1/"
   xmlns:cc="http://creativecommons.org/ns#"
   xmlns:rdf="http://www.w3.org/1999/02/22-rdf-syntax-ns#"
   xmlns:svg="http://www.w3.org/2000/svg"
   xmlns="http://www.w3.org/2000/svg"
   xmlns:sodipodi="http://sodipodi.sourceforge.net/DTD/sodipodi-0.dtd"
   xmlns:inkscape="http://www.inkscape.org/namespaces/inkscape"
   width="500"
   height="500"
   viewBox="0 0 132.29166 132.29167"
   version="1.1"
   id="svg8"
   inkscape:version="0.92.4 (5da689c313, 2019-01-14)"
   sodipodi:docname="icon-template.svg">
  <defs
     id="defs2" />
  <sodipodi:namedview
     id="base"
     pagecolor="#ffffff"
     bordercolor="#a52828"
     borderopacity="1"
     inkscape:pageopacity="0.0"
     inkscape:pageshadow="2"
     inkscape:zoom="0.7"
     inkscape:cx="-190.38397"
     inkscape:cy="243.99856"
     inkscape:document-units="px"
     inkscape:current-layer="layer1"
     showgrid="false"
     units="px"
     borderlayer="false"
     inkscape:pagecheckerboard="false"
     inkscape:window-width="1920"
     inkscape:window-height="1012"
     inkscape:window-x="-8"
     inkscape:window-y="-8"
     inkscape:window-maximized="1"
     showguides="true"
     inkscape:guide-bbox="true"
     inkscape:measure-start="249.821,63.0357"
     inkscape:measure-end="249.821,0">
    <sodipodi:guide
       position="9.5882942,66.182616"
       orientation="0,1"
       id="guide859"
       inkscape:locked="false" />
    <sodipodi:guide
       position="66.145833,14.717448"
       orientation="1,0"
       id="guide863"
       inkscape:locked="false" />
    <sodipodi:guide
       position="91.281245,132.29167"
       orientation="0,1"
       id="guide865"
       inkscape:locked="false" />
    <sodipodi:guide
       position="4.943e-007,86.758659"
       orientation="1,0"
       id="guide867"
       inkscape:locked="false" />
  </sodipodi:namedview>
  <metadata
     id="metadata5">
    <rdf:RDF>
      <cc:Work
         rdf:about="">
        <dc:format>image/svg+xml</dc:format>
        <dc:type
           rdf:resource="http://purl.org/dc/dcmitype/StillImage" />
        <dc:title></dc:title>
      </cc:Work>
    </rdf:RDF>
  </metadata>
  <g
     inkscape:label="Capa 1"
     inkscape:groupmode="layer"
     id="layer1"
     transform="translate(0,-164.70832)">
    <path
       style="opacity:1;fill:#ffffff;fill-opacity:1;fill-rule:nonzero;stroke:none;stroke-width:0.26458332;stroke-linecap:butt;stroke-linejoin:miter;stroke-miterlimit:1.41420996;stroke-dasharray:none;stroke-opacity:1;paint-order:markers stroke fill"
       d="M 0,164.70832 V 296.99998 H 132.29167 V 164.70832 Z"
       id="rect815"
       inkscape:connector-curvature="0" />
    <g
       transform="matrix(1.0769501,0,0,1.0769506,22.820573,180.58332)"
       data-name="&lt;Grupo&gt;"
       id="_Grupo_2"
       style="stroke-width:0.24567823"
       inkscape:export-xdpi="315.76178"
       inkscape:export-ydpi="315.76178">
      <g
         data-name="&lt;Grupo&gt;"
         id="_Grupo_3"
         style="stroke-width:0.24567823">
        <g
           id="g839"
           style="stroke-width:0.24567823">
          <path
             style="fill:#006838;stroke-width:0.24567823"
             transform="translate(-241.3,-251.37)"
             d="m 310.26,300.6 q 0,5.46 -3.14,8.54 -3.44,3.37 -10.14,3.37 h -6.64 v -7.94 h 6.17 a 9.72,9.72 0 0 0 4.4,-0.67 3.53,3.53 0 0 0 1.48,-3.31 q 0,-3.85 -5.45,-3.85 h -6.54 v -8 h 6.05 q 6.46,0 10.14,2.84 3.68,2.84 3.67,9.02 z"
             data-name="&lt;Trazado&gt;"
             id="_Trazado_"
             inkscape:connector-curvature="0" />
          <path
             style="fill:#006838;stroke-width:0.24567823"
             transform="translate(-241.3,-251.37)"
             d="m 265.85,317.35 q -1,-2 -1,-6.75 v -21.85 h -8.05 v 22.63 q 0,8.17 3.85,12.73 a 14.86,14.86 0 0 0 9.54,5 l 1.87,0.26 v -8.16 l -0.95,-0.22 a 9.72,9.72 0 0 1 -2.13,-0.75 6.48,6.48 0 0 1 -3.13,-2.89 z"
             data-name="&lt;Trazado&gt;"
             id="_Trazado_2"
             inkscape:connector-curvature="0" />
        </g>
      </g>
      <path
         style="fill:#39b54a;stroke-width:0.24567823"
         transform="translate(-241.3,-251.37)"
         d="m 290.32,265.76 0.15,2.94 a 37.18,37.18 0 1 1 -11.22,-1.09 l 0.15,-2.84 a 40,40 0 1 0 10.91,1 z"
         data-name="&lt;Trazado&gt;"
         id="_Trazado_3"
         inkscape:connector-curvature="0" />
      <path
         style="fill:#006838;stroke-width:0.24567823"
         transform="translate(-241.3,-251.37)"
         d="m 287.88,258 h -6.08 l -1,52.56 q 0,4.8 -1.07,6.81 a 6.63,6.63 0 0 1 -3.14,2.81 9.54,9.54 0 0 1 -2.06,0.72 l -1,0.23 v 8.16 l 1.87,-0.26 a 15.14,15.14 0 0 0 9.89,-5.74 q 3.5,-4.63 3.5,-12 z"
         data-name="&lt;Trazado&gt;"
         id="_Trazado_4"
         inkscape:connector-curvature="0" />
      <polygon
         style="fill:#006838;stroke-width:0.24567823"
         points="43.54,0 50.9,7.36 36.18,7.36 "
         data-name="&lt;Trazado&gt;"
         id="_Trazado_5" />
    </g>
  </g>
</svg>
