<?xml version="1.0" encoding="UTF-8" standalone="no"?>
<!-- Created with Inkscape (http://www.inkscape.org/) -->

<svg
   xmlns:dc="http://purl.org/dc/elements/1.1/"
   xmlns:cc="http://creativecommons.org/ns#"
   xmlns:rdf="http://www.w3.org/1999/02/22-rdf-syntax-ns#"
   xmlns:svg="http://www.w3.org/2000/svg"
   xmlns="http://www.w3.org/2000/svg"
   xmlns:sodipodi="http://sodipodi.sourceforge.net/DTD/sodipodi-0.dtd"
   xmlns:inkscape="http://www.inkscape.org/namespaces/inkscape"
   width="500"
   height="500"
   viewBox="0 0 132.29166 132.29167"
   version="1.1"
   id="svg8"
   inkscape:version="0.92.4 (5da689c313, 2019-01-14)"
   sodipodi:docname="divi.svg">
  <defs
     id="defs2" />
  <sodipodi:namedview
     id="base"
     pagecolor="#ffffff"
     bordercolor="#a52828"
     borderopacity="1"
     inkscape:pageopacity="0.0"
     inkscape:pageshadow="2"
     inkscape:zoom="1.4"
     inkscape:cx="167.46237"
     inkscape:cy="218.05976"
     inkscape:document-units="px"
     inkscape:current-layer="layer1"
     showgrid="false"
     units="px"
     borderlayer="false"
     inkscape:pagecheckerboard="false"
     inkscape:window-width="1920"
     inkscape:window-height="1012"
     inkscape:window-x="-8"
     inkscape:window-y="-8"
     inkscape:window-maximized="1"
     showguides="true"
     inkscape:guide-bbox="true"
     inkscape:measure-start="249.821,63.0357"
     inkscape:measure-end="249.821,0">
    <sodipodi:guide
       position="9.5882942,66.182616"
       orientation="0,1"
       id="guide859"
       inkscape:locked="false" />
    <sodipodi:guide
       position="66.145833,14.717448"
       orientation="1,0"
       id="guide863"
       inkscape:locked="false" />
    <sodipodi:guide
       position="91.281245,132.29167"
       orientation="0,1"
       id="guide865"
       inkscape:locked="false" />
    <sodipodi:guide
       position="4.943e-007,86.758659"
       orientation="1,0"
       id="guide867"
       inkscape:locked="false" />
    <sodipodi:guide
       position="15.874999,37.608632"
       orientation="1,0"
       id="guide820"
       inkscape:locked="false" />
    <sodipodi:guide
       position="88.446424,16.063989"
       orientation="0,1"
       id="guide822"
       inkscape:locked="false" />
  </sodipodi:namedview>
  <metadata
     id="metadata5">
    <rdf:RDF>
      <cc:Work
         rdf:about="">
        <dc:format>image/svg+xml</dc:format>
        <dc:type
           rdf:resource="http://purl.org/dc/dcmitype/StillImage" />
        <dc:title></dc:title>
      </cc:Work>
    </rdf:RDF>
  </metadata>
  <g
     inkscape:label="Capa 1"
     inkscape:groupmode="layer"
     id="layer1"
     transform="translate(0,-164.70832)">
    <path
       style="opacity:1;fill:#ffffff;fill-opacity:1;fill-rule:nonzero;stroke:none;stroke-width:0.26458332;stroke-linecap:butt;stroke-linejoin:miter;stroke-miterlimit:1.41420996;stroke-dasharray:none;stroke-opacity:1;paint-order:markers stroke fill"
       d="M 0,164.70832 V 296.99998 H 132.29167 V 164.70832 Z"
       id="rect815"
       inkscape:connector-curvature="0" />
    <path
       style="opacity:1;fill:#8f42ec;fill-opacity:1;fill-rule:evenodd;stroke:none;stroke-width:0.26458332;stroke-linecap:round;stroke-linejoin:miter;stroke-miterlimit:4;stroke-dasharray:none;stroke-opacity:1;paint-order:markers fill stroke"
       id="path824"
       sodipodi:type="arc"
       sodipodi:cx="66.145828"
       sodipodi:cy="230.85416"
       sodipodi:rx="50.270832"
       sodipodi:ry="50.270832"
       sodipodi:start="0"
       sodipodi:end="6.2831329"
       sodipodi:open="true"
       d="m 116.41666,230.85416 a 50.270832,50.270832 0 0 1 -50.270173,50.27083 50.270832,50.270832 0 0 1 -50.271491,-50.26952 50.270832,50.270832 0 0 1 50.268856,-50.27215 50.270832,50.270832 0 0 1 50.272808,50.2682" />
    <path
       inkscape:connector-curvature="0"
       d="m 66.145833,193.47232 c 20.518058,0 37.192857,16.6748 37.192857,37.19286 0,20.51806 -16.674799,37.19285 -37.192857,37.19285 -20.518061,0 -37.192858,-16.67479 -37.192858,-37.19285 0,-20.51806 16.674797,-37.19286 37.192858,-37.19286 m 0,-6.19881 c -23.9584,0 -43.391668,19.43327 -43.391668,43.39167 0,23.95839 19.433268,43.39166 43.391668,43.39166 23.958397,0 43.391677,-19.43327 43.391677,-43.39166 0,-23.9584 -19.43328,-43.39167 -43.391677,-43.39167 z"
       id="path2"
       style="fill:#ffffff;fill-opacity:1;stroke-width:0.26458332" />
    <path
       inkscape:connector-curvature="0"
       d="m 78.295497,241.4821 c 1.146779,-1.36374 2.014613,-2.97544 2.6035,-4.80407 0.588888,-1.85965 1.363738,-8.18244 -0.031,-12.33564 -0.619881,-1.82865 -1.487714,-3.44033 -2.634491,-4.77308 -1.146781,-1.33275 -2.541514,-2.35556 -4.215192,-3.09941 -1.673681,-0.74386 -3.657297,-1.30175 -5.857877,-1.30175 h -11.31282 v 30.99405 h 11.312825 c 2.231572,0 4.215193,-0.74386 5.919863,-1.51871 1.67368,-0.74386 3.099405,-1.82865 4.215192,-3.16139 z m -2.169584,-30.83907 c 2.510517,1.05378 4.6801,2.57249 6.446763,4.49413 1.735667,1.92163 3.068408,4.21518 3.967237,6.81868 0.867833,2.6035 1.301749,5.64093 1.301749,8.70934 0,3.00642 -0.402921,5.67191 -1.270754,8.27541 -0.867834,2.6035 -2.169584,4.92804 -3.90525,6.84968 -1.735667,1.95262 -3.874256,3.50233 -6.446762,4.61812 -2.510519,1.08479 -5.454954,1.95262 -8.740322,1.95262 H 50.648867 v -3.09941 l -0.02563,-37.19285 0.02563,-3.09941 h 16.829707 c 3.223383,0 6.136822,0.61988 8.647339,1.67369 z"
       id="path4"
       style="fill:#ffffff;fill-opacity:1;stroke-width:0.26458332"
       sodipodi:nodetypes="cccccsccscccccssccsccccsc" />
  </g>
</svg>
