<?xml version="1.0" encoding="UTF-8" standalone="no"?>
<!-- Created with Inkscape (http://www.inkscape.org/) -->

<svg
   xmlns:dc="http://purl.org/dc/elements/1.1/"
   xmlns:cc="http://creativecommons.org/ns#"
   xmlns:rdf="http://www.w3.org/1999/02/22-rdf-syntax-ns#"
   xmlns:svg="http://www.w3.org/2000/svg"
   xmlns="http://www.w3.org/2000/svg"
   xmlns:sodipodi="http://sodipodi.sourceforge.net/DTD/sodipodi-0.dtd"
   xmlns:inkscape="http://www.inkscape.org/namespaces/inkscape"
   width="500"
   height="500"
   viewBox="0 0 132.29166 132.29167"
   version="1.1"
   id="svg8"
   inkscape:version="0.92.4 (5da689c313, 2019-01-14)"
   sodipodi:docname="wpforms.svg">
  <defs
     id="defs2" />
  <sodipodi:namedview
     id="base"
     pagecolor="#ffffff"
     bordercolor="#a52828"
     borderopacity="1"
     inkscape:pageopacity="0.0"
     inkscape:pageshadow="2"
     inkscape:zoom="0.70710678"
     inkscape:cx="350.38137"
     inkscape:cy="151.57324"
     inkscape:document-units="px"
     inkscape:current-layer="layer1"
     showgrid="false"
     units="px"
     borderlayer="false"
     inkscape:pagecheckerboard="false"
     inkscape:window-width="1920"
     inkscape:window-height="1012"
     inkscape:window-x="-8"
     inkscape:window-y="-8"
     inkscape:window-maximized="1"
     showguides="true"
     inkscape:guide-bbox="true"
     inkscape:measure-start="249.821,63.0357"
     inkscape:measure-end="249.821,0">
    <sodipodi:guide
       position="9.5882942,66.182616"
       orientation="0,1"
       id="guide859"
       inkscape:locked="false" />
    <sodipodi:guide
       position="66.145833,14.717448"
       orientation="1,0"
       id="guide863"
       inkscape:locked="false" />
    <sodipodi:guide
       position="91.281245,132.29167"
       orientation="0,1"
       id="guide865"
       inkscape:locked="false" />
    <sodipodi:guide
       position="4.943e-007,86.758659"
       orientation="1,0"
       id="guide867"
       inkscape:locked="false" />
  </sodipodi:namedview>
  <metadata
     id="metadata5">
    <rdf:RDF>
      <cc:Work
         rdf:about="">
        <dc:format>image/svg+xml</dc:format>
        <dc:type
           rdf:resource="http://purl.org/dc/dcmitype/StillImage" />
        <dc:title></dc:title>
      </cc:Work>
    </rdf:RDF>
  </metadata>
  <g
     inkscape:label="Capa 1"
     inkscape:groupmode="layer"
     id="layer1"
     transform="translate(0,-164.70832)">
    <path
       style="opacity:1;fill:#ffffff;fill-opacity:1;fill-rule:nonzero;stroke:none;stroke-width:0.26458332;stroke-linecap:butt;stroke-linejoin:miter;stroke-miterlimit:1.41420996;stroke-dasharray:none;stroke-opacity:1;paint-order:markers stroke fill"
       d="M 0,164.70832 V 296.99998 H 132.29167 V 164.70832 Z"
       id="rect815"
       inkscape:connector-curvature="0" />
    <g
       id="g1207"
       transform="matrix(1.9015398,0,0,1.9015398,-27.433693,-177.94655)"
       style="stroke-width:0.52588958">
      <path
         style="fill:#7eaaba;stroke-width:0.13914162"
         inkscape:connector-curvature="0"
         id="path18"
         d="m 28.760582,219.83426 c 2.936875,0.39687 5.503334,-0.26459 7.593542,-2.14313 l 3.4925,0.18521 -1.905,5.60917 c -2.116667,3.3602 -5.185833,4.07458 -8.334375,3.86291 z"
         class="st2" />
      <path
         style="fill:#d3e8ef;stroke-width:0.13914162"
         inkscape:connector-curvature="0"
         id="path20"
         d="m 30.057041,221.10426 0.582083,5.13291 c 2.619375,-0.0265 4.709583,-0.87312 6.270625,-3.25437 l 1.375833,-4.02167 -1.534583,-0.0794 c -1.957917,1.61395 -4.233333,2.30187 -6.693958,2.2225 z"
         class="st3" />
      <path
         style="fill:#ffffff;stroke-width:0.13914162"
         inkscape:connector-curvature="0"
         id="path22"
         d="m 30.057041,221.10426 0.343958,3.0427 c 3.598333,-0.42333 6.402917,-1.905 7.858125,-5.18583 l -1.534583,-0.0794 c -1.957917,1.61395 -4.206875,2.30187 -6.6675,2.2225"
         class="st4" />
      <path
         style="fill:#7eaaba;stroke-width:0.13914162"
         inkscape:connector-curvature="0"
         id="path24"
         d="m 29.607249,215.44217 c 3.280833,0 5.953125,2.67229 5.953125,5.95313 0,3.28083 -2.672292,5.95312 -5.953125,5.95312 -3.280833,0 -5.953125,-2.64583 -5.953125,-5.95312 0,-3.28084 2.672292,-5.95313 5.953125,-5.95313"
         class="st2" />
      <path
         style="fill:#d3e8ef;stroke-width:0.13914162"
         inkscape:connector-curvature="0"
         id="path26"
         d="m 29.607249,216.60634 c -2.645833,0 -4.7625,2.14312 -4.7625,4.7625 0,2.64583 2.143125,4.7625 4.7625,4.7625 2.645833,0 4.7625,-2.14313 4.7625,-4.7625 0,-2.64583 -2.143125,-4.7625 -4.7625,-4.7625"
         class="st3" />
      <path
         style="fill:#ffffff;stroke-width:0.13914162"
         inkscape:connector-curvature="0"
         id="path28"
         d="m 29.607249,216.60634 c -1.613958,0 -3.069167,0.79375 -3.915833,2.03729 0.15875,2.48708 2.248958,4.47146 4.7625,4.47146 1.613958,0 3.069166,-0.79375 3.915833,-2.03729 -0.15875,-2.48709 -2.2225,-4.47146 -4.7625,-4.47146"
         class="st4" />
      <path
         style="fill:#7eaaba;stroke-width:0.13914162"
         inkscape:connector-curvature="0"
         id="path30"
         d="m 28.998707,216.3153 c 2.460625,0 4.445,1.98437 4.445,4.445 0,2.46062 -1.984375,4.445 -4.445,4.445 -2.460625,0 -4.445,-2.01084 -4.445,-4.47146 0,-2.43417 1.984375,-4.41854 4.445,-4.41854"
         class="st2" />
      <path
         style="fill:#7f3e13;stroke-width:0.13914162"
         inkscape:connector-curvature="0"
         id="path32"
         d="m 28.681207,215.12467 c 2.460625,0 4.471459,2.01084 4.471459,4.445 0,2.46063 -2.010834,4.47146 -4.471459,4.47146 -2.460625,0 -4.471458,-2.01083 -4.471458,-4.47146 0,-2.46062 2.010833,-4.445 4.471458,-4.445"
         class="st5" />
      <path
         style="fill:#b85a1b;stroke-width:0.13914162"
         inkscape:connector-curvature="0"
         id="path34"
         d="m 29.104541,216.81801 c -1.957917,0 -3.545417,1.5875 -3.545417,3.54541 0,1.95792 1.5875,3.54542 3.545417,3.54542 1.957916,0 3.545416,-1.5875 3.545416,-3.54542 0,-1.95791 -1.5875,-3.54541 -3.545416,-3.54541"
         class="st1" />
      <path
         style="fill:#7f3e13;stroke-width:0.13914162"
         inkscape:connector-curvature="0"
         id="path36"
         d="m 26.432249,211.52634 c 0.07938,-2.48708 3.783542,-2.64583 3.889375,0 1.084792,-1.82563 4.497917,-0.82021 3.439583,2.03729 0.05292,0.23813 0.105834,0.44979 0.132292,0.68792 1.852083,0.10583 2.460625,2.98979 -0.07938,3.88937 -0.211667,0.79375 -0.555625,1.48167 -1.005417,2.03729 -2.169583,1.87855 -2.883958,0.34396 -4.048125,-0.92604 -1.137708,0.0265 -4.233333,-0.76729 -3.360208,2.14313 -1.984375,-1.27 -3.254375,-3.83646 -2.301875,-7.59354 -1.322917,-3.04271 2.196042,-4.18042 3.33375,-2.27542 z"
         class="st5" />
      <path
         style="fill:#b85a1b;stroke-width:0.13914162"
         inkscape:connector-curvature="0"
         id="path38"
         d="m 24.289124,214.22509 c -0.449792,1.82562 -0.47625,3.88937 0.820208,5.37104 1.825625,2.09021 5.529792,1.98438 6.958542,-0.635 0.767292,-1.42875 0.714375,-3.20146 0.396875,-4.7625 -2.725208,-0.58208 -5.476875,-0.47625 -8.175625,0.0265 z"
         class="st1" />
      <path
         style="fill:#e1762f;stroke-width:0.13914162"
         inkscape:connector-curvature="0"
         id="path40"
         d="m 24.289124,214.22509 c -0.449792,1.82562 -0.47625,3.88937 0.820208,5.37104 0.846667,0.9525 2.037292,1.42875 3.280834,1.45521 v -7.24958 c -1.375834,0 -2.725209,0.15875 -4.101042,0.42333"
         class="st6" />
      <path
         style="fill:#7f3e13;stroke-width:0.13914162"
         inkscape:connector-curvature="0"
         id="path42"
         d="m 26.088291,215.62738 c -0.264584,1.00542 -0.264584,2.16958 0.47625,2.98979 1.005416,1.16417 3.069166,1.11125 3.862916,-0.37041 0.423334,-0.79375 0.396875,-1.77271 0.211667,-2.64584 -1.508125,-0.3175 -3.042708,-0.26458 -4.550833,0.0265"
         class="st5" />
      <path
         style="fill:#b85a1b;stroke-width:0.13914162"
         inkscape:connector-curvature="0"
         id="path44"
         d="m 28.363707,212.8228 c 0.555625,0 1.031875,-0.47625 1.031875,-1.03188 0,-0.55562 -0.47625,-1.03187 -1.031875,-1.03187 z m 3.730625,-1.29646 c 0.555625,0 1.031875,0.47625 1.031875,1.03187 0,0.55563 -0.47625,1.03188 -1.031875,1.03188 -0.555625,0 -1.031875,-0.47625 -1.031875,-1.03188 0,-0.58208 0.47625,-1.03187 1.031875,-1.03187"
         class="st1" />
      <path
         style="fill:#e1762f;stroke-width:0.13914162"
         inkscape:connector-curvature="0"
         id="path46"
         d="m 24.844749,211.63217 c 0.555625,0 1.031875,0.47625 1.031875,1.03188 0,0.55562 -0.47625,1.03187 -1.031875,1.03187 -0.555625,0 -1.031875,-0.47625 -1.031875,-1.03187 0,-0.55563 0.449792,-1.03188 1.031875,-1.03188 m 3.518958,1.19063 v -2.03729 c -0.555625,0 -1.031875,0.47625 -1.031875,1.03187 0,0.55563 0.47625,1.03188 1.031875,1.00542 z"
         class="st6" />
      <path
         style="fill:#b85a1b;stroke-width:0.13914162"
         inkscape:connector-curvature="0"
         id="path48"
         d="m 33.258499,215.25696 c 0.555625,0 1.031875,0.47625 1.031875,1.03188 0,0.55562 -0.47625,1.03187 -1.031875,1.03187 -0.555625,0 -1.031875,-0.47625 -1.031875,-1.03187 0,-0.58208 0.449792,-1.03188 1.031875,-1.03188"
         class="st1" />
      <path
         style="fill:#7eaaba;stroke-width:0.13914162"
         inkscape:connector-curvature="0"
         id="path50"
         d="m 68.659748,227.4278 c -0.238125,-3.09563 -1.640416,-5.31813 -4.392083,-6.50875 l 0.555625,-2.14313 4.445,-1.19062 c 3.862916,1.16416 5.3975,3.65125 6.138333,6.74687 z"
         class="st2" />
      <path
         style="fill:#ffffff;stroke-width:0.13914162"
         inkscape:connector-curvature="0"
         id="path52"
         d="m 69.58579,225.73446 4.418541,-2.06375 c -0.767291,-2.59291 -2.063749,-4.25979 -4.788958,-4.92125 l -3.466041,0.92605 -0.15875,0.58208 c 2.143125,1.24354 3.439583,3.12208 3.995208,5.47687 z"
         class="st4" />
      <path
         style="fill:#7eaaba;stroke-width:0.13914162"
         inkscape:connector-curvature="0"
         id="path54"
         d="m 64.373498,227.95696 c -1.005416,-3.0427 0.635,-6.29708 3.677709,-7.3025 3.042708,-1.00541 6.297083,0.635 7.302499,3.67771 1.005417,3.04271 -0.635,6.29709 -3.677708,7.3025 -3.042708,1.00542 -6.297083,-0.635 -7.3025,-3.67771"
         class="st2" />
      <path
         style="fill:#d3e8ef;stroke-width:0.13914162"
         inkscape:connector-curvature="0"
         id="path56"
         d="m 65.325998,227.63946 c 0.820209,2.51355 3.518959,3.86292 6.0325,3.04271 2.513542,-0.82021 3.862917,-3.51896 3.042708,-6.0325 -0.820208,-2.51354 -3.518958,-3.86291 -6.032499,-3.04271 -2.513542,0.82021 -3.862917,3.51896 -3.042709,6.0325"
         class="st3" />
      <path
         style="fill:#ffffff;stroke-width:0.13914162"
         inkscape:connector-curvature="0"
         id="path58"
         d="m 74.586415,225.49634 c -0.02646,-0.29104 -0.105834,-0.55563 -0.185209,-0.84667 -0.820208,-2.51354 -3.518958,-3.86291 -6.032499,-3.04271 -0.767292,0.26459 -1.42875,0.68792 -1.957917,1.21709 0.02646,0.29104 0.105833,0.55562 0.185208,0.84666 0.846667,2.51355 3.518959,3.86292 6.0325,3.04271 0.79375,-0.23812 1.455208,-0.68791 1.957917,-1.21708"
         class="st4" />
      <path
         style="fill:#7f3e13;stroke-width:0.13914162"
         inkscape:connector-curvature="0"
         id="path60"
         d="m 63.288707,229.43863 c -0.9525,-2.8575 0.608541,-5.95312 3.466041,-6.87917 2.8575,-0.9525 5.953125,0.60855 6.879167,3.46605 0.9525,2.8575 -0.608542,5.95312 -3.466042,6.87916 -2.8575,0.9525 -5.953125,-0.60854 -6.879166,-3.46604"
         class="st5" />
      <path
         style="fill:#b85a1b;stroke-width:0.13914162"
         inkscape:connector-curvature="0"
         id="path62"
         d="m 64.399957,229.09467 c -0.740834,-2.24896 0.47625,-4.68312 2.725208,-5.42396 2.248958,-0.74083 4.683125,0.47625 5.423958,2.72521 0.740833,2.24896 -0.47625,4.68313 -2.725208,5.42396 -2.275417,0.74083 -4.683125,-0.47625 -5.423958,-2.72521"
         class="st1" />
      <path
         style="fill:#e1762f;stroke-width:0.13914162"
         inkscape:connector-curvature="0"
         id="path64"
         d="m 64.214748,227.05738 c 0.264584,-1.53458 1.322917,-2.88396 2.910417,-3.41312 2.248958,-0.74084 4.683125,0.47625 5.423958,2.7252 0.105833,0.34396 0.185208,0.71438 0.211667,1.05834 -2.778125,1.77271 -6.402917,1.40229 -8.546042,-0.37042 z"
         class="st6" />
      <path
         style="fill:#7f3e13;stroke-width:0.13914162"
         inkscape:connector-curvature="0"
         id="path66"
         d="m 44.423915,194.38134 c 2.169584,0 3.942292,1.87854 3.942292,4.15396 0,2.30187 -1.74625,4.15396 -3.942292,4.15396 -2.169583,0 -3.942291,-1.87855 -3.942291,-4.15396 0,-2.27542 1.772708,-4.15396 3.942291,-4.15396"
         class="st5" />
      <path
         style="fill:#b85a1b;stroke-width:0.13914162"
         inkscape:connector-curvature="0"
         id="path68"
         d="m 44.423915,195.51905 c -1.613958,0 -2.778125,1.42875 -2.778125,3.01625 0,1.56104 1.164167,3.01625 2.778125,3.01625 1.613959,0 2.778125,-1.42875 2.778125,-3.01625 0,-1.53459 -1.164166,-3.01625 -2.778125,-3.01625"
         class="st1" />
      <path
         style="fill:#63300f;stroke-width:0.13914162"
         inkscape:connector-curvature="0"
         id="path70"
         d="m 44.423915,196.68321 c -1.005416,0 -1.640416,0.92605 -1.640416,1.87855 0,0.92604 0.661458,1.87854 1.640416,1.87854 1.005417,0 1.640417,-0.92604 1.640417,-1.87854 0,-0.92605 -0.661458,-1.87855 -1.640417,-1.87855"
         class="st7" />
      <path
         style="fill:#7f3e13;stroke-width:0.13914162"
         inkscape:connector-curvature="0"
         id="path72"
         d="m 61.145582,194.38134 c 2.169583,0 3.942291,1.87854 3.942291,4.15396 0,2.30187 -1.74625,4.15396 -3.942291,4.15396 -2.169584,0 -3.942292,-1.87855 -3.942292,-4.15396 0,-2.27542 1.772708,-4.15396 3.942292,-4.15396"
         class="st5" />
      <path
         style="fill:#b85a1b;stroke-width:0.13914162"
         inkscape:connector-curvature="0"
         id="path74"
         d="m 61.145582,195.51905 c -1.613959,0 -2.778125,1.42875 -2.778125,3.01625 0,1.56104 1.164166,3.01625 2.778125,3.01625 1.613958,0 2.778125,-1.42875 2.778125,-3.01625 0,-1.53459 -1.164167,-3.01625 -2.778125,-3.01625"
         class="st1" />
      <path
         style="fill:#4f2800;stroke-width:0.13914162"
         inkscape:connector-curvature="0"
         id="path76"
         d="m 61.145582,196.68321 c -1.005417,0 -1.640417,0.92605 -1.640417,1.87855 0,0.92604 0.661458,1.87854 1.640417,1.87854 1.005416,0 1.640416,-0.92604 1.640416,-1.87854 0,-0.92605 -0.661458,-1.87855 -1.640416,-1.87855"
         class="st8" />
      <path
         style="fill:#7f3e13;stroke-width:0.13914162"
         inkscape:connector-curvature="0"
         id="path78"
         d="m 54.372248,196.33926 c 0.687917,0 1.243542,0.55562 1.243542,1.24354 0,0.68791 -0.555625,1.24354 -1.243542,1.24354 -0.687916,0 -1.243541,-0.55563 -1.243541,-1.24354 0,-0.68792 0.555625,-1.24354 1.243541,-1.24354 m -3.175,0 c 0.687917,0 1.243542,0.55562 1.243542,1.24354 0,0.68791 -0.555625,1.24354 -1.243542,1.24354 -0.687916,0 -1.243541,-0.55563 -1.243541,-1.24354 0,-0.68792 0.555625,-1.24354 1.243541,-1.24354"
         class="st5" />
      <path
         style="fill:#7f3e13;stroke-width:0.13914162"
         inkscape:connector-curvature="0"
         id="path80"
         d="m 67.310373,201.52509 v 7.75229 l 0.07937,0.0265 c 1.137709,0.44979 1.852084,1.48167 1.852084,2.69875 v 5.55625 l -16.457084,5.42396 -16.457082,-5.29167 v -5.68854 c 0,-1.21708 0.714375,-2.24896 1.852083,-2.69875 l 0.07937,-0.0265 v -7.77875 c 0,-5.34458 29.051249,-5.34458 29.051249,0.0265 z"
         class="st5" />
      <path
         style="fill:#b85a1b;stroke-width:0.13914162"
         inkscape:connector-curvature="0"
         id="path82"
         d="m 39.582041,201.81613 v 8.36083 l -0.687917,0.26459 c -0.767292,0.29104 -1.217083,1.00541 -1.217083,1.79916 v 5.87375 l 15.134166,4.86834 15.134166,-4.97417 v -5.76792 c 0,-0.8202 -0.47625,-1.50812 -1.217083,-1.79916 l -0.687917,-0.26459 v -8.36083 c -0.02646,-3.96875 -26.431874,-3.96875 -26.458332,0 z"
         class="st1" />
      <path
         style="fill:#e1762f;stroke-width:0.13914162"
         inkscape:connector-curvature="0"
         id="path84"
         d="m 39.582041,201.81613 v 8.36083 l -0.687917,0.26459 c -0.767292,0.29104 -1.217083,1.00541 -1.217083,1.79916 v 5.87375 l 15.134166,4.86834 v -3.175 c -5.23875,0.0265 -10.4775,-3.41313 -9.101667,-10.21292 h 9.101667 V 198.8528 c -6.614583,0 -13.229166,1.00541 -13.229166,2.96333 z"
         class="st6" />
      <path
         style="fill:#e5895b;stroke-width:0.13914162"
         inkscape:connector-curvature="0"
         id="path86"
         d="m 42.995165,207.82217 h 19.658542 c 2.778125,14.76375 -22.674791,14.65792 -19.658542,0"
         class="st9" />
      <path
         style="fill:#e5895b;stroke-width:0.13914162"
         inkscape:connector-curvature="0"
         id="path88"
         d="m 43.947665,208.98634 c -0.264583,2.27542 0.211667,4.47146 1.905,6.19125 1.799167,1.79917 4.497917,2.56646 6.985,2.54 2.407708,-0.0265 4.947708,-0.76729 6.720417,-2.46063 1.772708,-1.71979 2.328333,-3.94229 2.090208,-6.27062 z"
         class="st9" />
      <path
         style="fill:#fad395;stroke-width:0.13914162"
         inkscape:connector-curvature="0"
         id="path90"
         d="m 56.09204,215.86551 c 1.322917,1.71979 5.185833,1.00541 4.021667,-2.61938 z"
         class="st10" />
      <path
         style="fill:#4f2800;stroke-width:0.13914162"
         inkscape:connector-curvature="0"
         id="path92"
         d="m 54.874957,215.49509 c 1.481666,1.905 6.297083,0.76729 5.185833,-3.36021 z"
         class="st8" />
      <path
         style="fill:#ffffff;stroke-width:0.13914162"
         inkscape:connector-curvature="0"
         id="path94"
         d="m 59.319957,212.32009 c 0.291041,-0.0794 0.608541,0.10583 0.687916,0.42333 0.07937,0.3175 -0.07938,0.635 -0.370416,0.71438 -0.291042,0.0794 -0.608542,-0.10584 -0.687917,-0.42334 -0.07937,-0.29104 0.07937,-0.635 0.370417,-0.71437 m -3.148542,2.19604 c 0.291042,-0.0794 0.582083,0.10583 0.687917,0.42333 0.07937,0.3175 -0.07937,0.635 -0.370417,0.71438 -0.291042,0.0794 -0.582083,-0.10583 -0.687917,-0.42333 -0.07937,-0.3175 0.07937,-0.635 0.370417,-0.71438"
         class="st4" />
      <path
         style="fill:#ad6151;stroke-width:0.13914162"
         inkscape:connector-curvature="0"
         id="path96"
         d="m 58.102873,216.23592 c 1.058334,-0.34396 1.957917,-1.19062 2.116667,-2.54 -0.846667,-0.13229 -2.328333,1.13771 -2.116667,2.54"
         class="st11" />
      <path
         style="fill:#fad395;stroke-width:0.13914162"
         inkscape:connector-curvature="0"
         id="path98"
         d="m 45.005999,207.82217 h 15.583958 c 2.2225,10.55688 -17.965208,10.45104 -15.583958,0"
         class="st10" />
      <path
         style="fill:#4f2800;stroke-width:0.13914162"
         inkscape:connector-curvature="0"
         id="path100"
         d="m 52.784748,213.82821 c 0.105834,-0.635 0.343959,-1.21708 0.740834,-1.74625 1.878541,-0.29104 3.4925,-1.71979 2.989791,-4.25979 -1.217083,-0.42333 -2.460625,-0.635 -3.704166,-0.635 l -0.767292,2.40771 z"
         class="st8" />
      <path
         style="fill:#63300f;stroke-width:0.13914162"
         inkscape:connector-curvature="0"
         id="path102"
         d="m 52.784748,213.82821 c -0.105833,-0.635 -0.343958,-1.21708 -0.740833,-1.74625 -1.878542,-0.29104 -3.4925,-1.71979 -2.989791,-4.25979 1.217083,-0.42333 2.460624,-0.635 3.704166,-0.635 z"
         class="st7" />
      <path
         style="fill:#ad6151;stroke-width:0.13914162"
         inkscape:connector-curvature="0"
         id="path104"
         d="m 50.033082,208.19259 c 1.852083,-0.47625 3.677708,-0.47625 5.529791,0 0.767292,1.93146 -6.376458,1.905 -5.529791,0"
         class="st11" />
      <path
         style="fill:#ffffff;stroke-width:0.13914162"
         inkscape:connector-curvature="0"
         id="path106"
         d="m 49.821415,202.82155 c 1.137708,0 2.090208,0.92604 2.090208,2.09021 0,1.1377 -0.926041,2.0902 -2.090208,2.0902 -1.137708,0 -2.090208,-0.92604 -2.090208,-2.0902 0,-1.13771 0.926042,-2.09021 2.090208,-2.09021"
         class="st4" />
      <path
         style="fill:#1b1d23;stroke-width:0.13914162"
         inkscape:connector-curvature="0"
         id="path108"
         d="m 49.980165,203.56238 c 0.846667,0 1.561042,0.68792 1.561042,1.56104 0,0.84667 -0.687917,1.56104 -1.561042,1.56104 -0.846666,0 -1.561041,-0.68791 -1.561041,-1.56104 0,-0.87312 0.687916,-1.56104 1.561041,-1.56104"
         class="st12" />
      <path
         style="fill:#ffffff;stroke-width:0.13914162"
         inkscape:connector-curvature="0"
         id="path110"
         d="m 55.800998,202.82155 c -1.137708,0 -2.090208,0.92604 -2.090208,2.09021 0,1.1377 0.926042,2.0902 2.090208,2.0902 1.137709,0 2.090209,-0.92604 2.090209,-2.0902 0,-1.13771 -0.926042,-2.09021 -2.090209,-2.09021"
         class="st4" />
      <path
         style="fill:#1b1d23;stroke-width:0.13914162"
         inkscape:connector-curvature="0"
         id="path112"
         d="m 55.668707,203.56238 c -0.846667,0 -1.561042,0.68792 -1.561042,1.56104 0,0.84667 0.687917,1.56104 1.561042,1.56104 0.846666,0 1.561041,-0.68791 1.561041,-1.56104 -0.02646,-0.87312 -0.714375,-1.56104 -1.561041,-1.56104"
         class="st12" />
      <path
         style="fill:#63300f;stroke-width:0.13914162"
         inkscape:connector-curvature="0"
         id="path114"
         d="m 51.32954,202.16009 c -1.666875,-0.3175 -3.069166,-0.0265 -4.312708,0.76729 -0.449792,-2.56646 3.862916,-3.33375 4.312708,-0.76729"
         class="st7" />
      <path
         style="fill:#4f2800;stroke-width:0.13914162"
         inkscape:connector-curvature="0"
         id="path116"
         d="m 53.86954,200.86363 c 1.666875,-0.3175 3.069167,-0.0265 4.312708,0.76729 0.449792,-2.56646 -3.836458,-3.30729 -4.312708,-0.76729"
         class="st8" />
      <path
         style="fill:#7eaaba;stroke-width:0.13914162"
         inkscape:connector-curvature="0"
         id="path118"
         d="m 69.215373,217.5853 v 16.03375 c 0,1.05833 -0.873125,1.95791 -1.957916,1.95791 H 38.259124 c -1.058333,0 -1.957917,-0.87312 -1.957917,-1.95791 v -15.875 l 16.457083,3.94229 z"
         class="st2" />
      <path
         style="fill:#d3e8ef;stroke-width:0.13914162"
         inkscape:connector-curvature="0"
         id="path120"
         d="m 67.918915,219.25217 -15.134167,3.73063 -15.134166,-3.59834 v 13.89063 c 0,0.55562 0.423334,0.97896 0.978959,0.97896 h 28.336874 c 0.555625,0 0.978958,-0.42334 0.978958,-0.97896 v -14.02292 z"
         class="st3" />
      <path
         style="fill:#ffffff;stroke-width:0.13914162"
         inkscape:connector-curvature="0"
         id="path122"
         d="m 52.784748,223.00926 -15.107707,-3.6248 v 13.89063 c 0,0.55562 0.423333,0.97896 0.978958,0.97896 h 14.155208 v -11.24479 z"
         class="st4" />
      <path
         style="fill:#036aab;stroke-width:0.13914162"
         inkscape:connector-curvature="0"
         id="path124"
         d="m 52.784748,230.44405 h 12.7 v 0.84666 0.84667 h -12.7 z m 0,-3.51896 h 12.7 v 0.84667 0.84666 h -12.7 z"
         class="st13" />
      <path
         style="fill:#0399ed;stroke-width:0.13914162"
         inkscape:connector-curvature="0"
         id="path126"
         d="m 52.784748,232.16384 v -1.71979 H 40.084749 v 0.84666 0.84667 h 12.699999 z m -12.699999,-5.23875 h 12.699999 v 1.71979 H 40.084749 Z"
         class="st14" />
      <polygon
         style="fill:#ffffff;stroke-width:0.52588958"
         id="polygon128"
         points="92.1,148.2 86.1,148.2 86.1,118.8 92.1,118.8 "
         class="st4"
         transform="matrix(0.26458333,0,0,0.26458333,22.463499,194.38134)" />
      <path
         style="fill:#7eaaba;stroke-width:0.13914162"
         inkscape:connector-curvature="0"
         id="path130"
         d="m 40.772665,218.77592 c 4.021667,0.9525 8.016875,1.93146 12.012083,2.88396 l -4.286249,4.04813 c -2.778125,-1.64042 -5.529792,-3.43959 -7.725834,-6.93209"
         class="st2" />
      <path
         style="fill:#ffffff;stroke-width:0.13914162"
         inkscape:connector-curvature="0"
         id="path132"
         d="m 44.159332,220.94551 c 1.217083,1.21708 2.592917,2.16958 4.153958,3.12208 l 1.799167,-1.71979 c -1.957917,-0.44979 -3.96875,-0.9525 -5.953125,-1.40229"
         class="st4" />
      <path
         style="fill:#7eaaba;stroke-width:0.13914162"
         inkscape:connector-curvature="0"
         id="path134"
         d="m 64.796832,218.77592 c -4.021667,0.9525 -8.016875,1.93146 -12.012084,2.88396 l 4.28625,4.04813 c 2.778125,-1.64042 5.529792,-3.43959 7.725834,-6.93209"
         class="st2" />
      <path
         style="fill:#ffffff;stroke-width:0.13914162"
         inkscape:connector-curvature="0"
         id="path136"
         d="m 61.410165,220.94551 c -1.217083,1.21708 -2.592917,2.16958 -4.153958,3.12208 L 55.45704,222.3478 c 1.984375,-0.44979 3.96875,-0.9525 5.953125,-1.40229"
         class="st4" />
    </g>
  </g>
</svg>
