<?xml version="1.0" encoding="UTF-8" standalone="no"?>
<!-- Created with Inkscape (http://www.inkscape.org/) -->

<svg
   xmlns:dc="http://purl.org/dc/elements/1.1/"
   xmlns:cc="http://creativecommons.org/ns#"
   xmlns:rdf="http://www.w3.org/1999/02/22-rdf-syntax-ns#"
   xmlns:svg="http://www.w3.org/2000/svg"
   xmlns="http://www.w3.org/2000/svg"
   xmlns:sodipodi="http://sodipodi.sourceforge.net/DTD/sodipodi-0.dtd"
   xmlns:inkscape="http://www.inkscape.org/namespaces/inkscape"
   width="500"
   height="500"
   viewBox="0 0 132.29166 132.29167"
   version="1.1"
   id="svg8"
   inkscape:version="0.92.4 (5da689c313, 2019-01-14)"
   sodipodi:docname="icon-template.svg">
  <defs
     id="defs2" />
  <sodipodi:namedview
     id="base"
     pagecolor="#ffffff"
     bordercolor="#a52828"
     borderopacity="1"
     inkscape:pageopacity="0.0"
     inkscape:pageshadow="2"
     inkscape:zoom="0.70710678"
     inkscape:cx="471.33864"
     inkscape:cy="122.10278"
     inkscape:document-units="px"
     inkscape:current-layer="layer1"
     showgrid="false"
     units="px"
     borderlayer="false"
     inkscape:pagecheckerboard="false"
     inkscape:window-width="1920"
     inkscape:window-height="1012"
     inkscape:window-x="-8"
     inkscape:window-y="-8"
     inkscape:window-maximized="1"
     showguides="true"
     inkscape:guide-bbox="true"
     inkscape:measure-start="249.821,63.0357"
     inkscape:measure-end="249.821,0">
    <sodipodi:guide
       position="9.5882942,66.182616"
       orientation="0,1"
       id="guide859"
       inkscape:locked="false" />
    <sodipodi:guide
       position="66.145833,14.717448"
       orientation="1,0"
       id="guide863"
       inkscape:locked="false" />
    <sodipodi:guide
       position="91.281245,132.29167"
       orientation="0,1"
       id="guide865"
       inkscape:locked="false" />
    <sodipodi:guide
       position="4.943e-007,86.758659"
       orientation="1,0"
       id="guide867"
       inkscape:locked="false" />
  </sodipodi:namedview>
  <metadata
     id="metadata5">
    <rdf:RDF>
      <cc:Work
         rdf:about="">
        <dc:format>image/svg+xml</dc:format>
        <dc:type
           rdf:resource="http://purl.org/dc/dcmitype/StillImage" />
        <dc:title></dc:title>
      </cc:Work>
    </rdf:RDF>
  </metadata>
  <g
     inkscape:label="Capa 1"
     inkscape:groupmode="layer"
     id="layer1"
     transform="translate(0,-164.70832)">
    <path
       style="opacity:1;fill:#ffffff;fill-opacity:1;fill-rule:nonzero;stroke:none;stroke-width:0.26458332;stroke-linecap:butt;stroke-linejoin:miter;stroke-miterlimit:1.41420996;stroke-dasharray:none;stroke-opacity:1;paint-order:markers stroke fill"
       d="M 0,164.70832 V 296.99998 H 132.29167 V 164.70832 Z"
       id="rect815"
       inkscape:connector-curvature="0" />
    <path
       style="clip-rule:evenodd;fill:#e34f43;fill-opacity:1;fill-rule:nonzero;stroke-width:0.26458332;stroke-linejoin:round;stroke-miterlimit:1.41420996"
       d="m 96.982748,238.71161 c -0.88739,0 -1.774783,0.0886 -2.662178,0.17758 L 81.542108,215.90572 c 2.839659,-3.37211 4.525704,-7.72034 4.525704,-12.42352 0,-10.73744 -8.696454,-19.4339 -19.433913,-19.4339 -10.737459,0 -19.433913,8.78519 -19.433913,19.4339 0,4.61445 1.597306,8.87395 4.348225,12.24603 l -13.3109,23.24972 c -0.976131,-0.17758 -1.952263,-0.26622 -2.928398,-0.26622 -10.737459,0 -19.433913,8.69647 -19.433913,19.4339 0,10.73747 8.696454,19.43394 19.433913,19.43394 10.73746,0 19.433913,-8.69647 19.433913,-19.43394 0,-4.61442 -1.597306,-8.87392 -4.348225,-12.24603 l 13.3109,-23.24969 c 0.976132,0.17759 1.952266,0.26622 2.928398,0.26622 0.887392,0 1.774788,-0.0886 2.66218,-0.17758 l 12.778464,22.9835 c -2.839658,3.37208 -4.525706,7.72031 -4.525706,12.42349 0,10.73747 8.696453,19.43393 19.433911,19.43393 10.737462,0 19.433922,-8.69646 19.433922,-19.43393 0,-10.73744 -8.69646,-19.4339 -19.433922,-19.4339 z M 66.633899,196.82665 c 3.638311,0 6.655448,3.01712 6.655448,6.65542 0,3.63833 -3.017137,6.65546 -6.655448,6.65546 -3.638312,0 -6.655452,-3.01713 -6.655452,-6.65546 0,-3.6383 3.01714,-6.65542 6.655452,-6.65542 z m -31.324986,67.97432 c -3.638311,0 -6.655448,-3.01713 -6.655448,-6.65546 0,-3.6383 3.017137,-6.65543 6.655448,-6.65543 3.638315,0 6.655452,3.01713 6.655452,6.65543 0,3.63833 -3.017137,6.65546 -6.655452,6.65546 z m 61.673835,0 c -3.63831,0 -6.655447,-3.01713 -6.655447,-6.65546 0,-3.6383 3.017137,-6.65543 6.655447,-6.65543 3.638312,0 6.655452,3.01713 6.655452,6.65543 0,3.63833 -2.92839,6.65546 -6.655452,6.65546 z"
       id="logo_mark"
       inkscape:connector-curvature="0"
       inkscape:export-xdpi="96"
       inkscape:export-ydpi="96" />
  </g>
</svg>
