<?xml version="1.0" encoding="UTF-8" standalone="no"?>
<!-- Created with Inkscape (http://www.inkscape.org/) -->

<svg
   xmlns:dc="http://purl.org/dc/elements/1.1/"
   xmlns:cc="http://creativecommons.org/ns#"
   xmlns:rdf="http://www.w3.org/1999/02/22-rdf-syntax-ns#"
   xmlns:svg="http://www.w3.org/2000/svg"
   xmlns="http://www.w3.org/2000/svg"
   xmlns:sodipodi="http://sodipodi.sourceforge.net/DTD/sodipodi-0.dtd"
   xmlns:inkscape="http://www.inkscape.org/namespaces/inkscape"
   width="500"
   height="500"
   viewBox="0 0 132.29166 132.29167"
   version="1.1"
   id="svg8"
   inkscape:version="0.92.3 (2405546, 2018-03-11)"
   sodipodi:docname="wordpress.svg">
  <defs
     id="defs2" />
  <sodipodi:namedview
     id="base"
     pagecolor="#ffffff"
     bordercolor="#a52828"
     borderopacity="1"
     inkscape:pageopacity="0.0"
     inkscape:pageshadow="2"
     inkscape:zoom="0.98994949"
     inkscape:cx="311.96785"
     inkscape:cy="272.36631"
     inkscape:document-units="px"
     inkscape:current-layer="layer1"
     showgrid="false"
     units="px"
     borderlayer="false"
     inkscape:pagecheckerboard="false"
     inkscape:window-width="1920"
     inkscape:window-height="1012"
     inkscape:window-x="-8"
     inkscape:window-y="-8"
     inkscape:window-maximized="1"
     showguides="true"
     inkscape:guide-bbox="true"
     inkscape:measure-start="249.821,63.0357"
     inkscape:measure-end="249.821,0">
    <sodipodi:guide
       position="9.5882942,66.182616"
       orientation="0,1"
       id="guide859"
       inkscape:locked="false" />
    <sodipodi:guide
       position="66.145833,14.717448"
       orientation="1,0"
       id="guide863"
       inkscape:locked="false" />
    <sodipodi:guide
       position="91.281245,132.29167"
       orientation="0,1"
       id="guide865"
       inkscape:locked="false" />
    <sodipodi:guide
       position="4.943e-007,86.758659"
       orientation="1,0"
       id="guide867"
       inkscape:locked="false" />
  </sodipodi:namedview>
  <metadata
     id="metadata5">
    <rdf:RDF>
      <cc:Work
         rdf:about="">
        <dc:format>image/svg+xml</dc:format>
        <dc:type
           rdf:resource="http://purl.org/dc/dcmitype/StillImage" />
        <dc:title></dc:title>
      </cc:Work>
    </rdf:RDF>
  </metadata>
  <g
     inkscape:label="Capa 1"
     inkscape:groupmode="layer"
     id="layer1"
     transform="translate(0,-164.70832)">
    <path
       style="opacity:1;fill:#ffffff;fill-opacity:1;fill-rule:nonzero;stroke:none;stroke-width:0.26458332;stroke-linecap:butt;stroke-linejoin:miter;stroke-miterlimit:1.41420996;stroke-dasharray:none;stroke-opacity:1;paint-order:markers stroke fill"
       d="M 0,164.70832 V 296.99998 H 132.29167 V 164.70832 Z"
       id="rect815"
       inkscape:connector-curvature="0" />
    <g
       transform="matrix(0.66222573,0,0,0.66222573,-111.48766,132.6154)"
       id="layer1-9"
       inkscape:label="Capa 1"
       style="stroke-width:0.42617223">
      <g
         transform="matrix(0.55888227,0,0,0.55888227,64.978598,-27.960983)"
         id="g4207"
         style="stroke-width:0.42617223">
        <path
           inkscape:connector-curvature="0"
           id="path4165"
           style="fill:#464646;fill-opacity:1;stroke-width:0.42617223"
           d="m 313.34094,325.33734 c -11.51963,-34.19434 -20.9415,-62.805 -20.9375,-63.57924 0.004,-0.80411 2.98241,-1.65443 6.94575,-1.98311 8.151,-0.67594 11.97531,-3.39953 9.2999,-6.6232 -1.46972,-1.7709 -4.13973,-1.90796 -22.08013,-1.13348 -11.22452,0.48456 -20.40824,0.47982 -20.40824,-0.0105 0,-2.14879 8.02079,-12.05405 16.45972,-20.3269 21.60327,-21.17815 50.43118,-32.8712 81.04028,-32.8712 13.84953,0 24.20212,1.74684 38.56614,6.50742 11.64244,3.85859 29.81916,14.09149 36.7774,20.70447 l 3.46854,3.29643 -5.5003,1.60382 c -6.99525,2.03971 -12.69598,7.85207 -14.42121,14.70359 -1.79759,7.13889 0.40251,14.32972 8.61743,28.16539 14.64038,24.65746 14.73144,34.43033 0.75005,80.48925 -5.19468,17.11283 -9.7271,31.39646 -10.07203,31.7414 -0.34494,0.34495 -0.911,-0.15646 -1.25793,-1.11424 -1.91299,-5.28145 -41.92809,-124.00116 -41.92809,-124.3953 0,-0.25911 2.39063,-0.52718 5.3125,-0.59571 8.639,-0.20262 11.5625,-1.44729 11.5625,-4.92269 v -3.05959 l -34.02848,-0.0617 c -26.70588,-0.0484 -34.16185,0.28587 -34.64827,1.55344 -1.27131,3.31297 0.86375,5.25704 6.59997,6.00959 3.20473,0.42043 6.61768,0.8693 7.58433,0.99748 1.07417,0.14244 5.33279,9.92796 10.95237,25.16644 l 9.1948,24.93339 -12.81225,38.50411 c -7.04673,21.17727 -13.10029,38.49693 -13.45235,38.48815 -0.35207,-0.009 -10.06527,-27.99316 -21.5849,-62.1875 z m 107.81978,90.62883 c 0,-0.17855 8.52512,-24.78792 18.9447,-54.6875 23.40642,-67.16599 24.97889,-72.80835 25.05769,-89.91198 0.0525,-11.39694 0.27808,-12.75104 1.78156,-10.69489 2.9394,4.01986 8.90045,20.78283 10.98077,30.87881 2.27207,11.02664 2.60982,33.255 0.67156,44.19813 -4.30665,24.31461 -17.37531,48.45811 -35.12506,64.89125 -9.52877,8.82194 -22.31122,17.60257 -22.31122,15.32618 z m -120,-1.94096 c -27.68287,-17.76211 -46.76268,-46.24431 -52.43627,-78.27647 -2.06235,-11.64368 -1.5699,-32.43251 1.07144,-45.23093 2.2588,-10.94486 6.9933,-24.01521 8.24548,-22.76302 0.53492,0.53491 55.61935,150.98344 55.61935,151.9095 0,1.52373 -4.50142,-0.50697 -12.5,-5.63908 z m 46.92084,17.08385 c -12.93206,-1.65734 -18.50799,-3.38668 -17.70092,-5.48982 0.37333,-0.97294 8.07337,-23.29798 17.11117,-49.6112 9.03779,-26.31323 16.89603,-48.68598 17.46274,-49.71723 0.80526,-1.46535 1.34399,-1.0557 2.4658,1.875 5.57212,14.55706 34.99037,95.88906 34.99037,96.73713 0,2.58601 -28.60241,7.85645 -40.59221,7.47974 -2.76802,-0.087 -8.94966,-0.66009 -13.73695,-1.27362 z m 37.44416,10.77354 c 65.15673,-11.36238 113.01738,-74.14006 105.75147,-138.7117 -3.64402,-32.38405 -15.33668,-56.30328 -38.80414,-79.38009 -24.57603,-24.16694 -54.49145,-36.44202 -88.81233,-36.44202 -23.70815,0 -45.84765,6.14465 -66.48307,18.45187 -12.84373,7.66015 -32.3419,26.50602 -40.39129,39.04002 -30.24642,47.0978 -28.27999,103.63876 5.15148,148.12031 28.4602,37.86715 76.93773,57.05672 123.58788,48.92161 z m -46.04591,7.49314 c -27.6592,-5.22554 -51.75891,-17.86645 -71.45866,-37.48187 -52.50256,-52.27783 -53.67668,-136.56011 -2.65085,-190.28882 19.49754,-20.53035 44.78757,-34.44511 71.97865,-39.60317 13.45209,-2.55181 39.17146,-2.55181 52.62355,0 49.38946,9.36903 90.18699,46.86527 104.19855,95.76693 18.54889,64.73738 -12.42298,132.47814 -73.69943,161.19325 -17.0126,7.97238 -31.72013,11.24198 -53.0609,11.79585 -12.57365,0.32634 -21.12837,-0.097 -27.93091,-1.38217 z" />
      </g>
    </g>
  </g>
</svg>
