<?xml version="1.0" encoding="UTF-8" standalone="no"?>
<!-- Created with Inkscape (http://www.inkscape.org/) -->

<svg
   xmlns:dc="http://purl.org/dc/elements/1.1/"
   xmlns:cc="http://creativecommons.org/ns#"
   xmlns:rdf="http://www.w3.org/1999/02/22-rdf-syntax-ns#"
   xmlns:svg="http://www.w3.org/2000/svg"
   xmlns="http://www.w3.org/2000/svg"
   xmlns:sodipodi="http://sodipodi.sourceforge.net/DTD/sodipodi-0.dtd"
   xmlns:inkscape="http://www.inkscape.org/namespaces/inkscape"
   width="500"
   height="500"
   viewBox="0 0 132.29166 132.29167"
   version="1.1"
   id="svg8"
   inkscape:version="0.92.3 (2405546, 2018-03-11)"
   sodipodi:docname="icon-template.svg">
  <defs
     id="defs2" />
  <sodipodi:namedview
     id="base"
     pagecolor="#ffffff"
     bordercolor="#a52828"
     borderopacity="1"
     inkscape:pageopacity="0.0"
     inkscape:pageshadow="2"
     inkscape:zoom="1.4"
     inkscape:cx="54.26385"
     inkscape:cy="192.2969"
     inkscape:document-units="px"
     inkscape:current-layer="layer1"
     showgrid="false"
     units="px"
     borderlayer="false"
     inkscape:pagecheckerboard="false"
     inkscape:window-width="1920"
     inkscape:window-height="1012"
     inkscape:window-x="-8"
     inkscape:window-y="-8"
     inkscape:window-maximized="1"
     showguides="true"
     inkscape:guide-bbox="true"
     inkscape:measure-start="249.821,63.0357"
     inkscape:measure-end="249.821,0">
    <sodipodi:guide
       position="9.5882942,66.182616"
       orientation="0,1"
       id="guide859"
       inkscape:locked="false" />
    <sodipodi:guide
       position="66.145833,14.717448"
       orientation="1,0"
       id="guide863"
       inkscape:locked="false" />
    <sodipodi:guide
       position="91.281245,132.29167"
       orientation="0,1"
       id="guide865"
       inkscape:locked="false" />
    <sodipodi:guide
       position="4.943e-007,86.758659"
       orientation="1,0"
       id="guide867"
       inkscape:locked="false" />
  </sodipodi:namedview>
  <metadata
     id="metadata5">
    <rdf:RDF>
      <cc:Work
         rdf:about="">
        <dc:format>image/svg+xml</dc:format>
        <dc:type
           rdf:resource="http://purl.org/dc/dcmitype/StillImage" />
        <dc:title></dc:title>
      </cc:Work>
    </rdf:RDF>
  </metadata>
  <g
     inkscape:label="Capa 1"
     inkscape:groupmode="layer"
     id="layer1"
     transform="translate(0,-164.70832)">
    <path
       style="opacity:1;fill:#ffffff;fill-opacity:1;fill-rule:nonzero;stroke:none;stroke-width:0.26458332;stroke-linecap:butt;stroke-linejoin:miter;stroke-miterlimit:1.41420996;stroke-dasharray:none;stroke-opacity:1;paint-order:markers stroke fill"
       d="M 0,164.70832 V 296.99998 H 132.29167 V 164.70832 Z"
       id="rect815"
       inkscape:connector-curvature="0" />
    <path
       style="clip-rule:evenodd;fill:#d84d26;fill-rule:evenodd;stroke-width:0.08348973;stroke-linejoin:round;stroke-miterlimit:1.41420996"
       d="M 59.996554,280.80896 C 40.547171,278.44579 24.157232,264.85364 18.154021,246.109 c -0.82028,-2.56132 -1.68559,-6.58124 -2.053965,-9.54204 -0.336845,-2.70732 -0.286934,-9.23788 0.09191,-12.02391 0.837804,-6.16171 2.251367,-10.81326 4.908047,-16.15071 3.928446,-7.89247 9.57001,-14.33244 16.868008,-19.25524 2.49879,-1.68554 3.115621,-2.0462 5.792925,-3.38712 5.119168,-2.56394 10.527755,-4.18726 16.419182,-4.92807 2.492194,-0.31339 9.439978,-0.31339 11.932149,0 16.998966,2.13751 31.520113,12.38198 39.080113,27.57043 3.63408,7.30107 5.21547,14.07929 5.2242,22.39214 0.004,4.32069 -0.18052,6.25518 -0.98389,10.27998 -4.18651,20.97664 -21.906527,37.23635 -43.319301,39.74936 -2.800477,0.32867 -9.393695,0.32603 -12.11682,-0.004 z m 11.448868,-2.20488 c 9.324791,-1.09077 17.688881,-4.57833 24.885871,-10.3766 9.151567,-7.37297 15.251037,-17.87225 17.280507,-29.74567 0.49949,-2.92222 0.68974,-9.48901 0.36264,-12.51695 -0.64355,-5.95743 -2.15559,-11.1501 -4.79323,-16.461 -7.20695,-14.51119 -20.812177,-24.19191 -37.068958,-26.37619 -3.084244,-0.41442 -8.847882,-0.41442 -11.932127,0 -16.378659,2.20064 -29.996288,11.95227 -37.185361,26.62847 -2.500636,5.10492 -4.08106,10.57839 -4.68017,16.20872 -0.323147,3.03682 -0.131044,9.60957 0.365978,12.51695 1.196395,6.99961 3.519352,12.97476 7.248637,18.64513 7.121155,10.82766 18.125044,18.2857 30.739063,20.83383 4.533515,0.91582 10.301198,1.16689 14.77715,0.64331 z m -10.98995,-4.96753 c -10.647146,-1.44601 -20.523989,-6.85066 -27.290928,-14.93372 -9.062632,-10.8252 -12.289948,-25.14068 -8.766375,-38.88506 1.466332,-5.71971 4.698155,-12.00777 8.492479,-16.52354 1.420049,-1.69005 4.509791,-4.7451 6.17878,-6.10941 5.836833,-4.77128 13.683612,-8.10291 21.661413,-9.1971 2.247277,-0.30822 8.583419,-0.30822 10.830696,0 7.977776,1.09419 15.824576,4.42582 21.661416,9.1971 1.66899,1.36431 4.75873,4.41936 6.17878,6.10941 2.800247,3.3327 5.743737,8.43874 7.303027,12.66855 2.90421,7.87807 3.37956,17.24788 1.29268,25.4806 -1.96327,7.74509 -6.3606,15.25036 -12.139447,20.71946 -6.65806,6.30116 -15.03882,10.28013 -24.175438,11.47783 -2.665211,0.34937 -8.640432,0.3472 -11.227083,-0.004 z m 30.708061,-17.8405 c 0.0726,-0.17678 0.12907,-1.97338 0.12533,-3.99267 -0.007,-3.7183 -0.20646,-5.39995 -0.94869,-7.98535 -0.77364,-2.69469 -2.27922,-5.42397 -4.06962,-7.37722 -2.60746,-2.8446 -7.09266,-5.03937 -11.050156,-5.40722 l -1.205761,-0.11213 -5.334335,5.25461 -5.334336,5.25461 -5.352827,-5.25609 -5.352827,-5.25606 -1.380428,0.12511 c -1.907947,0.17282 -4.528831,0.86733 -6.216927,1.64729 -5.312019,2.45431 -8.504573,7.24965 -9.668954,14.52311 -0.252722,1.5787 -0.327083,7.5667 -0.104219,8.39837 l 0.135221,0.50483 h 27.813325 c 26.316234,0 27.820404,-0.0176 27.945224,-0.32126 z m 9.533997,-7.71996 c 0.17238,-0.1095 0.18293,-0.75069 0.0468,-2.79665 -0.47128,-7.07472 -2.254507,-11.72292 -5.752887,-14.99548 -2.37484,-2.22153 -5.80447,-3.53176 -9.25768,-3.53668 -1.06742,-10e-4 -0.98076,-0.0646 -2.82776,2.06289 -0.80047,0.92206 -0.87298,1.0697 -0.57693,1.17461 2.48982,0.88215 4.32231,2.00357 6.0064,3.67568 1.48821,1.47759 2.52887,2.99106 3.59378,5.22651 1.06984,2.24582 1.70065,4.32806 2.14077,7.06651 0.17634,1.09719 0.40901,2.05559 0.51701,2.12976 0.26246,0.18029 5.825907,0.1737 6.110617,-0.007 z M 66.188262,230.86174 c 3.854833,-0.79625 7.237137,-3.1143 9.43204,-6.46422 1.633431,-2.49301 2.267171,-4.73474 2.268191,-8.0234 5.5e-4,-1.92747 -0.0785,-2.66176 -0.41145,-3.81812 -1.502724,-5.21954 -5.371167,-9.026 -10.596578,-10.42679 -2.042948,-0.54766 -5.29091,-0.55018 -7.320469,-0.007 -5.190407,1.39247 -9.141478,5.33429 -10.604029,10.57918 -0.53871,1.93185 -0.57655,5.25778 -0.08135,7.15928 1.232476,4.73369 4.662251,8.64307 9.03495,10.29836 2.662925,1.00808 5.592489,1.25627 8.278808,0.70137 z m 14.570401,-5.83864 c 1.85925,-0.75097 3.12701,-1.61145 4.76425,-3.23362 1.84588,-1.82888 2.8498,-3.42626 3.69186,-5.87428 0.56791,-1.65098 0.60021,-1.88581 0.60589,-4.4057 0.004,-2.24403 -0.0602,-2.89065 -0.41611,-4.11998 -1.52104,-5.25459 -5.653,-9.16545 -10.98549,-10.39768 -1.45285,-0.33572 -2.0871,-0.38524 -3.883922,-0.30327 -2.314579,0.10554 -3.810089,0.47477 -5.868736,1.44874 -1.223065,0.57864 -1.306991,0.77402 -0.409623,0.95348 1.039471,0.208 3.313088,1.25706 4.734852,2.18488 5.085439,3.31869 8.110779,8.91624 8.110779,15.00667 0,3.03025 -0.81705,6.27772 -2.16671,8.61189 l -0.46844,0.81013 0.59897,-0.11983 c 0.32944,-0.066 1.09104,-0.31856 1.69243,-0.56147 z"
       id="path4840"
       inkscape:connector-curvature="0"
       sodipodi:nodetypes="cccccccccsccscccsccsccccccccccsscccccsscccccccccccccccccccsccccccccccscccccccsccccccccccccccccsccccc" />
  </g>
</svg>
