<?xml version="1.0" encoding="UTF-8" standalone="no"?>
<!-- Created with Inkscape (http://www.inkscape.org/) -->

<svg
   xmlns:dc="http://purl.org/dc/elements/1.1/"
   xmlns:cc="http://creativecommons.org/ns#"
   xmlns:rdf="http://www.w3.org/1999/02/22-rdf-syntax-ns#"
   xmlns:svg="http://www.w3.org/2000/svg"
   xmlns="http://www.w3.org/2000/svg"
   xmlns:sodipodi="http://sodipodi.sourceforge.net/DTD/sodipodi-0.dtd"
   xmlns:inkscape="http://www.inkscape.org/namespaces/inkscape"
   width="500"
   height="500"
   viewBox="0 0 132.29166 132.29167"
   version="1.1"
   id="svg8"
   inkscape:version="0.92.4 (5da689c313, 2019-01-14)"
   sodipodi:docname="learndash.svg">
  <defs
     id="defs2" />
  <sodipodi:namedview
     id="base"
     pagecolor="#ffffff"
     bordercolor="#a52828"
     borderopacity="1"
     inkscape:pageopacity="0.0"
     inkscape:pageshadow="2"
     inkscape:zoom="0.98994949"
     inkscape:cx="8.7014159"
     inkscape:cy="327.05616"
     inkscape:document-units="px"
     inkscape:current-layer="layer1"
     showgrid="false"
     units="px"
     borderlayer="false"
     inkscape:pagecheckerboard="false"
     inkscape:window-width="1920"
     inkscape:window-height="1012"
     inkscape:window-x="-8"
     inkscape:window-y="-8"
     inkscape:window-maximized="1"
     showguides="true"
     inkscape:guide-bbox="true"
     inkscape:measure-start="249.821,63.0357"
     inkscape:measure-end="249.821,0">
    <sodipodi:guide
       position="9.5882942,66.182616"
       orientation="0,1"
       id="guide859"
       inkscape:locked="false" />
    <sodipodi:guide
       position="66.145833,14.717448"
       orientation="1,0"
       id="guide863"
       inkscape:locked="false" />
    <sodipodi:guide
       position="91.281245,132.29167"
       orientation="0,1"
       id="guide865"
       inkscape:locked="false" />
    <sodipodi:guide
       position="4.943e-007,86.758659"
       orientation="1,0"
       id="guide867"
       inkscape:locked="false" />
  </sodipodi:namedview>
  <metadata
     id="metadata5">
    <rdf:RDF>
      <cc:Work
         rdf:about="">
        <dc:format>image/svg+xml</dc:format>
        <dc:type
           rdf:resource="http://purl.org/dc/dcmitype/StillImage" />
        <dc:title></dc:title>
      </cc:Work>
    </rdf:RDF>
  </metadata>
  <g
     inkscape:label="Capa 1"
     inkscape:groupmode="layer"
     id="layer1"
     transform="translate(0,-164.70832)">
    <rect
       style="opacity:1;fill:#ffffff;fill-opacity:1;fill-rule:nonzero;stroke:none;stroke-width:0.26458332;stroke-linecap:butt;stroke-linejoin:miter;stroke-miterlimit:1.41420996;stroke-dasharray:none;stroke-opacity:1;paint-order:markers stroke fill"
       id="rect822"
       width="132.29167"
       height="132.29167"
       x="4.9429946e-07"
       y="164.70831" />
    <g
       id="g828"
       transform="matrix(0.76000003,0,0,0.76000003,25.520864,38.000437)"
       style="stroke-width:1.31578946" />
    <g
       transform="matrix(1.1529993,0,0,-1.1529993,96.519312,180.58331)"
       id="g866"
       style="stroke-width:0.30596527"
       inkscape:export-xdpi="497.85388"
       inkscape:export-ydpi="497.85388">
      <path
         inkscape:connector-curvature="0"
         id="path868"
         style="fill:#235af3;fill-opacity:1;fill-rule:nonzero;stroke:none;stroke-width:0.30596527"
         d="m 0,0 v 0 c -5.1,0 -9.2,-4.1 -9.2,-9.2 v -75.9 c 0,-0.9 0.8,-1.7 1.7,-1.7 9.2,0 16.7,7.5 16.7,16.7 V -9.2 C 9.2,-4.1 5.1,0 0,0" />
    </g>
    <g
       transform="matrix(1.1529993,0,0,-1.1529993,65.734002,206.0647)"
       id="g906"
       style="stroke-width:0.30596527">
      <path
         inkscape:connector-curvature="0"
         id="path908"
         style="fill:#ffb000;fill-opacity:1;fill-rule:nonzero;stroke:none;stroke-width:0.30596527"
         d="m 0,0 v 0 c -5.1,0 -9.2,-4.1 -9.2,-9.2 v -53.199 c 0,-0.901 0.8,-1.701 1.7,-1.701 9.2,0 16.7,7.5 16.7,16.701 V -9.2 C 9.2,-4.1 5.1,0 0,0"
         inkscape:export-xdpi="497.85388"
         inkscape:export-ydpi="497.85388" />
    </g>
    <g
       transform="matrix(1.1529993,0,0,-1.1529993,34.949265,236.04271)"
       id="g910"
       style="stroke-width:0.30596527"
       inkscape:export-xdpi="497.85388"
       inkscape:export-ydpi="497.85388">
      <path
         inkscape:connector-curvature="0"
         id="path912"
         style="fill:#0d9dff;fill-opacity:1;fill-rule:nonzero;stroke:none;stroke-width:0.30596527"
         d="m 0,0 v 0 c -5.1,0 -9.2,-4.1 -9.2,-9.2 v -28.199 c 0,-0.901 0.8,-1.701 1.7,-1.701 9.2,0 16.7,7.5 16.7,16.701 V -9.2 C 9.2,-4.1 5.1,0 0,0" />
    </g>
  </g>
</svg>
