<?xml version="1.0" encoding="UTF-8" standalone="no"?>
<!-- Created with Inkscape (http://www.inkscape.org/) -->

<svg
   xmlns:dc="http://purl.org/dc/elements/1.1/"
   xmlns:cc="http://creativecommons.org/ns#"
   xmlns:rdf="http://www.w3.org/1999/02/22-rdf-syntax-ns#"
   xmlns:svg="http://www.w3.org/2000/svg"
   xmlns="http://www.w3.org/2000/svg"
   xmlns:sodipodi="http://sodipodi.sourceforge.net/DTD/sodipodi-0.dtd"
   xmlns:inkscape="http://www.inkscape.org/namespaces/inkscape"
   width="500"
   height="500"
   viewBox="0 0 132.29166 132.29167"
   version="1.1"
   id="svg8"
   inkscape:version="0.92.4 (5da689c313, 2019-01-14)"
   sodipodi:docname="icon-template.svg">
  <defs
     id="defs2" />
  <sodipodi:namedview
     id="base"
     pagecolor="#ffffff"
     bordercolor="#a52828"
     borderopacity="1"
     inkscape:pageopacity="0.0"
     inkscape:pageshadow="2"
     inkscape:zoom="1.4"
     inkscape:cx="174.91414"
     inkscape:cy="241.92623"
     inkscape:document-units="px"
     inkscape:current-layer="g832"
     showgrid="false"
     units="px"
     borderlayer="false"
     inkscape:pagecheckerboard="false"
     inkscape:window-width="1920"
     inkscape:window-height="1002"
     inkscape:window-x="-8"
     inkscape:window-y="-8"
     inkscape:window-maximized="1"
     showguides="true"
     inkscape:guide-bbox="true"
     inkscape:measure-start="249.821,63.0357"
     inkscape:measure-end="249.821,0">
    <sodipodi:guide
       position="9.5882942,66.182616"
       orientation="0,1"
       id="guide859"
       inkscape:locked="false" />
    <sodipodi:guide
       position="66.145833,14.717448"
       orientation="1,0"
       id="guide863"
       inkscape:locked="false" />
    <sodipodi:guide
       position="91.281245,132.29167"
       orientation="0,1"
       id="guide865"
       inkscape:locked="false" />
    <sodipodi:guide
       position="4.943e-007,86.758659"
       orientation="1,0"
       id="guide867"
       inkscape:locked="false" />
  </sodipodi:namedview>
  <metadata
     id="metadata5">
    <rdf:RDF>
      <cc:Work
         rdf:about="">
        <dc:format>image/svg+xml</dc:format>
        <dc:type
           rdf:resource="http://purl.org/dc/dcmitype/StillImage" />
        <dc:title></dc:title>
      </cc:Work>
    </rdf:RDF>
  </metadata>
  <g
     inkscape:label="Capa 1"
     inkscape:groupmode="layer"
     id="layer1"
     transform="translate(0,-164.70832)">
    <path
       style="opacity:1;fill:#ffffff;fill-opacity:1;fill-rule:nonzero;stroke:none;stroke-width:0.26458332;stroke-linecap:butt;stroke-linejoin:miter;stroke-miterlimit:1.41420996;stroke-dasharray:none;stroke-opacity:1;paint-order:markers stroke fill"
       d="M 0,164.70832 V 296.99998 H 132.29167 V 164.70832 Z"
       id="rect815"
       inkscape:connector-curvature="0" />
    <g
       id="g832"
       transform="matrix(2.4727175,0,0,2.4727175,-29.259469,-416.90573)"
       style="stroke-width:0.40441337">
      <path
         style="fill:#f5d10e;stroke-width:0.10700104"
         inkscape:connector-curvature="0"
         d="m 42.726338,264.27398 c 6.714567,2.41874 11.016075,7.78202 9.547241,11.88334 -1.468834,4.10142 -7.973503,4.52204 -14.68807,1.99812 -6.714567,-2.52392 -11.225938,-6.62524 -9.757131,-10.83174 1.468825,-4.2065 8.183393,-5.46846 14.89796,-3.04972 z"
         id="path958" />
      <path
         inkscape:export-ydpi="96"
         inkscape:export-xdpi="96"
         style="fill:#000000;stroke-width:0.10700104"
         inkscape:connector-curvature="0"
         d="m 56.155106,280.45633 c -1.258935,-0.5258 -2.517962,-1.0516 -3.776898,-1.5774 0.314709,-2.41874 -0.209809,-5.04784 -1.783545,-6.94078 -0.524611,-0.63088 -1.259028,-1.26186 -2.09835,-1.47222 -0.734417,-0.21036 -1.468834,-0.21036 -2.203159,-0.10518 -1.04922,-1.89294 -2.832765,-3.6807 -4.826118,-4.62712 2.517962,-0.21036 5.035925,-1.05169 7.658792,-1.99812 0.83932,-0.31544 1.573737,-0.63098 2.413059,-1.0516 0.839321,-0.42071 8.498112,-4.52203 6.504667,-9.67496 -1.15403,-3.36521 -5.665346,-3.36521 -7.763695,-2.94456 -1.993352,0.42065 -4.091701,1.36707 -6.189957,3.04974 0,-0.31553 0,-0.52589 0.104904,-0.84133 0,-0.94643 0.209807,-9.67496 -5.140829,-10.51626 -3.357284,-0.52582 -5.665439,3.26004 -6.399856,5.36329 -0.944225,2.73423 -0.839321,5.9943 0.104903,9.88527 0.314803,1.26195 0.839321,2.73427 1.573739,4.10132 -0.314711,-0.10509 -0.734418,-0.10509 -1.154032,-0.10509 -0.734418,0 -1.363931,0.21026 -1.993353,0.42062 -0.419706,-1.57749 -1.888541,-2.73427 -3.567155,-3.26007 -1.363894,-0.42063 -2.832711,-0.21027 -3.98677,0.5258 -1.049156,0.84133 -1.678642,1.99811 -2.308137,3.26007 v 0.10518 c 0,0.10518 0,0.10518 -0.104913,0.21027 0.314748,-1.05161 0.734408,-1.89285 1.258982,-2.73419 0.41966,-0.63098 -0.629496,-1.26196 -1.049156,-0.63098 -1.468808,2.41874 -2.203213,5.36328 -0.839317,7.99238 0.629491,1.26196 1.78356,2.31356 3.147454,2.83936 1.258981,0.42062 2.727788,0.21036 3.98677,-0.42062 2.098311,-1.0516 3.252343,-3.1549 3.672049,-5.36328 0.734418,-0.42071 1.468835,-0.63098 2.308155,-0.63098 0.314712,0 0.419615,0 0.734326,0.10518 0.104996,0 0.209899,0.10509 0.314803,0.10509 0.839321,0.52589 1.363839,0.94651 1.888449,1.78776 -2.622866,0.84133 -4.826118,3.04971 -6.085054,5.46845 -1.154123,2.41874 -1.67866,6.41498 1.154032,7.99238 2.413059,1.26196 4.616311,-1.47222 5.665439,-3.25998 1.468834,-2.41874 2.308155,-5.36338 1.993353,-8.20274 1.259027,0.21036 2.622866,1.15678 3.567182,2.1033 0.524519,0.42062 0.944225,0.94642 1.258936,1.47222 -1.363931,0.5258 -2.622867,1.36714 -3.462187,2.52392 -1.154032,1.5774 -1.678642,3.78588 -1.468835,5.78399 0.314803,1.89285 1.678642,3.36517 3.672086,2.83937 1.993353,-0.52581 3.462186,-2.73428 4.196604,-4.52204 0.629422,-1.5774 0.629422,-3.47034 0.104904,-5.04774 0.314711,0 0.629423,0.10508 0.944224,0.21026 l 0.209809,0.10518 c 0.104902,0.10518 0.314709,0.21036 0.419706,0.31554 0.314711,0.21026 0.524518,0.5258 0.734325,0.84124 0.419706,0.63098 0.629515,1.15678 0.839322,1.89294 0.314801,1.0516 0.314801,2.20838 0.209899,3.26008 v 0.10517 0.10509 0.10518 c -0.104905,0.5258 0.209806,1.0516 0.734417,1.26196 1.468742,0.63098 2.937576,1.15678 4.40641,1.68258 0.734418,0.21036 1.468745,-1.47222 0.419616,-1.89294 z M 34.647565,263.42007 c 0.104904,0.10509 0.104904,0.10509 0,0 z m 1.678642,8.83362 c -0.314803,0.94642 -0.944225,2.1032 -1.573738,3.04972 -0.104904,0.10518 -0.104904,0.21036 -0.314803,0.42062 -0.209807,0.21036 -0.314711,0.31554 -0.524518,0.5258 -0.104904,0.10518 -0.104904,0.10518 -0.209808,0.21036 0,0 -0.104995,0 -0.104995,0.10518 -0.104903,0 -0.104903,0.10517 -0.209807,0.10517 0,0 -0.104904,0 -0.209807,0.10518 l -0.314711,0.10509 h -0.104996 l -0.104903,-0.10509 c 0,0 -0.209808,-0.10518 -0.209808,-0.21035 0,0 -0.31471,-0.31554 -0.209807,-0.21036 -0.314802,-0.42062 -0.419706,-0.63098 -0.52461,-1.15678 0,-0.21036 0,0 0,-0.21036 0,-0.10508 0,-0.21026 0,-0.42062 0,-0.10518 0,-0.31544 0,-0.42062 v -0.31554 c 0.314803,-2.31356 1.993444,-4.62712 3.986797,-5.88908 0.419615,-0.31544 0.944225,-0.5258 1.363931,-0.63098 v 1.36714 c -0.104995,1.15678 -0.314802,2.41874 -0.734417,3.57552 z m 3.042481,-8.72853 -0.104904,-0.10509 -0.209807,-0.21036 c -1.993353,-1.26196 -3.25238,-3.36525 -4.091701,-6.83559 -0.944224,-3.47035 -0.944224,-6.30973 -0.209807,-8.62331 0.524518,-1.78777 2.20316,-4.20651 3.986797,-3.99618 2.72777,0.42065 3.462187,5.15297 3.357283,8.30781 0,0.73616 -0.104995,1.57749 -0.209899,2.31365 -0.104903,0.42062 -0.104903,0.73607 -0.209807,1.15678 l -0.839321,3.57552 2.622867,-2.52392 c 2.517962,-2.52391 4.931022,-3.99623 7.34408,-4.41685 1.888448,-0.31545 4.826119,-0.10518 5.455539,1.57749 0.944227,2.52383 -2.727769,5.57355 -5.560443,7.04586 -0.734417,0.31545 -1.36393,0.63098 -2.098347,0.94643 -3.357284,1.05169 -6.294861,1.99811 -9.23253,1.78776 z m 5.140829,14.09181 c -0.419615,0.63098 -0.839321,1.26196 -1.468743,1.78776 -0.209899,0.21036 -0.52461,0.31553 -0.734417,0.42062 -0.209808,0 -0.314803,0 -0.419707,0 0,0 -0.209807,-0.10509 -0.104903,-0.10509 0,0 -0.104904,-0.21035 -0.209808,-0.31553 0,-0.10518 -0.209807,-0.5258 -0.209807,-0.73616 -0.104904,-0.73607 0,-1.47222 0.209807,-2.20838 0.419615,-1.5774 1.363931,-2.73419 2.832674,-3.47034 0.209899,-0.10518 0.419706,-0.21036 0.629514,-0.31554 0.52461,1.5775 0.419706,3.36526 -0.52461,4.94266 z"
         id="path962" />
    </g>
  </g>
</svg>
