<?xml version="1.0" encoding="UTF-8" standalone="no"?>
<!-- Created with Inkscape (http://www.inkscape.org/) -->

<svg
   xmlns:dc="http://purl.org/dc/elements/1.1/"
   xmlns:cc="http://creativecommons.org/ns#"
   xmlns:rdf="http://www.w3.org/1999/02/22-rdf-syntax-ns#"
   xmlns:svg="http://www.w3.org/2000/svg"
   xmlns="http://www.w3.org/2000/svg"
   xmlns:sodipodi="http://sodipodi.sourceforge.net/DTD/sodipodi-0.dtd"
   xmlns:inkscape="http://www.inkscape.org/namespaces/inkscape"
   width="500"
   height="500"
   viewBox="0 0 132.29166 132.29167"
   version="1.1"
   id="svg8"
   inkscape:version="0.92.4 (5da689c313, 2019-01-14)"
   sodipodi:docname="icon-template.svg">
  <defs
     id="defs2">
    <style
       id="style822">.cls-1{fill:#e0623d;}.cls-2{fill:#fff;}</style>
  </defs>
  <sodipodi:namedview
     id="base"
     pagecolor="#ffffff"
     bordercolor="#a52828"
     borderopacity="1"
     inkscape:pageopacity="0.0"
     inkscape:pageshadow="2"
     inkscape:zoom="1.4"
     inkscape:cx="243.79799"
     inkscape:cy="240.72915"
     inkscape:document-units="px"
     inkscape:current-layer="layer1"
     showgrid="false"
     units="px"
     borderlayer="false"
     inkscape:pagecheckerboard="false"
     inkscape:window-width="1920"
     inkscape:window-height="1012"
     inkscape:window-x="-8"
     inkscape:window-y="-8"
     inkscape:window-maximized="1"
     showguides="true"
     inkscape:guide-bbox="true"
     inkscape:measure-start="249.821,63.0357"
     inkscape:measure-end="249.821,0">
    <sodipodi:guide
       position="9.5882942,66.182616"
       orientation="0,1"
       id="guide859"
       inkscape:locked="false" />
    <sodipodi:guide
       position="66.145833,14.717448"
       orientation="1,0"
       id="guide863"
       inkscape:locked="false" />
    <sodipodi:guide
       position="91.281245,132.29167"
       orientation="0,1"
       id="guide865"
       inkscape:locked="false" />
    <sodipodi:guide
       position="4.943e-007,86.758659"
       orientation="1,0"
       id="guide867"
       inkscape:locked="false" />
  </sodipodi:namedview>
  <metadata
     id="metadata5">
    <rdf:RDF>
      <cc:Work
         rdf:about="">
        <dc:format>image/svg+xml</dc:format>
        <dc:type
           rdf:resource="http://purl.org/dc/dcmitype/StillImage" />
        <dc:title></dc:title>
      </cc:Work>
    </rdf:RDF>
  </metadata>
  <g
     inkscape:label="Capa 1"
     inkscape:groupmode="layer"
     id="layer1"
     transform="translate(0,-164.70832)">
    <path
       style="opacity:1;fill:#ffffff;fill-opacity:1;fill-rule:nonzero;stroke:none;stroke-width:0.26458332;stroke-linecap:butt;stroke-linejoin:miter;stroke-miterlimit:1.41420996;stroke-dasharray:none;stroke-opacity:1;paint-order:markers stroke fill"
       d="M 0,164.70832 V 296.99998 H 132.29167 V 164.70832 Z"
       id="rect815"
       inkscape:connector-curvature="0" />
    <g
       id="g840"
       transform="matrix(0.05442569,0,0,0.05442569,13.878666,178.60495)"
       style="stroke-width:4.86136866">
      <path
         id="path828"
         d="m 1884,960 c 0,510.14 -413.53,923.67 -923.67,923.67 C 450.19,1883.67 36.68,1470.14 36.68,960 36.68,449.86 450.19,36.33 960.33,36.33 1470.47,36.33 1884,449.88 1884,960 Z"
         class="cls-1"
         inkscape:connector-curvature="0"
         style="fill:#e0623d;stroke-width:4.86136866" />
      <path
         id="path830"
         d="m 1164.74,626.3 a 409.58,409.58 0 0 0 -153.49,29.92 l 6.93,-37.51 c 0,0 46.64,-201.55 -144.56,-213.71 -15.25,0.08 -20,7.93 -22,18.51 l -37.43,203 a 409.62,409.62 0 0 0 -148,29.65 l 6.91,-37.51 c 0,0 46.64,-201.49 -144.54,-213.65 -15.18,0.06 -20,7.84 -21.94,18.32 l -102.34,555 a 441.07,441.07 0 0 0 -7.72,76.24 c -2.95,236.13 182,428.24 412.37,428.24 230.37,0 420.16,-192.11 423.13,-428.24 0.79,-63.7 -14.69,-106.73 -42.15,-131.84 -36.89,-33.7 -101.59,-27 -132.69,14.65 -28.76,38.49 -24.39,97.41 -24.65,117.19 a 228.46,228.46 0 0 1 -47.43,136.52 223.5,223.5 0 0 1 -44,-136.52 c 1.54,-123.39 100.72,-223.76 221.05,-223.76 120.33,0 217,100.37 215.5,223.76 a 228.35,228.35 0 0 1 -106,190.23 c -4.32,2.72 -15.53,9.43 -24.36,19.08 -7.57,8.29 -13,19.52 -15.4,24 a 498.85,498.85 0 0 1 -151.87,170.49 c -3.57,2.49 -9.92,7.32 -7.93,12.24 1.84,4.53 12.06,6.18 16.53,6.9 a 401.11,401.11 0 0 0 65.37,5.35 c 230.33,0 420.15,-192.11 423.09,-428.24 C 1580.06,818.48 1395.11,626.3 1164.74,626.3 Z M 596,1054.56 c 1.35,-108.92 78.84,-199.78 179.76,-219.62 l -26.41,143.38 a 443,443 0 0 0 -7.71,76.24 c -1,81.73 20.52,158.13 58.63,223.15 C 685.22,1271.65 594.53,1174 596,1054.56 Z"
         class="cls-2"
         inkscape:connector-curvature="0"
         style="fill:#ffffff;stroke-width:4.86136866" />
    </g>
  </g>
</svg>
