<?xml version="1.0" encoding="UTF-8" standalone="no"?>
<!-- Created with Inkscape (http://www.inkscape.org/) -->

<svg
   xmlns:dc="http://purl.org/dc/elements/1.1/"
   xmlns:cc="http://creativecommons.org/ns#"
   xmlns:rdf="http://www.w3.org/1999/02/22-rdf-syntax-ns#"
   xmlns:svg="http://www.w3.org/2000/svg"
   xmlns="http://www.w3.org/2000/svg"
   xmlns:sodipodi="http://sodipodi.sourceforge.net/DTD/sodipodi-0.dtd"
   xmlns:inkscape="http://www.inkscape.org/namespaces/inkscape"
   width="500"
   height="500"
   viewBox="0 0 132.29166 132.29167"
   version="1.1"
   id="svg8"
   inkscape:version="0.92.3 (2405546, 2018-03-11)"
   sodipodi:docname="memberpress.svg">
  <defs
     id="defs2" />
  <sodipodi:namedview
     id="base"
     pagecolor="#ffffff"
     bordercolor="#a52828"
     borderopacity="1"
     inkscape:pageopacity="0.0"
     inkscape:pageshadow="2"
     inkscape:zoom="0.98994949"
     inkscape:cx="-77.873205"
     inkscape:cy="206.95288"
     inkscape:document-units="px"
     inkscape:current-layer="layer1"
     showgrid="false"
     units="px"
     borderlayer="false"
     inkscape:pagecheckerboard="false"
     inkscape:window-width="1920"
     inkscape:window-height="1012"
     inkscape:window-x="-8"
     inkscape:window-y="-8"
     inkscape:window-maximized="1"
     showguides="true"
     inkscape:guide-bbox="true"
     inkscape:measure-start="249.821,63.0357"
     inkscape:measure-end="249.821,0">
    <sodipodi:guide
       position="9.5882942,66.182616"
       orientation="0,1"
       id="guide859"
       inkscape:locked="false" />
    <sodipodi:guide
       position="66.145833,14.717448"
       orientation="1,0"
       id="guide863"
       inkscape:locked="false" />
    <sodipodi:guide
       position="91.281245,132.29167"
       orientation="0,1"
       id="guide865"
       inkscape:locked="false" />
    <sodipodi:guide
       position="4.943e-007,86.758659"
       orientation="1,0"
       id="guide867"
       inkscape:locked="false" />
  </sodipodi:namedview>
  <metadata
     id="metadata5">
    <rdf:RDF>
      <cc:Work
         rdf:about="">
        <dc:format>image/svg+xml</dc:format>
        <dc:type
           rdf:resource="http://purl.org/dc/dcmitype/StillImage" />
        <dc:title></dc:title>
      </cc:Work>
    </rdf:RDF>
  </metadata>
  <g
     inkscape:label="Capa 1"
     inkscape:groupmode="layer"
     id="layer1"
     transform="translate(0,-164.70832)">
    <path
       style="opacity:1;fill:#ffffff;fill-opacity:1;fill-rule:nonzero;stroke:none;stroke-width:0.26458332;stroke-linecap:butt;stroke-linejoin:miter;stroke-miterlimit:1.41420996;stroke-dasharray:none;stroke-opacity:1;paint-order:markers stroke fill"
       d="M 0,164.70832 V 296.99998 H 132.29167 V 164.70832 Z"
       id="rect815"
       inkscape:connector-curvature="0" />
    <g
       id="g897"
       transform="matrix(0.26458333,0,0,0.26458333,-128.49868,211.24696)">
      <g
         id="g840"
         transform="matrix(5.2631578,0,0,5.2631578,541.9801,-31.446702)"
         style="stroke-width:0.19">
	<g
   id="g830"
   style="stroke-width:0.19">
		<path
   id="path820"
   d="m 48,17.5 c 0,-4.1 3.3,-7.4 7.4,-7.4 4.1,0 7.4,3.3 7.4,7.4 V 35 c 0,2.8 2.3,5 5,5 2.8,0 5,-2.3 5,-5 V 17.5 C 72.9,7.8 65.1,0 55.4,0 50.6,0 46.2,2 43,5.2 c 3.1,3.2 5,7.5 5,12.3 z"
   class="st0"
   inkscape:connector-curvature="0"
   style="fill:#20d1cc;stroke-width:0.19" />

		<path
   id="path822"
   d="M 38,17.5 C 38,12.7 39.9,8.4 43,5.2 39.8,2 35.4,0 30.6,0 25.7,0 21.3,2 18.2,5.2 c 3.1,3.1 5,7.5 5,12.2 0,-4.1 3.3,-7.4 7.4,-7.4 4.1,0.1 7.4,3.4 7.4,7.5 z"
   class="st1"
   inkscape:connector-curvature="0"
   style="fill:#05d0e0;stroke-width:0.19" />

		<path
   id="path824"
   d="M 48,35 V 17.5 C 48,12.7 46.1,8.4 43,5.2 39.9,8.4 38,12.7 38,17.5 V 35 c 0,1.4 0.6,2.6 1.5,3.6 0.9,0.9 2.2,1.5 3.6,1.5 C 45.8,40 48,37.7 48,35 Z"
   class="st2"
   inkscape:connector-curvature="0"
   style="fill:#01a9b2;stroke-width:0.19" />

		<path
   id="path826"
   d="m 5.7,0 c -2.8,0 -5,2.3 -5,5 0,2.8 2.3,5 5,5 4.1,0 7.4,3.3 7.4,7.4 0,-4.8 1.9,-9.1 5,-12.2 C 15,2 10.6,0 5.7,0 Z"
   class="st3"
   inkscape:connector-curvature="0"
   style="fill:#0282c9;stroke-width:0.19" />

		<path
   id="path828"
   d="m 13.1,17.4 c 0,0 0,0 0,0 v 17.5 c 0,2.8 2.3,5 5,5 0.9,0 1.7,-0.2 2.4,-0.6 1.6,-0.9 2.6,-2.5 2.6,-4.4 V 17.5 c 0,0 0,0 0,0 0,-4.8 -1.9,-9.1 -5,-12.2 -3.1,3.1 -5,7.4 -5,12.1 z"
   class="st4"
   inkscape:connector-curvature="0"
   style="fill:#016bb1;stroke-width:0.19" />

	</g>

	<circle
   id="circle832"
   r="5"
   cy="5"
   cx="5.6999998"
   class="st5"
   style="fill:#06429e;stroke-width:0.19" />

	<circle
   id="circle834"
   r="5"
   cy="35"
   cx="18.1"
   class="st6"
   style="fill:#01569a;stroke-width:0.19" />

	<circle
   id="circle836"
   r="5"
   cy="35"
   cx="43"
   class="st7"
   style="fill:#008c9d;stroke-width:0.19" />

	<circle
   id="circle838"
   r="5"
   cy="35"
   cx="67.900002"
   class="st8"
   style="fill:#03aba3;stroke-width:0.19" />

</g>
    </g>
  </g>
  <style
     id="style818"
     type="text/css">
	.st0{fill:#20D1CC;}
	.st1{fill:#05D0E0;}
	.st2{fill:#01A9B2;}
	.st3{fill:#0282C9;}
	.st4{fill:#016BB1;}
	.st5{fill:#06429E;}
	.st6{fill:#01569A;}
	.st7{fill:#008C9D;}
	.st8{fill:#03ABA3;}
</style>
</svg>
