<?xml version="1.0" encoding="UTF-8" standalone="no"?>
<!-- Created with Inkscape (http://www.inkscape.org/) -->

<svg
   xmlns:dc="http://purl.org/dc/elements/1.1/"
   xmlns:cc="http://creativecommons.org/ns#"
   xmlns:rdf="http://www.w3.org/1999/02/22-rdf-syntax-ns#"
   xmlns:svg="http://www.w3.org/2000/svg"
   xmlns="http://www.w3.org/2000/svg"
   xmlns:sodipodi="http://sodipodi.sourceforge.net/DTD/sodipodi-0.dtd"
   xmlns:inkscape="http://www.inkscape.org/namespaces/inkscape"
   width="500"
   height="500"
   viewBox="0 0 132.29166 132.29167"
   version="1.1"
   id="svg8"
   inkscape:version="0.92.3 (2405546, 2018-03-11)"
   sodipodi:docname="bbpres.svg">
  <defs
     id="defs2" />
  <sodipodi:namedview
     id="base"
     pagecolor="#ffffff"
     bordercolor="#a52828"
     borderopacity="1"
     inkscape:pageopacity="0.0"
     inkscape:pageshadow="2"
     inkscape:zoom="1.4"
     inkscape:cx="157.37627"
     inkscape:cy="157.65194"
     inkscape:document-units="px"
     inkscape:current-layer="layer1"
     showgrid="false"
     units="px"
     borderlayer="false"
     inkscape:pagecheckerboard="false"
     inkscape:window-width="1920"
     inkscape:window-height="1012"
     inkscape:window-x="-8"
     inkscape:window-y="-8"
     inkscape:window-maximized="1"
     showguides="true"
     inkscape:guide-bbox="true"
     inkscape:measure-start="249.821,63.0357"
     inkscape:measure-end="249.821,0">
    <sodipodi:guide
       position="9.5882942,66.182616"
       orientation="0,1"
       id="guide859"
       inkscape:locked="false" />
    <sodipodi:guide
       position="66.145833,14.717448"
       orientation="1,0"
       id="guide863"
       inkscape:locked="false" />
    <sodipodi:guide
       position="91.281245,132.29167"
       orientation="0,1"
       id="guide865"
       inkscape:locked="false" />
    <sodipodi:guide
       position="4.943e-007,86.758659"
       orientation="1,0"
       id="guide867"
       inkscape:locked="false" />
  </sodipodi:namedview>
  <metadata
     id="metadata5">
    <rdf:RDF>
      <cc:Work
         rdf:about="">
        <dc:format>image/svg+xml</dc:format>
        <dc:type
           rdf:resource="http://purl.org/dc/dcmitype/StillImage" />
        <dc:title></dc:title>
      </cc:Work>
    </rdf:RDF>
  </metadata>
  <g
     inkscape:label="Capa 1"
     inkscape:groupmode="layer"
     id="layer1"
     transform="translate(0,-164.70832)">
    <path
       style="opacity:1;fill:#ffffff;fill-opacity:1;fill-rule:nonzero;stroke:none;stroke-width:0.26458332;stroke-linecap:butt;stroke-linejoin:miter;stroke-miterlimit:1.41420996;stroke-dasharray:none;stroke-opacity:1;paint-order:markers stroke fill"
       d="M 0,164.70832 V 296.99998 H 132.29167 V 164.70832 Z"
       id="rect815"
       inkscape:connector-curvature="0" />
    <g
       id="g838">
      <circle
         r="50.270832"
         cy="230.85416"
         cx="66.145828"
         id="path4488"
         style="clip-rule:evenodd;opacity:1;fill:#ffffff;fill-opacity:1;fill-rule:evenodd;stroke:none;stroke-width:0.26142856;stroke-linejoin:round;stroke-miterlimit:1.41420996;paint-order:normal" />
      <path
         sodipodi:nodetypes="cccscscsccssccccccccccccsccccccccccccssscccccccccccccccscccccccscsccccccccccccccccccccccccscccc"
         inkscape:connector-curvature="0"
         id="path4821"
         d="m 60.749192,280.85429 c -10.687818,-1.11612 -21.387299,-6.1178 -29.505848,-13.79308 -0.742416,-0.70189 -2.293207,-2.39903 -3.446172,-3.77142 -12.902205,-15.35749 -15.55962,-36.4103 -6.859326,-54.34131 4.963037,-10.22864 13.071256,-18.33684 23.299903,-23.2999 21.736717,-10.54686 47.542248,-4.22543 62.293141,15.25961 2.88075,3.80529 5.82875,9.49523 7.39776,14.27846 6.27031,19.11539 0.48773,40.20493 -14.656473,53.45331 -10.52902,9.21094 -24.59035,13.66929 -38.522985,12.21433 z m 10.006013,-2.19274 c 8.031232,-0.81948 15.327562,-3.43775 22.130392,-7.94148 4.46239,-2.95428 10.167573,-8.6582 13.116793,-13.11393 10.97867,-16.58677 10.97867,-36.9228 0,-53.50955 -2.94922,-4.45573 -8.654403,-10.15966 -13.116793,-13.11395 -7.10007,-4.70051 -14.47679,-7.26314 -23.044465,-8.00553 -6.154466,-0.5333 -13.100451,0.33302 -19.239953,2.39966 -3.291912,1.10811 -9.068596,4.06784 -12.047082,6.17246 -3.392551,2.39716 -9.318436,8.32307 -11.715622,11.7156 -2.104595,2.97849 -5.064333,8.75517 -6.172443,12.04708 -5.211681,15.48271 -2.327133,32.29644 7.75353,45.19451 2.33138,2.98299 6.925884,7.34899 10.14558,9.64104 9.115091,6.48886 21.064103,9.64929 32.190063,8.51409 z m -10.575497,-5.09613 c -3.142613,-0.45352 -5.259064,-0.98392 -8.523268,-2.13601 -2.403654,-0.84835 -6.96485,-3.03692 -8.481386,-4.06953 l -0.785436,-0.53481 1.607308,-0.20081 c 4.914649,-0.61405 10.158556,-3.23719 14.010123,-7.0082 l 1.847475,-1.80886 0.755912,1.49366 c 1.594237,3.15016 5.402706,5.97767 9.451727,7.01722 2.171674,0.55755 7.133414,0.56817 9.457364,0.0203 6.44038,-1.51849 12.41527,-5.65865 16.0029,-11.08883 2.48566,-3.7623 3.64255,-7.19484 3.92461,-11.64456 0.47215,-7.44868 -3.3687,-13.14272 -9.90446,-14.6833 -2.28889,-0.53953 -5.51522,-0.5405 -7.60968,-0.002 -1.96439,0.5048 -5.17901,1.98163 -6.91861,3.17851 -0.68707,0.47272 -1.24926,0.71133 -1.24926,0.53021 0,-0.18112 1.43479,-6.96661 3.1884,-15.07884 1.75361,-8.11224 3.18839,-15.14784 3.18839,-15.63468 0,-0.49701 -0.16779,-0.94954 -0.38278,-1.03203 -0.21053,-0.0807 -1.42696,0.0512 -2.7032,0.29342 -1.27623,0.24217 -4.7594,0.74315 -7.740376,1.11328 -2.980997,0.37012 -5.620782,0.75003 -5.86622,0.8442 -0.245438,0.0942 -0.592268,0.52376 -0.770723,0.9546 -0.262198,0.63301 -0.242599,0.94173 0.102145,1.60835 0.468362,0.90572 1.098765,1.1632 2.861725,1.16894 1.568265,0.006 2.557181,0.49782 2.746063,1.36826 0.08535,0.39319 0.199154,0.86041 0.252968,1.03823 0.198034,0.65437 -0.48433,4.30355 -2.68269,14.3466 -1.237945,5.6555 -2.282355,10.32097 -2.320877,10.36772 -0.03842,0.0467 -0.710961,-0.59268 -1.494273,-1.42092 -4.930675,-5.21348 -13.779321,-5.40363 -20.977965,-0.45083 l -1.311802,0.90252 0.165865,-0.80551 c 0.09114,-0.44305 1.607096,-7.45874 3.368684,-15.59042 3.231957,-14.9191 3.366967,-15.85155 2.295292,-15.85142 -0.185174,4e-5 -1.272547,0.17803 -2.416205,0.39539 -2.949793,0.56084 -8.806977,1.33598 -9.173019,1.21397 -0.508274,-0.16934 4.982635,-5.22599 7.655555,-7.04999 4.826406,-3.29351 11.082786,-5.88777 16.766303,-6.95226 3.988662,-0.74707 12.193465,-0.67087 16.01101,0.14868 15.41793,3.30989 27.664143,14.04363 32.474143,28.46341 1.6818,5.04182 2.09003,7.74951 2.09003,13.86256 0,4.72305 -0.0933,5.97657 -0.62884,8.45617 -3.7559,17.38744 -16.524013,30.16989 -33.793313,33.83132 -3.542991,0.75118 -10.766544,0.96383 -14.489531,0.42658 z M 39.581862,262.44888 c -2.711326,-0.9951 -4.097584,-2.95317 -4.283434,-6.05037 -0.09732,-1.62241 0.133619,-3.17857 1.276216,-8.60147 1.595221,-7.57052 2.149122,-8.96977 4.473435,-11.30067 4.371136,-4.38355 10.946232,-5.05001 14.130669,-1.43229 1.650851,1.87547 2.089554,3.47004 2.04466,7.43184 -0.104848,9.24794 -5.05238,17.86678 -11.377829,19.82052 -2.080246,0.64253 -4.721711,0.69837 -6.263717,0.13246 z m 34.181375,0.18208 c -2.101257,-0.68769 -3.257158,-1.70514 -4.133675,-3.63851 -0.913513,-2.015 -0.761319,-4.25848 0.784123,-11.55939 1.575488,-7.44275 2.198552,-8.91866 4.770292,-11.29962 5.25725,-4.86729 12.68415,-4.50096 14.93737,0.73679 2.2446,5.21771 0.23711,15.28756 -4.13327,20.73317 -2.72994,3.40156 -5.69184,5.05043 -9.29932,5.17684 -1.22682,0.0431 -2.5433,-0.0241 -2.92552,-0.14926 z M 26.265342,247.26693 c -0.877927,-2.06843 -2.139101,-6.35436 -2.609432,-8.8678 -0.660834,-3.53141 -0.650793,-11.52949 0.01931,-15.17219 0.888044,-4.82936 3.55131,-11.69764 5.929225,-15.29093 0.685763,-1.03624 0.752785,-1.0669 2.332713,-1.0669 2.641987,0 3.318365,1.19772 2.739981,4.85189 -0.258491,1.63309 -7.598131,35.4914 -7.873266,36.31995 -0.05059,0.15254 -0.292861,-0.19581 -0.53828,-0.77402 z"
         style="clip-rule:evenodd;fill:#454341;fill-rule:evenodd;stroke-width:0.14358594;stroke-linejoin:round;stroke-miterlimit:1.41420996" />
    </g>
  </g>
</svg>
