<?xml version="1.0" encoding="UTF-8" standalone="no"?>
<!-- Created with Inkscape (http://www.inkscape.org/) -->

<svg
   xmlns:dc="http://purl.org/dc/elements/1.1/"
   xmlns:cc="http://creativecommons.org/ns#"
   xmlns:rdf="http://www.w3.org/1999/02/22-rdf-syntax-ns#"
   xmlns:svg="http://www.w3.org/2000/svg"
   xmlns="http://www.w3.org/2000/svg"
   xmlns:sodipodi="http://sodipodi.sourceforge.net/DTD/sodipodi-0.dtd"
   xmlns:inkscape="http://www.inkscape.org/namespaces/inkscape"
   width="500"
   height="500"
   viewBox="0 0 132.29166 132.29167"
   version="1.1"
   id="svg8"
   inkscape:version="0.92.4 (5da689c313, 2019-01-14)"
   sodipodi:docname="wp-fusion.svg">
  <defs
     id="defs2" />
  <sodipodi:namedview
     id="base"
     pagecolor="#ffffff"
     bordercolor="#a52828"
     borderopacity="1"
     inkscape:pageopacity="0.0"
     inkscape:pageshadow="2"
     inkscape:zoom="0.9899495"
     inkscape:cx="-40.614164"
     inkscape:cy="375.91619"
     inkscape:document-units="px"
     inkscape:current-layer="layer1"
     showgrid="false"
     units="px"
     borderlayer="false"
     inkscape:pagecheckerboard="false"
     inkscape:window-width="1920"
     inkscape:window-height="1012"
     inkscape:window-x="-8"
     inkscape:window-y="-8"
     inkscape:window-maximized="1"
     showguides="true"
     inkscape:guide-bbox="true"
     inkscape:measure-start="249.821,63.0357"
     inkscape:measure-end="249.821,0">
    <sodipodi:guide
       position="9.5882942,66.182616"
       orientation="0,1"
       id="guide859"
       inkscape:locked="false" />
    <sodipodi:guide
       position="66.145833,14.717448"
       orientation="1,0"
       id="guide863"
       inkscape:locked="false" />
    <sodipodi:guide
       position="91.281245,132.29167"
       orientation="0,1"
       id="guide865"
       inkscape:locked="false" />
    <sodipodi:guide
       position="4.943e-007,86.758659"
       orientation="1,0"
       id="guide867"
       inkscape:locked="false" />
  </sodipodi:namedview>
  <metadata
     id="metadata5">
    <rdf:RDF>
      <cc:Work
         rdf:about="">
        <dc:format>image/svg+xml</dc:format>
        <dc:type
           rdf:resource="http://purl.org/dc/dcmitype/StillImage" />
        <dc:title></dc:title>
      </cc:Work>
    </rdf:RDF>
  </metadata>
  <g
     inkscape:label="Capa 1"
     inkscape:groupmode="layer"
     id="layer1"
     transform="translate(0,-164.70832)">
    <path
       style="opacity:1;fill:#ffffff;fill-opacity:1;fill-rule:nonzero;stroke:none;stroke-width:0.26458332;stroke-linecap:butt;stroke-linejoin:miter;stroke-miterlimit:1.41420996;stroke-dasharray:none;stroke-opacity:1;paint-order:markers stroke fill"
       d="M 0,164.70832 V 296.99998 H 132.29167 V 164.70832 Z"
       id="rect815"
       inkscape:connector-curvature="0" />
    <g
       style="fill:none;fill-rule:evenodd;stroke:none;stroke-width:0.1"
       id="Mark-3"
       transform="matrix(2.6458333,0,0,2.6458333,15.875,179.2604)">
      <path
         d="m 8,0.5 h 30 v 30 c 0,4.418278 -3.581722,8 -8,8 H 0 v -30 c 0,-4.418278 3.581722,-8 8,-8 z"
         id="BG"
         inkscape:connector-curvature="0"
         style="fill:#e55b10;stroke-width:0.1" />
      <path
         d="m 17.5,26.5 h 12 c 0.828427,0 1.5,0.671573 1.5,1.5 v 1 c 0,0.828427 -0.671573,1.5 -1.5,1.5 h -14 c -0.542345,0 -1.017463,-0.28783 -1.280933,-0.719067 C 13.78783,29.517463 13.5,29.042345 13.5,28.5 v -14 C 13.5,13.671573 14.171573,13 15,13 h 1 c 0.828427,0 1.5,0.671573 1.5,1.5 z"
         id="Rectangle-Copy-4-7"
         transform="rotate(90,22.25,21.75)"
         inkscape:connector-curvature="0"
         style="fill:#ffffff;stroke-width:0.1" />
      <path
         d="m 12,21.5 h 12 c 0.828427,0 1.5,0.671573 1.5,1.5 v 1 c 0,0.828427 -0.671573,1.5 -1.5,1.5 H 10 C 9.4576554,25.5 8.9825369,25.21217 8.7190665,24.780933 8.2878295,24.517463 8,24.042345 8,23.5 V 9.5 C 8,8.6715729 8.6715729,8 9.5,8 h 1 C 11.328427,8 12,8.6715729 12,9.5 Z"
         id="Rectangle-Copy-7-2"
         transform="rotate(-90,16.75,16.75)"
         inkscape:connector-curvature="0"
         style="fill:#ffffff;stroke-width:0.1" />
    </g>
  </g>
</svg>
