<?xml version="1.0" encoding="UTF-8" standalone="no"?>
<!-- Created with Inkscape (http://www.inkscape.org/) -->

<svg
   xmlns:dc="http://purl.org/dc/elements/1.1/"
   xmlns:cc="http://creativecommons.org/ns#"
   xmlns:rdf="http://www.w3.org/1999/02/22-rdf-syntax-ns#"
   xmlns:svg="http://www.w3.org/2000/svg"
   xmlns="http://www.w3.org/2000/svg"
   xmlns:sodipodi="http://sodipodi.sourceforge.net/DTD/sodipodi-0.dtd"
   xmlns:inkscape="http://www.inkscape.org/namespaces/inkscape"
   width="500"
   height="500"
   viewBox="0 0 132.29166 132.29167"
   version="1.1"
   id="svg8"
   inkscape:version="0.92.4 (5da689c313, 2019-01-14)"
   sodipodi:docname="icon-template.svg">
  <defs
     id="defs2" />
  <sodipodi:namedview
     id="base"
     pagecolor="#ffffff"
     bordercolor="#a52828"
     borderopacity="1"
     inkscape:pageopacity="0.0"
     inkscape:pageshadow="2"
     inkscape:zoom="0.98994949"
     inkscape:cx="-37.250894"
     inkscape:cy="322.20471"
     inkscape:document-units="px"
     inkscape:current-layer="layer1"
     showgrid="false"
     units="px"
     borderlayer="false"
     inkscape:pagecheckerboard="false"
     inkscape:window-width="1920"
     inkscape:window-height="1002"
     inkscape:window-x="-8"
     inkscape:window-y="-8"
     inkscape:window-maximized="1"
     showguides="true"
     inkscape:guide-bbox="true"
     inkscape:measure-start="249.821,63.0357"
     inkscape:measure-end="249.821,0">
    <sodipodi:guide
       position="9.5882942,66.182616"
       orientation="0,1"
       id="guide859"
       inkscape:locked="false" />
    <sodipodi:guide
       position="66.145833,14.717448"
       orientation="1,0"
       id="guide863"
       inkscape:locked="false" />
    <sodipodi:guide
       position="91.281245,132.29167"
       orientation="0,1"
       id="guide865"
       inkscape:locked="false" />
    <sodipodi:guide
       position="4.943e-007,86.758659"
       orientation="1,0"
       id="guide867"
       inkscape:locked="false" />
  </sodipodi:namedview>
  <metadata
     id="metadata5">
    <rdf:RDF>
      <cc:Work
         rdf:about="">
        <dc:format>image/svg+xml</dc:format>
        <dc:type
           rdf:resource="http://purl.org/dc/dcmitype/StillImage" />
        <dc:title></dc:title>
      </cc:Work>
    </rdf:RDF>
  </metadata>
  <g
     inkscape:label="Capa 1"
     inkscape:groupmode="layer"
     id="layer1"
     transform="translate(0,-164.70832)">
    <path
       style="opacity:1;fill:#ffffff;fill-opacity:1;fill-rule:nonzero;stroke:none;stroke-width:0.26458332;stroke-linecap:butt;stroke-linejoin:miter;stroke-miterlimit:1.41420996;stroke-dasharray:none;stroke-opacity:1;paint-order:markers stroke fill"
       d="M 0,164.70832 V 296.99998 H 132.29167 V 164.70832 Z"
       id="rect815"
       inkscape:connector-curvature="0" />
    <g
       id="g846-3-7"
       transform="matrix(1.5701136,0,0,1.5701136,-490.21176,-725.43844)"
       style="stroke-width:0.16851224"
       inkscape:export-xdpi="96"
       inkscape:export-ydpi="96">
      <path
         inkscape:connector-curvature="0"
         style="fill:#fb9d1f;fill-opacity:1;fill-rule:nonzero;stroke:none;stroke-width:0.16851224"
         d="m 386.12125,613.55009 c -0.32,-3.43997 -1.11999,-6.79995 -2.15998,-10.15992 -2.07999,-6.31995 -4.79997,-12.23991 -9.11994,-17.35987 -2.23998,-2.55998 -4.71996,-4.79997 -8.23993,-5.43996 l -0.08,0.08 -0.08,-0.08 c -0.16,0 -0.24,0 -0.4,0 h -0.32 c -0.16,0 -0.4,0 -0.55999,0 -1.04,0.24 -1.99999,0.55999 -2.79998,1.27999 -1.99999,1.59999 -3.91997,3.19997 -5.91996,4.87996 -6.95995,5.83996 -13.9999,11.67992 -20.95984,17.51987 -3.59998,2.95998 -7.11995,5.91996 -10.71993,8.87994 -2.31998,1.99998 -3.03997,4.15997 -2.07998,6.87995 0.64,1.67998 1.27999,3.43997 1.91999,5.19996 0.87999,2.15998 2.47998,3.51997 4.87996,3.51997 4.23997,0.08 8.39994,0.08 12.63991,0.08 1.27999,0 1.27999,0 1.43999,1.19999 0,0.16 0.08,0.32 0.15999,0.48 1.28,4.55996 4.79997,6.31995 8.55994,6.79995 2.79998,0.31999 5.51996,-0.48 7.83994,-2.23999 1.43999,-1.19999 2.63998,-2.55998 2.95998,-4.55996 0.24,-1.67999 0.32,-1.67999 2.15999,-1.67999 3.67997,0 7.43994,0 11.19991,0 0.08,0 0.08,0 0.16,0 0.32,0 0.72,0 1.11999,0 h 0.64 c 0.16,0 0.24,0 0.32,0 0.79999,0 1.59998,0 2.39998,-0.32 2.71998,-1.11999 3.91997,-3.43997 4.63996,-6.15995 0.24,-0.72 0.24,-1.51999 0.32,-2.31998 0.08,-0.64 0.16,-1.28 0.24,-1.91999 0.08,-1.51999 -0.08,-3.03998 -0.16,-4.55997 z m -15.67988,-13.5199 c 3.27997,-0.31999 5.75995,1.83999 5.75995,5.35996 0.24,1.83999 -0.87999,3.11998 -2.31998,4.23997 -0.63999,0.56 -0.95999,0.4 -1.27999,-0.39999 -0.71999,-2.07999 -1.51999,-4.15997 -2.23998,-6.31996 -0.24,-0.55999 -0.48,-1.11999 -0.72,-1.67999 -0.31999,-0.79999 -0.08,-1.11999 0.8,-1.19999 z m 4.55996,26.63981 c -2.79998,-1.04 -5.11996,-2.71998 -7.03994,-4.87997 -1.67999,-1.91998 -3.19998,-3.91997 -4.47997,-6.15995 -0.95999,-1.91999 -1.91999,-3.83997 -2.63998,-5.91996 -0.24,-0.55999 -0.56,-0.63999 -1.11999,-0.47999 -1.99999,0.79999 -4.07997,1.59998 -6.07996,2.23998 -1.67999,0.55999 -3.19998,1.27999 -4.87996,1.67999 -0.88,0.23999 -1.67999,0.71999 -2.55998,1.03999 -2.31999,0.87999 -4.63997,1.75999 -6.87995,2.55998 -3.11998,1.11999 -6.15996,2.23998 -9.27993,3.35997 -0.8,0.32 -1.67999,0.48 -2.39999,1.04 -0.31999,0.16 -0.47999,-0.08 -0.55999,-0.24 -0.4,-0.95999 -0.8,-1.99999 -1.11999,-2.95998 -0.16,-0.87999 0.55999,-1.35999 1.19999,-1.83999 1.67998,-1.51998 3.51997,-2.87997 5.27996,-4.31996 2.55998,-2.23999 5.11996,-4.39997 7.75994,-6.55996 1.83999,-1.59998 3.67997,-3.27997 5.67996,-4.71996 2.39998,-1.75999 4.55996,-3.83997 6.79995,-5.67996 2.55998,-2.15998 5.19996,-4.31997 7.67994,-6.63995 0.4,-0.08 0.56,0.08 0.48,0.48 -0.88,4.95996 -0.08,9.75993 1.19999,14.47989 0.95999,3.75997 2.31998,7.35995 3.99997,10.79992 1.83999,3.83997 4.23997,7.27995 7.27995,10.23992 1.35999,1.28 2.87997,2.23999 4.55996,2.79998 0.32,0.08 0.56,0.08 0.56,0.48 -1.19999,0 -2.31999,-0.4 -3.43998,-0.79999 z"
         id="path823-3-4" />
      <path
         inkscape:connector-curvature="0"
         style="fill:#fefefe;fill-opacity:1;fill-rule:nonzero;stroke:none;stroke-width:0.16851224"
         d="m 378.44131,627.46999 c -1.19999,0 -2.31999,-0.4 -3.43998,-0.79999 -2.79998,-1.04 -5.11996,-2.71998 -7.03994,-4.87997 -1.67999,-1.91998 -3.19998,-3.91997 -4.47997,-6.15995 -0.95999,-1.91999 -1.91999,-3.83997 -2.63998,-5.91996 -0.24,-0.55999 -0.56,-0.63999 -1.11999,-0.47999 -1.99999,0.79999 -4.07997,1.59998 -6.15996,2.23998 -1.59999,0.55999 -3.11998,1.19999 -4.79996,1.67999 -0.88,0.16 -1.67999,0.71999 -2.55998,1.03999 -2.31999,0.87999 -4.63997,1.67999 -6.95995,2.55998 -3.03998,1.11999 -6.07996,2.23998 -9.19993,3.35997 -0.8,0.32 -1.67999,0.4 -2.39999,0.96 -0.31999,0.24 -0.47999,-0.08 -0.55999,-0.24 -0.4,-0.95999 -0.88,-1.91999 -1.11999,-2.95998 -0.24,-0.87999 0.55999,-1.35999 1.11999,-1.83999 1.75998,-1.43998 3.59997,-2.79997 5.27996,-4.31996 2.55998,-2.15999 5.19996,-4.31997 7.75994,-6.47996 1.91999,-1.59998 3.67997,-3.27997 5.75996,-4.79996 2.39998,-1.67999 4.55996,-3.75997 6.79995,-5.67996 2.55998,-2.15998 5.19996,-4.23997 7.67994,-6.55995 0.4,-0.16 0.56,0.08 0.48,0.48 -0.88,4.87996 -0.08,9.75993 1.19999,14.47989 0.95999,3.75997 2.31998,7.27995 3.99997,10.79992 1.83999,3.83997 4.23997,7.27995 7.27995,10.23992 1.35999,1.2 2.79997,2.15999 4.55996,2.71998 0.32,0.16 0.56,0.16 0.56,0.48 z"
         id="path825-6-0" />
      <path
         inkscape:connector-curvature="0"
         style="fill:#fefefe;fill-opacity:1;fill-rule:nonzero;stroke:none;stroke-width:0.16851224"
         d="m 376.20132,605.39015 c 0.24,1.83999 -0.87999,3.11998 -2.31998,4.23997 -0.63999,0.56 -0.95999,0.4 -1.27999,-0.39999 -0.71999,-2.07999 -1.51999,-4.15997 -2.23998,-6.31996 -0.24,-0.55999 -0.48,-1.11999 -0.72,-1.59999 -0.31999,-0.87999 -0.08,-1.19999 0.72,-1.27999 3.35997,-0.31999 5.83995,1.91999 5.83995,5.35996 z"
         id="path827-8-9" />
      <path
         inkscape:connector-curvature="0"
         style="fill:#fefefe;fill-opacity:1;fill-rule:nonzero;stroke:none;stroke-width:0.16851224"
         d="m 347.40154,628.74998 c 0.71999,-0.24 1.51999,0.16 2.23998,0 2.95998,0 5.99996,0 8.95993,0 1.12,0 1.2,0.08 0.88,1.11999 -0.64,1.91999 -2.79998,3.59998 -4.95997,3.67998 -1.27999,0 -2.63998,0.08 -3.91997,-0.32 -1.75998,-0.64 -3.35997,-2.79998 -3.19997,-4.47997 z"
         id="path829-9-4" />
    </g>
  </g>
</svg>
