<?xml version="1.0" encoding="UTF-8" standalone="no"?>
<!-- Created with Inkscape (http://www.inkscape.org/) -->

<svg
   xmlns:dc="http://purl.org/dc/elements/1.1/"
   xmlns:cc="http://creativecommons.org/ns#"
   xmlns:rdf="http://www.w3.org/1999/02/22-rdf-syntax-ns#"
   xmlns:svg="http://www.w3.org/2000/svg"
   xmlns="http://www.w3.org/2000/svg"
   xmlns:sodipodi="http://sodipodi.sourceforge.net/DTD/sodipodi-0.dtd"
   xmlns:inkscape="http://www.inkscape.org/namespaces/inkscape"
   width="500"
   height="500"
   viewBox="0 0 132.29166 132.29167"
   version="1.1"
   id="svg8"
   inkscape:version="0.92.4 (5da689c313, 2019-01-14)"
   sodipodi:docname="automatorwp-anonymous.svg">
  <defs
     id="defs2">
    <inkscape:perspective
       id="perspective857"
       inkscape:persp3d-origin="66.14583 : 44.097223 : 1"
       inkscape:vp_z="132.29166 : 66.145835 : 1"
       inkscape:vp_y="0 : 1000 : 0"
       inkscape:vp_x="0 : 66.145835 : 1"
       sodipodi:type="inkscape:persp3d" />
    <clipPath
       clipPathUnits="userSpaceOnUse"
       id="clipPath5438">
      <path
         d="M 489.34691,115.98357 A 240.25804,240.17018 0 0 1 250.76827,356.14788 240.25804,240.17018 0 0 1 8.8543038,119.34106 240.25804,240.17018 0 0 1 244.05099,-124.13381 240.25804,240.17018 0 0 1 489.253,109.26923"
         sodipodi:open="true"
         sodipodi:end="6.2552251"
         sodipodi:start="0"
         sodipodi:ry="240.17018"
         sodipodi:rx="240.25804"
         sodipodi:cy="115.98357"
         sodipodi:cx="249.08887"
         sodipodi:type="arc"
         id="path5440"
         style="display:inline;opacity:1;fill:#febd17;fill-opacity:1;fill-rule:nonzero;stroke:none;stroke-width:15.95553112;stroke-linecap:round;stroke-linejoin:miter;stroke-miterlimit:1.41420996;stroke-dasharray:none;stroke-opacity:1;paint-order:markers stroke fill" />
    </clipPath>
    <clipPath
       clipPathUnits="userSpaceOnUse"
       id="clipPath5442">
      <path
         d="m 6202.1358,1422.2878 a 757.88776,757.6106 0 0 1 -752.5901,757.5921 757.88776,757.6106 0 0 1 -763.1113,-747.0009 757.88776,757.6106 0 0 1 741.9218,-768.03518 757.88776,757.6106 0 0 1 773.4834,736.26388"
         sodipodi:open="true"
         sodipodi:end="6.2552251"
         sodipodi:start="0"
         sodipodi:ry="757.6106"
         sodipodi:rx="757.88776"
         sodipodi:cy="1422.2878"
         sodipodi:cx="5444.248"
         sodipodi:type="arc"
         id="path5444"
         style="display:inline;opacity:1;fill:#febd17;fill-opacity:1;fill-rule:nonzero;stroke:none;stroke-width:15.95553112;stroke-linecap:round;stroke-linejoin:miter;stroke-miterlimit:1.41420996;stroke-dasharray:none;stroke-opacity:1;paint-order:markers stroke fill"
         transform="rotate(-45)" />
    </clipPath>
    <clipPath
       clipPathUnits="userSpaceOnUse"
       id="clipPath5446">
      <path
         d="m 6202.1358,1422.2878 a 757.88776,757.6106 0 0 1 -752.5901,757.5921 757.88776,757.6106 0 0 1 -763.1113,-747.0009 757.88776,757.6106 0 0 1 741.9218,-768.03518 757.88776,757.6106 0 0 1 773.4834,736.26388"
         sodipodi:open="true"
         sodipodi:end="6.2552251"
         sodipodi:start="0"
         sodipodi:ry="757.6106"
         sodipodi:rx="757.88776"
         sodipodi:cy="1422.2878"
         sodipodi:cx="5444.248"
         sodipodi:type="arc"
         id="path5448"
         style="display:inline;opacity:1;fill:#febd17;fill-opacity:1;fill-rule:nonzero;stroke:none;stroke-width:15.95553112;stroke-linecap:round;stroke-linejoin:miter;stroke-miterlimit:1.41420996;stroke-dasharray:none;stroke-opacity:1;paint-order:markers stroke fill"
         transform="rotate(-45)" />
    </clipPath>
    <clipPath
       clipPathUnits="userSpaceOnUse"
       id="clipPath5450">
      <path
         d="m 6202.1358,1422.2878 a 757.88776,757.6106 0 0 1 -752.5901,757.5921 757.88776,757.6106 0 0 1 -763.1113,-747.0009 757.88776,757.6106 0 0 1 741.9218,-768.03518 757.88776,757.6106 0 0 1 773.4834,736.26388"
         sodipodi:open="true"
         sodipodi:end="6.2552251"
         sodipodi:start="0"
         sodipodi:ry="757.6106"
         sodipodi:rx="757.88776"
         sodipodi:cy="1422.2878"
         sodipodi:cx="5444.248"
         sodipodi:type="arc"
         id="path5452"
         style="display:inline;opacity:1;fill:#febd17;fill-opacity:1;fill-rule:nonzero;stroke:none;stroke-width:15.95553112;stroke-linecap:round;stroke-linejoin:miter;stroke-miterlimit:1.41420996;stroke-dasharray:none;stroke-opacity:1;paint-order:markers stroke fill" />
    </clipPath>
  </defs>
  <sodipodi:namedview
     id="base"
     pagecolor="#ffffff"
     bordercolor="#a52828"
     borderopacity="1"
     inkscape:pageopacity="0.0"
     inkscape:pageshadow="2"
     inkscape:zoom="0.7"
     inkscape:cx="120.57654"
     inkscape:cy="384.5881"
     inkscape:document-units="px"
     inkscape:current-layer="layer1"
     showgrid="false"
     units="px"
     borderlayer="false"
     inkscape:pagecheckerboard="false"
     inkscape:window-width="1920"
     inkscape:window-height="1012"
     inkscape:window-x="-8"
     inkscape:window-y="-8"
     inkscape:window-maximized="1"
     showguides="true"
     inkscape:guide-bbox="true"
     inkscape:measure-start="249.821,63.0357"
     inkscape:measure-end="249.821,0">
    <sodipodi:guide
       position="9.5882942,66.182616"
       orientation="0,1"
       id="guide859"
       inkscape:locked="false" />
    <sodipodi:guide
       position="66.145833,14.717448"
       orientation="1,0"
       id="guide863"
       inkscape:locked="false" />
    <sodipodi:guide
       position="91.281245,132.29167"
       orientation="0,1"
       id="guide865"
       inkscape:locked="false" />
    <sodipodi:guide
       position="4.943e-007,86.758659"
       orientation="1,0"
       id="guide867"
       inkscape:locked="false" />
  </sodipodi:namedview>
  <metadata
     id="metadata5">
    <rdf:RDF>
      <cc:Work
         rdf:about="">
        <dc:format>image/svg+xml</dc:format>
        <dc:type
           rdf:resource="http://purl.org/dc/dcmitype/StillImage" />
        <dc:title></dc:title>
      </cc:Work>
    </rdf:RDF>
  </metadata>
  <g
     inkscape:label="Capa 1"
     inkscape:groupmode="layer"
     id="layer1"
     transform="translate(0,-164.70832)">
    <path
       style="opacity:1;fill:#ffffff;fill-opacity:1;fill-rule:nonzero;stroke:none;stroke-width:0.26458332;stroke-linecap:butt;stroke-linejoin:miter;stroke-miterlimit:1.41420996;stroke-dasharray:none;stroke-opacity:1;paint-order:markers stroke fill"
       d="M 0,164.70832 V 296.99998 H 132.29167 V 164.70832 Z"
       id="rect815"
       inkscape:connector-curvature="0" />
    <g
       id="g990"
       transform="matrix(0.35270164,0,0,0.35270164,-38.678401,81.060811)"
       style="stroke-width:2.83525753">
      <path
         style="display:inline;opacity:1;fill:#febd17;fill-opacity:1;fill-rule:nonzero;stroke:none;stroke-width:3.00064707;stroke-linecap:round;stroke-linejoin:miter;stroke-miterlimit:1.41420996;stroke-dasharray:none;stroke-opacity:1;paint-order:markers stroke fill"
         id="path978-31-7-3-8-0-7-7-1-8-5-7-7-8"
         sodipodi:type="arc"
         sodipodi:cx="297.2037"
         sodipodi:cy="424.75482"
         sodipodi:rx="142.53076"
         sodipodi:ry="142.47864"
         sodipodi:start="0"
         sodipodi:end="6.2552251"
         sodipodi:open="true"
         d="M 439.73447,424.75482 A 142.53076,142.47864 0 0 1 298.19999,567.22998 142.53076,142.47864 0 0 1 154.68687,426.74662 142.53076,142.47864 0 0 1 294.21503,282.30751 142.53076,142.47864 0 0 1 439.67876,420.77161" />
      <rect
         style="opacity:1;fill:#64463c;fill-opacity:1;fill-rule:evenodd;stroke:#6d6d7c;stroke-width:0;stroke-linecap:round;stroke-linejoin:miter;stroke-miterlimit:4;stroke-dasharray:none;stroke-opacity:1;paint-order:fill markers stroke"
         id="rect2865-0-2-1-94-3-9-3-4-3-3-9"
         width="722.974"
         height="332.44269"
         x="5080.377"
         y="1930.1677"
         ry="52.801804"
         transform="matrix(0.18806315,0,0,0.18806315,-726.65862,157.27489)"
         clip-path="url(#clipPath5450)" />
      <path
         id="path1733-17-6-7-8-8-2-3-4-4-4-6"
         d="m 5478.9787,-2879.7352 -289.0925,40.313 -193.5642,25.65 377.6716,556.048 143.3331,95.02 c 2.7712,-2.726 15.4435,12.472 15.9945,8.281 l 0.84,-487.936 c 1.2716,-9.828 -4.7103,-19.796 -14.2661,-23.75 l -76.1099,1.551 58.0565,-188.844 c 4.2388,-13.767 -8.422,-28.353 -22.863,-26.333 z"
         inkscape:connector-curvature="0"
         style="fill:#896153;fill-opacity:1;stroke-width:4.12092972"
         sodipodi:nodetypes="ccccccccccc"
         clip-path="url(#clipPath5446)"
         transform="matrix(0.13298073,0.13298073,-0.13298073,0.13298073,-726.65862,157.27489)" />
      <path
         id="path1735-6-0-6-0-0-9-6-2-4-1-5"
         d="m 5519.181,-2424.7792 -642.5275,-186.75 -13.4087,89.667 -41.7867,299.647 c -2.0191,14.441 12.566,27.102 26.3355,22.865 l 188.844,-58.056 -1.5513,76.11 c 3.9546,9.555 13.9217,15.538 23.7503,14.266 l 465.2704,4.7 c 4.1532,0.04 7.736,-2.332 10.4869,-5.045 l 0.1204,-0.121 c 0,0 2.8129,-188.078 -15.5336,-257.283 z"
         inkscape:connector-curvature="0"
         style="fill:#896153;fill-opacity:1;stroke-width:4.12092972"
         sodipodi:nodetypes="ccccccccscccc"
         clip-path="url(#clipPath5442)"
         transform="matrix(0.13298073,0.13298073,-0.13298073,0.13298073,-726.65862,157.27489)" />
      <g
         transform="matrix(2.1547958,0,0,2.1547958,571.43326,269.98268)"
         id="g1156-6-38-6-3-1-6-2-0-5-4-0-1"
         style="stroke-width:1.31578946">
        <path
           sodipodi:nodetypes="cccc"
           inkscape:connector-curvature="0"
           id="rect922-7-71-9-9-8-8-0-0-2-1-5-9-3-8-1-8"
           d="m -74.601915,74.816125 c -0.318396,15.069862 -10.870206,17.207727 -16.667436,18.493197 -14.153269,-3.932373 -2.36185,-34.230263 3.419815,-34.72217 2.544819,-0.02624 13.249309,5.031171 13.247621,16.228973 z"
           style="display:inline;opacity:1;fill:#dadbdd;fill-opacity:1;fill-rule:nonzero;stroke:none;stroke-width:1.39254379;stroke-linecap:round;stroke-linejoin:miter;stroke-miterlimit:1.41420996;stroke-dasharray:none;stroke-opacity:1;paint-order:markers stroke fill" />
        <path
           sodipodi:nodetypes="cccc"
           inkscape:connector-curvature="0"
           id="rect922-7-0-04-1-7-9-1-1-6-1-3-1-5-6-7-0-3"
           d="m -179.79515,74.816144 c 0.31839,15.069861 10.87025,17.207745 16.6675,18.493178 14.15324,-3.932411 2.3619,-34.230244 -3.41982,-34.722151 -2.54482,-0.02624 -13.24938,5.031191 -13.24768,16.228973 z"
           style="display:inline;opacity:1;fill:#dadbdd;fill-opacity:1;fill-rule:nonzero;stroke:none;stroke-width:1.39254379;stroke-linecap:round;stroke-linejoin:miter;stroke-miterlimit:1.41420996;stroke-dasharray:none;stroke-opacity:1;paint-order:markers stroke fill" />
        <rect
           ry="20.045607"
           rx="0.087693349"
           y="29.716402"
           x="-129.13463"
           height="20.045607"
           width="3.7361231"
           id="rect920-4-1-0-10-7-7-1-3-4-1-0-1-4-4-8"
           style="opacity:1;fill:#eeeff1;fill-opacity:1;fill-rule:nonzero;stroke:none;stroke-width:1.39254379;stroke-linecap:round;stroke-linejoin:miter;stroke-miterlimit:1.41420996;stroke-dasharray:none;stroke-opacity:1;paint-order:markers stroke fill" />
        <path
           sodipodi:nodetypes="scccss"
           inkscape:connector-curvature="0"
           id="rect829-9-3-0-9-6-6-0-91-7-5-2-4-3-7-0-2"
           d="m -135.18165,111.2278 c -5.4396,0 -7.58458,2.55092 -8.24928,3.4021 14.14605,16.09477 15.50918,17.08724 15.50918,17.08724 0,0 2.6108,-1.2037 16.54245,-17.08724 -0.51515,-1.09827 -2.84533,-3.4021 -7.97177,-3.4021 z"
           style="display:inline;opacity:1;fill:#323232;fill-opacity:1;fill-rule:nonzero;stroke:none;stroke-width:0.34813601;stroke-linecap:butt;stroke-linejoin:miter;stroke-miterlimit:1.41420996;stroke-dasharray:none;stroke-opacity:1;paint-order:markers stroke fill" />
        <rect
           ry="2.0700526"
           y="106.15662"
           x="-137.47105"
           height="6.1334338"
           width="20.406815"
           id="rect1538-7-2-8-6-0-3-1-0-0-3-6-7-4"
           style="opacity:1;fill:#dadbdd;fill-opacity:1;fill-rule:nonzero;stroke:none;stroke-width:1.39254379;stroke-linecap:round;stroke-linejoin:miter;stroke-miterlimit:1.41420996;stroke-dasharray:none;stroke-opacity:1;paint-order:markers stroke fill" />
        <path
           style="opacity:1;fill:#eeeff1;fill-opacity:1;fill-rule:nonzero;stroke:none;stroke-width:0.34813595;stroke-linecap:butt;stroke-linejoin:miter;stroke-miterlimit:1.41420996;stroke-dasharray:none;stroke-opacity:1;paint-order:markers stroke fill"
           d="m -143.75845,48.096884 h 33.10928 c 15.796786,0 28.514053,9.235908 28.514053,25.032694 v 5.702846 c 0,15.796786 -12.717267,28.514056 -28.514053,28.514056 h -33.10928 c -15.79679,0 -28.51406,-12.71727 -28.51406,-28.514056 v -5.702846 c 0,-15.796786 12.71727,-25.032694 28.51406,-25.032694 z"
           id="rect829-6-31-9-9-0-6-5-17-2-4-0-5-5-0-7-0"
           inkscape:connector-curvature="0"
           sodipodi:nodetypes="sssssssss" />
        <rect
           ry="22.356791"
           y="51.35799"
           x="-162.60309"
           height="49.184956"
           width="70.673302"
           id="rect829-6-9-7-31-0-7-2-8-6-8-9-2-9-7-1"
           style="opacity:1;fill:#353849;fill-opacity:1;fill-rule:nonzero;stroke:none;stroke-width:0.34813595;stroke-linecap:butt;stroke-linejoin:miter;stroke-miterlimit:1.41420996;stroke-dasharray:none;stroke-opacity:1;paint-order:markers stroke fill" />
        <g
           transform="translate(39.555119,-25.757084)"
           id="g1084-9-1-3-6-66-7-1-2-4-7-0-2"
           style="stroke-width:1.31578946">
          <path
             style="opacity:1;fill:#4ceedf;fill-opacity:1;fill-rule:nonzero;stroke:none;stroke-width:0.34813595;stroke-linecap:butt;stroke-linejoin:miter;stroke-miterlimit:1.41420996;stroke-dasharray:none;stroke-opacity:1;paint-order:markers stroke fill"
             id="path875-9-5-3-5-2-9-0-2-5-4-4-2-6-4-1-7-2"
             sodipodi:type="arc"
             sodipodi:cx="-183.46904"
             sodipodi:cy="96.82679"
             sodipodi:rx="4.8377361"
             sodipodi:ry="4.8359666"
             sodipodi:start="0"
             sodipodi:end="6.2552251"
             sodipodi:open="true"
             d="m -178.6313,96.82679 a 4.8377361,4.8359666 0 0 1 -4.80392,4.83585 4.8377361,4.8359666 0 0 1 -4.87108,-4.768245 4.8377361,4.8359666 0 0 1 4.73582,-4.902508 4.8377361,4.8359666 0 0 1 4.93729,4.699706" />
          <path
             style="opacity:1;fill:#4ceedf;fill-opacity:1;fill-rule:nonzero;stroke:none;stroke-width:0.34813595;stroke-linecap:butt;stroke-linejoin:miter;stroke-miterlimit:1.41420996;stroke-dasharray:none;stroke-opacity:1;paint-order:markers stroke fill"
             id="path875-0-89-9-4-3-2-7-4-8-4-5-1-2-5-4-7-5-1"
             sodipodi:type="arc"
             sodipodi:cx="-150.1944"
             sodipodi:cy="96.826546"
             sodipodi:rx="4.8377361"
             sodipodi:ry="4.8359666"
             sodipodi:start="0"
             sodipodi:end="6.2552251"
             sodipodi:open="true"
             d="m -145.35666,96.826546 a 4.8377361,4.8359666 0 0 1 -4.80392,4.835844 4.8377361,4.8359666 0 0 1 -4.87108,-4.768239 4.8377361,4.8359666 0 0 1 4.73582,-4.902509 4.8377361,4.8359666 0 0 1 4.93729,4.699707" />
          <path
             inkscape:connector-curvature="0"
             id="path991-6-3-50-4-1-4-2-7-4-1-6-1-3"
             d="m -159.33337,108.71427 c -0.68589,0.009 -1.23387,0.57363 -1.22307,1.25925 0,3.28689 -2.71721,2.39223 -6.21428,2.41583 -3.47681,0.0234 -6.25457,0.85242 -6.30217,-2.43413 0.0276,-1.70492 -2.55713,-1.66676 -2.47913,0.0366 0.0677,4.66784 4.03451,4.90781 8.7996,4.87575 4.74479,-0.032 8.67876,-0.22578 8.67876,-4.89406 0.011,-0.69999 -0.55947,-1.2703 -1.25971,-1.25925 z"
             style="color:#000000;font-style:normal;font-variant:normal;font-weight:normal;font-stretch:normal;font-size:medium;line-height:normal;font-family:sans-serif;font-variant-ligatures:normal;font-variant-position:normal;font-variant-caps:normal;font-variant-numeric:normal;font-variant-alternates:normal;font-feature-settings:normal;text-indent:0;text-align:start;text-decoration:none;text-decoration-line:none;text-decoration-style:solid;text-decoration-color:#000000;letter-spacing:normal;word-spacing:normal;text-transform:none;writing-mode:lr-tb;direction:ltr;text-orientation:mixed;dominant-baseline:auto;baseline-shift:baseline;text-anchor:start;white-space:normal;shape-padding:0;clip-rule:nonzero;display:none;overflow:visible;visibility:visible;opacity:1;isolation:auto;mix-blend-mode:normal;color-interpolation:sRGB;color-interpolation-filters:linearRGB;solid-color:#000000;solid-opacity:1;vector-effect:none;fill:#4ceedf;fill-opacity:1;fill-rule:nonzero;stroke:none;stroke-width:1.74067974;stroke-linecap:round;stroke-linejoin:miter;stroke-miterlimit:1.41420996;stroke-dasharray:none;stroke-dashoffset:0;stroke-opacity:1;paint-order:markers fill stroke;color-rendering:auto;image-rendering:auto;shape-rendering:auto;text-rendering:auto;enable-background:accumulate"
             sodipodi:nodetypes="ccccccccc" />
          <path
             style="color:#000000;font-style:normal;font-variant:normal;font-weight:normal;font-stretch:normal;font-size:medium;line-height:normal;font-family:sans-serif;font-variant-ligatures:normal;font-variant-position:normal;font-variant-caps:normal;font-variant-numeric:normal;font-variant-alternates:normal;font-feature-settings:normal;text-indent:0;text-align:start;text-decoration:none;text-decoration-line:none;text-decoration-style:solid;text-decoration-color:#000000;letter-spacing:normal;word-spacing:normal;text-transform:none;writing-mode:lr-tb;direction:ltr;text-orientation:mixed;dominant-baseline:auto;baseline-shift:baseline;text-anchor:start;white-space:normal;shape-padding:0;clip-rule:nonzero;display:inline;overflow:visible;visibility:visible;opacity:1;isolation:auto;mix-blend-mode:normal;color-interpolation:sRGB;color-interpolation-filters:linearRGB;solid-color:#000000;solid-opacity:1;vector-effect:none;fill:#353849;fill-opacity:1;fill-rule:nonzero;stroke:none;stroke-width:1.74067974;stroke-linecap:round;stroke-linejoin:miter;stroke-miterlimit:1.41420996;stroke-dasharray:none;stroke-dashoffset:0;stroke-opacity:1;paint-order:markers fill stroke;color-rendering:auto;image-rendering:auto;shape-rendering:auto;text-rendering:auto;enable-background:accumulate"
             d="m -159.33337,105.23291 a 1.2402952,1.2398415 0 0 0 -1.22307,1.25925 c 0,3.28689 -2.71721,5.87359 -6.21428,5.89719 -3.47681,0.0234 -6.25457,-2.62894 -6.30217,-5.91549 a 1.2402952,1.2398415 0 1 0 -2.47913,0.0366 c 0.0677,4.66784 4.03451,8.38917 8.7996,8.35711 4.74479,-0.032 8.67876,-3.70714 8.67876,-8.37542 a 1.2402952,1.2398415 0 0 0 -1.25971,-1.25925 z"
             id="path1647-3-2-6-3-5-0-8-8-0-8-3"
             inkscape:connector-curvature="0" />
        </g>
      </g>
      <g
         id="g1739-8-7-7-3-8-8-4-4-0-1-6"
         transform="matrix(0.59324036,0,0,0.59324036,149.7252,355.94869)"
         style="fill:#323232;fill-opacity:1;stroke-width:1.71891594"
         clip-path="url(#clipPath5438)">
        <path
           id="path1737-7-5-5-7-0-4-4-8-2-7-5"
           d="m 190.36929,271.45509 c 38.75844,59.43838 55.41642,104.63109 55.41642,104.63109 h 2.44553 c 0,0 18.1667,-42.74451 58.55752,-104.63113 z"
           inkscape:connector-curvature="0"
           style="fill:#323232;fill-opacity:1;stroke-width:1.71891594"
           sodipodi:nodetypes="ccccc" />
      </g>
      <path
         style="fill:#896153;fill-opacity:1;stroke-width:0.77280277"
         d="m 242.92097,310.73509 c 0.14177,0 0.28242,0.008 0.42197,0.0216 -0.14036,-0.007 -0.28237,-0.0216 -0.42197,-0.0216 z m 0,0 c -7.40756,0 -14.83993,20.80581 -19.2097,47.87404 1.51232,16.40359 -3.91787,26.81104 -3.91787,26.81104 0,0 -49.7773,6.6456 -49.7773,14.76145 0,4.34164 15.54313,7.9572 39.55342,11.90005 20.87107,3.42712 56.95589,7.49869 85.97561,7.49869 62.40461,0 128.52821,-11.28288 128.52821,-19.39874 0,-8.11585 -49.77738,-14.76145 -49.77738,-14.76145 0,0 -6.36938,-10.85928 -3.87822,-26.5663 -4.36414,-27.08426 -11.81921,-48.11878 -19.24932,-48.11878 -24.57201,0 -45.45178,10.78359 -54.12296,10.78359 -8.67121,0 -29.55249,-10.78359 -54.12449,-10.78359 z"
         id="path1046-0-3-3-9-4-4-9-6-4-6-9"
         inkscape:connector-curvature="0"
         sodipodi:nodetypes="cccsccscssccsss" />
      <path
         style="fill:#64463c;fill-opacity:1;stroke-width:0.77280277"
         inkscape:connector-curvature="0"
         d="m 294.47585,365.53611 c -43.33049,-0.24001 -70.56973,-6.87075 -70.56973,-6.87075 l -0.38231,0.12445 c -2.41644,14.98751 -3.88838,26.63007 -3.88838,26.63007 0,0 29.90413,8.3037 77.25074,8.3037 29.17194,0 3.37879,-15.29657 -2.41032,-28.18747 z"
         id="path1048-5-7-5-6-0-2-8-9-7-2-2" />
      <path
         style="fill:#64463c;fill-opacity:1;stroke-width:0.77280277"
         inkscape:connector-curvature="0"
         d="m 374.13692,385.41988 c 0,0 -1.46772,-11.60921 -3.87804,-26.56573 l -0.39264,-0.18833 c 0,0 -28.25091,6.8778 -72.98053,6.8778 -15.14487,0 -28.39697,-0.78904 -39.30685,-1.8317 0.46637,9.94799 0.68147,19.65693 0.68147,28.1128 10.95262,1.1009 23.95017,1.89886 38.62538,1.89886 47.34707,0 77.25121,-8.3037 77.25121,-8.3037 z"
         id="path1052-7-5-1-2-4-2-1-1-8-2-2" />
      <path
         id="path4214-8-5"
         d="m 334.35847,446.0413 c -2.93044,-0.48838 -5.55563,0.91575 -5.64332,3.12597 1.96568,-1.42081 6.3372,-0.85653 6.33717,3.39909 -2e-5,2.99896 -4.11289,6.05136 -10.05137,-0.12037 -3.45561,-3.59152 -10.92842,-14.0415 -18.1942,-14.04148 -5.73583,-1e-4 -9.50641,3.77012 -9.50641,3.77012 0,0 -3.77024,-3.77024 -9.50643,-3.77017 -7.26586,-5e-5 -14.73869,10.44999 -18.19413,14.04146 -5.93852,6.17204 -10.05136,3.11958 -10.0513,0.1204 -10e-6,-4.25539 4.37124,-4.81986 6.337,-3.39905 -0.0873,-2.21043 -2.71245,-3.61433 -5.64298,-3.12593 -7.54656,1.25784 -7.94111,13.71667 -1.38537,18.8418 4.32806,3.3823 15.98828,8.75253 38.44312,-8.95147 22.45517,17.70402 34.11529,12.33384 38.44336,8.95142 6.55567,-5.12509 6.1612,-17.58384 -1.38514,-18.84179 z"
         style="fill:#896153;fill-opacity:1;stroke-width:0.75016189"
         inkscape:connector-curvature="0" />
    </g>
  </g>
</svg>
