<?xml version="1.0" encoding="UTF-8" standalone="no"?>
<!-- Created with Inkscape (http://www.inkscape.org/) -->

<svg
   xmlns:dc="http://purl.org/dc/elements/1.1/"
   xmlns:cc="http://creativecommons.org/ns#"
   xmlns:rdf="http://www.w3.org/1999/02/22-rdf-syntax-ns#"
   xmlns:svg="http://www.w3.org/2000/svg"
   xmlns="http://www.w3.org/2000/svg"
   xmlns:sodipodi="http://sodipodi.sourceforge.net/DTD/sodipodi-0.dtd"
   xmlns:inkscape="http://www.inkscape.org/namespaces/inkscape"
   width="500"
   height="500"
   viewBox="0 0 132.29166 132.29167"
   version="1.1"
   id="svg8"
   inkscape:version="0.92.4 (5da689c313, 2019-01-14)"
   sodipodi:docname="template.svg">
  <defs
     id="defs2" />
  <sodipodi:namedview
     id="base"
     pagecolor="#ffffff"
     bordercolor="#a52828"
     borderopacity="1"
     inkscape:pageopacity="0.0"
     inkscape:pageshadow="2"
     inkscape:zoom="1.4"
     inkscape:cx="231.50016"
     inkscape:cy="258.91358"
     inkscape:document-units="px"
     inkscape:current-layer="layer1"
     showgrid="false"
     units="px"
     borderlayer="false"
     inkscape:pagecheckerboard="false"
     inkscape:window-width="1920"
     inkscape:window-height="1012"
     inkscape:window-x="-8"
     inkscape:window-y="-8"
     inkscape:window-maximized="1"
     showguides="true"
     inkscape:guide-bbox="true"
     inkscape:measure-start="249.821,63.0357"
     inkscape:measure-end="249.821,0">
    <sodipodi:guide
       position="9.5882942,66.182616"
       orientation="0,1"
       id="guide859"
       inkscape:locked="false" />
    <sodipodi:guide
       position="66.145833,14.717448"
       orientation="1,0"
       id="guide863"
       inkscape:locked="false" />
    <sodipodi:guide
       position="91.281245,132.29167"
       orientation="0,1"
       id="guide865"
       inkscape:locked="false" />
    <sodipodi:guide
       position="4.943e-007,86.758659"
       orientation="1,0"
       id="guide867"
       inkscape:locked="false" />
  </sodipodi:namedview>
  <metadata
     id="metadata5">
    <rdf:RDF>
      <cc:Work
         rdf:about="">
        <dc:format>image/svg+xml</dc:format>
        <dc:type
           rdf:resource="http://purl.org/dc/dcmitype/StillImage" />
        <dc:title></dc:title>
      </cc:Work>
    </rdf:RDF>
  </metadata>
  <g
     inkscape:label="Capa 1"
     inkscape:groupmode="layer"
     id="layer1"
     transform="translate(0,-164.70832)">
    <path
       style="opacity:1;fill:#ffffff;fill-opacity:1;fill-rule:nonzero;stroke:none;stroke-width:0.26458332;stroke-linecap:butt;stroke-linejoin:miter;stroke-miterlimit:1.41420996;stroke-dasharray:none;stroke-opacity:1;paint-order:markers stroke fill"
       d="M 0,164.70832 V 296.99998 H 132.29167 V 164.70832 Z"
       id="rect815"
       inkscape:connector-curvature="0" />
    <rect
       style="display:none;opacity:1;fill:#e73535;fill-opacity:1;fill-rule:evenodd;stroke:none;stroke-width:0.52916664;stroke-linecap:round;stroke-linejoin:miter;stroke-miterlimit:10;stroke-dasharray:none;stroke-opacity:1;paint-order:normal"
       id="rect841"
       width="100.54166"
       height="100.54167"
       x="15.875"
       y="180.58331"
       ry="0" />
    <rect
       style="display:none;opacity:1;fill:#e73535;fill-opacity:1;fill-rule:evenodd;stroke:#4ceedf;stroke-width:6.61458349;stroke-linecap:round;stroke-linejoin:miter;stroke-miterlimit:10;stroke-dasharray:none;stroke-opacity:1;paint-order:markers fill stroke"
       id="rect841-5"
       width="93.927071"
       height="93.927086"
       x="19.182291"
       y="183.89061"
       ry="13.378916" />
    <g
       transform="matrix(0.27439662,0,0,0.27439662,7.6760288,175.23661)"
       id="WS_Form_Logo"
       data-name="WS Form Logo"
       style="stroke-width:0.96423692">
      <path
         class="cls-6"
         d="m 84.71,256.68 -11.3,-50.55 c -0.1,-0.37 -0.18,-0.76 -0.26,-1.17 -0.08,-0.41 -0.87,-4.81 -2.37,-13.21 h -0.15 l -1.06,5.85 -1.73,8.53 -11.67,50.55 H 47.66 L 29.88,182.06 H 37 l 10.2,43.46 4.8,22.7 h 0.45 q 1.35,-9.83 4.37,-22.83 l 10.17,-43.33 h 7.53 l 10.24,43.46 q 1.2,4.89 4.29,22.7 h 0.46 q 0.23,-2.26 2.22,-11.42 1.99,-9.16 12.76,-54.74 h 7.08 l -18.42,74.62 z"
         id="path386"
         inkscape:connector-curvature="0"
         style="fill:#002d5d;stroke-width:0.96423692" />
      <path
         class="cls-6"
         d="m 156,238 q 0,9.43 -5.42,14.76 -5.42,5.33 -15.58,5.3 a 33.15,33.15 0 0 1 -9.79,-1.31 24.93,24.93 0 0 1 -6.56,-2.89 l 3.14,-5.43 c 2.13,1.3 1.5,0.93 4.24,1.89 a 28.24,28.24 0 0 0 9.42,1.55 q 6.33,0 9.94,-3.79 Q 149,244.29 149,238 a 13.37,13.37 0 0 0 -2.6,-8.35 q -2.61,-3.41 -9.91,-7.74 -8.35,-4.81 -11.41,-7.7 a 21.67,21.67 0 0 1 -4.74,-6.47 19.75,19.75 0 0 1 -1.7,-8.53 17,17 0 0 1 6,-13.31 q 6,-5.25 15.14,-5.26 a 28.12,28.12 0 0 1 15.95,4.54 l -3.15,5.43 a 24.66,24.66 0 0 0 -13.1,-3.78 q -6.33,0 -10.09,3.41 a 11.52,11.52 0 0 0 -3.77,9 13.25,13.25 0 0 0 2.56,8.29 q 2.57,3.34 10.85,8.08 8.13,4.89 11.14,7.81 a 19.3,19.3 0 0 1 4.49,6.46 21.16,21.16 0 0 1 1.34,8.12 z"
         id="path388"
         inkscape:connector-curvature="0"
         style="fill:#002d5d;stroke-width:0.96423692" />
      <path
         class="cls-4"
         d="m 193.94,187.83 h -12.8 v 68.85 h -7.08 v -68.85 h -10.4 l 0.05,-5.67 H 174 l 0.09,-6.5 c 0,-9.49 0.9,-15.53 3.41,-19.67 2.64,-4.35 7,-7.09 13.08,-7.09 h 7.36 v 6 c -1.65,0 -4.81,0 -7,0.09 -3.54,0.06 -5.13,1.15 -6.39,2.48 -1.26,1.33 -1.91,2.94 -2.51,5.92 a 66,66 0 0 0 -0.9,12.38 v 6.26 h 12.8 z"
         id="path390"
         inkscape:connector-curvature="0"
         style="fill:#aca199;stroke-width:0.96423692" />
      <path
         class="cls-4"
         d="m 248.3,219.2 q 0,18.84 -6.51,28.85 -6.51,10.01 -18.64,10 -12,0 -18.34,-10 -6.34,-10 -6.37,-28.85 0,-38.59 25,-38.59 11.75,0 18.3,10.11 6.55,10.11 6.56,28.48 z m -42.4,0 q 0,16.16 4.22,24.41 4.22,8.25 13.18,8.26 17.55,0 17.55,-32.67 0,-32.4 -17.55,-32.4 -9.2,0 -13.29,8.12 -4.09,8.12 -4.11,24.28 z"
         id="path392"
         inkscape:connector-curvature="0"
         style="fill:#aca199;stroke-width:0.96423692" />
      <path
         class="cls-4"
         d="m 259.69,199 c 0,-9.05 10.94,-18.26 22.56,-18.36 7.88,-0.07 10.71,2.2 13.54,3.49 l -3.54,5.5 c -2.47,-1.3 -4.78,-2.36 -10.15,-2.52 a 14.29,14.29 0 0 0 -9.15,2.36 c -2.46,1.64 -5.2,3.29 -6,10.41 -0.56,4.83 -0.2,11.69 -0.2,17.28 v 39.55 h -7.15"
         id="path394"
         inkscape:connector-curvature="0"
         style="fill:#aca199;stroke-width:0.96423692" />
      <path
         class="cls-4"
         d="m 296.86,197.68 c 1.41,-12.29 12.7,-17.14 20.53,-17.14 4.52,0 10.08,1.64 12.8,3.7 2.43,1.83 3.74,3.41 5.18,8.21 2,-4.59 3.55,-6 6.41,-8 a 19.16,19.16 0 0 1 11.15,-3.79 c 6.17,0 12.32,1.92 16,7.26 3,4.27 4.29,10.45 4.29,20 v 48.76 h -7.08 v -50.83 c 0.19,-14.49 -3.65,-19.15 -13.23,-19.15 -4.77,0 -8.22,1.19 -10.75,5.58 -2.53,4.39 -3.66,12.2 -3.66,20.73 v 43.67 h -7.08 v -50.83 q 0,-9.48 -2.93,-14.13 c -2,-3.1 -6.8,-4.75 -10.92,-4.75 -5.42,0 -9.07,2.66 -11.53,7.15 -2.46,4.49 -2.18,11.48 -2.18,21.57 v 41 h -7.16"
         id="path396"
         inkscape:connector-curvature="0"
         style="fill:#aca199;stroke-width:0.96423692" />
      <circle
         class="cls-4"
         cx="389.85001"
         cy="186.98"
         r="6.4400001"
         id="circle398"
         style="fill:#aca199;stroke-width:0.96423692" />
      <circle
         class="cls-4"
         cx="389.85001"
         cy="218.47"
         r="6.4400001"
         id="circle400"
         style="fill:#aca199;stroke-width:0.96423692" />
      <circle
         class="cls-4"
         cx="389.85001"
         cy="249.56"
         r="6.4400001"
         id="circle402"
         style="fill:#aca199;stroke-width:0.96423692" />
    </g>
  </g>
</svg>
