<?xml version="1.0" encoding="UTF-8" standalone="no"?>
<!-- Created with Inkscape (http://www.inkscape.org/) -->

<svg
   xmlns:dc="http://purl.org/dc/elements/1.1/"
   xmlns:cc="http://creativecommons.org/ns#"
   xmlns:rdf="http://www.w3.org/1999/02/22-rdf-syntax-ns#"
   xmlns:svg="http://www.w3.org/2000/svg"
   xmlns="http://www.w3.org/2000/svg"
   xmlns:sodipodi="http://sodipodi.sourceforge.net/DTD/sodipodi-0.dtd"
   xmlns:inkscape="http://www.inkscape.org/namespaces/inkscape"
   width="500"
   height="500"
   viewBox="0 0 132.29166 132.29167"
   version="1.1"
   id="svg8"
   inkscape:version="0.92.4 (5da689c313, 2019-01-14)"
   sodipodi:docname="wplms.svg">
  <defs
     id="defs2" />
  <sodipodi:namedview
     id="base"
     pagecolor="#ffffff"
     bordercolor="#a52828"
     borderopacity="1"
     inkscape:pageopacity="0.0"
     inkscape:pageshadow="2"
     inkscape:zoom="0.98994949"
     inkscape:cx="84.683527"
     inkscape:cy="168.3206"
     inkscape:document-units="px"
     inkscape:current-layer="layer1"
     showgrid="false"
     units="px"
     borderlayer="false"
     inkscape:pagecheckerboard="false"
     inkscape:window-width="1920"
     inkscape:window-height="1012"
     inkscape:window-x="-8"
     inkscape:window-y="-8"
     inkscape:window-maximized="1"
     showguides="true"
     inkscape:guide-bbox="true"
     inkscape:measure-start="249.821,63.0357"
     inkscape:measure-end="249.821,0">
    <sodipodi:guide
       position="9.5882942,66.182616"
       orientation="0,1"
       id="guide859"
       inkscape:locked="false" />
    <sodipodi:guide
       position="66.145833,14.717448"
       orientation="1,0"
       id="guide863"
       inkscape:locked="false" />
    <sodipodi:guide
       position="91.281245,132.29167"
       orientation="0,1"
       id="guide865"
       inkscape:locked="false" />
    <sodipodi:guide
       position="4.943e-007,86.758659"
       orientation="1,0"
       id="guide867"
       inkscape:locked="false" />
  </sodipodi:namedview>
  <metadata
     id="metadata5">
    <rdf:RDF>
      <cc:Work
         rdf:about="">
        <dc:format>image/svg+xml</dc:format>
        <dc:type
           rdf:resource="http://purl.org/dc/dcmitype/StillImage" />
        <dc:title></dc:title>
      </cc:Work>
    </rdf:RDF>
  </metadata>
  <g
     inkscape:label="Capa 1"
     inkscape:groupmode="layer"
     id="layer1"
     transform="translate(0,-164.70832)">
    <path
       style="opacity:1;fill:#ffffff;fill-opacity:1;fill-rule:nonzero;stroke:none;stroke-width:0.26458332;stroke-linecap:butt;stroke-linejoin:miter;stroke-miterlimit:1.41420996;stroke-dasharray:none;stroke-opacity:1;paint-order:markers stroke fill"
       d="M 0,164.70832 V 296.99998 H 132.29167 V 164.70832 Z"
       id="rect815"
       inkscape:connector-curvature="0" />
    <path
       style="fill:#5533ff;fill-opacity:1;stroke-width:0.26458332"
       d="m 44.304696,254.24536 c -1.147462,-0.93214 -0.914785,-3.46484 1.05455,-11.47876 0.923293,-3.75721 1.623121,-6.88688 1.555172,-6.95483 -0.06795,-0.0679 -0.743764,0.34988 -1.501813,0.92851 -0.75805,0.57864 -1.822335,1.13537 -2.36508,1.23719 -0.670093,0.12571 -1.158174,0.47522 -1.520735,1.08898 -0.866617,1.46707 -4.331108,4.97817 -6.29461,6.37929 -3.377526,2.41015 -5.888506,3.26179 -7.334846,2.48774 -0.76105,-0.4073 -1.44642,-2.02304 -1.44642,-3.40989 v -1.06701 l -1.81361,1.46746 c -2.26798,1.83511 -5.1331,3.3317 -6.3783,3.3317 -0.63649,0 -1.18864,-0.25452 -1.67308,-0.77121 -0.6646,-0.70886 -0.72197,-1.00426 -0.70952,-3.65362 0.0124,-2.63647 0.19833,-3.55291 2.17917,-10.74022 1.1911,-4.32178 2.67433,-10.22724 3.29606,-13.12322 l 1.13042,-5.26542 1.08547,-0.0923 c 1.56235,-0.13288 2.58514,0.94143 2.58514,2.71535 0,1.44027 0.009,1.40274 -3.8541,15.86143 -2.71074,10.14539 -3.12629,12.56085 -2.28156,13.26191 0.87908,0.72958 3.37361,-1.34819 5.0472,-4.20396 1.93973,-3.30991 4.34872,-10.86741 6.164841,-19.3404 1.245405,-5.81034 1.059066,-5.36859 2.264518,-5.36859 0.718641,0 1.274856,0.2375 1.810392,0.77304 0.722643,0.72264 0.761406,0.90251 0.594553,2.75886 -0.09817,1.0922 -1.391381,6.41491 -2.873801,11.82824 -2.904833,10.60753 -3.211667,12.57941 -2.080674,13.37159 0.912714,0.63929 1.73371,0.27912 3.57651,-1.569 1.125287,-1.12853 2.122418,-2.57704 3.106809,-4.51317 l 1.449666,-2.85125 -0.867314,-1.77171 c -0.755311,-1.54292 -0.881094,-2.1761 -0.974063,-4.90338 -0.240664,-7.06004 2.026674,-13.93701 5.184777,-15.72577 2.017053,-1.14245 3.600327,-0.82838 4.518976,0.89643 0.682295,1.28104 0.662429,5.74864 -0.04074,9.16249 -0.658218,3.19563 -2.300414,8.27595 -3.398444,10.51349 -0.95901,1.95425 -0.744732,2.10855 1.1677,0.8408 2.555346,-1.69394 2.838727,-2.18082 3.984006,-6.84508 0.578711,-2.35685 1.139009,-4.93956 1.245104,-5.73934 l 0.192899,-1.45416 h 1.296848 c 1.557208,0 2.207651,0.7561 2.283344,2.65424 0.02682,0.67269 0.125533,1.22308 0.219349,1.22308 0.09381,0 0.408822,-0.40333 0.70002,-0.8963 1.548134,-2.62077 4.654993,-2.26431 6.031442,0.69201 0.396004,0.85054 0.721324,1.84842 0.722927,2.21751 0.0041,0.95308 0.501648,0.83578 1.908216,-0.44991 0.674506,-0.61655 1.600542,-1.41159 2.057853,-1.76676 0.626784,-0.4868 1.010845,-1.26447 1.560062,-3.15891 2.120521,-7.31442 6.014399,-13.38641 9.96251,-15.53524 2.6258,-1.42914 5.700816,-0.99395 6.169423,0.87313 0.531738,2.11862 -0.949821,4.99198 -4.356359,8.44878 -1.713722,1.73902 -5.400387,4.83871 -7.717366,6.48866 -0.176683,0.12581 -3.224825,12.57253 -4.091737,16.70807 -0.614364,2.93078 -0.713842,3.89616 -0.459101,4.45526 0.178871,0.39257 0.515422,0.71376 0.7479,0.71376 0.606478,0 2.048666,-2.38013 3.622083,-5.97776 1.322287,-3.02341 1.933115,-4.07709 1.933115,-3.33461 0,0.70379 -1.533759,4.39968 -2.905461,7.00126 -1.974372,3.74462 -3.860589,5.24333 -5.601023,4.45033 -1.35619,-0.61792 -1.786345,-1.72657 -1.75075,-4.51229 0.02601,-2.03592 0.363767,-3.85213 1.68025,-9.03518 0.906229,-3.56788 1.583278,-6.48705 1.504555,-6.48705 -0.07873,0 -1.002608,0.75457 -2.053072,1.67683 -1.686641,1.48078 -1.910191,1.80332 -1.912183,2.75886 -0.01017,4.88145 -2.72025,12.00654 -5.700239,14.98653 -2.125165,2.12517 -4.887781,2.06781 -5.608653,-0.11644 -0.798873,-2.42063 0.994314,-6.17282 5.391787,-11.28216 1.722203,-2.00099 1.784762,-2.13327 1.95193,-4.12728 0.280549,-3.3464 -0.765155,-6.34549 -1.984899,-5.6927 -0.734707,0.3932 -2.223018,3.35808 -3.072651,6.12106 -0.403548,1.31232 -1.926937,7.11629 -3.385314,12.8977 -2.645909,10.48915 -2.653272,10.51168 -3.438748,10.5135 -0.432936,0.001 -1.10401,-0.25558 -1.491274,-0.57017 z m 9.850272,-10.10186 c 0.872877,-1.73258 2.191599,-5.62634 2.546735,-7.51971 l 0.195805,-1.04389 -0.932642,1.04389 c -2.35761,2.63884 -4.750297,6.87037 -4.755868,8.41089 -0.0035,0.95964 0.780576,1.51207 1.5566,1.09676 0.292063,-0.15632 0.91728,-1.05088 1.38937,-1.98794 z M 41.060202,231.65639 c 0.653419,-1.99389 1.535172,-4.94661 1.959454,-6.56161 0.912841,-3.47466 1.303515,-8.21048 0.733926,-8.89679 -2.020274,-2.43428 -5.225575,4.93476 -5.576426,12.8203 -0.14273,3.208 -0.09042,3.76058 0.50457,5.32984 0.476046,1.25555 0.738294,1.63519 0.927126,1.34215 0.144821,-0.22475 0.797928,-2.04 1.45135,-4.03389 z M 76.32423,216.65614 c 2.498322,-2.71077 3.866389,-5.03261 4.041971,-6.8599 0.12621,-1.31352 0.06533,-1.49525 -0.660177,-1.97062 -0.747343,-0.48967 -0.865819,-0.4919 -1.825498,-0.0342 -1.255939,0.59892 -2.706925,2.78762 -4.113847,6.20541 -1.001842,2.43375 -2.279253,6.28894 -2.279253,6.87869 0,0.44784 2.73128,-1.93476 4.836804,-4.21932 z m -3.701574,30.96371 c -1.189351,-0.44026 -1.557739,-1.84191 -1.159202,-4.41056 0.176178,-1.1355 1.195447,-5.69698 2.265041,-10.13662 1.069588,-4.43964 2.028054,-8.6801 2.129911,-9.42325 0.207665,-1.51509 0.852849,-1.90719 2.258698,-1.37269 1.215866,0.46227 1.511411,1.3224 1.359009,3.95506 -0.07447,1.28651 -0.112805,2.33912 -0.08518,2.33912 0.02761,0 0.559209,-0.73901 1.181286,-1.64225 1.487136,-2.15925 3.216527,-3.42809 4.672391,-3.42809 0.61213,0 1.318812,0.20585 1.570406,0.45745 0.620713,0.62071 1.072768,2.36593 1.074774,4.14933 l 0.0017,1.47511 0.923601,-1.47511 c 1.883012,-3.0076 3.870747,-4.60678 5.72598,-4.60678 1.315202,0 1.92104,0.69686 2.28798,2.63173 0.403074,2.12542 0.01459,4.81163 -1.614575,11.16274 -1.351889,5.27034 -1.521638,6.30993 -1.176972,7.20812 0.572381,1.49159 2.115287,-0.4902 4.336577,-5.57015 1.826579,-4.17727 2.454919,-3.98863 0.71497,0.21464 -1.423083,3.4378 -3.442107,6.71842 -4.641806,7.54225 -2.04169,1.40203 -3.908183,0.47299 -4.300075,-2.14034 -0.292377,-1.9497 -0.038,-3.6016 1.515675,-9.84185 1.892456,-7.60106 2.021471,-10.28321 0.45429,-9.44447 -0.944641,0.50555 -3.208056,3.85106 -4.229624,6.25171 -0.804371,1.89022 -2.918998,9.93157 -3.872905,14.72757 l -0.3411,1.71496 h -1.125649 c -1.468566,0 -2.162022,-0.77567 -2.330418,-2.60671 -0.09882,-1.07456 0.31711,-3.16007 1.710766,-8.57785 1.880151,-7.30902 2.484071,-11.2015 1.803212,-11.6223 -0.861929,-0.53269 -3.774915,3.37692 -5.144954,6.90521 -0.464718,1.19681 -1.628055,5.23073 -2.585185,8.96427 -1.183477,4.61648 -1.873808,6.80568 -2.157758,6.84271 -0.229637,0.0299 -0.779061,-0.0794 -1.220951,-0.24296 z m 30.068004,0.0444 c -2.833594,-0.89887 -3.535475,-4.18143 -1.53909,-7.19815 0.7857,-1.18727 3.84589,-3.40946 5.1438,-3.73521 0.82539,-0.20716 0.82507,-0.20142 0.12731,-2.22947 -0.81075,-2.35647 -2.13578,-4.85088 -2.417,-4.55007 -0.13366,0.14297 -0.93827,2.03646 -1.78802,4.20775 -0.84975,2.1713 -1.66937,4.02467 -1.82138,4.11861 -0.590544,0.36497 -0.21317,-1.12563 1.34878,-5.32764 l 1.62514,-4.37202 -0.72678,-1.27116 c -1.64637,-2.87953 -0.5829,-6.02949 2.1598,-6.39728 2.20407,-0.29556 2.26398,-0.16561 1.27401,2.76311 l -0.87467,2.58762 1.81247,2.25302 c 0.99685,1.23917 2.30267,3.24518 2.90183,4.4578 1.05323,2.13165 1.11904,2.19868 1.98413,2.02103 2.11615,-0.43456 4.71816,-0.55328 4.50319,-0.20546 -0.11753,0.19018 -0.49677,0.34578 -0.84273,0.34578 -0.34598,0 -1.46939,0.14633 -2.49646,0.32519 l -1.86742,0.32519 0.16359,2.5828 c 0.19328,3.05151 -0.13797,4.5076 -1.47745,6.49453 -1.51789,2.25159 -4.8454,3.54873 -7.19305,2.80403 z m 2.20177,-1.69314 c 1.08549,-0.64121 2.01369,-2.31635 2.3943,-4.32104 0.35184,-1.85321 0.10041,-4.13153 -0.45595,-4.13153 -0.73429,0 -4.00292,2.42649 -4.62541,3.43371 -1.00546,1.62687 -1.22771,2.76021 -0.76053,3.87831 0.67743,1.62134 1.9314,2.03619 3.44759,1.14055 z"
       id="path5059"
       inkscape:connector-curvature="0"
       inkscape:export-xdpi="141.17647"
       inkscape:export-ydpi="141.17647" />
  </g>
</svg>
