<?xml version="1.0" encoding="UTF-8" standalone="no"?>
<!-- Created with Inkscape (http://www.inkscape.org/) -->

<svg
   xmlns:dc="http://purl.org/dc/elements/1.1/"
   xmlns:cc="http://creativecommons.org/ns#"
   xmlns:rdf="http://www.w3.org/1999/02/22-rdf-syntax-ns#"
   xmlns:svg="http://www.w3.org/2000/svg"
   xmlns="http://www.w3.org/2000/svg"
   xmlns:sodipodi="http://sodipodi.sourceforge.net/DTD/sodipodi-0.dtd"
   xmlns:inkscape="http://www.inkscape.org/namespaces/inkscape"
   width="500"
   height="500"
   viewBox="0 0 132.29166 132.29167"
   version="1.1"
   id="svg8"
   inkscape:version="0.92.4 (5da689c313, 2019-01-14)"
   sodipodi:docname="wp-all-import.svg">
  <defs
     id="defs2" />
  <sodipodi:namedview
     id="base"
     pagecolor="#ffffff"
     bordercolor="#a52828"
     borderopacity="1"
     inkscape:pageopacity="0.0"
     inkscape:pageshadow="2"
     inkscape:zoom="1.4"
     inkscape:cx="28.890933"
     inkscape:cy="203.77405"
     inkscape:document-units="px"
     inkscape:current-layer="layer1"
     showgrid="false"
     units="px"
     borderlayer="false"
     inkscape:pagecheckerboard="false"
     inkscape:window-width="1920"
     inkscape:window-height="1002"
     inkscape:window-x="-8"
     inkscape:window-y="-8"
     inkscape:window-maximized="1"
     showguides="true"
     inkscape:guide-bbox="true"
     inkscape:measure-start="249.821,63.0357"
     inkscape:measure-end="249.821,0">
    <sodipodi:guide
       position="9.5882942,66.182616"
       orientation="0,1"
       id="guide859"
       inkscape:locked="false" />
    <sodipodi:guide
       position="66.145833,14.717448"
       orientation="1,0"
       id="guide863"
       inkscape:locked="false" />
    <sodipodi:guide
       position="91.281245,132.29167"
       orientation="0,1"
       id="guide865"
       inkscape:locked="false" />
    <sodipodi:guide
       position="4.943e-007,86.758659"
       orientation="1,0"
       id="guide867"
       inkscape:locked="false" />
  </sodipodi:namedview>
  <metadata
     id="metadata5">
    <rdf:RDF>
      <cc:Work
         rdf:about="">
        <dc:format>image/svg+xml</dc:format>
        <dc:type
           rdf:resource="http://purl.org/dc/dcmitype/StillImage" />
        <dc:title></dc:title>
      </cc:Work>
    </rdf:RDF>
  </metadata>
  <g
     inkscape:label="Capa 1"
     inkscape:groupmode="layer"
     id="layer1"
     transform="translate(0,-164.70832)">
    <path
       style="opacity:1;fill:#ffffff;fill-opacity:1;fill-rule:nonzero;stroke:none;stroke-width:0.26458332;stroke-linecap:butt;stroke-linejoin:miter;stroke-miterlimit:1.41420996;stroke-dasharray:none;stroke-opacity:1;paint-order:markers stroke fill"
       d="M 0,164.70832 V 296.99998 H 132.29167 V 164.70832 Z"
       id="rect815"
       inkscape:connector-curvature="0" />
    <g
       transform="matrix(1.5707181,0,0,1.5707181,14.493398,180.59902)"
       id="b"
       style="stroke-width:0.16844738"
       inkscape:export-xdpi="96"
       inkscape:export-ydpi="96">
      <path
         d="m 24.22,32.86 c 1.43,0 2.59,-1.16 2.59,-2.59 0,-1.43 -1.16,-2.59 -2.59,-2.59 -1.43,0 -2.59,1.16 -2.59,2.59 0,1.43 1.16,2.59 2.59,2.59 z"
         style="fill:#02b3b6;stroke-width:0.16844738"
         id="path7"
         inkscape:connector-curvature="0" />
      <path
         d="m 39.78,32.86 c 1.43,0 2.59,-1.16 2.59,-2.59 0,-1.43 -1.16,-2.59 -2.59,-2.59 -1.43,0 -2.59,1.16 -2.59,2.59 0,1.43 1.16,2.59 2.59,2.59 z"
         style="fill:#02b3b6;stroke-width:0.16844738"
         id="path9"
         inkscape:connector-curvature="0" />
      <path
         d="m 62.13,34.57 c -0.34,-0.23 -0.77,-0.3 -1.15,-0.17 l -7.04,2.31 c -0.7,0.23 -1.08,0.98 -0.85,1.66 0.23,0.7 0.98,1.08 1.66,0.85 l 2.75,-0.91 c -2.04,3.01 -7.08,9.34 -12.79,8.37 -1.04,-0.17 -1.81,-0.81 -2.02,-1.64 -0.3,-1.15 0.47,-2.53 2.09,-3.84 6.3,-4.99 9.76,-11.6 9.76,-18.62 C 54.52,10.12 44.41,-0.01 31.95,-0.01 19.49,-0.01 9.41,10.13 9.41,22.61 c 0,7.01 3.47,13.63 9.76,18.62 1.62,1.29 2.38,2.68 2.09,3.84 -0.21,0.83 -1,1.47 -2.02,1.64 -5.7,0.96 -10.76,-5.37 -12.79,-8.37 l 2.74,0.91 C 9.89,39.48 10.62,39.1 10.85,38.4 11.08,37.7 10.7,36.96 10,36.74 L 2.96,34.42 C 2.56,34.29 2.15,34.34 1.81,34.59 1.47,34.82 1.26,35.19 1.24,35.61 L 0.86,43.26 C 0.82,44 1.39,44.6 2.11,44.64 h 0.08 c 0.7,0 1.28,-0.55 1.32,-1.27 l 0.15,-3.12 c 2.25,3.29 7.6,9.92 14.4,9.92 0.57,0 1.15,-0.04 1.75,-0.15 2.38,-0.4 4.19,-1.98 4.76,-4.16 0.64,-2.51 -0.55,-5.18 -3.26,-7.33 C 18.14,36.02 12.84,30.61 12.84,22.58 12.83,11.98 21.43,3.36 32,3.36 c 10.57,0 19.17,8.62 19.17,19.2 0,8.03 -5.3,13.44 -8.47,15.95 -2.72,2.15 -3.92,4.84 -3.26,7.33 0.55,2.15 2.38,3.74 4.75,4.16 7.62,1.29 13.72,-6.2 16.15,-9.77 l 0.15,3.1 c 0.04,0.7 0.62,1.27 1.32,1.27 h 0.08 c 0.74,-0.04 1.28,-0.66 1.25,-1.38 l -0.38,-7.65 c -0.08,-0.38 -0.3,-0.77 -0.62,-1 z"
         style="fill:#02b3b6;fill-rule:evenodd;stroke-width:0.16844738"
         id="path11"
         inkscape:connector-curvature="0" />
      <path
         d="m 45.24,55.17 c -0.22,-0.67 -0.94,-1.04 -1.59,-0.8 -0.67,0.22 -1.03,0.95 -0.79,1.6 l 1.03,3.15 c -7.56,-4.39 -9.11,-9.8 -9.62,-14.57 -0.07,-0.75 -0.7,-1.31 -1.44,-1.31 -0.74,0 -1.35,0.56 -1.44,1.31 -0.51,4.75 -2.06,10.16 -9.58,14.53 l 1.03,-3.13 c 0.22,-0.67 -0.14,-1.38 -0.79,-1.6 -0.67,-0.22 -1.37,0.15 -1.59,0.8 l -2.22,6.79 c -0.13,0.38 -0.07,0.78 0.16,1.11 0.23,0.33 0.58,0.53 0.97,0.55 l 7.31,0.4 h 0.07 c 0.67,0 1.23,-0.53 1.26,-1.2 0.04,-0.71 -0.51,-1.31 -1.19,-1.35 l -3.01,-0.16 c 4.47,-2.71 7.42,-6.01 9.06,-10.25 1.64,4.24 4.58,7.54 9.06,10.25 l -3,0.16 c -0.7,0.04 -1.23,0.64 -1.19,1.35 0.04,0.67 0.6,1.2 1.26,1.2 h 0.07 l 7.31,-0.4 c 0.4,-0.02 0.76,-0.22 0.97,-0.55 0.22,-0.33 0.27,-0.75 0.16,-1.11 z"
         style="fill:#02b3b6;fill-rule:evenodd;stroke-width:0.16844738"
         id="path13"
         inkscape:connector-curvature="0" />
    </g>
  </g>
</svg>
