<?xml version="1.0" encoding="UTF-8" standalone="no"?>
<!-- Created with Inkscape (http://www.inkscape.org/) -->

<svg
   xmlns:dc="http://purl.org/dc/elements/1.1/"
   xmlns:cc="http://creativecommons.org/ns#"
   xmlns:rdf="http://www.w3.org/1999/02/22-rdf-syntax-ns#"
   xmlns:svg="http://www.w3.org/2000/svg"
   xmlns="http://www.w3.org/2000/svg"
   xmlns:sodipodi="http://sodipodi.sourceforge.net/DTD/sodipodi-0.dtd"
   xmlns:inkscape="http://www.inkscape.org/namespaces/inkscape"
   width="500"
   height="500"
   viewBox="0 0 132.29166 132.29167"
   version="1.1"
   id="svg8"
   inkscape:version="0.92.4 (5da689c313, 2019-01-14)"
   sodipodi:docname="icon-template.svg">
  <defs
     id="defs2" />
  <sodipodi:namedview
     id="base"
     pagecolor="#ffffff"
     bordercolor="#a52828"
     borderopacity="1"
     inkscape:pageopacity="0.0"
     inkscape:pageshadow="2"
     inkscape:zoom="1.4"
     inkscape:cx="324.76988"
     inkscape:cy="247.68825"
     inkscape:document-units="px"
     inkscape:current-layer="layer1"
     showgrid="false"
     units="px"
     borderlayer="false"
     inkscape:pagecheckerboard="false"
     inkscape:window-width="1920"
     inkscape:window-height="1012"
     inkscape:window-x="-8"
     inkscape:window-y="-8"
     inkscape:window-maximized="1"
     showguides="true"
     inkscape:guide-bbox="true"
     inkscape:measure-start="249.821,63.0357"
     inkscape:measure-end="249.821,0">
    <sodipodi:guide
       position="9.5882942,66.182616"
       orientation="0,1"
       id="guide859"
       inkscape:locked="false" />
    <sodipodi:guide
       position="66.145833,14.717448"
       orientation="1,0"
       id="guide863"
       inkscape:locked="false" />
    <sodipodi:guide
       position="91.281245,132.29167"
       orientation="0,1"
       id="guide865"
       inkscape:locked="false" />
    <sodipodi:guide
       position="4.943e-007,86.758659"
       orientation="1,0"
       id="guide867"
       inkscape:locked="false" />
  </sodipodi:namedview>
  <metadata
     id="metadata5">
    <rdf:RDF>
      <cc:Work
         rdf:about="">
        <dc:format>image/svg+xml</dc:format>
        <dc:type
           rdf:resource="http://purl.org/dc/dcmitype/StillImage" />
        <dc:title></dc:title>
      </cc:Work>
    </rdf:RDF>
  </metadata>
  <g
     inkscape:label="Capa 1"
     inkscape:groupmode="layer"
     id="layer1"
     transform="translate(0,-164.70832)">
    <path
       style="opacity:1;fill:#ffffff;fill-opacity:1;fill-rule:nonzero;stroke:none;stroke-width:0.26458332;stroke-linecap:butt;stroke-linejoin:miter;stroke-miterlimit:1.41420996;stroke-dasharray:none;stroke-opacity:1;paint-order:markers stroke fill"
       d="M 0,164.70832 V 296.99998 H 132.29167 V 164.70832 Z"
       id="rect815"
       inkscape:connector-curvature="0" />
    <path
       id="Fill-1"
       d="m 69.983865,246.13287 c -3.2732,1.32789 -6.302513,2.0442 -8.504909,1.92554 -2.852796,-0.15906 -4.070823,-1.41723 -4.075219,-1.89039 -0.0019,-0.33692 1.061284,-1.39234 4.344751,-1.63109 0.514891,-0.0366 1.058347,-0.0602 1.617923,-0.0602 2.24342,0 4.740254,0.36916 6.617454,1.65601 m 6.12308,28.93005 c -12.002243,3.31056 -24.685652,0.25714 -32.316785,-7.78567 -5.400169,-5.69094 -7.210723,-12.81306 -4.968769,-19.53963 4.510271,-13.53374 26.125595,-21.65707 39.939864,-21.65707 0.14869,0 0.29663,6.2e-4 0.44312,0.002 5.14747,0.066 8.71218,1.31028 9.30325,3.24903 0.33106,1.08471 -0.45191,2.98388 -2.09473,5.07863 -2.89893,3.69655 -7.30374,7.04664 -11.78398,9.50394 -2.84035,-3.11647 -7.39677,-4.53445 -13.22394,-4.11477 -6.487081,0.47096 -8.773716,3.61891 -8.750277,6.40799 0.02574,3.04103 2.974377,6.28201 8.560583,6.59255 3.380872,0.18451 7.421664,-0.85692 11.479294,-2.63233 0.59546,2.33645 0.41089,5.40163 -0.56324,9.05643 -0.33764,1.26636 0.41529,2.56863 1.68238,2.90626 1.26564,0.33766 2.56788,-0.41528 2.90626,-1.6831 1.32423,-4.96584 1.42237,-9.13114 0.29883,-12.44025 5.29763,-2.9729 10.19462,-6.92215 13.13092,-10.66557 2.75538,-3.51345 3.73098,-6.67458 2.90113,-9.39626 -0.60278,-1.97618 -2.02223,-3.54357 -4.1609,-4.6554 0.16332,-17.84479 3.32667,-30.17077 6.17435,-30.18761 h 0.0174 c 0.41821,0 0.98438,0.0938 1.67799,0.78295 2.31373,2.29981 5.070555,9.84967 5.070555,32.75917 0,22.60483 -1.935053,41.85076 -25.723475,48.41768 M 53.448563,222.33939 c -0.0031,-0.0594 0.0043,-0.11797 -0.0031,-0.17789 -0.01033,-0.0856 -0.02042,-0.17656 -0.03149,-0.2643 -0.341309,-4.87284 0.243177,-8.71294 1.729258,-10.77252 0.738281,-1.02247 1.664069,-1.57031 2.914311,-1.72411 1.743176,-0.21023 3.161149,0.23938 4.352069,1.38353 2.306413,2.21705 3.6526,7.01078 3.524427,12.25494 -3.954357,0.9756 -8.003204,2.365 -11.849899,4.15358 -0.303222,-1.70216 -0.512695,-3.32373 -0.635747,-4.85305 m 20.457353,-8.27419 c 0.87452,-0.95143 1.99001,-1.41432 3.4131,-1.41432 2.26173,0 3.24466,0.73977 3.78811,1.2964 1.29932,1.33081 1.99952,3.91187 2.09547,7.67069 -1.21656,-0.16834 -2.52833,-0.26661 -3.93752,-0.28419 -0.16039,-0.002 -0.32007,-0.002 -0.48193,-0.002 -2.14381,0 -4.48024,0.1861 -6.91922,0.54054 -0.10546,-3.4446 0.6145,-6.25126 2.04199,-7.80618 M 100.10833,190.5182 c -1.424555,-1.41651 -3.163345,-2.16431 -5.031015,-2.16431 h -0.0418 c -6.25711,0.0373 -8.41557,9.37283 -9.49589,16.39166 -0.3164,2.05958 -0.56104,4.16165 -0.75147,6.19633 -0.093,-0.10392 -0.18456,-0.21155 -0.28199,-0.31128 -1.7666,-1.80983 -4.18507,-2.72756 -7.18728,-2.72756 -2.74879,0 -5.13869,1.01954 -6.91116,2.95022 -0.50538,0.55078 -0.9397,1.18872 -1.33228,1.87281 -0.78296,-2.06032 -1.87794,-3.92581 -3.374276,-5.36502 -2.223648,-2.13648 -5.064724,-3.06153 -8.222939,-2.67334 -2.545174,0.31274 -4.68459,1.57691 -6.186793,3.65846 -0.0061,0.0105 -0.01112,0.0185 -0.01749,0.0278 -2.602321,-12.97859 -7.549849,-28.65029 -16.18221,-27.75379 -2.124032,0.22348 -4.001236,1.3667 -5.427268,3.3047 -6.659207,9.05278 -3.534681,35.97232 -0.639407,50.4509 0.226317,1.12867 1.217291,1.91016 2.326183,1.91016 0.154553,0 0.31128,-0.0159 0.468753,-0.047 1.285404,-0.25715 2.119636,-1.50809 1.862554,-2.79423 -4.848652,-24.24326 -3.766859,-41.84636 -0.191881,-46.70524 0.840092,-1.14188 1.599618,-1.34402 2.098399,-1.396 4.765156,-0.49588 10.635541,16.15362 13.113333,37.16762 0.198481,2.6023 0.592531,5.03908 0.97266,6.93313 0.0014,0.008 0.0058,0.0159 0.0072,0.0265 -7.136015,4.11329 -13.024712,9.73758 -15.367005,16.76667 -2.81544,8.44413 -0.617435,17.30574 6.029323,24.31065 6.489283,6.83793 16.063539,10.57695 26.113874,10.57695 3.61599,0 7.29495,-0.48487 10.91167,-1.48317 26.975925,-7.44582 29.209825,-29.31677 29.209825,-52.99534 0,-20.25885 -2.05665,-31.73816 -6.47171,-36.12757"
       inkscape:connector-curvature="0"
       style="fill:#0f1031;fill-rule:nonzero;stroke:none;stroke-width:0.26458332" />
  </g>
</svg>
