<?xml version="1.0" encoding="UTF-8" standalone="no"?>
<!-- Created with Inkscape (http://www.inkscape.org/) -->

<svg
   xmlns:dc="http://purl.org/dc/elements/1.1/"
   xmlns:cc="http://creativecommons.org/ns#"
   xmlns:rdf="http://www.w3.org/1999/02/22-rdf-syntax-ns#"
   xmlns:svg="http://www.w3.org/2000/svg"
   xmlns="http://www.w3.org/2000/svg"
   xmlns:xlink="http://www.w3.org/1999/xlink"
   xmlns:sodipodi="http://sodipodi.sourceforge.net/DTD/sodipodi-0.dtd"
   xmlns:inkscape="http://www.inkscape.org/namespaces/inkscape"
   width="500"
   height="500"
   viewBox="0 0 132.29166 132.29167"
   version="1.1"
   id="svg8"
   inkscape:version="0.92.4 (5da689c313, 2019-01-14)"
   sodipodi:docname="modern-events-calendar.svg">
  <defs
     id="defs2">
    <linearGradient
       gradientTransform="matrix(1.1736962,0,0,1.1737565,-66.637711,-76.23825)"
       id="linear-gradient"
       x1="183.64075"
       y1="307.83783"
       x2="301.51675"
       y2="190.10681"
       gradientUnits="userSpaceOnUse">
      <stop
         offset="0"
         stop-color="#18cde9"
         id="stop2" />
      <stop
         offset="0.435"
         stop-color="#17a3d8"
         id="stop4" />
      <stop
         offset="1"
         stop-color="#7af6ff"
         id="stop6" />
    </linearGradient>
    <linearGradient
       gradientTransform="matrix(1.1736962,0,0,1.1737565,-66.637711,-76.23825)"
       id="linear-gradient-2"
       x1="255.07167"
       y1="254.21748"
       x2="284.15543"
       y2="283.53757"
       gradientUnits="userSpaceOnUse">
      <stop
         offset="0"
         stop-color="#0eb0c9"
         id="stop9" />
      <stop
         offset="0.466"
         stop-color="#15cfec"
         id="stop11" />
      <stop
         offset="1"
         stop-color="#7af6ff"
         id="stop13" />
    </linearGradient>
    <linearGradient
       gradientTransform="matrix(1.1737264,0,0,1.1737264,-66.637711,-76.23825)"
       id="linear-gradient-3"
       x1="230.09283"
       y1="293.12982"
       x2="135.50717"
       y2="255.03018"
       gradientUnits="userSpaceOnUse">
      <stop
         offset="0"
         stop-color="#75eaaf"
         id="stop16" />
      <stop
         offset="0.489"
         stop-color="#71ebb3"
         id="stop18" />
      <stop
         offset="1"
         stop-color="#b7ea68"
         id="stop20" />
    </linearGradient>
    <linearGradient
       gradientTransform="matrix(1.1737264,0,0,1.1737264,-66.637711,-76.23825)"
       id="linear-gradient-4"
       x1="227.31679"
       y1="285.21829"
       x2="185.59212"
       y2="303.25766"
       gradientUnits="userSpaceOnUse">
      <stop
         offset="0"
         stop-color="#75eaaf"
         id="stop23" />
      <stop
         offset="0.489"
         stop-color="#71ebb3"
         id="stop25" />
      <stop
         offset="1"
         stop-color="#b9eb44"
         id="stop27" />
    </linearGradient>
    <linearGradient
       gradientTransform="matrix(1.2004136,0,0,1.1476325,-66.637711,-76.23825)"
       id="linear-gradient-5"
       x1="209.06062"
       y1="304.97946"
       x2="237.31747"
       y2="335.64636"
       gradientUnits="userSpaceOnUse">
      <stop
         offset="0"
         stop-color="#61de9c"
         id="stop30" />
      <stop
         offset="1"
         stop-color="#39dcbe"
         id="stop32" />
    </linearGradient>
    <linearGradient
       gradientTransform="matrix(1.0119148,0,0,1.3614127,-66.637711,-76.23825)"
       id="linear-gradient-6"
       x1="268.89481"
       y1="242.23996"
       x2="304.46701"
       y2="263.91068"
       gradientUnits="userSpaceOnUse">
      <stop
         offset="0"
         stop-color="#0094cf"
         id="stop35" />
      <stop
         offset="1"
         stop-color="#01aae2"
         stop-opacity="0.102"
         id="stop37" />
    </linearGradient>
    <linearGradient
       y2="104.0061"
       gradientTransform="matrix(1.8616814,0,0,0.73999426,-70.426671,-75.47958)"
       id="linear-gradient-7"
       x1="157.61644"
       y1="485.41425"
       x2="157.61644"
       gradientUnits="userSpaceOnUse">
      <stop
         offset="0"
         stop-color="#a8ea79"
         id="stop40" />
      <stop
         offset="0.736"
         stop-color="#4ee5fe"
         id="stop42" />
      <stop
         offset="1"
         stop-color="#00dcff"
         id="stop44" />
    </linearGradient>
    <linearGradient
       gradientTransform="matrix(1.4323927,0,0,0.96177088,-70.426671,-75.47958)"
       id="linear-gradient-8"
       x1="258.85205"
       y1="515.15692"
       x2="120.74867"
       y2="124.72651"
       gradientUnits="userSpaceOnUse">
      <stop
         offset="0"
         stop-color="#b8f58d"
         id="stop47" />
      <stop
         offset="1"
         stop-color="#29e2ed"
         id="stop49" />
    </linearGradient>
    <linearGradient
       gradientTransform="matrix(0.85366445,0,0,1.6137882,-70.426671,-75.47958)"
       id="linear-gradient-9"
       x1="54.374958"
       y1="149.76503"
       x2="59.946159"
       y2="47.366295"
       gradientUnits="userSpaceOnUse">
      <stop
         offset="0"
         stop-color="#54e8d0"
         id="stop52" />
      <stop
         offset="1"
         stop-color="#3ee3fe"
         id="stop54" />
    </linearGradient>
    <linearGradient
       y2="83.237152"
       gradientTransform="matrix(0.85366445,0,0,1.6137882,-70.426671,-75.47958)"
       x2="133.15724"
       y1="181.72382"
       x1="133.15724"
       gradientUnits="userSpaceOnUse"
       id="linearGradient4767"
       xlink:href="#linear-gradient-10"
       inkscape:collect="always" />
    <linearGradient
       id="linear-gradient-10"
       x1="0.308"
       y1="0.71100003"
       x2="0.5"
       gradientUnits="objectBoundingBox">
      <stop
         offset="0.247"
         stop-color="#09b1dd"
         stop-opacity="0"
         id="stop57" />
      <stop
         offset="1"
         stop-color="#05a9e2"
         id="stop59" />
    </linearGradient>
    <linearGradient
       gradientTransform="matrix(1.2538508,0,0,1.098722,-70.426671,-75.47958)"
       id="linear-gradient-11"
       x1="141.51869"
       y1="128.46275"
       x2="153.27968"
       y2="169.22607"
       gradientUnits="userSpaceOnUse">
      <stop
         offset="0"
         stop-color="#48e4fe"
         id="stop62" />
      <stop
         offset="1"
         stop-color="#5de5e7"
         id="stop64" />
    </linearGradient>
    <linearGradient
       y2="130.89709"
       gradientTransform="matrix(1.253744,0,0,1.0988157,-70.426671,-75.47958)"
       id="linear-gradient-12"
       x1="311.62329"
       y1="177.3136"
       x2="323.79141"
       gradientUnits="userSpaceOnUse">
      <stop
         offset="0"
         stop-color="#5de5e6"
         id="stop67" />
      <stop
         offset="1"
         stop-color="#3ee3fe"
         id="stop69" />
    </linearGradient>
    <linearGradient
       gradientTransform="matrix(0.85366445,0,0,1.6137882,-70.426671,-75.47958)"
       id="linear-gradient-13"
       x1="579.45599"
       y1="134.17293"
       x2="555.49982"
       y2="51.273411"
       gradientUnits="userSpaceOnUse">
      <stop
         offset="0"
         stop-color="#85eeaf"
         id="stop72" />
      <stop
         offset="1"
         stop-color="#39e2fe"
         id="stop74" />
    </linearGradient>
    <linearGradient
       gradientUnits="userSpaceOnUse"
       gradientTransform="matrix(0.85366445,0,0,1.6137882,-70.426671,-75.47958)"
       id="linear-gradient-14"
       x1="556.83923"
       y1="181.72382"
       x2="556.83923"
       y2="82.277084"
       xlink:href="#linear-gradient-10" />
    <linearGradient
       id="linearGradient973"
       x1="0.308"
       y1="0.71100003"
       x2="0.5"
       gradientUnits="objectBoundingBox">
      <stop
         offset="0.247"
         stop-color="#09b1dd"
         stop-opacity="0"
         id="stop969" />
      <stop
         offset="1"
         stop-color="#05a9e2"
         id="stop971" />
    </linearGradient>
    <linearGradient
       y1="36.815979"
       gradientTransform="matrix(1.0098848,0,0,1.3641491,-70.286661,-51.39538)"
       id="linear-gradient-15"
       x1="99.594566"
       x2="99.594566"
       y2="95.698158"
       gradientUnits="userSpaceOnUse">
      <stop
         offset="0"
         stop-color="#45e3e5"
         stop-opacity="0"
         id="stop78" />
      <stop
         offset="0.167"
         stop-color="#49e4e1"
         id="stop80" />
      <stop
         offset="0.891"
         stop-color="#58e8cf"
         id="stop82" />
      <stop
         offset="1"
         stop-color="#5ae9cc"
         stop-opacity="0"
         id="stop84" />
    </linearGradient>
    <linearGradient
       y1="34.429958"
       gradientTransform="matrix(1.0112825,0,0,1.3622638,-3.2282771,-50.1793)"
       id="linear-gradient-16"
       x1="32.783424"
       x2="31.962734"
       y2="97.41494"
       gradientUnits="userSpaceOnUse">
      <stop
         offset="0"
         stop-color="#51dacf"
         stop-opacity="0"
         id="stop87" />
      <stop
         offset="0.088"
         stop-color="#57dccb"
         stop-opacity="0.639"
         id="stop89" />
      <stop
         offset="0.676"
         stop-color="#89eeac"
         id="stop91" />
      <stop
         offset="1"
         stop-color="#91f0a7"
         stop-opacity="0"
         id="stop93" />
    </linearGradient>
  </defs>
  <sodipodi:namedview
     id="base"
     pagecolor="#ffffff"
     bordercolor="#a52828"
     borderopacity="1"
     inkscape:pageopacity="0.0"
     inkscape:pageshadow="2"
     inkscape:zoom="2"
     inkscape:cx="210.02997"
     inkscape:cy="279.08142"
     inkscape:document-units="px"
     inkscape:current-layer="layer1"
     showgrid="false"
     units="px"
     borderlayer="false"
     inkscape:pagecheckerboard="false"
     inkscape:window-width="1920"
     inkscape:window-height="1012"
     inkscape:window-x="-8"
     inkscape:window-y="-8"
     inkscape:window-maximized="1"
     showguides="true"
     inkscape:guide-bbox="true"
     inkscape:measure-start="249.821,63.0357"
     inkscape:measure-end="249.821,0">
    <sodipodi:guide
       position="9.5882942,66.182616"
       orientation="0,1"
       id="guide859"
       inkscape:locked="false" />
    <sodipodi:guide
       position="66.145833,14.717448"
       orientation="1,0"
       id="guide863"
       inkscape:locked="false" />
    <sodipodi:guide
       position="91.281245,132.29167"
       orientation="0,1"
       id="guide865"
       inkscape:locked="false" />
    <sodipodi:guide
       position="4.943e-007,86.758659"
       orientation="1,0"
       id="guide867"
       inkscape:locked="false" />
  </sodipodi:namedview>
  <metadata
     id="metadata5">
    <rdf:RDF>
      <cc:Work
         rdf:about="">
        <dc:format>image/svg+xml</dc:format>
        <dc:type
           rdf:resource="http://purl.org/dc/dcmitype/StillImage" />
        <dc:title></dc:title>
      </cc:Work>
    </rdf:RDF>
  </metadata>
  <g
     inkscape:label="Capa 1"
     inkscape:groupmode="layer"
     id="layer1"
     transform="translate(0,-164.70832)">
    <path
       style="opacity:1;fill:#ffffff;fill-opacity:1;fill-rule:nonzero;stroke:none;stroke-width:0.26458332;stroke-linecap:butt;stroke-linejoin:miter;stroke-miterlimit:1.41420996;stroke-dasharray:none;stroke-opacity:1;paint-order:markers stroke fill"
       d="M 0,164.70832 V 296.99998 H 132.29167 V 164.70832 Z"
       id="rect815"
       inkscape:connector-curvature="0" />
    <g
       id="mec_icon"
       data-name="mec icon"
       transform="matrix(0.22542165,0,0,0.22542165,15.832868,182.76848)"
       style="stroke-width:1.17372632">
      <g
         id="Group_9"
         data-name="Group 9"
         transform="translate(22,-9)"
         style="stroke-width:1.17372632">
        <path
           id="Path_25"
           data-name="Path 25"
           d="M 195.22,319.42 172.2,296.4 a 7.007,7.007 0 0 1 0,-9.9 L 280.17,178.53 a 7.007,7.007 0 0 1 9.9,0 l 23.02,23.02 a 7.007,7.007 0 0 1 0,9.9 L 205.12,319.42 a 6.989,6.989 0 0 1 -9.9,0 z"
           inkscape:connector-curvature="0"
           style="fill:url(#linear-gradient);stroke-width:1.17372632" />
        <path
           id="Path_37"
           data-name="Path 37"
           d="M 195.22,319.42 172.2,296.4 a 7.007,7.007 0 0 1 0,-9.9 L 280.17,178.53 a 7.007,7.007 0 0 1 9.9,0 l 23.02,23.02 a 7.007,7.007 0 0 1 0,9.9 L 205.12,319.42 a 6.989,6.989 0 0 1 -9.9,0 z"
           inkscape:connector-curvature="0"
           style="opacity:0.55;fill:url(#linear-gradient-2);stroke-width:1.17372632" />
        <path
           id="Path_26"
           data-name="Path 26"
           d="m 228.14,296.4 -23.02,23.02 a 7.007,7.007 0 0 1 -9.9,0 l -57.76,-57.76 a 7.007,7.007 0 0 1 0,-9.9 l 23.02,-23.02 a 7.007,7.007 0 0 1 9.9,0 l 57.76,57.76 a 7.007,7.007 0 0 1 0,9.9 z"
           inkscape:connector-curvature="0"
           style="fill:url(#linear-gradient-3);stroke-width:1.17372632" />
        <path
           id="Path_36"
           data-name="Path 36"
           d="m 228.14,296.4 -23.02,23.02 a 7.007,7.007 0 0 1 -9.9,0 l -57.76,-57.76 a 7.007,7.007 0 0 1 0,-9.9 l 23.02,-23.02 a 7.007,7.007 0 0 1 9.9,0 l 57.76,57.76 a 7.007,7.007 0 0 1 0,9.9 z"
           inkscape:connector-curvature="0"
           style="opacity:0.31000001;fill:url(#linear-gradient-4);stroke-width:1.17372632" />
        <path
           id="Path_27"
           data-name="Path 27"
           d="m 195.22,319.42 -27.97,-27.97 32.92,-32.92 32.92,32.92 -27.97,27.97 a 6.989,6.989 0 0 1 -9.9,0 z"
           inkscape:connector-curvature="0"
           style="fill:url(#linear-gradient-5);stroke-width:1.17372632" />
        <path
           id="Path_28"
           data-name="Path 28"
           d="m 211.54,247.16 -11.37,11.37 32.92,32.92 z"
           inkscape:connector-curvature="0"
           style="fill:url(#linear-gradient-6);stroke-width:1.17372632" />
      </g>
      <g
         id="Group_1"
         data-name="Group 1"
         transform="translate(0.19,-4.633)"
         style="stroke-width:1.17372632">
        <path
           id="Path_2"
           data-name="Path 2"
           d="M 72.8,214.02 A 69.34,69.34 0 0 1 60,212.81 v 7.85 a 163.175,163.175 0 0 0 326,-0.03 v -7.82 a 69.342,69.342 0 0 1 -12.8,1.21 c -40.21,0 -72.8,-34.56 -72.8,-77.2 a 81.088,81.088 0 0 1 3.93,-25.01 l -60.75,57.28 a 29.992,29.992 0 0 1 -41.16,0 l -60.75,-57.28 a 81.386,81.386 0 0 1 3.93,25.01 c 0,42.64 -32.59,77.2 -72.8,77.2 z"
           inkscape:connector-curvature="0"
           style="fill:none;stroke-width:1.17372632" />
        <path
           id="Path_3"
           data-name="Path 3"
           d="m 363,60.39 c 0.65,-0.1 1.3,-0.19 1.96,-0.26 A 17.3,17.3 0 0 0 363,60.39 Z"
           inkscape:connector-curvature="0"
           style="fill:none;stroke-width:1.17372632" />
        <path
           id="Path_4"
           data-name="Path 4"
           d="m 81.05,60.13 c 0.65,0.08 1.3,0.17 1.95,0.26 a 17.437,17.437 0 0 0 -1.95,-0.26 z"
           inkscape:connector-curvature="0"
           style="fill:none;stroke-width:1.17372632" />
        <path
           id="Path_5"
           data-name="Path 5"
           d="M 398.14,6.66 A 78.191,78.191 0 0 0 312.36,21.77 L 223,106.04 133.65,21.78 A 78.214,78.214 0 0 0 47.86,6.66 78.212,78.212 0 0 0 0,79.44 v 57.38 C 0,94.18 32.59,59.62 72.8,59.62 a 68.185,68.185 0 0 1 8.25,0.51 19.338,19.338 0 0 1 1.95,0.26 c 27.43,4.08 49.94,24.35 58.68,51.42 l 60.75,57.28 a 29.992,29.992 0 0 0 41.16,0 l 60.75,-57.28 c 8.74,-27.07 31.25,-47.34 58.67,-51.42 a 17.007,17.007 0 0 1 1.96,-0.26 70.108,70.108 0 0 1 8.24,-0.51 c 40.21,0 72.8,34.56 72.8,77.2 V 79.44 A 78.237,78.237 0 0 0 398.14,6.66 Z"
           inkscape:connector-curvature="0"
           style="fill:url(#linear-gradient-7);stroke-width:1.17372632" />
        <path
           id="Path_6"
           data-name="Path 6"
           d="m 386,212.81 v 7.82 a 163.175,163.175 0 0 1 -326,0.03 v -7.85 C 25.9,206.39 0,174.83 0,136.82 v 84.47 c 0,0.41 0.01,0.82 0.02,1.22 a 223.177,223.177 0 0 0 377.65,151.46 221.748,221.748 0 0 0 68.29,-151.49 c 0.02,-0.41 0.02,-0.81 0.02,-1.22 v -84.45 c 0.02,38.01 -25.88,69.58 -59.98,76 z"
           inkscape:connector-curvature="0"
           style="fill:url(#linear-gradient-8);stroke-width:1.17372632" />
        <path
           id="Path_7"
           data-name="Path 7"
           d="M 60,212.81 V 79.44 A 18.656,18.656 0 0 1 71.63,61.75 20.323,20.323 0 0 1 81.04,60.12 70.279,70.279 0 0 0 72.79,59.61 C 32.59,59.62 0,94.19 0,136.82 c 0,38 25.9,69.57 60,75.99 z"
           inkscape:connector-curvature="0"
           style="fill:url(#linear-gradient-9);stroke-width:1.17372632" />
        <path
           id="Path_8"
           data-name="Path 8"
           d="M 60,212.81 V 79.44 A 18.656,18.656 0 0 1 71.63,61.75 20.323,20.323 0 0 1 81.04,60.12 70.279,70.279 0 0 0 72.79,59.61 C 32.59,59.62 0,94.19 0,136.82 c 0,38 25.9,69.57 60,75.99 z"
           inkscape:connector-curvature="0"
           style="fill:url(#linearGradient4767);stroke-width:1.17372632" />
        <path
           id="Path_9"
           data-name="Path 9"
           d="M 141.67,111.81 C 132.93,84.74 110.42,64.47 82.99,60.39 a 18.829,18.829 0 0 1 9.49,5.04 z"
           inkscape:connector-curvature="0"
           style="fill:url(#linear-gradient-11);stroke-width:1.17372632" />
        <path
           id="Path_10"
           data-name="Path 10"
           d="M 82.99,60.39"
           inkscape:connector-curvature="0"
           style="fill:#ffffff;stroke-width:1.17372632" />
        <path
           id="Path_11"
           data-name="Path 11"
           d="M 353.52,65.43 A 18.857,18.857 0 0 1 363,60.4 c -27.43,4.08 -49.94,24.36 -58.67,51.42 z"
           inkscape:connector-curvature="0"
           style="fill:url(#linear-gradient-12);stroke-width:1.17372632" />
        <path
           id="Path_12"
           data-name="Path 12"
           d="m 353.52,65.43 v 0"
           inkscape:connector-curvature="0"
           style="fill:#ffffff;stroke-width:1.17372632" />
        <path
           id="Path_13"
           data-name="Path 13"
           d="m 373.2,59.62 a 67.893,67.893 0 0 0 -8.24,0.51 20.193,20.193 0 0 1 9.41,1.63 18.645,18.645 0 0 1 11.63,17.69 v 133.37 c 34.1,-6.42 60,-37.98 60,-75.99 0,-42.64 -32.59,-77.21 -72.8,-77.21 z"
           inkscape:connector-curvature="0"
           style="fill:url(#linear-gradient-13);stroke-width:1.17372632" />
        <path
           id="Path_14"
           data-name="Path 14"
           d="m 373.2,59.62 a 67.893,67.893 0 0 0 -8.24,0.51 20.193,20.193 0 0 1 9.41,1.63 18.645,18.645 0 0 1 11.63,17.69 v 133.37 c 34.1,-6.42 60,-37.98 60,-75.99 0,-42.64 -32.59,-77.21 -72.8,-77.21 z"
           inkscape:connector-curvature="0"
           style="fill:url(#linear-gradient-14);stroke-width:1.17372632" />
        <path
           id="Path_44"
           data-name="Path 44"
           d="M 0,0 H 58.484 V 79 H 0 Z"
           transform="translate(0.806,138.633)"
           inkscape:connector-curvature="0"
           style="fill:url(#linear-gradient-15);stroke-width:1.17372632" />
        <path
           id="Path_45"
           data-name="Path 45"
           d="M 0,0 H 58.646 V 79 H 0 Z"
           transform="translate(386.806,145.633)"
           inkscape:connector-curvature="0"
           style="fill:url(#linear-gradient-16);stroke-width:1.17372632" />
      </g>
    </g>
  </g>
</svg>
