<?xml version="1.0" encoding="UTF-8" standalone="no"?>
<!-- Created with Inkscape (http://www.inkscape.org/) -->

<svg
   xmlns:dc="http://purl.org/dc/elements/1.1/"
   xmlns:cc="http://creativecommons.org/ns#"
   xmlns:rdf="http://www.w3.org/1999/02/22-rdf-syntax-ns#"
   xmlns:svg="http://www.w3.org/2000/svg"
   xmlns="http://www.w3.org/2000/svg"
   xmlns:sodipodi="http://sodipodi.sourceforge.net/DTD/sodipodi-0.dtd"
   xmlns:inkscape="http://www.inkscape.org/namespaces/inkscape"
   width="500"
   height="500"
   viewBox="0 0 132.29166 132.29167"
   version="1.1"
   id="svg8"
   inkscape:version="0.92.4 (5da689c313, 2019-01-14)"
   sodipodi:docname="sensei.svg">
  <defs
     id="defs2" />
  <sodipodi:namedview
     id="base"
     pagecolor="#ffffff"
     bordercolor="#a52828"
     borderopacity="1"
     inkscape:pageopacity="0.0"
     inkscape:pageshadow="2"
     inkscape:zoom="1.4"
     inkscape:cx="185.03365"
     inkscape:cy="184.1593"
     inkscape:document-units="px"
     inkscape:current-layer="layer1"
     showgrid="false"
     units="px"
     borderlayer="false"
     inkscape:pagecheckerboard="false"
     inkscape:window-width="1920"
     inkscape:window-height="1012"
     inkscape:window-x="-8"
     inkscape:window-y="-8"
     inkscape:window-maximized="1"
     showguides="true"
     inkscape:guide-bbox="true"
     inkscape:measure-start="249.821,63.0357"
     inkscape:measure-end="249.821,0">
    <sodipodi:guide
       position="9.5882942,66.182616"
       orientation="0,1"
       id="guide859"
       inkscape:locked="false" />
    <sodipodi:guide
       position="66.145833,14.717448"
       orientation="1,0"
       id="guide863"
       inkscape:locked="false" />
    <sodipodi:guide
       position="91.281245,132.29167"
       orientation="0,1"
       id="guide865"
       inkscape:locked="false" />
    <sodipodi:guide
       position="4.943e-007,86.758659"
       orientation="1,0"
       id="guide867"
       inkscape:locked="false" />
  </sodipodi:namedview>
  <metadata
     id="metadata5">
    <rdf:RDF>
      <cc:Work
         rdf:about="">
        <dc:format>image/svg+xml</dc:format>
        <dc:type
           rdf:resource="http://purl.org/dc/dcmitype/StillImage" />
        <dc:title></dc:title>
      </cc:Work>
    </rdf:RDF>
  </metadata>
  <g
     inkscape:label="Capa 1"
     inkscape:groupmode="layer"
     id="layer1"
     transform="translate(0,-164.70832)">
    <path
       style="opacity:1;fill:#ffffff;fill-opacity:1;fill-rule:nonzero;stroke:none;stroke-width:0.26458332;stroke-linecap:butt;stroke-linejoin:miter;stroke-miterlimit:1.41420996;stroke-dasharray:none;stroke-opacity:1;paint-order:markers stroke fill"
       d="M 0,164.70832 V 296.99998 H 132.29167 V 164.70832 Z"
       id="rect815"
       inkscape:connector-curvature="0" />
    <g
       id="g833"
       transform="matrix(0.51351352,0,0,0.51351352,125.18801,130.37397)"
       style="stroke-width:1.94736838;fill:#000000;fill-opacity:1">
      <path
         style="fill:#000000;fill-opacity:1;stroke-width:1.94736838"
         d="m -98.294357,291.15712 c -0.999344,-0.83493 -1.260034,-0.93428 -1.971743,-0.75141 -0.45109,0.1159 -1.58996,0.17621 -2.53084,0.13402 -1.44786,-0.0649 -1.77306,0.004 -2.11667,0.44816 -0.39405,0.50944 -0.80255,0.5271 -13.89973,0.60094 -13.19936,0.0744 -13.53844,0.0634 -15.54219,-0.50295 -3.33563,-0.94286 -4.90628,-1.68832 -8.53489,-4.05083 -1.89177,-1.23169 -5.78571,-3.43007 -8.6532,-4.88527 -5.76256,-2.92442 -12.38118,-7.22 -12.38118,-8.03558 0,-0.26475 0.22951,-0.68907 0.51002,-0.94292 0.44684,-0.40439 0.72574,-0.42798 2.25161,-0.19042 1.01238,0.15761 2.03238,0.49988 2.43608,0.81743 0.38197,0.30045 0.91907,0.54628 1.19357,0.54628 0.27449,0 1.97592,1.01464 3.78095,2.25475 3.36514,2.31195 5.44086,3.39369 7.11458,3.70769 0.52282,0.0981 1.08847,0.34447 1.257,0.54753 0.16852,0.20305 0.47222,0.36919 0.67489,0.36919 0.20267,0 1.05129,0.38696 1.88583,0.8599 l 1.51735,0.8599 5.55625,-0.079 c 3.05594,-0.0434 6.56828,-0.17911 7.80521,-0.30151 1.23692,-0.12239 4.09442,-0.16934 6.35,-0.10433 5.69952,0.16428 6.3049,0.16689 7.8052,0.0337 0.72761,-0.0646 1.6154,-0.0129 1.97287,0.11491 0.37892,0.13548 3.56862,0.11471 7.64909,-0.0498 6.777471,-0.27326 9.371944,-0.60056 11.677004,-1.47311 0.509323,-0.1928 1.521354,-0.41845 2.248959,-0.50145 1.306795,-0.14906 4.809707,-1.18918 6.35,-1.88551 0.436562,-0.19735 1.74625,-0.66953 2.910416,-1.04928 4.350362,-1.41908 11.706852,-5.96295 21.156473,-13.0677 13.776266,-10.35776 21.985425,-21.99227 25.675052,-36.38821 1.0794,-4.21153 3.905695,-18.82482 4.532093,-23.43308 0.618527,-4.55035 0.620557,-13.76414 0.004,-18.25624 -0.900202,-6.55893 -2.721729,-13.22217 -5.06304,-18.52084 -0.675161,-1.52797 -1.884797,-4.50453 -2.688082,-6.61458 -1.966106,-5.16451 -5.944121,-13.17063 -8.504981,-17.11704 -7.071056,-10.89684 -15.911288,-18.76785 -27.43862,-24.43031 -10.794656,-5.30256 -20.645742,-7.54342 -34.528124,-7.85423 -8.54958,-0.19141 -18.68955,0.53789 -26.98548,1.94088 -7.76888,1.31385 -16.55571,4.81594 -25.13744,10.01879 -3.66724,2.22335 -9.84753,6.4584 -12.43541,8.52139 -6.21264,4.95254 -12.00811,12.00353 -16.50822,20.08451 -0.81881,1.47035 -1.72567,2.88779 -2.01526,3.14986 -0.28959,0.26207 -0.52652,0.70875 -0.52652,0.99261 0,0.28386 -0.29766,0.86985 -0.66146,1.30221 -0.3638,0.43235 -0.66146,1.00051 -0.66146,1.26257 0,0.26206 -0.17094,0.61833 -0.37987,0.79173 -0.20893,0.17339 -0.45873,0.67434 -0.55513,1.11321 -0.0964,0.43888 -0.52076,1.45477 -0.94304,2.25755 -0.42229,0.80277 -0.76779,1.79011 -0.76779,2.19407 0,0.40397 -0.1786,0.88271 -0.39688,1.06387 -0.21828,0.18115 -0.39687,0.51167 -0.39687,0.73447 0,0.2228 -0.31545,1.07142 -0.701,1.88583 -0.38556,0.81441 -0.75832,2.01652 -0.82836,2.67136 -0.0701,0.65485 -0.22461,1.31438 -0.34348,1.46563 -0.11887,0.15125 -0.34896,0.80609 -0.51133,1.45521 -0.16236,0.64911 -0.475,1.89458 -0.69476,2.7677 -0.21975,0.87313 -0.56545,2.42094 -0.76821,3.43959 -0.20277,1.01864 -0.49924,2.50692 -0.65884,3.30729 -0.1596,0.80036 -0.48496,2.34818 -0.72304,3.43958 -0.63669,2.91883 -0.61756,18.14686 0.0259,20.59273 0.24236,0.92125 0.44065,2.03435 0.44065,2.47355 0,0.4392 0.17046,1.17372 0.3788,1.63228 0.20834,0.45855 0.43536,1.36951 0.5045,2.02436 0.0691,0.65484 0.37286,2.38125 0.67493,3.83646 0.30207,1.4552 0.65397,3.14967 0.782,3.76547 0.12803,0.6158 0.35778,1.27065 0.51057,1.45521 0.15278,0.18456 0.41447,1.09041 0.58153,2.01301 0.46174,2.54993 1.26129,4.94831 2.54688,7.63974 0.64049,1.3409 1.16454,2.57268 1.16454,2.73728 0,0.16459 0.23196,0.62503 0.51547,1.02318 0.28351,0.39816 0.75794,1.33906 1.05429,2.0909 0.80389,2.03947 2.08259,4.49205 3.20395,6.14523 0.54842,0.80852 1.19265,1.93799 1.43163,2.50993 0.23897,0.57195 0.64844,1.27966 0.90993,1.57268 0.2615,0.29303 0.92374,1.28426 1.47165,2.20274 0.54792,0.91848 1.61965,2.34723 2.38164,3.175 0.76198,0.82777 1.46221,1.8192 1.55607,2.20316 0.18141,0.74214 1.814,2.34459 2.38868,2.34459 0.36783,0 2.02002,2.14532 2.02002,2.62294 0,0.15811 -0.22839,0.28748 -0.50753,0.28748 -0.27914,0 -0.6907,0.0703 -0.91458,0.1562 -0.26697,0.10244 -1.07118,-0.46851 -2.33675,-1.65897 -1.06132,-0.99835 -3.36528,-2.96313 -5.1199,-4.36617 -5.08132,-4.06317 -8.84223,-8.31148 -12.03013,-13.58921 -1.67432,-2.77192 -6.49245,-12.62277 -8.72965,-17.8481 -2.19015,-5.11544 -4.01817,-10.115 -5.29522,-14.48223 l -1.04957,-3.58931 v -9.19606 -9.19607 l 0.72666,-1.40061 c 0.65588,-1.26418 0.73194,-1.69828 0.78083,-4.45619 0.0639,-3.60791 0.23641,-4.73727 0.82323,-5.39097 0.27459,-0.3059 0.45023,-1.01521 0.47844,-1.93224 0.0258,-0.83825 0.20897,-1.63816 0.43461,-1.89793 0.21451,-0.24696 0.47138,-0.98371 0.57082,-1.63723 0.0994,-0.65352 0.52075,-1.72508 0.93626,-2.38125 0.84746,-1.33831 1.44716,-2.99341 1.72651,-4.76491 0.10326,-0.65484 0.81619,-2.50031 1.58429,-4.10104 0.76809,-1.60073 2.40626,-5.05354 3.64036,-7.67292 4.5263,-9.60708 8.23294,-14.88841 15.4473,-22.00976 10.5626,-10.42643 25.43655,-19.78063 38.36914,-24.1303 2.50256,-0.84169 7.77007,-2.1689 10.56813,-2.66276 2.15989,-0.38122 3.66896,-0.95511 7.13759,-2.71437 1.60773,-0.81543 3.39367,-1.608684 3.96875,-1.762784 0.64645,-0.17322 5.23738,-0.2923 12.02583,-0.31192 l 10.9802,-0.0317 3.571879,0.8046 c 1.964531,0.442534 5.060156,1.120694 6.879167,1.507034 9.191421,1.95216 18.475163,5.8005 26.027835,10.78918 12.10955,7.99857 24.011369,20.94692 33.113257,36.02491 3.268869,5.41513 8.708282,16.92685 9.046232,19.14502 0.08072,0.52982 0.293782,1.1419 0.473469,1.36018 0.374332,0.45473 1.982957,5.2064 1.982957,5.85739 0,0.23767 0.177861,0.77316 0.395245,1.18997 0.217384,0.41682 0.395978,1.1652 0.396875,1.66306 7.94e-4,0.49786 0.190304,1.11369 0.420904,1.3685 0.281694,0.31127 0.442455,1.08018 0.489913,2.34325 0.05527,1.47091 0.189812,2.00789 0.618363,2.46796 0.461891,0.49585 0.577647,1.08019 0.738646,3.72879 0.154998,2.54983 0.308239,3.36143 0.814445,4.31347 l 0.623525,1.1727 v 14.2818 c 0,13.36277 -0.02979,14.29237 -0.463021,14.446 -1.081584,0.38358 -1.389062,0.92637 -1.389062,2.45216 0,1.3813 -0.326705,2.18231 -4.380833,10.74076 -7.455631,15.73919 -10.561699,21.07114 -16.671481,28.61866 -1.71745,2.12159 -2.559002,2.71891 -3.833262,2.7208 -1.522023,0.002 -2.641806,1.02416 -3.233184,2.95058 -0.64865,2.11298 -2.520249,4.04011 -4.821865,4.96492 -0.873125,0.35083 -4.544298,1.99165 -8.158163,3.64626 -3.613861,1.65462 -9.686049,4.26843 -13.49375,5.80848 -3.807698,1.54005 -7.280275,2.95592 -7.716837,3.14637 -0.436563,0.19046 -1.27,0.51967 -1.852083,0.73157 -0.582084,0.21191 -2.248959,0.88103 -3.704167,1.48694 -4.683845,1.95022 -7.373972,2.87849 -8.876168,3.06288 -1.413409,0.17348 -1.510538,0.14448 -2.619435,-0.78197 z m -14.168983,-39.67394 c -1.83687,-0.45376 -3.50885,-1.23809 -5.45138,-2.55723 -1.86705,-1.26789 -4.21764,-2.09805 -5.94062,-2.09805 -0.63713,0 -3.03753,0.31188 -5.33424,0.69306 -4.1259,0.68477 -6.25935,0.77593 -13.17168,0.56282 -1.67609,-0.0517 -2.11666,-0.14786 -2.11666,-0.46213 0,-0.30216 0.47357,-0.43805 1.98437,-0.56943 1.09141,-0.0949 2.92029,-0.47671 4.06418,-0.84845 2.66124,-0.86484 5.18689,-1.37586 9.92453,-2.00805 3.11741,-0.41599 3.90919,-0.61105 4.41707,-1.08818 0.38073,-0.35768 0.82072,-0.52853 1.14361,-0.44409 0.76304,0.19953 3.67776,-0.46518 4.22959,-0.96459 0.3044,-0.27548 0.95053,-0.42721 1.81921,-0.42721 3.01666,0 11.52336,-3.81888 15.51642,-6.96573 1.34192,-1.05754 2.113389,-2.76646 1.877959,-4.15995 -0.27761,-1.64315 -1.153729,-2.1725 -5.174029,-3.12614 -4.75088,-1.12695 -7.00353,-2.23912 -9.39687,-4.63941 -2.55421,-2.56162 -3.34626,-4.25399 -3.49772,-7.47356 -0.15522,-3.2997 0.506,-5.31219 2.65886,-8.09249 0.42055,-0.54312 0.69942,-1.09303 0.6197,-1.22202 -0.0797,-0.12899 -0.59497,-0.30648 -1.14499,-0.39443 -0.60193,-0.0963 -2.05254,-0.8629 -3.64388,-1.92579 -5.67152,-3.78812 -11.91281,-5.86567 -14.57766,-4.85249 -0.39791,0.15128 -1.09591,0.66996 -1.55112,1.15262 -1.14121,1.21004 -1.51285,1.37326 -5.14775,2.26087 -6.68747,1.63302 -9.44454,1.98195 -15.63086,1.97824 -4.90043,-0.003 -6.07343,-0.0862 -8.46666,-0.60091 -3.11514,-0.67 -6.90682,-1.89981 -8.7974,-2.8534 -1.06625,-0.53781 -1.25677,-0.75065 -1.25677,-1.40399 0,-1.00603 0.93673,-1.73847 2.72272,-2.12891 4.91513,-1.07454 12.29199,-2.5229 17.50533,-3.43697 3.34007,-0.58562 6.15442,-1.15377 6.25412,-1.26255 0.61377,-0.66967 0.47336,-1.35943 -0.53439,-2.62511 -1.18152,-1.48393 -2.44352,-2.43258 -4.38424,-3.29564 -1.6849,-0.74931 -4.69919,-0.79425 -7.64305,-0.11396 -2.75302,0.63619 -6.0075,0.47324 -8.22279,-0.41172 -2.89564,-1.15675 -2.9434,-2.74466 -0.14166,-4.70997 2.07253,-1.45379 4.8686,-2.68262 6.4825,-2.84894 1.01886,-0.105 1.73873,0.0211 3.13208,0.54864 2.88499,1.09231 2.94154,0.99719 3.2069,-5.3942 0.21559,-5.1926 -0.41791,-6.17206 -4.04671,-6.25669 -2.12642,-0.0496 -2.82262,-0.30503 -5.53341,-2.03017 -1.80109,-1.1462 -1.5399,-1.62412 1.38906,-2.54163 1.01864,-0.31909 2.15864,-0.74607 2.53333,-0.94883 0.52535,-0.2843 1.64324,-0.34599 4.88485,-0.26957 2.37562,0.056 4.40889,-0.0108 4.67569,-0.15356 0.55809,-0.29867 1.53217,-2.10954 1.53217,-2.84836 0,-0.2848 -0.65446,-1.31625 -1.45436,-2.29211 -0.79989,-0.97585 -1.59026,-2.22791 -1.75637,-2.78235 -0.26678,-0.89043 -0.22829,-1.15413 0.32987,-2.25986 1.7146,-3.39667 4.79643,-3.79532 12.76421,-1.65115 2.61446,0.70357 3.87498,1.7964 3.87498,3.35948 0,1.74961 -1.20647,2.48156 -5.93012,3.59768 -2.94038,0.69477 -4.50614,1.34659 -5.20336,2.16615 -0.22982,0.27015 -1.10781,1.59908 -1.9511,2.95319 -1.38259,2.22008 -1.519,2.5683 -1.38818,3.54362 0.10627,0.79231 0.017,1.26609 -0.33382,1.77132 -0.58015,0.83553 -1.23482,5.78852 -0.81995,6.20339 0.3992,0.3992 1.22563,-0.0924 1.92997,-1.14805 0.57363,-0.85974 1.79031,-1.4269 1.79031,-0.83457 0,0.14332 -0.59531,1.98397 -1.32291,4.09033 -0.72761,2.10637 -1.32292,3.88602 -1.32292,3.95479 0,0.0688 0.36934,0.58788 0.82075,1.15359 0.45142,0.56571 1.16524,1.70869 1.58628,2.53996 0.90206,1.78094 1.48186,2.16519 2.90444,1.92484 0.94008,-0.15882 1.03853,-0.12165 1.03853,0.3921 0,1.27288 0.63719,2.94949 1.50724,3.96595 1.14235,1.33458 4.38033,3.17762 5.59111,3.18243 0.67793,0.003 1.12869,0.25403 1.9582,1.09187 l 1.07755,1.08837 3.33347,-0.12986 c 3.81559,-0.14865 5.51603,-0.55379 10.21264,-2.4332 2.44606,-0.97883 3.53489,-1.58148 4.74256,-2.62492 1.80025,-1.55543 3.09281,-3.21688 2.89787,-3.72488 -0.0737,-0.19206 -0.81414,-0.59719 -1.64544,-0.9003 -2.04072,-0.74408 -3.23437,-1.99635 -3.41293,-3.58054 -0.15913,-1.41182 0.35575,-2.414 1.45493,-2.83191 0.38611,-0.1468 1.84932,-0.42791 3.25158,-0.6247 1.8111,-0.25416 3.02341,-0.59699 4.18562,-1.18368 3.67706,-1.85617 7.64754,-2.05504 13.396643,-0.67099 5.375963,1.29421 6.331902,1.46581 11.045729,1.98274 5.998589,0.65783 7.038438,1.08592 7.459822,3.07105 0.291195,1.37181 -0.573519,2.04779 -3.821176,2.98718 -5.310444,1.53604 -6.776453,1.69697 -15.875,1.74261 -7.506388,0.0376 -8.582428,0.0987 -10.831218,0.61416 -3.84765,0.88201 -5.19529,1.7011 -6.26301,3.8066 -0.7498,1.47857 -0.87303,4.23306 -0.22757,5.08644 0.21366,0.28248 0.39053,0.81826 0.39306,1.19063 0.003,0.44719 0.54967,1.29731 1.61017,2.50414 0.88307,1.00491 1.90331,2.29874 2.2672,2.87518 0.62098,0.9837 0.72116,1.03804 1.63097,0.88468 0.53315,-0.0899 2.10045,-0.2916 3.4829,-0.44829 1.84167,-0.20874 3.0687,-0.52853 4.59047,-1.19641 1.142309,-0.50133 2.690123,-0.99976 3.439582,-1.10762 1.220197,-0.1756 1.362654,-0.26449 1.362654,-0.85029 0,-0.44544 -0.168854,-0.68517 -0.529167,-0.75128 -0.748167,-0.13726 -1.427411,-0.8037 -2.0375,-1.99909 -0.42176,-0.82638 -0.46875,-1.15621 -0.23713,-1.66454 0.374546,-0.82205 3.259169,-2.19917 4.607128,-2.19945 0.555271,-1.1e-4 1.269646,-0.14176 1.5875,-0.31477 0.317855,-0.17301 1.039665,-0.33999 1.604018,-0.37107 0.564354,-0.0311 1.947365,-0.48882 3.073358,-1.01722 1.401709,-0.65778 2.663312,-1.03247 4.000984,-1.18827 1.07455,-0.12516 2.310913,-0.36879 2.747476,-0.5414 0.436562,-0.17262 1.27,-0.36845 1.852083,-0.43518 0.582083,-0.0667 1.891771,-0.22016 2.910417,-0.34096 1.018646,-0.12079 2.62219,-0.54817 3.563434,-0.94972 1.509676,-0.64406 1.930607,-0.71196 3.571875,-0.57622 1.023287,0.0846 2.693962,0.45453 3.712607,0.82199 1.018646,0.36747 2.199897,0.67063 2.625,0.6737 0.425104,0.003 0.960885,0.1674 1.190625,0.36517 0.561666,0.48351 2.611986,0.96128 4.172892,0.97236 1.93379,0.0137 5.245698,0.88944 6.244183,1.65102 0.484439,0.3695 1.264782,1.39225 1.7341,2.27278 0.469315,0.88053 1.176436,1.83051 1.571376,2.11109 0.714002,0.50723 3.291092,1.65269 4.554533,2.02439 0.818144,0.24069 1.852083,1.16021 1.852083,1.64713 0,0.19953 -0.278548,0.64133 -0.618995,0.98177 l -0.618993,0.619 -9.337752,0.0398 c -6.271723,0.0267 -9.518216,0.13637 -9.887363,0.33393 -0.302286,0.16178 -1.149797,0.33724 -1.883359,0.38991 -0.73356,0.0527 -2.167184,0.22092 -3.18583,0.37387 -3.272816,0.49145 -7.314689,-0.0482 -8.52153,-1.13783 -0.813793,-0.73473 -2.809711,-1.06764 -5.565349,-0.92828 -2.2585,0.11422 -3.318651,0.36281 -8.464508,1.98479 -11.884922,3.74615 -14.122972,4.83428 -15.515192,7.54348 -0.64438,1.25392 -0.73272,1.66368 -0.57929,2.68684 0.37446,2.49708 1.91022,3.39986 7.689619,4.52026 10.71989,2.07816 13.545934,3.25764 15.412241,6.43244 0.60964,1.03707 0.72607,1.53701 0.719485,3.08938 -0.0092,2.16338 -0.465471,3.21367 -2.644305,6.08669 -3.394524,4.47602 -3.798313,7.15511 -1.576104,10.45729 0.895855,1.33124 1.171493,2.45225 0.677966,2.75727 -0.133657,0.0826 -1.294516,0.33319 -2.579688,0.55686 -2.851462,0.49627 -6.382959,1.65998 -11.502545,3.79035 -2.130809,0.88667 -4.631119,1.79057 -5.556249,2.00865 -2.00113,0.47174 -5.13658,0.48637 -6.97372,0.0325 z"
         id="path841"
         inkscape:connector-curvature="0" />
    </g>
  </g>
</svg>
