<?xml version="1.0" encoding="UTF-8" standalone="no"?>
<!-- Created with Inkscape (http://www.inkscape.org/) -->

<svg
   xmlns:dc="http://purl.org/dc/elements/1.1/"
   xmlns:cc="http://creativecommons.org/ns#"
   xmlns:rdf="http://www.w3.org/1999/02/22-rdf-syntax-ns#"
   xmlns:svg="http://www.w3.org/2000/svg"
   xmlns="http://www.w3.org/2000/svg"
   xmlns:xlink="http://www.w3.org/1999/xlink"
   xmlns:sodipodi="http://sodipodi.sourceforge.net/DTD/sodipodi-0.dtd"
   xmlns:inkscape="http://www.inkscape.org/namespaces/inkscape"
   width="500"
   height="500"
   viewBox="0 0 132.29166 132.29167"
   version="1.1"
   id="svg8"
   inkscape:version="0.92.4 (5da689c313, 2019-01-14)"
   sodipodi:docname="icon-template.svg">
  <defs
     id="defs2">
    <path
       d="M386.2,219.5l-16.1,2.1c-1.7,1-3.3,2.1-5,3.2c-1.6,1.1-3.3,2.1-4.9,3.2c-1.6,1.1-3.3,2.1-4.9,3.2      c-1.6,1.1-3.3,2.2-4.9,3.3c-2.2,1.5-4.4,3-6.6,4.5c-2.2,1.5-4.3,3-6.5,4.5c-2.2,1.5-4.3,3.1-6.5,4.6c-2.1,1.5-4.3,3.1-6.4,4.7      c-1.9,1.4-3.8,2.8-5.6,4.2c-1.9,1.4-3.7,2.8-5.6,4.2c-1.9,1.4-3.7,2.8-5.6,4.2c-1.9,1.4-3.7,2.9-5.5,4.3      c-1.2,0.9-2.4,1.9-3.6,2.8c-1.2,0.9-2.4,1.9-3.6,2.9c-1.2,1-2.4,1.9-3.6,2.9c-1.2,1-2.4,1.9-3.5,2.9c-0.4,0.4-0.9,0.7-1.3,1.1      c-0.4,0.4-0.9,0.7-1.3,1.1c-0.4,0.4-0.9,0.8-1.3,1.1c-0.4,0.4-0.9,0.7-1.3,1.1c-1.5,1.2-3,2.5-4.5,3.8c-1.5,1.3-3,2.5-4.4,3.8      c-1.5,1.3-3,2.6-4.4,3.8c-1.5,1.3-2.9,2.6-4.4,3.9c-4.7,4.1-9.3,8.3-13.9,12.5c-4.6,4.2-9.1,8.5-13.6,12.8      c-4.5,4.3-8.9,8.7-13.3,13.2c-4.4,4.4-8.9,8.8-13.1,13.5c-3.4,3.8-7.2,7.4-13,14c-5.4,6.2-6.8,7.3-12.3,13.9      c-3.4,4-8.2,9.7-11.7,13.8c-6.7,8-11.2,13.7-11.2,13.7l33.4,0.6C235.7,354.3,315.6,272.2,386.2,219.5z"
       id="SVGID_1_" />
    <path
       d="M373.5,167.1l27.3,179.6L85.1,367.3l-14.5-16.4l5.2-67.4c50.7-29.1,108.3-58.8,170.2-87.2      c42.9-19.7,84.8-37.4,124.9-53L373.5,167.1z"
       id="SVGID_3_" />
  </defs>
  <sodipodi:namedview
     id="base"
     pagecolor="#ffffff"
     bordercolor="#a52828"
     borderopacity="1"
     inkscape:pageopacity="0.0"
     inkscape:pageshadow="2"
     inkscape:zoom="0.98994949"
     inkscape:cx="183.67848"
     inkscape:cy="263.27494"
     inkscape:document-units="px"
     inkscape:current-layer="layer1"
     showgrid="false"
     units="px"
     borderlayer="false"
     inkscape:pagecheckerboard="false"
     inkscape:window-width="1920"
     inkscape:window-height="1012"
     inkscape:window-x="-8"
     inkscape:window-y="-8"
     inkscape:window-maximized="1"
     showguides="true"
     inkscape:guide-bbox="true"
     inkscape:measure-start="249.821,63.0357"
     inkscape:measure-end="249.821,0">
    <sodipodi:guide
       position="9.5882942,66.182616"
       orientation="0,1"
       id="guide859"
       inkscape:locked="false" />
    <sodipodi:guide
       position="66.145833,14.717448"
       orientation="1,0"
       id="guide863"
       inkscape:locked="false" />
    <sodipodi:guide
       position="91.281245,132.29167"
       orientation="0,1"
       id="guide865"
       inkscape:locked="false" />
    <sodipodi:guide
       position="4.943e-007,86.758659"
       orientation="1,0"
       id="guide867"
       inkscape:locked="false" />
  </sodipodi:namedview>
  <metadata
     id="metadata5">
    <rdf:RDF>
      <cc:Work
         rdf:about="">
        <dc:format>image/svg+xml</dc:format>
        <dc:type
           rdf:resource="http://purl.org/dc/dcmitype/StillImage" />
        <dc:title></dc:title>
      </cc:Work>
    </rdf:RDF>
  </metadata>
  <g
     inkscape:label="Capa 1"
     inkscape:groupmode="layer"
     id="layer1"
     transform="translate(0,-164.70832)">
    <path
       style="opacity:1;fill:#ffffff;fill-opacity:1;fill-rule:nonzero;stroke:none;stroke-width:0.26458332;stroke-linecap:butt;stroke-linejoin:miter;stroke-miterlimit:1.41420996;stroke-dasharray:none;stroke-opacity:1;paint-order:markers stroke fill"
       d="M 0,164.70832 V 296.99998 H 132.29167 V 164.70832 Z"
       id="rect815"
       inkscape:connector-curvature="0" />
    <g
       id="Icon"
       transform="matrix(0.20514521,0,0,0.20514521,13.495315,178.34723)"
       style="stroke-width:1.28973687">
	<g
   id="Money"
   style="stroke-width:1.28973687">
		<path
   id="path824"
   d="m 439.2,272.1 17.8,124 -283.1,-1.4 c -0.5,0.6 -1,1.2 -1.5,1.8 -0.5,0.6 -1,1.2 -1.5,1.8 -0.5,0.6 -1,1.2 -1.5,1.8 -0.5,0.6 -1,1.2 -1.5,1.8 -0.4,0.5 -0.9,1.1 -1.3,1.6 -0.4,0.5 -0.9,1.1 -1.3,1.6 -0.4,0.6 -0.9,1.1 -1.3,1.7 -0.4,0.5 -0.9,1.1 -1.3,1.7 L 468.4,414 447.2,271.4 Z"
   class="st0"
   inkscape:connector-curvature="0"
   style="fill:#77a02e;stroke-width:1.28973687" />

		<path
   id="path826"
   d="m 194.8,370.4 c -1,1.2 -2.1,2.3 -3.1,3.5 -1,1.2 -2,2.3 -3.1,3.5 -1,1.2 -2,2.3 -3.1,3.5 l 250.9,-1.9 -16,-120.2 -1.9,-14.6 -10.5,1.2 14.8,117.1 -225,4.6 c -0.9,1 -2,2.1 -3,3.3 z"
   class="st0"
   inkscape:connector-curvature="0"
   style="fill:#77a02e;stroke-width:1.28973687" />

		<path
   id="path828"
   d="m 386.2,219.5 -16.1,2.1 c -1.7,1 -3.3,2.1 -5,3.2 -1.6,1.1 -3.3,2.1 -4.9,3.2 -1.6,1.1 -3.3,2.1 -4.9,3.2 -1.6,1.1 -3.3,2.2 -4.9,3.3 -2.2,1.5 -4.4,3 -6.6,4.5 -2.2,1.5 -4.3,3 -6.5,4.5 -2.2,1.5 -4.3,3.1 -6.5,4.6 -2.1,1.5 -4.3,3.1 -6.4,4.7 -1.9,1.4 -3.8,2.8 -5.6,4.2 -1.9,1.4 -3.7,2.8 -5.6,4.2 -1.9,1.4 -3.7,2.8 -5.6,4.2 -1.9,1.4 -3.7,2.9 -5.5,4.3 -1.2,0.9 -2.4,1.9 -3.6,2.8 -1.2,0.9 -2.4,1.9 -3.6,2.9 -1.2,1 -2.4,1.9 -3.6,2.9 -1.2,1 -2.4,1.9 -3.5,2.9 -0.4,0.4 -0.9,0.7 -1.3,1.1 -0.4,0.4 -0.9,0.7 -1.3,1.1 -0.4,0.4 -0.9,0.8 -1.3,1.1 -0.4,0.4 -0.9,0.7 -1.3,1.1 -1.5,1.2 -3,2.5 -4.5,3.8 -1.5,1.3 -3,2.5 -4.4,3.8 -1.5,1.3 -3,2.6 -4.4,3.8 -1.5,1.3 -2.9,2.6 -4.4,3.9 -4.7,4.1 -9.3,8.3 -13.9,12.5 -4.6,4.2 -9.1,8.5 -13.6,12.8 -4.5,4.3 -8.9,8.7 -13.3,13.2 -4.4,4.4 -8.7,8.9 -13.1,13.5 l 189.9,-6.2 -13,-113.4 z"
   class="st0"
   inkscape:connector-curvature="0"
   style="fill:#77a02e;stroke-width:1.28973687" />

		<g
   id="Money_Shadow"
   style="stroke-width:1.28973687">
			<defs
   id="defs831">
				<path
   d="m 386.2,219.5 -16.1,2.1 c -1.7,1 -3.3,2.1 -5,3.2 -1.6,1.1 -3.3,2.1 -4.9,3.2 -1.6,1.1 -3.3,2.1 -4.9,3.2 -1.6,1.1 -3.3,2.2 -4.9,3.3 -2.2,1.5 -4.4,3 -6.6,4.5 -2.2,1.5 -4.3,3 -6.5,4.5 -2.2,1.5 -4.3,3.1 -6.5,4.6 -2.1,1.5 -4.3,3.1 -6.4,4.7 -1.9,1.4 -3.8,2.8 -5.6,4.2 -1.9,1.4 -3.7,2.8 -5.6,4.2 -1.9,1.4 -3.7,2.8 -5.6,4.2 -1.9,1.4 -3.7,2.9 -5.5,4.3 -1.2,0.9 -2.4,1.9 -3.6,2.8 -1.2,0.9 -2.4,1.9 -3.6,2.9 -1.2,1 -2.4,1.9 -3.6,2.9 -1.2,1 -2.4,1.9 -3.5,2.9 -0.4,0.4 -0.9,0.7 -1.3,1.1 -0.4,0.4 -0.9,0.7 -1.3,1.1 -0.4,0.4 -0.9,0.8 -1.3,1.1 -0.4,0.4 -0.9,0.7 -1.3,1.1 -1.5,1.2 -3,2.5 -4.5,3.8 -1.5,1.3 -3,2.5 -4.4,3.8 -1.5,1.3 -3,2.6 -4.4,3.8 -1.5,1.3 -2.9,2.6 -4.4,3.9 -4.7,4.1 -9.3,8.3 -13.9,12.5 -4.6,4.2 -9.1,8.5 -13.6,12.8 -4.5,4.3 -8.9,8.7 -13.3,13.2 -4.4,4.4 -8.9,8.8 -13.1,13.5 -3.4,3.8 -7.2,7.4 -13,14 -5.4,6.2 -6.8,7.3 -12.3,13.9 -3.4,4 -8.2,9.7 -11.7,13.8 -6.7,8 -11.2,13.7 -11.2,13.7 l 33.4,0.6 c 39.5,-54.6 119.4,-136.7 190,-189.4 z"
   id="path878"
   inkscape:connector-curvature="0" />

			</defs>

			<clipPath
   id="SVGID_2_">
				<use
   id="use833"
   style="overflow:visible"
   xlink:href="#SVGID_1_"
   x="0"
   y="0"
   width="100%"
   height="100%" />

			</clipPath>

			<g
   id="g842"
   clip-path="url(#SVGID_2_)"
   class="st1"
   style="stroke-width:1.28973687">
				<path
   id="path836"
   d="m 439.2,272.1 17.8,124 -283.1,-1.4 c -0.5,0.6 -1,1.2 -1.5,1.8 -0.5,0.6 -1,1.2 -1.5,1.8 -0.5,0.6 -1,1.2 -1.5,1.8 -0.5,0.6 -1,1.2 -1.5,1.8 -0.4,0.5 -0.9,1.1 -1.3,1.6 -0.4,0.5 -0.9,1.1 -1.3,1.6 -0.4,0.6 -0.9,1.1 -1.3,1.7 -0.4,0.5 -0.9,1.1 -1.3,1.7 L 468.4,414 447.2,271.4 Z"
   class="st2"
   inkscape:connector-curvature="0"
   style="fill:#628725;stroke-width:1.28973687" />

				<path
   id="path838"
   d="m 194.8,370.4 c -1,1.2 -2.1,2.3 -3.1,3.5 -1,1.2 -2,2.3 -3.1,3.5 -1,1.2 -2,2.3 -3.1,3.5 l 250.9,-1.9 -16,-120.2 -1.9,-14.6 -10.5,1.2 14.8,117.1 -225,4.6 c -0.9,1 -2,2.1 -3,3.3 z"
   class="st2"
   inkscape:connector-curvature="0"
   style="fill:#628725;stroke-width:1.28973687" />

				<path
   id="path840"
   d="m 386.2,219.5 -16.1,2.1 c -1.7,1 -3.3,2.1 -5,3.2 -1.6,1.1 -3.3,2.1 -4.9,3.2 -1.6,1.1 -3.3,2.1 -4.9,3.2 -1.6,1.1 -3.3,2.2 -4.9,3.3 -2.2,1.5 -4.4,3 -6.6,4.5 -2.2,1.5 -4.3,3 -6.5,4.5 -2.2,1.5 -4.3,3.1 -6.5,4.6 -2.1,1.5 -4.3,3.1 -6.4,4.7 -1.9,1.4 -3.8,2.8 -5.6,4.2 -1.9,1.4 -3.7,2.8 -5.6,4.2 -1.9,1.4 -3.7,2.8 -5.6,4.2 -1.9,1.4 -3.7,2.9 -5.5,4.3 -1.2,0.9 -2.4,1.9 -3.6,2.8 -1.2,0.9 -2.4,1.9 -3.6,2.9 -1.2,1 -2.4,1.9 -3.6,2.9 -1.2,1 -2.4,1.9 -3.5,2.9 -0.4,0.4 -0.9,0.7 -1.3,1.1 -0.4,0.4 -0.9,0.7 -1.3,1.1 -0.4,0.4 -0.9,0.8 -1.3,1.1 -0.4,0.4 -0.9,0.7 -1.3,1.1 -1.5,1.2 -3,2.5 -4.5,3.8 -1.5,1.3 -3,2.5 -4.4,3.8 -1.5,1.3 -3,2.6 -4.4,3.8 -1.5,1.3 -2.9,2.6 -4.4,3.9 -4.7,4.1 -9.3,8.3 -13.9,12.5 -4.6,4.2 -9.1,8.5 -13.6,12.8 -4.5,4.3 -8.9,8.7 -13.3,13.2 -4.4,4.4 -8.7,8.9 -13.1,13.5 l 189.9,-6.2 -13,-113.4 z"
   class="st2"
   inkscape:connector-curvature="0"
   style="fill:#628725;stroke-width:1.28973687" />

			</g>

		</g>

	</g>

	<g
   id="Check"
   style="stroke-width:1.28973687">
		<path
   id="path846"
   d="m 472.7,144.3 c -9.3,3.5 -18.6,7.1 -28,10.8 -9.2,3.7 -18.5,7.5 -27.7,11.5 -9.1,3.9 -18.2,7.9 -27.3,12.1 -0.2,0.1 -0.5,0.2 -0.7,0.3 -0.2,0.1 -0.5,0.2 -0.7,0.3 -0.2,0.1 -0.5,0.2 -0.7,0.3 -0.2,0.1 -0.5,0.2 -0.7,0.3 -7.4,3.4 -14.7,6.9 -22,10.4 -7.2,3.5 -14.5,7.1 -21.6,10.8 -7.1,3.6 -14.2,7.3 -21.2,11.1 -7,3.7 -13.9,7.5 -20.7,11.4 -2.4,1.4 -4.9,2.8 -7.3,4.2 -2.4,1.4 -4.8,2.8 -7.2,4.2 -2.4,1.4 -4.8,2.8 -7.2,4.3 -2.4,1.4 -4.7,2.8 -7.1,4.3 -2,1.2 -4.1,2.5 -6.1,3.7 -2,1.3 -4,2.5 -6.1,3.8 -2,1.3 -4,2.5 -6,3.8 -2,1.3 -4,2.5 -6,3.8 -1.3,0.9 -2.6,1.7 -3.9,2.6 -1.3,0.9 -2.6,1.7 -3.9,2.6 -1.3,0.9 -2.6,1.7 -3.9,2.6 -1.3,0.9 -2.6,1.7 -3.9,2.6 -0.4,0.3 -0.9,0.6 -1.3,0.9 -0.4,0.3 -0.9,0.6 -1.3,0.9 -0.4,0.3 -0.9,0.6 -1.3,0.9 -0.4,0.3 -0.9,0.6 -1.3,0.9 -1.6,1.1 -3.2,2.2 -4.7,3.3 -1.6,1.1 -3.1,2.2 -4.7,3.3 -1.6,1.1 -3.1,2.2 -4.7,3.4 -1.5,1.1 -3.1,2.2 -4.6,3.4 -10.2,7.5 -20.1,15.1 -29.7,23 -9.6,7.8 -18.9,15.8 -27.9,24 -8.9,8.1 -17.6,16.5 -26,25.1 -8.3,8.5 -16.3,17.3 -24.1,26.4 -0.7,0.8 -1.4,1.6 -2.1,2.5 -0.7,0.8 -1.4,1.6 -2.1,2.5 -0.7,0.8 -1.4,1.7 -2.1,2.5 -0.7,0.8 -1.4,1.7 -2,2.5 -0.5,0.6 -1,1.3 -1.5,1.9 -0.5,0.6 -1,1.3 -1.5,1.9 -0.5,0.6 -1,1.3 -1.5,1.9 -0.5,0.6 -1,1.3 -1.5,1.9 -0.3,-0.3 -0.6,-0.7 -0.8,-1 -0.3,-0.3 -0.5,-0.6 -0.8,-1 -0.3,-0.3 -0.5,-0.6 -0.8,-0.9 -0.3,-0.3 -0.5,-0.6 -0.8,-0.9 -2.6,-3.1 -5.1,-5.9 -7.4,-8.6 -2.3,-2.6 -4.5,-5.1 -6.5,-7.4 -2.1,-2.3 -4,-4.4 -5.9,-6.5 -1.9,-2.1 -3.7,-4 -5.5,-6 -0.5,-0.5 -0.9,-1 -1.4,-1.5 -0.5,-0.5 -0.9,-1 -1.4,-1.5 -0.5,-0.5 -0.9,-1 -1.4,-1.5 -0.5,-0.5 -0.9,-1 -1.4,-1.5 -2,-2.2 -4,-4.4 -6,-6.7 -2,-2.3 -4.1,-4.7 -6.2,-7.3 -2.1,-2.6 -4.3,-5.3 -6.6,-8.2 -2.3,-2.9 -4.7,-6.1 -7.2,-9.5 -1.1,-1.5 -2.3,-3.1 -3.5,-4.8 -1.2,-1.7 -2.4,-3.4 -3.7,-5.1 -1.3,-1.8 -2.5,-3.6 -3.9,-5.5 -1.3,-1.9 -2.7,-3.8 -4.1,-5.9 2.7,8.9 5.4,17.3 7.9,25.2 2.6,8.1 5,15.7 7.4,23 2.4,7.4 4.7,14.4 7,21 2.3,6.8 4.6,13.3 6.8,19.6 0.5,1.5 1,2.9 1.6,4.4 0.5,1.4 1,2.9 1.6,4.3 0.5,1.4 1,2.9 1.6,4.3 0.5,1.4 1,2.9 1.6,4.3 0.2,0.6 0.5,1.3 0.7,1.9 0.2,0.7 0.5,1.3 0.7,2 0.2,0.7 0.5,1.3 0.7,2 0.2,0.7 0.5,1.3 0.7,2 0.3,0.7 0.5,1.4 0.8,2 0.3,0.7 0.5,1.4 0.8,2 0.3,0.7 0.5,1.4 0.8,2 0.3,0.7 0.5,1.4 0.8,2 0.2,0.5 0.4,1 0.6,1.5 0.2,0.5 0.4,1 0.6,1.5 0.2,0.5 0.4,1 0.6,1.5 0.2,0.5 0.4,1 0.6,1.5 0.1,0.2 0.2,0.4 0.2,0.6 0.1,0.2 0.2,0.4 0.2,0.6 0.1,0.2 0.2,0.4 0.2,0.6 0.1,0.2 0.2,0.4 0.2,0.6 0.3,0.7 0.5,1.3 0.8,2 0.3,0.7 0.5,1.3 0.8,2 0.3,0.7 0.5,1.4 0.8,2 0.3,0.7 0.5,1.4 0.8,2 l -0.2,0.7 0.4,-0.2 c 1.6,4 3.2,8.1 4.9,12.2 1.7,4.2 3.4,8.5 5.2,12.9 1.8,4.5 3.7,9.1 5.7,13.9 2,4.8 4.1,9.9 6.3,15.1 3.6,-6.6 7.4,-13.2 11.2,-19.7 3.8,-6.5 7.7,-12.8 11.6,-19.1 3.9,-6.3 7.9,-12.5 12,-18.6 4.1,-6.1 8.2,-12.2 12.4,-18.1 0.1,-0.1 0.2,-0.2 0.3,-0.4 0.1,-0.1 0.2,-0.2 0.3,-0.4 0.1,-0.1 0.2,-0.2 0.3,-0.4 0.1,-0.1 0.2,-0.2 0.3,-0.4 0.8,-1.1 1.6,-2.3 2.4,-3.4 0.8,-1.1 1.6,-2.3 2.5,-3.4 0.8,-1.1 1.6,-2.3 2.5,-3.4 0.8,-1.1 1.7,-2.3 2.5,-3.4 0.7,-1 1.4,-1.9 2.1,-2.9 0.7,-1 1.4,-1.9 2.2,-2.9 0.7,-1 1.4,-1.9 2.2,-2.8 0.7,-0.9 1.5,-1.9 2.2,-2.8 0.1,-0.2 0.3,-0.3 0.4,-0.5 0.1,-0.2 0.3,-0.3 0.4,-0.5 0.1,-0.2 0.3,-0.3 0.4,-0.5 0.1,-0.2 0.3,-0.3 0.4,-0.5 0.9,-1.1 1.7,-2.3 2.6,-3.4 0.9,-1.1 1.8,-2.2 2.6,-3.4 0.9,-1.1 1.8,-2.2 2.7,-3.4 0.9,-1.1 1.8,-2.2 2.7,-3.3 0.9,-1.1 1.8,-2.2 2.7,-3.3 0.9,-1.1 1.8,-2.2 2.7,-3.3 0.9,-1.1 1.8,-2.2 2.7,-3.3 0.9,-1.1 1.8,-2.2 2.8,-3.3 6.5,-7.8 13.1,-15.3 19.9,-22.8 6.8,-7.5 13.6,-14.8 20.6,-22 7,-7.2 14.1,-14.3 21.3,-21.2 7.3,-6.9 14.6,-13.7 22,-20.4 1.4,-1.3 2.9,-2.6 4.3,-3.8 1.4,-1.3 2.9,-2.5 4.3,-3.8 1.5,-1.3 2.9,-2.5 4.4,-3.8 1.5,-1.3 2.9,-2.5 4.4,-3.7 0.4,-0.4 0.9,-0.7 1.3,-1.1 0.4,-0.4 0.9,-0.7 1.3,-1.1 0.4,-0.4 0.9,-0.7 1.3,-1.1 0.4,-0.4 0.9,-0.7 1.3,-1.1 1.2,-1 2.3,-1.9 3.5,-2.9 1.2,-0.9 2.3,-1.9 3.5,-2.8 1.2,-0.9 2.3,-1.9 3.5,-2.8 1.2,-0.9 2.3,-1.9 3.5,-2.8 1.8,-1.4 3.6,-2.9 5.4,-4.3 1.8,-1.4 3.6,-2.8 5.4,-4.2 1.8,-1.4 3.6,-2.8 5.5,-4.2 1.8,-1.4 3.7,-2.8 5.5,-4.1 2.1,-1.6 4.2,-3.1 6.3,-4.6 2.1,-1.5 4.2,-3.1 6.3,-4.6 2.1,-1.5 4.2,-3 6.3,-4.5 2.1,-1.5 4.3,-3 6.4,-4.4 4,-2.8 8.1,-5.5 12.1,-8.2 4.1,-2.7 8.2,-5.3 12.2,-7.9 4.1,-2.6 8.2,-5.2 12.4,-7.7 4.2,-2.5 8.3,-5 12.5,-7.4 9.2,-5.3 18.4,-10.5 27.7,-15.3 9.4,-4.9 18.8,-9.6 28.1,-14 9.5,-4.4 19,-8.6 28.5,-12.5 9.6,-3.9 19.2,-7.5 28.8,-10.9 -10.2,3.3 -19.6,6.7 -29,10.2 z"
   class="st3"
   inkscape:connector-curvature="0"
   style="fill:#2797c8;stroke-width:1.28973687" />

		<path
   id="path848"
   d="m 74.9,485.9 c 0,0 4.1,9.9 6.3,15.1 3.6,-6.6 7.4,-13.2 11.2,-19.7 3.8,-6.5 7.7,-12.8 11.6,-19.1 3.9,-6.3 7.9,-12.5 12,-18.6 4.1,-6.1 8.2,-12.2 12.4,-18.1 0.1,-0.1 0.2,-0.2 0.3,-0.4 0.1,-0.1 0.2,-0.2 0.3,-0.4 0.1,-0.1 0.2,-0.2 0.3,-0.4 0.1,-0.1 0.2,-0.2 0.3,-0.4 0.8,-1.1 1.6,-2.3 2.4,-3.4 0.8,-1.1 1.6,-2.3 2.5,-3.4 0.8,-1.1 1.6,-2.3 2.5,-3.4 0.8,-1.1 1.7,-2.3 2.5,-3.4 0.7,-1 1.4,-1.9 2.1,-2.9 0.7,-1 1.4,-1.9 2.2,-2.9 0.7,-1 1.4,-1.9 2.2,-2.8 0.7,-0.9 1.5,-1.9 2.2,-2.8 0.1,-0.2 0.3,-0.3 0.4,-0.5 0.1,-0.2 0.3,-0.3 0.4,-0.5 0.1,-0.2 0.3,-0.3 0.4,-0.5 0.1,-0.2 0.3,-0.3 0.4,-0.5 0.9,-1.1 1.7,-2.3 2.6,-3.4 0.9,-1.1 1.8,-2.2 2.6,-3.4 0.9,-1.1 1.8,-2.2 2.7,-3.4 0.9,-1.1 1.8,-2.2 2.7,-3.3 0.9,-1.1 1.8,-2.2 2.7,-3.3 0.9,-1.1 1.8,-2.2 2.7,-3.3 0.9,-1.1 1.8,-2.2 2.7,-3.3 0.9,-1.1 1.8,-2.2 2.8,-3.3 6.5,-7.8 13.1,-15.3 19.9,-22.8 6.8,-7.5 13.6,-14.8 20.6,-22 7,-7.2 14.1,-14.3 21.3,-21.2 7.3,-6.9 14.6,-13.7 22,-20.4 1.4,-1.3 2.9,-2.6 4.3,-3.8 1.4,-1.3 2.9,-2.5 4.3,-3.8 1.5,-1.3 2.9,-2.5 4.4,-3.8 1.5,-1.3 2.9,-2.5 4.4,-3.7 0.4,-0.4 0.9,-0.7 1.3,-1.1 0.4,-0.4 0.9,-0.7 1.3,-1.1 0.4,-0.4 0.9,-0.7 1.3,-1.1 0.4,-0.4 0.9,-0.7 1.3,-1.1 1.2,-1 2.3,-1.9 3.5,-2.9 1.2,-0.9 2.3,-1.9 3.5,-2.8 1.2,-0.9 2.3,-1.9 3.5,-2.8 1.2,-0.9 2.3,-1.9 3.5,-2.8 1.8,-1.4 3.6,-2.9 5.4,-4.3 1.8,-1.4 3.6,-2.8 5.4,-4.2 1.8,-1.4 3.6,-2.8 5.5,-4.2 1.8,-1.4 3.7,-2.8 5.5,-4.1 2.1,-1.6 4.2,-3.1 6.3,-4.6 2.1,-1.5 4.2,-3.1 6.3,-4.6 2.1,-1.5 4.2,-3 6.3,-4.5 2.1,-1.5 4.3,-3 6.4,-4.4 4,-2.8 8.1,-5.5 12.1,-8.2 4.1,-2.7 8.2,-5.3 12.2,-7.9 4.1,-2.6 8.2,-5.2 12.4,-7.7 4.2,-2.5 8.3,-5 12.5,-7.4 9.2,-5.3 18.4,-10.5 27.7,-15.3 9.4,-4.9 18.8,-9.6 28.1,-14 9.5,-4.4 19,-8.6 28.5,-12.5 9.6,-3.9 19.2,-7.5 28.8,-10.9 -9.3,3.2 -18.7,6.6 -28.1,10.1 -9.3,3.5 -18.6,7.1 -28,10.8 -9.2,3.7 -18.5,7.5 -27.7,11.5 -9.1,3.9 -18.2,7.9 -27.3,12.1 -0.2,0.1 -0.5,0.2 -0.7,0.3 -0.2,0.1 -0.5,0.2 -0.7,0.3 -0.2,0.1 -0.5,0.2 -0.7,0.3 -0.2,0.1 -0.5,0.2 -0.7,0.3 -7.4,3.4 -14.7,6.9 -22,10.4 -7.2,3.5 -21.6,10.8 -21.6,10.8 -53.1,35 -184.2,120.2 -274.7,268.9 z"
   class="st4"
   inkscape:connector-curvature="0"
   style="fill:#2080ab;stroke-width:1.28973687" />

	</g>

	<g
   id="Lock"
   style="stroke-width:1.28973687">
		<path
   id="path851"
   d="m 368.2,118.6 c -0.3,-3.1 -1.4,-5.9 -3,-8.3 -1.6,-2.4 -3.8,-4.4 -6.3,-5.8 -2.5,-1.5 -5.5,-2.5 -8.6,-2.9 -3.1,-0.4 -6.5,-0.3 -9.9,0.5 l -24.2,5.6 v -0.6 L 308,109 305.4,72 C 304.5,59.5 300.8,48.5 295,39.5 289.3,30.7 281.6,23.8 272.5,19 c -8.8,-4.7 -19,-7.4 -29.9,-7.9 -10.6,-0.5 -22,1.2 -33.6,5.1 -11.4,3.8 -22.1,9.5 -31.7,16.6 -9.5,6.9 -18,15.2 -25.2,24.3 -7.2,9.1 -13.1,19 -17.3,29.4 -4.3,10.4 -6.9,21.4 -7.5,32.5 l -1.7,32.4 -5,1.2 v 0.5 l -19.4,4.5 c -2.2,0.5 -4.4,1.5 -6.4,2.9 -2,1.4 -3.8,3.1 -5.4,5 -1.6,2 -2.9,4.2 -3.8,6.5 -1,2.4 -1.6,4.9 -1.8,7.4 l -13.2,171.5 14.5,16.4 3.3,-61.6 c 0.3,-6.4 1.7,-12.5 3.8,-18.1 2.1,-5.6 5.1,-10.8 8.6,-15.2 3.5,-4.5 7.7,-8.2 12.2,-11 4.6,-2.8 9.6,-4.7 14.9,-5.4 l 6.5,-0.8 c -2.7,-0.9 -5.1,-2.2 -7.2,-3.9 -2.1,-1.7 -4,-3.8 -5.5,-6.3 -1.5,-2.4 -2.6,-5.2 -3.4,-8.2 -0.7,-3 -1.1,-6.2 -0.9,-9.6 0.2,-4.4 1.1,-8.7 2.6,-12.7 1.5,-4 3.6,-7.7 6.2,-10.9 2.6,-3.3 5.6,-6.1 8.9,-8.2 3.3,-2.2 7,-3.7 10.9,-4.4 0,0 0,0 0,0 0,0 0,0 0,0 0,0 0,0 0,0 0,0 0,0 0,0 3.9,-0.7 7.6,-0.5 11,0.5 3.4,1 6.5,2.8 9.1,5.2 2.6,2.5 4.8,5.6 6.2,9.3 1.5,3.7 2.3,7.9 2.3,12.5 0,3.6 -0.5,7.1 -1.5,10.5 -1,3.4 -2.3,6.6 -4.1,9.6 -1.7,3 -3.8,5.7 -6.2,8.1 -2.4,2.4 -5,4.4 -7.8,6 l 5.7,-0.7 c 4,-0.5 7.8,-0.3 11.5,0.4 3.7,0.8 7.2,2.1 10.5,4 3.3,1.9 6.3,4.4 8.9,7.3 2.4,2.7 4.5,5.8 6.2,9.2 1.5,-1.1 3,-2.3 4.5,-3.4 l -0.2,-20.2 c -0.1,-4.7 0.8,-9.3 2.3,-13.6 1.5,-4.3 3.8,-8.2 6.5,-11.6 2.8,-3.4 6.1,-6.4 9.9,-8.7 3.8,-2.3 7.9,-3.9 12.4,-4.5 l 5.5,-0.8 c -2.3,-0.5 -4.4,-1.5 -6.3,-2.7 -1.9,-1.2 -3.6,-2.7 -4.9,-4.5 -1.4,-1.8 -2.5,-3.8 -3.3,-6 -0.8,-2.2 -1.2,-4.6 -1.3,-7.2 -0.1,-3.3 0.5,-6.6 1.6,-9.6 1.1,-3.1 2.7,-5.9 4.7,-8.4 2,-2.5 4.5,-4.7 7.2,-6.4 2.7,-1.7 5.8,-3 9,-3.6 3.3,-0.6 6.4,-0.5 9.3,0.1 2.9,0.7 5.6,1.9 7.9,3.7 2.3,1.8 4.2,4.1 5.6,6.8 1.4,2.7 2.3,5.8 2.5,9.3 0.1,2.7 -0.1,5.3 -0.8,7.8 -0.6,2.5 -1.7,5 -3,7.3 -1.3,2.3 -2.9,4.4 -4.8,6.2 -1.9,1.8 -4,3.4 -6.3,4.7 l 4.8,-0.7 c 2.5,-0.4 5,-0.5 7.4,-0.3 2.4,0.2 4.8,0.6 7,1.3 2.3,0.7 4.4,1.7 6.5,2.8 2,1.2 3.9,2.6 5.7,4.2 -0.5,0.3 -1.1,0.6 -1.6,1 0.7,0 1.3,0 2,0.1 2.4,-1.4 4.8,-2.8 7.2,-4.2 l -0.6,-9 c -0.2,-3.6 0.3,-7.1 1.4,-10.4 1.1,-3.3 2.8,-6.4 5,-9.1 2.2,-2.7 4.9,-5 8,-6.9 3.1,-1.8 6.5,-3.1 10.2,-3.8 l 4.5,-0.7 c -1.9,-0.4 -3.7,-1 -5.3,-1.9 -1.6,-0.9 -3.1,-2 -4.3,-3.3 -1.2,-1.3 -2.2,-2.9 -3,-4.5 -0.7,-1.7 -1.2,-3.5 -1.4,-5.5 -0.2,-2.6 0.1,-5.1 0.9,-7.5 0.8,-2.4 2.1,-4.6 3.7,-6.6 1.6,-2 3.6,-3.7 5.8,-5.1 2.3,-1.4 4.8,-2.4 7.5,-2.9 2.7,-0.5 5.3,-0.5 7.8,0 2.5,0.5 4.7,1.4 6.7,2.8 2,1.3 3.6,3.1 4.9,5.1 1.2,2.1 2.1,4.4 2.3,7 0.2,2 0.1,4 -0.4,6 -0.4,1.9 -1.2,3.8 -2.2,5.6 -1,1.8 -2.3,3.4 -3.8,4.8 -1.5,1.4 -3.2,2.7 -5,3.7 l 3.9,-0.7 c 2.3,-0.4 4.5,-0.5 6.6,-0.4 2.2,0.1 4.2,0.5 6.2,1.1 2,0.6 3.9,1.4 5.6,2.4 0.5,0.3 1,0.7 1.6,1 0,0 0.1,0 0.1,0 0.8,-0.4 1.5,-0.8 2.3,-1.1 1.6,-0.8 3.2,-1.6 4.7,-2.3 1.6,-0.8 3.1,-1.5 4.7,-2.3 z M 156,144.8 157.1,111 c 0.2,-7 1.8,-14 4.5,-20.7 2.7,-6.7 6.4,-13.1 11.1,-18.9 4.6,-5.8 10.1,-11 16.2,-15.4 6.2,-4.4 13,-7.9 20.2,-10.1 7.3,-2.3 14.4,-3.1 21,-2.5 6.7,0.6 12.8,2.5 18.1,5.6 5.4,3.2 9.8,7.6 13.1,13.2 3.3,5.6 5.3,12.3 5.6,19.9 l 1.6,36.6 z"
   class="st5"
   inkscape:connector-curvature="0"
   style="fill:#77787b;stroke-width:1.28973687" />

		<g
   id="g861"
   style="stroke-width:1.28973687">
			<defs
   id="defs854">
				<path
   d="m 373.5,167.1 27.3,179.6 -315.7,20.6 -14.5,-16.4 5.2,-67.4 c 50.7,-29.1 108.3,-58.8 170.2,-87.2 42.9,-19.7 84.8,-37.4 124.9,-53 z"
   id="path893"
   inkscape:connector-curvature="0" />

			</defs>

			<clipPath
   id="SVGID_4_">
				<use
   id="use856"
   style="overflow:visible"
   xlink:href="#SVGID_3_"
   x="0"
   y="0"
   width="100%"
   height="100%" />

			</clipPath>

			<path
   id="path859"
   clip-path="url(#SVGID_4_)"
   d="m 368.2,118.6 c -0.3,-3.1 -1.4,-5.9 -3,-8.3 -1.6,-2.4 -3.8,-4.4 -6.3,-5.8 -2.5,-1.5 -5.5,-2.5 -8.6,-2.9 -3.1,-0.4 -6.5,-0.3 -9.9,0.5 l -24.2,5.6 v -0.6 L 308,109 305.4,72 C 304.5,59.5 300.8,48.5 295,39.5 289.3,30.7 281.6,23.8 272.5,19 c -8.8,-4.7 -19,-7.4 -29.9,-7.9 -10.6,-0.5 -22,1.2 -33.6,5.1 -11.4,3.8 -22.1,9.5 -31.7,16.6 -9.5,6.9 -18,15.2 -25.2,24.3 -7.2,9.1 -13.1,19 -17.3,29.4 -4.3,10.4 -6.9,21.4 -7.5,32.5 l -1.7,32.4 -5,1.2 v 0.5 l -19.4,4.5 c -2.2,0.5 -4.4,1.5 -6.4,2.9 -2,1.4 -3.8,3.1 -5.4,5 -1.6,2 -2.9,4.2 -3.8,6.5 -1,2.4 -1.6,4.9 -1.8,7.4 l -13.2,171.5 14.5,16.4 3.3,-61.6 c 0.3,-6.4 1.7,-12.5 3.8,-18.1 2.1,-5.6 5.1,-10.8 8.6,-15.2 3.5,-4.5 7.7,-8.2 12.2,-11 4.6,-2.8 9.6,-4.7 14.9,-5.4 l 6.5,-0.8 c -2.7,-0.9 -5.1,-2.2 -7.2,-3.9 -2.1,-1.7 -4,-3.8 -5.5,-6.3 -1.5,-2.4 -2.6,-5.2 -3.4,-8.2 -0.7,-3 -1.1,-6.2 -0.9,-9.6 0.2,-4.4 1.1,-8.7 2.6,-12.7 1.5,-4 3.6,-7.7 6.2,-10.9 2.6,-3.3 5.6,-6.1 8.9,-8.2 3.3,-2.2 7,-3.7 10.9,-4.4 0,0 0,0 0,0 0,0 0,0 0,0 0,0 0,0 0,0 0,0 0,0 0,0 3.9,-0.7 7.6,-0.5 11,0.5 3.4,1 6.5,2.8 9.1,5.2 2.6,2.5 4.8,5.6 6.2,9.3 1.5,3.7 2.3,7.9 2.3,12.5 0,3.6 -0.5,7.1 -1.5,10.5 -1,3.4 -2.3,6.6 -4.1,9.6 -1.7,3 -3.8,5.7 -6.2,8.1 -2.4,2.4 -5,4.4 -7.8,6 l 5.7,-0.7 c 4,-0.5 7.8,-0.3 11.5,0.4 3.7,0.8 7.2,2.1 10.5,4 3.3,1.9 6.3,4.4 8.9,7.3 2.4,2.7 4.5,5.8 6.2,9.2 1.5,-1.1 3,-2.3 4.5,-3.4 l -0.2,-20.2 c -0.1,-4.7 0.8,-9.3 2.3,-13.6 1.5,-4.3 3.8,-8.2 6.5,-11.6 2.8,-3.4 6.1,-6.4 9.9,-8.7 3.8,-2.3 7.9,-3.9 12.4,-4.5 l 5.5,-0.8 c -2.3,-0.5 -4.4,-1.5 -6.3,-2.7 -1.9,-1.2 -3.6,-2.7 -4.9,-4.5 -1.4,-1.8 -2.5,-3.8 -3.3,-6 -0.8,-2.2 -1.2,-4.6 -1.3,-7.2 -0.1,-3.3 0.5,-6.6 1.6,-9.6 1.1,-3.1 2.7,-5.9 4.7,-8.4 2,-2.5 4.5,-4.7 7.2,-6.4 2.7,-1.7 5.8,-3 9,-3.6 3.3,-0.6 6.4,-0.5 9.3,0.1 2.9,0.7 5.6,1.9 7.9,3.7 2.3,1.8 4.2,4.1 5.6,6.8 1.4,2.7 2.3,5.8 2.5,9.3 0.1,2.7 -0.1,5.3 -0.8,7.8 -0.6,2.5 -1.7,5 -3,7.3 -1.3,2.3 -2.9,4.4 -4.8,6.2 -1.9,1.8 -4,3.4 -6.3,4.7 l 4.8,-0.7 c 2.5,-0.4 5,-0.5 7.4,-0.3 2.4,0.2 4.8,0.6 7,1.3 2.3,0.7 4.4,1.7 6.5,2.8 2,1.2 3.9,2.6 5.7,4.2 -0.5,0.3 -1.1,0.6 -1.6,1 0.7,0 1.3,0 2,0.1 2.4,-1.4 4.8,-2.8 7.2,-4.2 l -0.6,-9 c -0.2,-3.6 0.3,-7.1 1.4,-10.4 1.1,-3.3 2.8,-6.4 5,-9.1 2.2,-2.7 4.9,-5 8,-6.9 3.1,-1.8 6.5,-3.1 10.2,-3.8 l 4.5,-0.7 c -1.9,-0.4 -3.7,-1 -5.3,-1.9 -1.6,-0.9 -3.1,-2 -4.3,-3.3 -1.2,-1.3 -2.2,-2.9 -3,-4.5 -0.7,-1.7 -1.2,-3.5 -1.4,-5.5 -0.2,-2.6 0.1,-5.1 0.9,-7.5 0.8,-2.4 2.1,-4.6 3.7,-6.6 1.6,-2 3.6,-3.7 5.8,-5.1 2.3,-1.4 4.8,-2.4 7.5,-2.9 2.7,-0.5 5.3,-0.5 7.8,0 2.5,0.5 4.7,1.4 6.7,2.8 2,1.3 3.6,3.1 4.9,5.1 1.2,2.1 2.1,4.4 2.3,7 0.2,2 0.1,4 -0.4,6 -0.4,1.9 -1.2,3.8 -2.2,5.6 -1,1.8 -2.3,3.4 -3.8,4.8 -1.5,1.4 -3.2,2.7 -5,3.7 l 3.9,-0.7 c 2.3,-0.4 4.5,-0.5 6.6,-0.4 2.2,0.1 4.2,0.5 6.2,1.1 2,0.6 3.9,1.4 5.6,2.4 0.5,0.3 1,0.7 1.6,1 0,0 0.1,0 0.1,0 0.8,-0.4 1.5,-0.8 2.3,-1.1 1.6,-0.8 3.2,-1.6 4.7,-2.3 1.6,-0.8 3.1,-1.5 4.7,-2.3 z M 156,144.8 157.1,111 c 0.2,-7 1.8,-14 4.5,-20.7 2.7,-6.7 6.4,-13.1 11.1,-18.9 4.6,-5.8 10.1,-11 16.2,-15.4 6.2,-4.4 13,-7.9 20.2,-10.1 7.3,-2.3 14.4,-3.1 21,-2.5 6.7,0.6 12.8,2.5 18.1,5.6 5.4,3.2 9.8,7.6 13.1,13.2 3.3,5.6 5.3,12.3 5.6,19.9 l 1.6,36.6 z"
   class="st6"
   inkscape:connector-curvature="0"
   style="fill:#595b5c;stroke-width:1.28973687" />

		</g>

	</g>

</g>
  </g>
  <style
     id="style822"
     type="text/css">
	.st0{fill:#77A02E;}
	.st1{clip-path:url(#SVGID_2_);}
	.st2{fill:#628725;}
	.st3{fill:#2797C8;}
	.st4{fill:#2080AB;}
	.st5{fill:#77787B;}
	.st6{clip-path:url(#SVGID_4_);fill:#595B5C;}
</style>
</svg>
