<?xml version="1.0" encoding="UTF-8" standalone="no"?>
<!-- Created with Inkscape (http://www.inkscape.org/) -->

<svg
   xmlns:dc="http://purl.org/dc/elements/1.1/"
   xmlns:cc="http://creativecommons.org/ns#"
   xmlns:rdf="http://www.w3.org/1999/02/22-rdf-syntax-ns#"
   xmlns:svg="http://www.w3.org/2000/svg"
   xmlns="http://www.w3.org/2000/svg"
   xmlns:sodipodi="http://sodipodi.sourceforge.net/DTD/sodipodi-0.dtd"
   xmlns:inkscape="http://www.inkscape.org/namespaces/inkscape"
   width="500"
   height="500"
   viewBox="0 0 132.29166 132.29167"
   version="1.1"
   id="svg8"
   inkscape:version="0.92.4 (5da689c313, 2019-01-14)"
   sodipodi:docname="easy-digital-downloads.svg">
  <defs
     id="defs2" />
  <sodipodi:namedview
     id="base"
     pagecolor="#ffffff"
     bordercolor="#a52828"
     borderopacity="1"
     inkscape:pageopacity="0.0"
     inkscape:pageshadow="2"
     inkscape:zoom="1.4"
     inkscape:cx="289.31193"
     inkscape:cy="169.02748"
     inkscape:document-units="px"
     inkscape:current-layer="layer1"
     showgrid="false"
     units="px"
     borderlayer="false"
     inkscape:pagecheckerboard="false"
     inkscape:window-width="1920"
     inkscape:window-height="1012"
     inkscape:window-x="-8"
     inkscape:window-y="-8"
     inkscape:window-maximized="1"
     showguides="true"
     inkscape:guide-bbox="true"
     inkscape:measure-start="249.821,63.0357"
     inkscape:measure-end="249.821,0">
    <sodipodi:guide
       position="9.5882942,66.182616"
       orientation="0,1"
       id="guide859"
       inkscape:locked="false" />
    <sodipodi:guide
       position="66.145833,14.717448"
       orientation="1,0"
       id="guide863"
       inkscape:locked="false" />
    <sodipodi:guide
       position="91.281245,132.29167"
       orientation="0,1"
       id="guide865"
       inkscape:locked="false" />
    <sodipodi:guide
       position="4.943e-007,86.758659"
       orientation="1,0"
       id="guide867"
       inkscape:locked="false" />
  </sodipodi:namedview>
  <metadata
     id="metadata5">
    <rdf:RDF>
      <cc:Work
         rdf:about="">
        <dc:format>image/svg+xml</dc:format>
        <dc:type
           rdf:resource="http://purl.org/dc/dcmitype/StillImage" />
        <dc:title></dc:title>
      </cc:Work>
    </rdf:RDF>
  </metadata>
  <g
     inkscape:label="Capa 1"
     inkscape:groupmode="layer"
     id="layer1"
     transform="translate(0,-164.70832)">
    <path
       style="opacity:1;fill:#ffffff;fill-opacity:1;fill-rule:nonzero;stroke:none;stroke-width:0.26458332;stroke-linecap:butt;stroke-linejoin:miter;stroke-miterlimit:1.41420996;stroke-dasharray:none;stroke-opacity:1;paint-order:markers stroke fill"
       d="M 0,164.70832 V 296.99998 H 132.29167 V 164.70832 Z"
       id="rect815"
       inkscape:connector-curvature="0" />
    <g
       transform="matrix(0.95739378,0,0,0.95739378,-96.11901,180.58332)"
       id="g8"
       style="stroke-width:0.27635789;fill:#35495c;fill-opacity:1">
      <path
         d="M 206.613,15.378 C 197.114,5.876 183.985,0 169.488,0 c -14.501,0 -27.628,5.876 -37.13,15.378 -9.504,9.502 -15.38,22.631 -15.38,37.13 0,14.499 5.876,27.628 15.378,37.13 9.502,9.504 22.631,15.378 37.132,15.378 14.499,0 27.628,-5.879 37.127,-15.378 9.502,-9.504 15.378,-22.631 15.378,-37.13 0,-14.499 -5.878,-27.628 -15.38,-37.13 z m -1.732,72.524 c -9.057,9.058 -21.572,14.661 -35.395,14.661 -13.823,0 -26.339,-5.603 -35.397,-14.661 -9.058,-9.058 -14.661,-21.572 -14.661,-35.394 0,-13.823 5.603,-26.337 14.661,-35.395 9.058,-9.058 21.572,-14.661 35.395,-14.661 13.823,0 26.337,5.603 35.395,14.661 9.058,9.058 14.66,21.572 14.66,35.395 0.002,13.822 -5.601,26.337 -14.658,35.394 z"
         id="path2"
         inkscape:connector-curvature="0"
         style="fill:#35495c;stroke-width:0.27635789;fill-opacity:1" />
      <path
         d="M 214.656,52.07 C 214.42,27.324 194.289,7.336 169.488,7.336 c -24.803,0 -44.936,19.99 -45.168,44.736 l 20.712,-20.712 6.946,6.946 -15.157,15.157 h 65.333 L 186.997,38.306 193.943,31.36 Z M 169.486,44.308 150.24,24.112 h 12.79 v -9.955 c 0,-2.584 2.906,-4.702 6.456,-4.702 3.55,0 6.456,2.116 6.456,4.702 v 9.955 h 12.79 z"
         id="path4"
         inkscape:connector-curvature="0"
         style="fill:#35495c;stroke-width:0.27635789;fill-opacity:1" />
      <path
         d="m 175.1,77.93 c -1.026,-0.667 -2.326,-1.267 -3.894,-1.788 -1.199,-0.413 -2.186,-0.803 -2.956,-1.179 -0.764,-0.372 -1.328,-0.785 -1.689,-1.221 -0.37,-0.444 -0.543,-0.976 -0.543,-1.586 0,-0.488 0.147,-0.952 0.462,-1.391 0.309,-0.438 0.792,-0.803 1.448,-1.079 0.663,-0.28 1.507,-0.431 2.555,-0.436 0.844,0.004 1.615,0.072 2.312,0.193 0.689,0.125 1.3,0.276 1.823,0.449 0.53,0.179 0.958,0.348 1.295,0.507 l 1.166,-3.516 c -0.705,-0.354 -1.588,-0.648 -2.66,-0.886 -0.91,-0.201 -1.952,-0.317 -3.135,-0.357 v -3.638 h -3.205 v 3.82 c -0.514,0.083 -1.007,0.195 -1.473,0.33 -1.179,0.348 -2.192,0.831 -3.03,1.462 -0.831,0.628 -1.475,1.363 -1.917,2.205 -0.444,0.842 -0.663,1.77 -0.672,2.768 0.006,1.155 0.309,2.173 0.906,3.052 0.597,0.88 1.448,1.643 2.547,2.297 1.094,0.652 2.4,1.214 3.91,1.687 1.133,0.363 2.057,0.742 2.761,1.131 0.705,0.387 1.221,0.814 1.542,1.28 0.328,0.466 0.49,1.006 0.484,1.61 0,0.663 -0.195,1.238 -0.575,1.735 -0.376,0.49 -0.932,0.875 -1.663,1.148 -0.731,0.276 -1.623,0.411 -2.669,0.42 -0.851,-0.006 -1.676,-0.079 -2.481,-0.217 -0.799,-0.144 -1.549,-0.33 -2.24,-0.562 -0.698,-0.232 -1.308,-0.484 -1.838,-0.766 l -1.127,3.662 c 0.51,0.28 1.146,0.532 1.925,0.764 0.779,0.234 1.636,0.42 2.575,0.562 0.932,0.138 1.89,0.208 2.864,0.217 l 0.171,-0.002 v 3.761 h 3.205 v -4.063 c 0.407,-0.079 0.794,-0.173 1.162,-0.282 1.286,-0.387 2.354,-0.915 3.199,-1.591 0.851,-0.67 1.481,-1.446 1.899,-2.321 0.416,-0.875 0.624,-1.801 0.624,-2.787 0,-1.155 -0.247,-2.177 -0.757,-3.056 -0.515,-0.887 -1.281,-1.664 -2.311,-2.336 z"
         id="path6"
         inkscape:connector-curvature="0"
         style="fill:#35495c;stroke-width:0.27635789;fill-opacity:1" />
    </g>
  </g>
</svg>
