<?xml version="1.0" encoding="UTF-8" standalone="no"?>
<!-- Created with Inkscape (http://www.inkscape.org/) -->

<svg
   xmlns:dc="http://purl.org/dc/elements/1.1/"
   xmlns:cc="http://creativecommons.org/ns#"
   xmlns:rdf="http://www.w3.org/1999/02/22-rdf-syntax-ns#"
   xmlns:svg="http://www.w3.org/2000/svg"
   xmlns="http://www.w3.org/2000/svg"
   xmlns:sodipodi="http://sodipodi.sourceforge.net/DTD/sodipodi-0.dtd"
   xmlns:inkscape="http://www.inkscape.org/namespaces/inkscape"
   width="500"
   height="500"
   viewBox="0 0 132.29166 132.29167"
   version="1.1"
   id="svg8"
   inkscape:version="0.92.4 (5da689c313, 2019-01-14)"
   sodipodi:docname="icon-template.svg">
  <defs
     id="defs2" />
  <sodipodi:namedview
     id="base"
     pagecolor="#ffffff"
     bordercolor="#a52828"
     borderopacity="1"
     inkscape:pageopacity="0.0"
     inkscape:pageshadow="2"
     inkscape:zoom="1.4"
     inkscape:cx="111.74808"
     inkscape:cy="201.63119"
     inkscape:document-units="px"
     inkscape:current-layer="layer1"
     showgrid="false"
     units="px"
     borderlayer="false"
     inkscape:pagecheckerboard="false"
     inkscape:window-width="1920"
     inkscape:window-height="1012"
     inkscape:window-x="-8"
     inkscape:window-y="-8"
     inkscape:window-maximized="1"
     showguides="true"
     inkscape:guide-bbox="true"
     inkscape:measure-start="249.821,63.0357"
     inkscape:measure-end="249.821,0">
    <sodipodi:guide
       position="9.5882942,66.182616"
       orientation="0,1"
       id="guide859"
       inkscape:locked="false" />
    <sodipodi:guide
       position="66.145833,14.717448"
       orientation="1,0"
       id="guide863"
       inkscape:locked="false" />
    <sodipodi:guide
       position="91.281245,132.29167"
       orientation="0,1"
       id="guide865"
       inkscape:locked="false" />
    <sodipodi:guide
       position="4.943e-007,86.758659"
       orientation="1,0"
       id="guide867"
       inkscape:locked="false" />
  </sodipodi:namedview>
  <metadata
     id="metadata5">
    <rdf:RDF>
      <cc:Work
         rdf:about="">
        <dc:format>image/svg+xml</dc:format>
        <dc:type
           rdf:resource="http://purl.org/dc/dcmitype/StillImage" />
        <dc:title></dc:title>
      </cc:Work>
    </rdf:RDF>
  </metadata>
  <g
     inkscape:label="Capa 1"
     inkscape:groupmode="layer"
     id="layer1"
     transform="translate(0,-164.70832)">
    <path
       style="opacity:1;fill:#ffffff;fill-opacity:1;fill-rule:nonzero;stroke:none;stroke-width:0.26458332;stroke-linecap:butt;stroke-linejoin:miter;stroke-miterlimit:1.41420996;stroke-dasharray:none;stroke-opacity:1;paint-order:markers stroke fill"
       d="M 0,164.70832 V 296.99998 H 132.29167 V 164.70832 Z"
       id="rect815"
       inkscape:connector-curvature="0" />
    <g
       transform="matrix(0.47312453,0,0,0.47312453,16.202397,178.71679)"
       id="g46"
       style="stroke-width:0.55922556">
      <g
         id="g44"
         style="stroke-width:0.55922556">
        <g
           id="g42"
           style="stroke-width:0.55922556">
          <path
             d="m 155.6,104.2 c 1.6,-0.2 3,-0.2 4.4,0 0.8,-1.8 0.9,-4.9 0.2,-8.3 -1.1,-5.1 -2.5,-8.1 -5.4,-7.6 -3,0.5 -3.1,4.1 -2,9.2 0.5,2.7 1.6,5.2 2.8,6.7 z"
             id="path28"
             inkscape:connector-curvature="0"
             style="stroke-width:0.55922556" />
          <path
             d="m 130.2,108.2 c 2.1,0.9 3.4,1.5 3.9,1 0.3,-0.3 0.2,-1 -0.3,-1.8 -1,-1.7 -3.2,-3.4 -5.5,-4.4 -4.7,-2 -10.2,-1.3 -14.5,1.7 -1.4,1 -2.8,2.5 -2.6,3.3 0.1,0.3 0.3,0.5 0.8,0.6 1.2,0.1 5.2,-1.9 9.9,-2.2 3.5,-0.2 6.2,0.8 8.3,1.8 z"
             id="path30"
             inkscape:connector-curvature="0"
             style="stroke-width:0.55922556" />
          <path
             d="m 126,110.6 c -2.8,0.4 -4.3,1.3 -5.2,2.2 -0.8,0.7 -1.3,1.5 -1.3,2.1 0,0.3 0.1,0.4 0.2,0.5 0.1,0.1 0.3,0.2 0.5,0.2 0.6,0 2,-0.6 2,-0.6 3.8,-1.4 6.4,-1.2 8.9,-0.9 1.4,0.2 2,0.2 2.3,-0.2 0.1,-0.1 0.2,-0.4 -0.1,-0.9 -0.8,-1.1 -3.5,-2.9 -7.3,-2.4 z"
             id="path32"
             inkscape:connector-curvature="0"
             style="stroke-width:0.55922556" />
          <path
             d="m 147,119.5 c 1.9,0.9 3.9,0.6 4.6,-0.8 0.7,-1.4 -0.3,-3.2 -2.2,-4.1 -1.9,-0.9 -3.9,-0.6 -4.6,0.8 -0.6,1.3 0.3,3.2 2.2,4.1 z"
             id="path34"
             inkscape:connector-curvature="0"
             style="stroke-width:0.55922556" />
          <path
             d="m 159,109 c -1.5,0 -2.8,1.6 -2.8,3.7 0,2.1 1.2,3.8 2.7,3.8 1.5,0 2.8,-1.6 2.8,-3.7 0,-2.1 -1.2,-3.8 -2.7,-3.8 z"
             id="path36"
             inkscape:connector-curvature="0"
             style="stroke-width:0.55922556" />
          <path
             d="m 57,146.6 c -0.4,-0.5 -1,-0.3 -1.6,-0.2 -0.4,0.1 -0.9,0.2 -1.4,0.2 -1.1,0 -2.1,-0.5 -2.6,-1.3 -0.7,-1.1 -0.7,-2.6 0.1,-4.5 0.1,-0.2 0.2,-0.5 0.4,-0.8 1.2,-2.7 3.3,-7.3 1,-11.7 -1.7,-3.3 -4.5,-5.3 -7.9,-5.8 -3.2,-0.4 -6.6,0.8 -8.7,3.1 -3.4,3.7 -3.9,8.8 -3.2,10.5 0.2,0.7 0.6,0.8 0.9,0.9 0.6,0.1 1.4,-0.3 1.9,-1.8 0,-0.1 0.1,-0.3 0.2,-0.5 0.2,-0.8 0.7,-2.2 1.4,-3.3 0.9,-1.4 2.2,-2.3 3.8,-2.6 1.6,-0.3 3.3,0 4.7,0.9 2.4,1.5 3.3,4.4 2.3,7.2 -0.5,1.4 -1.4,4.1 -1.2,6.4 0.4,4.5 3.2,6.3 5.7,6.5 2.4,0.1 4.1,-1.3 4.6,-2.3 0,-0.4 -0.2,-0.8 -0.4,-0.9 z"
             id="path38"
             inkscape:connector-curvature="0"
             style="stroke-width:0.55922556" />
          <path
             d="m 197.3,138.3 c -0.1,-0.3 -0.7,-2.5 -1.5,-5.2 -0.8,-2.7 -1.7,-4.5 -1.7,-4.5 3.3,-5 3.4,-9.4 2.9,-11.9 -0.5,-3.1 -1.8,-5.8 -4.4,-8.5 -2.6,-2.8 -8,-5.6 -15.5,-7.7 -0.9,-0.2 -3.7,-1 -4,-1.1 0,-0.2 -0.2,-9.3 -0.4,-13.2 -0.1,-2.8 -0.4,-7.3 -1.7,-11.6 -1.6,-5.9 -4.5,-11.1 -8.1,-14.4 9.8,-10.2 16,-21.4 16,-31.1 0,-18.5 -22.8,-24.2 -50.9,-12.5 0,0 -5.9,2.5 -5.9,2.5 0,0 -10.7,-10.5 -10.9,-10.7 -32,-27.9 -132,83.3 -100.1,110.3 l 7,5.9 c -1.8,4.7 -2.5,10.1 -1.9,15.9 0.7,7.4 4.6,14.6 10.8,20.1 5.9,5.2 13.7,8.5 21.2,8.5 12.4,28.7 40.9,46.3 74.2,47.3 35.8,1.1 65.8,-15.7 78.4,-45.9 0.8,-2.1 4.3,-11.7 4.3,-20.1 0.1,-8.6 -4.7,-12.1 -7.8,-12.1 z M 51,160.9 c -1.1,0.2 -2.2,0.3 -3.3,0.2 -10.8,-0.3 -22.5,-10 -23.6,-21.6 -1.3,-12.7 5.2,-22.6 16.8,-24.9 1.4,-0.3 3,-0.4 4.8,-0.3 6.5,0.4 16,5.3 18.2,19.4 1.9,12.5 -1.2,25.2 -12.9,27.2 z M 38.9,107 c -7.2,1.4 -13.5,5.5 -17.4,11.1 -2.3,-1.9 -6.6,-5.7 -7.4,-7.1 C 8,99.3 20.9,76.4 29.9,63.6 52.3,31.7 87.2,7.6 103.4,12 c 2.6,0.7 11.3,10.8 11.3,10.8 0,0 -16.2,9 -31.2,21.5 C 63.3,59.9 48.1,82.5 38.9,107 Z m 113.4,49.1 c 0.2,-0.1 0.4,-0.4 0.4,-0.6 0,-0.3 -0.3,-0.6 -0.7,-0.5 0,0 -16.9,2.5 -32.9,-3.3 1.7,-5.7 6.4,-3.6 13.4,-3.1 12.6,0.8 23.9,-1.1 32.3,-3.5 7.2,-2.1 16.8,-6.2 24.1,-12 2.5,5.5 3.4,11.5 3.4,11.5 0,0 1.9,-0.3 3.5,0.6 1.5,0.9 2.6,2.9 1.9,7.9 -1.6,9.4 -5.6,17 -12.3,24.1 -4.1,4.4 -9.1,8.2 -14.7,11 -3,1.6 -6.2,3 -9.6,4.1 -25.3,8.3 -51.3,-0.8 -59.6,-20.4 -0.7,-1.5 -1.2,-3 -1.7,-4.6 -3.6,-12.9 -0.5,-28.3 8.9,-38.1 0,0 0,0 0,0 0.6,-0.6 1.2,-1.3 1.2,-2.3 0,-0.8 -0.5,-1.6 -0.9,-2.2 -3.3,-4.8 -14.8,-13 -12.5,-28.8 1.7,-11.4 11.6,-19.4 20.9,-18.9 0.8,0 1.6,0.1 2.3,0.1 4,0.2 7.5,0.8 10.8,0.9 5.5,0.2 10.5,-0.6 16.4,-5.5 2,-1.7 3.6,-3.1 6.3,-3.6 0.3,0 1,-0.3 2.4,-0.2 1.4,0.1 2.8,0.5 4,1.3 4.7,3.1 5.4,10.8 5.6,16.3 0.1,3.2 0.5,10.9 0.7,13.1 0.3,5.1 1.6,5.8 4.3,6.6 1.5,0.5 2.9,0.9 5,1.4 6.3,1.8 10,3.5 12.3,5.8 1.4,1.4 2,3 2.2,4.4 0.7,5.4 -4.2,12 -17.2,18.1 -14.2,6.6 -31.5,8.3 -43.4,6.9 -0.9,-0.1 -4.2,-0.5 -4.2,-0.5 -9.5,-1.3 -15,11 -9.3,19.5 3.7,5.4 13.7,9 23.8,9 23.1,0 40.8,-9.8 47.4,-18.3 0.2,-0.3 0.2,-0.3 0.5,-0.8 0.3,-0.5 0.1,-0.8 -0.3,-0.5 -5.4,3.7 -29.3,18.3 -54.9,13.9 0,0 -3.1,-0.5 -5.9,-1.6 -2.3,-0.9 -7,-3 -7.5,-7.9 20.6,6.7 33.6,0.7 33.6,0.7 z m -32.7,-3.9 c 0,0 0,0 0,0 0,0 0,0 0,0 0,0 0,0 0,0 z M 80.1,63.4 c 7.9,-9.2 17.7,-17.1 26.4,-21.6 0.3,-0.2 0.6,0.2 0.5,0.5 -0.7,1.3 -2,3.9 -2.5,6 -0.1,0.3 0.3,0.6 0.5,0.4 5.4,-3.7 14.9,-7.7 23.2,-8.2 0.4,0 0.5,0.4 0.2,0.7 -1.3,1 -2.6,2.3 -3.7,3.7 -0.2,0.2 0,0.6 0.3,0.6 5.8,0 14,2.1 19.4,5.1 0.4,0.2 0.1,0.9 -0.3,0.8 C 136,49.5 122.7,48.1 109,51.5 96.9,54.4 87.5,59 80.6,64 80.3,64.2 79.9,63.8 80.1,63.4 Z"
             id="path40"
             inkscape:connector-curvature="0"
             style="stroke-width:0.55922556" />
        </g>
      </g>
    </g>
  </g>
</svg>
