<?xml version="1.0" encoding="UTF-8" standalone="no"?>
<!-- Created with Inkscape (http://www.inkscape.org/) -->

<svg
   xmlns:dc="http://purl.org/dc/elements/1.1/"
   xmlns:cc="http://creativecommons.org/ns#"
   xmlns:rdf="http://www.w3.org/1999/02/22-rdf-syntax-ns#"
   xmlns:svg="http://www.w3.org/2000/svg"
   xmlns="http://www.w3.org/2000/svg"
   xmlns:sodipodi="http://sodipodi.sourceforge.net/DTD/sodipodi-0.dtd"
   xmlns:inkscape="http://www.inkscape.org/namespaces/inkscape"
   width="500"
   height="500"
   viewBox="0 0 132.29166 132.29167"
   version="1.1"
   id="svg8"
   inkscape:version="0.92.4 (5da689c313, 2019-01-14)"
   sodipodi:docname="wp-job-manager.svg">
  <defs
     id="defs2" />
  <sodipodi:namedview
     id="base"
     pagecolor="#ffffff"
     bordercolor="#a52828"
     borderopacity="1"
     inkscape:pageopacity="0.0"
     inkscape:pageshadow="2"
     inkscape:zoom="0.98994949"
     inkscape:cx="41.246972"
     inkscape:cy="365.30035"
     inkscape:document-units="px"
     inkscape:current-layer="layer1"
     showgrid="false"
     units="px"
     borderlayer="false"
     inkscape:pagecheckerboard="false"
     inkscape:window-width="1920"
     inkscape:window-height="1012"
     inkscape:window-x="-8"
     inkscape:window-y="-8"
     inkscape:window-maximized="1"
     showguides="true"
     inkscape:guide-bbox="true"
     inkscape:measure-start="249.821,63.0357"
     inkscape:measure-end="249.821,0">
    <sodipodi:guide
       position="9.5882942,66.182616"
       orientation="0,1"
       id="guide859"
       inkscape:locked="false" />
    <sodipodi:guide
       position="66.145833,14.717448"
       orientation="1,0"
       id="guide863"
       inkscape:locked="false" />
    <sodipodi:guide
       position="91.281245,132.29167"
       orientation="0,1"
       id="guide865"
       inkscape:locked="false" />
    <sodipodi:guide
       position="4.943e-007,86.758659"
       orientation="1,0"
       id="guide867"
       inkscape:locked="false" />
  </sodipodi:namedview>
  <metadata
     id="metadata5">
    <rdf:RDF>
      <cc:Work
         rdf:about="">
        <dc:format>image/svg+xml</dc:format>
        <dc:type
           rdf:resource="http://purl.org/dc/dcmitype/StillImage" />
        <dc:title></dc:title>
      </cc:Work>
    </rdf:RDF>
  </metadata>
  <g
     inkscape:label="Capa 1"
     inkscape:groupmode="layer"
     id="layer1"
     transform="translate(0,-164.70832)">
    <path
       style="opacity:1;fill:#ffffff;fill-opacity:1;fill-rule:nonzero;stroke:none;stroke-width:0.26458332;stroke-linecap:butt;stroke-linejoin:miter;stroke-miterlimit:1.41420996;stroke-dasharray:none;stroke-opacity:1;paint-order:markers stroke fill"
       d="M 0,164.70832 V 296.99998 H 132.29167 V 164.70832 Z"
       id="rect815"
       inkscape:connector-curvature="0" />
    <g
       id="g872"
       transform="matrix(0.13565227,0,0,0.13565227,-3.4802042,168.39754)"
       style="fill:#d75676;fill-opacity:1;stroke:none;stroke-width:1.95045221"
       inkscape:export-xdpi="95.999992"
       inkscape:export-ydpi="95.999992">
      <g
         id="icomoon-ignore"
         style="fill:#d75676;fill-opacity:1;stroke:none;stroke-width:1.95045221" />
      <path
         id="path860"
         d="m 524.528,614.188 33.34,-55.972 h -90.727 l 33.34,55.972 -46.677,153.367 58.801,63.447 58.599,-63.447 -46.677,-153.367 z M 687.999,551.549 H 671.834 L 512.608,825.144 353.382,551.549 h -16.165 c -48.698,0 -88.504,39.807 -88.504,88.504 v 190.95 h 527.793 v -190.95 c 0,-48.697 -39.807,-88.504 -88.504,-88.504 v 0 z M 586.764,312.102 c -20.813,0 -37.787,16.974 -37.787,37.787 h 75.774 c 0,-20.812 -16.974,-37.787 -37.989,-37.787 v 0 z m -148.518,0 c -20.813,0 -37.787,16.974 -37.787,37.787 h 75.773 c -0.203,-20.812 -17.176,-37.787 -37.989,-37.787 v 0 z m 203.076,-90.727 h -33.946 l -15.963,-40.009 h -66.479 v -26.673 c 12.528,-4.849 21.217,-16.974 21.217,-31.118 0,-18.591 -15.155,-33.744 -33.744,-33.744 -18.589,0 -33.744,15.155 -33.744,33.744 0,14.144 8.892,26.268 21.217,31.118 v 26.673 h -66.479 l -15.963,40.009 h -33.744 c -64.459,0 -113.763,56.377 -101.841,119.421 l 35.159,180.039 H 707.805 L 742.964,340.796 C 755.088,277.752 705.987,221.375 641.326,221.375 v 0 z m 54.152,114.975 c 0,136.192 -365.738,136.192 -365.738,0 v 0 c 0,-32.331 24.854,-59.205 56.982,-62.034 h 251.571 c 32.331,2.828 57.185,29.704 57.185,62.034 z"
         inkscape:connector-curvature="0"
         style="fill:#d75676;fill-opacity:1;stroke:none;stroke-width:1.95045221" />
    </g>
  </g>
</svg>
