<?xml version="1.0" encoding="UTF-8" standalone="no"?>
<!-- Created with Inkscape (http://www.inkscape.org/) -->

<svg
   xmlns:dc="http://purl.org/dc/elements/1.1/"
   xmlns:cc="http://creativecommons.org/ns#"
   xmlns:rdf="http://www.w3.org/1999/02/22-rdf-syntax-ns#"
   xmlns:svg="http://www.w3.org/2000/svg"
   xmlns="http://www.w3.org/2000/svg"
   xmlns:sodipodi="http://sodipodi.sourceforge.net/DTD/sodipodi-0.dtd"
   xmlns:inkscape="http://www.inkscape.org/namespaces/inkscape"
   width="500"
   height="500"
   viewBox="0 0 132.29166 132.29167"
   version="1.1"
   id="svg8"
   inkscape:version="0.92.4 (5da689c313, 2019-01-14)"
   sodipodi:docname="icon-template.svg">
  <defs
     id="defs2" />
  <sodipodi:namedview
     id="base"
     pagecolor="#ffffff"
     bordercolor="#a52828"
     borderopacity="1"
     inkscape:pageopacity="0.0"
     inkscape:pageshadow="2"
     inkscape:zoom="1.4"
     inkscape:cx="121.74808"
     inkscape:cy="217.34548"
     inkscape:document-units="px"
     inkscape:current-layer="layer1"
     showgrid="false"
     units="px"
     borderlayer="false"
     inkscape:pagecheckerboard="false"
     inkscape:window-width="1920"
     inkscape:window-height="1012"
     inkscape:window-x="-8"
     inkscape:window-y="-8"
     inkscape:window-maximized="1"
     showguides="true"
     inkscape:guide-bbox="true"
     inkscape:measure-start="249.821,63.0357"
     inkscape:measure-end="249.821,0">
    <sodipodi:guide
       position="9.5882942,66.182616"
       orientation="0,1"
       id="guide859"
       inkscape:locked="false" />
    <sodipodi:guide
       position="66.145833,14.717448"
       orientation="1,0"
       id="guide863"
       inkscape:locked="false" />
    <sodipodi:guide
       position="91.281245,132.29167"
       orientation="0,1"
       id="guide865"
       inkscape:locked="false" />
    <sodipodi:guide
       position="4.943e-007,86.758659"
       orientation="1,0"
       id="guide867"
       inkscape:locked="false" />
  </sodipodi:namedview>
  <metadata
     id="metadata5">
    <rdf:RDF>
      <cc:Work
         rdf:about="">
        <dc:format>image/svg+xml</dc:format>
        <dc:type
           rdf:resource="http://purl.org/dc/dcmitype/StillImage" />
        <dc:title></dc:title>
      </cc:Work>
    </rdf:RDF>
  </metadata>
  <g
     inkscape:label="Capa 1"
     inkscape:groupmode="layer"
     id="layer1"
     transform="translate(0,-164.70832)">
    <path
       style="opacity:1;fill:#ffffff;fill-opacity:1;fill-rule:nonzero;stroke:none;stroke-width:0.26458332;stroke-linecap:butt;stroke-linejoin:miter;stroke-miterlimit:1.41420996;stroke-dasharray:none;stroke-opacity:1;paint-order:markers stroke fill"
       d="M 0,164.70832 V 296.99998 H 132.29167 V 164.70832 Z"
       id="rect815"
       inkscape:connector-curvature="0" />
    <g
       id="g881"
       transform="matrix(0.72228208,0,0,0.72228208,13.491469,187.48855)"
       style="stroke-width:0.36631578"
       inkscape:export-xdpi="331.22461"
       inkscape:export-ydpi="331.22461">
      <g
         id="XMLID_00000067205642795263764550000010819617805587351482_"
         style="stroke-width:0.36631578">
        <path
           class="st0"
           d="m 122.8,77 c -0.1,0.1 0.1,0.1 -0.2,0.1 0.1,-0.1 -0.1,-0.1 0.2,-0.1 z"
           id="path4"
           inkscape:connector-curvature="0"
           style="clip-rule:evenodd;fill:#4f9543;fill-rule:evenodd;stroke-width:0.36631578" />
      </g>
      <g
         id="XMLID_00000000190843533896510500000011256706311636065203_"
         style="stroke-width:0.36631578">
        <path
           class="st0"
           d="m 134.7,69.2 c -4.5,0 -14,1.7 -17.7,2.5 -3.5,0.7 -8.2,1.7 -11.6,3 -2.7,1 -5.2,2.1 -7.7,3.3 -2.4,1.2 -4.7,2.6 -6.8,4.1 l -2.1,1.6 c -0.4,0.3 -0.6,0.5 -1,0.8 -0.4,0.3 -0.7,0.6 -1,0.8 -0.7,0.6 -1.4,1.4 -2.1,1.9 -0.7,0.5 -3.1,3.3 -3.7,4.1 l -2.3,3.2 c -2.2,3.3 -3.9,7.3 -4.5,11.2 -0.2,1.4 -0.2,2.2 -0.4,3.3 0,0.1 0,0.1 0,0.2 v 1.7 c 0.2,2.1 0.7,4.5 0.7,4.7 h 0.2 c 0.1,-1.5 2.4,-6.8 2.9,-7.9 l 1.4,-2.6 c 0.8,-1.4 1.7,-2.8 2.7,-4.1 0.6,-0.9 1.3,-1.8 2.1,-2.5 0.2,-0.2 0.2,-0.2 0.3,-0.4 0.8,-1 1.8,-1.8 2.7,-2.7 l 2.9,-2.5 c 0.1,-0.1 0.2,-0.2 0.4,-0.3 L 95.3,89 c 1.6,-0.9 3,-1.9 4.6,-2.8 1.4,-0.8 3.6,-1.9 5,-2.5 l 3.7,-1.7 c 1.9,-0.8 3.9,-1.7 5.9,-2.3 l 4,-1.4 c 0.7,-0.2 1.3,-0.4 2,-0.7 0.6,-0.2 1.5,-0.6 2.1,-0.6 l -4.4,2 c -1.5,0.6 -4.3,2.1 -5.9,2.9 l -4.3,2.3 c -1.4,0.8 -2.8,1.6 -4.1,2.5 l -3.9,2.7 c -0.2,0.2 -0.4,0.3 -0.6,0.5 -0.1,0.1 -0.2,0.1 -0.3,0.2 l -0.9,0.7 c -0.1,0.1 -0.2,0.1 -0.3,0.2 -0.1,0.1 -0.2,0.2 -0.3,0.3 l -3.7,3.9 -4.1,5.7 -1.7,2.8 c -0.1,0.2 -0.2,0.4 -0.4,0.7 -0.8,1.4 -1.6,2.9 -2.2,4.4 l -0.3,0.8 c 1.1,0.3 7.2,0.2 8.7,0 l 2.7,-0.3 c 4.5,-0.5 9.7,-1.7 13.6,-3.7 0.2,-0.1 0.4,-0.2 0.6,-0.2 0.2,-0.1 0.3,-0.2 0.5,-0.2 0.2,-0.1 0.3,-0.2 0.5,-0.3 l 1,-0.5 c 0.7,-0.4 1.3,-0.8 1.9,-1.2 0.7,-0.5 1.5,-1 2.1,-1.6 0.9,-0.8 1.9,-1.7 2.7,-2.7 0.1,-0.2 0.2,-0.2 0.3,-0.4 1.3,-1.6 2.3,-3.3 3.4,-4.9 1.6,-2.4 3.2,-4.9 4.5,-7.6 2.9,-5.7 3.7,-6.4 7.2,-10.9 0.1,-0.2 0.1,-0.2 0.3,-0.4 l 1.9,-1.8 c 0.8,-0.7 1.8,-1.4 2.8,-1.8 0.9,-0.3 1.3,-0.5 2.6,-0.5 -0.8,-1.3 -4.5,-1.4 -6.8,-1.4 H 135 Z"
           id="path7"
           inkscape:connector-curvature="0"
           style="clip-rule:evenodd;fill:#4f9543;fill-rule:evenodd;stroke-width:0.36631578" />
      </g>
      <g
         id="XMLID_00000024709661914544241440000011074061830304502971_"
         style="stroke-width:0.36631578">
        <path
           class="st0"
           d="M 122.8,77 123,76.9 Z"
           id="path10"
           inkscape:connector-curvature="0"
           style="clip-rule:evenodd;fill:#4f9543;fill-rule:evenodd;stroke-width:0.36631578" />
      </g>
      <path
         style="fill:#434343;stroke-width:0.36631578"
         inkscape:connector-curvature="0"
         class="st1"
         d="M 127.8,5.6 C 118.3,6.5 86.5,11.1 68.9,32 67.9,33.2 66,33.2 65,32 47.4,11.1 15.7,6.5 6.1,5.6 4.6,5.5 3.3,6.6 3.3,8.1 v 64.3 c 0,1.3 1,2.4 2.3,2.5 8.9,0.8 41.5,5.2 59.3,26.4 1,1.2 2.9,1.2 3.9,0 0.2,-0.3 0.4,-0.5 0.7,-0.7 1.9,-7 12.3,-33.5 61,-37.3 V 8.1 c 0,-1.5 -1.2,-2.7 -2.7,-2.5 z M 54.3,72.7 c 0,2.1 -2.4,3.3 -4.1,2 C 34.4,63.1 21.2,60.9 16.1,60.4 14.8,60.3 13.8,59.2 13.8,57.9 v -8.5 c 0,-1.5 1.3,-2.7 2.8,-2.5 21,2 33.8,12.4 37,15.4 0.5,0.5 0.8,1.2 0.8,1.9 v 8.5 z m 0.2,-23.3 c 0,2.1 -2.4,3.3 -4.1,2 C 34.6,39.8 21.4,37.6 16.3,37.1 15,37 14,35.9 14,34.6 v -8.5 c 0,-1.5 1.3,-2.7 2.8,-2.5 21,2 33.8,12.4 37,15.4 0.5,0.5 0.8,1.2 0.8,1.9 v 8.5 z"
         id="path13" />
    </g>
  </g>
</svg>
