<?xml version="1.0" encoding="UTF-8" standalone="no"?>
<!-- Created with Inkscape (http://www.inkscape.org/) -->

<svg
   xmlns:dc="http://purl.org/dc/elements/1.1/"
   xmlns:cc="http://creativecommons.org/ns#"
   xmlns:rdf="http://www.w3.org/1999/02/22-rdf-syntax-ns#"
   xmlns:svg="http://www.w3.org/2000/svg"
   xmlns="http://www.w3.org/2000/svg"
   xmlns:sodipodi="http://sodipodi.sourceforge.net/DTD/sodipodi-0.dtd"
   xmlns:inkscape="http://www.inkscape.org/namespaces/inkscape"
   width="500"
   height="500"
   viewBox="0 0 132.29166 132.29167"
   version="1.1"
   id="svg8"
   inkscape:version="0.92.4 (5da689c313, 2019-01-14)"
   sodipodi:docname="tutor-lms.svg">
  <defs
     id="defs2" />
  <sodipodi:namedview
     id="base"
     pagecolor="#ffffff"
     bordercolor="#a52828"
     borderopacity="1"
     inkscape:pageopacity="0.0"
     inkscape:pageshadow="2"
     inkscape:zoom="0.7"
     inkscape:cx="406.05117"
     inkscape:cy="200.04935"
     inkscape:document-units="px"
     inkscape:current-layer="layer1"
     showgrid="false"
     units="px"
     borderlayer="false"
     inkscape:pagecheckerboard="false"
     inkscape:window-width="1920"
     inkscape:window-height="1012"
     inkscape:window-x="-8"
     inkscape:window-y="-8"
     inkscape:window-maximized="1"
     showguides="true"
     inkscape:guide-bbox="true"
     inkscape:measure-start="249.821,63.0357"
     inkscape:measure-end="249.821,0">
    <sodipodi:guide
       position="9.5882942,66.182616"
       orientation="0,1"
       id="guide859"
       inkscape:locked="false" />
    <sodipodi:guide
       position="66.145833,14.717448"
       orientation="1,0"
       id="guide863"
       inkscape:locked="false" />
    <sodipodi:guide
       position="91.281245,132.29167"
       orientation="0,1"
       id="guide865"
       inkscape:locked="false" />
    <sodipodi:guide
       position="4.943e-007,86.758659"
       orientation="1,0"
       id="guide867"
       inkscape:locked="false" />
  </sodipodi:namedview>
  <metadata
     id="metadata5">
    <rdf:RDF>
      <cc:Work
         rdf:about="">
        <dc:format>image/svg+xml</dc:format>
        <dc:type
           rdf:resource="http://purl.org/dc/dcmitype/StillImage" />
        <dc:title></dc:title>
      </cc:Work>
    </rdf:RDF>
  </metadata>
  <g
     inkscape:label="Capa 1"
     inkscape:groupmode="layer"
     id="layer1"
     transform="translate(0,-164.70832)">
    <path
       style="opacity:1;fill:#ffffff;fill-opacity:1;fill-rule:nonzero;stroke:none;stroke-width:0.26458332;stroke-linecap:butt;stroke-linejoin:miter;stroke-miterlimit:1.41420996;stroke-dasharray:none;stroke-opacity:1;paint-order:markers stroke fill"
       d="M 0,164.70832 V 296.99998 H 132.29167 V 164.70832 Z"
       id="rect815"
       inkscape:connector-curvature="0" />
    <g
       transform="matrix(1.4954355,0,0,1.4954355,23.744735,172.35843)"
       style="clip-rule:evenodd;fill-rule:evenodd;stroke-width:0.39676836;stroke-linejoin:round;stroke-miterlimit:1.41420996"
       id="g4516">
      <path
         id="path4510"
         d="m 53.6,43.1 c 0,-0.6 0.1,-1.3 0.1,-2 C 53.7,31.6 48.5,23.4 40.8,19 V 12 H 49 V 5.5 H 7.9 v 6.6 h 8.3 v 6.8 C 8.3,23.2 3,31.6 3,41.2 3,46.3 4.4,51 7,55 v 0 C 18.3,74.3 53.6,72.7 53.6,72.7 V 41.2 c 0.1,0.6 0,1.3 0,1.9 m -30.9,-31 h 11.4 v 4.4 c -1.9,-0.4 -3.8,-0.7 -5.9,-0.7 -1.9,0 -3.8,0.2 -5.6,0.6 V 12.1 Z M 9.9,32 c 1.3,-2.8 4,-4.8 7.2,-4.8 4.4,0 8,3.8 8,8.5 V 37 51 c 0,1.7 1.4,3.1 3.1,3.1 1.7,0 3.1,-1.4 3.1,-3.1 V 37 35.7 c 0,-4.7 3.6,-8.5 8,-8.5 3.1,0 5.7,1.7 7,4.4 1.4,2.8 2.3,6 2.3,9.3 0,11.2 -9.1,20.3 -20.3,20.3 -11.2,0 -20.4,-9 -20.4,-20.3 0,-3.2 0.7,-6.2 2,-8.9 z m -2,24.2 c 0,0 0,0 0,0 0,0 0,0 0,0 z M 7.5,55.6 c 0,0 -0.1,0 0,0 -0.1,0 0,0 0,0 z"
         class="st0"
         inkscape:connector-curvature="0"
         style="fill:#163bd7;stroke-width:0.39676836" />
      <path
         id="path4512"
         d="m 17.6,48.3 h -2.2 c -1.2,0 -2.2,-1 -2.2,-2.2 v -9.5 c 0,-1.2 1,-2.2 2.2,-2.2 h 2.2 c 1.2,0 2.2,1 2.2,2.2 v 9.5 c 0,1.2 -1,2.2 -2.2,2.2 z"
         class="st0"
         inkscape:connector-curvature="0"
         style="fill:#163bd7;stroke-width:0.39676836" />
      <path
         id="path4514"
         d="m 41,48.3 h -2.2 c -1.2,0 -2.2,-1 -2.2,-2.2 v -9.5 c 0,-1.2 1,-2.2 2.2,-2.2 H 41 c 1.2,0 2.2,1 2.2,2.2 v 9.5 c 0,1.2 -1,2.2 -2.2,2.2 z"
         class="st0"
         inkscape:connector-curvature="0"
         style="fill:#163bd7;stroke-width:0.39676836" />
    </g>
  </g>
</svg>
