<?xml version="1.0" encoding="UTF-8" standalone="no"?>
<!-- Created with Inkscape (http://www.inkscape.org/) -->

<svg
   xmlns:dc="http://purl.org/dc/elements/1.1/"
   xmlns:cc="http://creativecommons.org/ns#"
   xmlns:rdf="http://www.w3.org/1999/02/22-rdf-syntax-ns#"
   xmlns:svg="http://www.w3.org/2000/svg"
   xmlns="http://www.w3.org/2000/svg"
   xmlns:sodipodi="http://sodipodi.sourceforge.net/DTD/sodipodi-0.dtd"
   xmlns:inkscape="http://www.inkscape.org/namespaces/inkscape"
   width="500"
   height="500"
   viewBox="0 0 132.29166 132.29167"
   version="1.1"
   id="svg8"
   inkscape:version="0.92.4 (5da689c313, 2019-01-14)"
   sodipodi:docname="peepso.svg">
  <defs
     id="defs2" />
  <sodipodi:namedview
     id="base"
     pagecolor="#ffffff"
     bordercolor="#a52828"
     borderopacity="1"
     inkscape:pageopacity="0.0"
     inkscape:pageshadow="2"
     inkscape:zoom="0.98994949"
     inkscape:cx="243.27748"
     inkscape:cy="223.87899"
     inkscape:document-units="px"
     inkscape:current-layer="layer1"
     showgrid="false"
     units="px"
     borderlayer="false"
     inkscape:pagecheckerboard="false"
     inkscape:window-width="1920"
     inkscape:window-height="1012"
     inkscape:window-x="-8"
     inkscape:window-y="-8"
     inkscape:window-maximized="1"
     showguides="true"
     inkscape:guide-bbox="true"
     inkscape:measure-start="249.821,63.0357"
     inkscape:measure-end="249.821,0">
    <sodipodi:guide
       position="9.5882942,66.182616"
       orientation="0,1"
       id="guide859"
       inkscape:locked="false" />
    <sodipodi:guide
       position="66.145833,14.717448"
       orientation="1,0"
       id="guide863"
       inkscape:locked="false" />
    <sodipodi:guide
       position="91.281245,132.29167"
       orientation="0,1"
       id="guide865"
       inkscape:locked="false" />
    <sodipodi:guide
       position="4.943e-007,86.758659"
       orientation="1,0"
       id="guide867"
       inkscape:locked="false" />
  </sodipodi:namedview>
  <metadata
     id="metadata5">
    <rdf:RDF>
      <cc:Work
         rdf:about="">
        <dc:format>image/svg+xml</dc:format>
        <dc:type
           rdf:resource="http://purl.org/dc/dcmitype/StillImage" />
        <dc:title></dc:title>
      </cc:Work>
    </rdf:RDF>
  </metadata>
  <g
     inkscape:label="Capa 1"
     inkscape:groupmode="layer"
     id="layer1"
     transform="translate(0,-164.70832)">
    <path
       style="opacity:1;fill:#ffffff;fill-opacity:1;fill-rule:nonzero;stroke:none;stroke-width:0.26458332;stroke-linecap:butt;stroke-linejoin:miter;stroke-miterlimit:1.41420996;stroke-dasharray:none;stroke-opacity:1;paint-order:markers stroke fill"
       d="M 0,164.70832 V 296.99998 H 132.29167 V 164.70832 Z"
       id="rect815"
       inkscape:connector-curvature="0" />
    <circle
       id="circle922"
       r="7.8691125"
       cy="196.03937"
       cx="48.77951"
       class="cls-4"
       style="fill:#d24a42;stroke-width:0.26458332" />
    <circle
       id="circle924"
       r="7.8691125"
       cy="196.03937"
       cx="83.512154"
       class="cls-4"
       style="fill:#d24a42;stroke-width:0.26458332" />
    <path
       id="path926"
       d="m 53.439077,239.14459 a 8.8407274,8.8407274 0 0 1 3.117464,-2.47911 5.0244296,5.0244296 0 0 0 0.526534,-0.9129 12.970925,12.970925 0 0 1 2.372049,-20.47623 c 0.06348,-0.26604 0.110769,-0.51512 0.178333,-0.78528 2.17079,-8.68315 -6.51237,-8.68315 -10.853947,-8.68315 -3.127135,0 -8.487463,0.0172 -10.441212,3.26308 a 12.857507,12.857507 0 0 1 0.808313,11.33965 70.449975,70.449975 0 0 1 0.849704,8.19971 c 1.529648,2.16296 1.912028,4.92335 1.120373,8.22168 1.919053,2.47127 6.025053,3.70852 7.662817,3.70852 a 11.872852,11.872852 0 0 0 4.627785,-1.3492 c 0.01158,-0.0148 0.0202,-0.0318 0.03177,-0.0468 z"
       class="cls-4"
       inkscape:connector-curvature="0"
       style="fill:#d24a42;stroke-width:0.26458332" />
    <path
       id="path928"
       d="m 92.295335,228.61034 a 70.457528,70.457528 0 0 1 0.84966,-8.19969 12.857709,12.857709 0 0 1 0.808364,-11.33968 c -1.953764,-3.24477 -7.314094,-3.26305 -10.441207,-3.26305 -4.341582,0 -13.024741,0 -10.853953,8.68315 0.06756,0.27016 0.114882,0.51924 0.178334,0.78528 a 12.970925,12.970925 0 0 1 2.372049,20.47623 5.0244341,5.0244341 0 0 0 0.526533,0.9129 8.8407274,8.8407274 0 0 1 3.117465,2.47911 c 0.01158,0.0148 0.0202,0.0315 0.0318,0.0468 a 11.872852,11.872852 0 0 0 4.627782,1.34919 c 1.637766,0 5.743771,-1.23722 7.662819,-3.70851 -0.791674,-3.29831 -0.409294,-6.0587 1.120352,-8.22168 z"
       class="cls-4"
       inkscape:connector-curvature="0"
       style="fill:#d24a42;stroke-width:0.26458332" />
    <g
       transform="matrix(0.43977812,0,0,0.43977812,15.874998,184.03509)"
       id="user"
       style="stroke-width:0.60162914">
      <path
         id="path930"
         transform="translate(-1.13285,5.96533)"
         d="m 26.59254,92.90436 c -9.87219,0 -29.61658,0 -24.68048,19.74438 4.9361,19.74438 4.9361,34.55273 4.9361,44.42493 0,9.8722 14.80828,14.80833 19.74438,14.80833 4.9361,0 19.74446,-4.93614 19.74446,-14.80833 0,-9.87219 0,-24.68054 4.9361,-44.42493 C 56.2092,92.90435 36.46473,92.90436 26.59254,92.90436 Z"
         class="cls-4"
         inkscape:connector-curvature="0"
         style="fill:#d24a42;stroke-width:0.60162914" />
      <circle
         id="circle932"
         r="22.21246"
         cy="71.721123"
         cx="25.45969"
         class="cls-4"
         style="fill:#d24a42;stroke-width:0.60162914" />
    </g>
    <g
       transform="matrix(0.43977812,0,0,0.43977812,15.874998,184.03509)"
       data-name="user"
       id="user-2"
       style="stroke-width:0.60162914">
      <path
         id="path935"
         transform="translate(-1.13285,5.96533)"
         d="m 115.44239,117.58484 c -9.87219,0 -29.61664,0 -24.68048,19.74445 4.93616,19.74445 4.93609,34.55271 4.93609,44.42486 0,9.87215 14.80829,14.80835 19.74438,14.80835 4.93609,0 19.74438,-4.9361 19.74438,-14.80835 0,-9.87225 0,-24.68048 4.93616,-44.42487 4.93616,-19.74439 -14.80834,-19.74444 -24.68053,-19.74444 z"
         class="cls-4"
         inkscape:connector-curvature="0"
         style="fill:#d24a42;stroke-width:0.60162914" />
      <circle
         id="circle937"
         r="22.21246"
         cy="96.401627"
         cx="114.30953"
         class="cls-4"
         style="fill:#d24a42;stroke-width:0.60162914" />
    </g>
    <g
       transform="matrix(0.43977812,0,0,0.43977812,15.874998,184.03509)"
       data-name="user"
       id="user-3"
       style="stroke-width:0.60162914">
      <path
         id="path940"
         transform="translate(-1.13285,5.96533)"
         d="m 204.29224,92.90436 c -9.87219,0 -29.61664,0 -24.68054,19.74438 4.9361,19.74438 4.9361,34.55273 4.9361,44.42493 0,9.8722 14.80835,14.80833 19.74444,14.80833 4.93609,0 19.74438,-4.9361 19.74438,-14.80829 0,-9.87219 0,-24.68054 4.9361,-44.42493 4.9361,-19.74439 -14.80828,-19.74442 -24.68048,-19.74442 z"
         class="cls-4"
         inkscape:connector-curvature="0"
         style="fill:#d24a42;stroke-width:0.60162914" />
      <circle
         id="circle942"
         r="22.21246"
         cy="71.721123"
         cx="203.15936"
         class="cls-4"
         style="fill:#d24a42;stroke-width:0.60162914" />
    </g>
  </g>
</svg>
