<?xml version="1.0" encoding="UTF-8" standalone="no"?>
<!-- Created with Inkscape (http://www.inkscape.org/) -->

<svg
   xmlns:dc="http://purl.org/dc/elements/1.1/"
   xmlns:cc="http://creativecommons.org/ns#"
   xmlns:rdf="http://www.w3.org/1999/02/22-rdf-syntax-ns#"
   xmlns:svg="http://www.w3.org/2000/svg"
   xmlns="http://www.w3.org/2000/svg"
   xmlns:sodipodi="http://sodipodi.sourceforge.net/DTD/sodipodi-0.dtd"
   xmlns:inkscape="http://www.inkscape.org/namespaces/inkscape"
   width="500"
   height="500"
   viewBox="0 0 132.29166 132.29167"
   version="1.1"
   id="svg8"
   inkscape:version="0.92.4 (5da689c313, 2019-01-14)"
   sodipodi:docname="icon-template.svg">
  <defs
     id="defs2" />
  <sodipodi:namedview
     id="base"
     pagecolor="#ffffff"
     bordercolor="#a52828"
     borderopacity="1"
     inkscape:pageopacity="0.0"
     inkscape:pageshadow="2"
     inkscape:zoom="0.98994949"
     inkscape:cx="-13.043309"
     inkscape:cy="181.97913"
     inkscape:document-units="px"
     inkscape:current-layer="layer1"
     showgrid="false"
     units="px"
     borderlayer="false"
     inkscape:pagecheckerboard="false"
     inkscape:window-width="1920"
     inkscape:window-height="1012"
     inkscape:window-x="-8"
     inkscape:window-y="-8"
     inkscape:window-maximized="1"
     showguides="true"
     inkscape:guide-bbox="true"
     inkscape:measure-start="249.821,63.0357"
     inkscape:measure-end="249.821,0">
    <sodipodi:guide
       position="9.5882942,66.182616"
       orientation="0,1"
       id="guide859"
       inkscape:locked="false" />
    <sodipodi:guide
       position="66.145833,14.717448"
       orientation="1,0"
       id="guide863"
       inkscape:locked="false" />
    <sodipodi:guide
       position="91.281245,132.29167"
       orientation="0,1"
       id="guide865"
       inkscape:locked="false" />
    <sodipodi:guide
       position="4.943e-007,86.758659"
       orientation="1,0"
       id="guide867"
       inkscape:locked="false" />
  </sodipodi:namedview>
  <metadata
     id="metadata5">
    <rdf:RDF>
      <cc:Work
         rdf:about="">
        <dc:format>image/svg+xml</dc:format>
        <dc:type
           rdf:resource="http://purl.org/dc/dcmitype/StillImage" />
        <dc:title></dc:title>
      </cc:Work>
    </rdf:RDF>
  </metadata>
  <g
     inkscape:label="Capa 1"
     inkscape:groupmode="layer"
     id="layer1"
     transform="translate(0,-164.70832)">
    <path
       style="opacity:1;fill:#ffffff;fill-opacity:1;fill-rule:nonzero;stroke:none;stroke-width:0.26458332;stroke-linecap:butt;stroke-linejoin:miter;stroke-miterlimit:1.41420996;stroke-dasharray:none;stroke-opacity:1;paint-order:markers stroke fill"
       d="M 0,164.70832 V 296.99998 H 132.29167 V 164.70832 Z"
       id="rect815"
       inkscape:connector-curvature="0" />
    <g
       transform="matrix(0.64276846,0,0,0.64276846,17.044767,180.596)"
       id="Layer_2"
       data-name="Layer 2"
       style="fill:#fe5301;fill-opacity:1;stroke-width:0.41163084">
      <g
         id="Layer_1-2"
         data-name="Layer 1"
         style="fill:#fe5301;fill-opacity:1;stroke-width:0.41163084">
        <path
           d="m 37.71,89.1 c 3.5,0 5.9,-0.8 7.2,-2.3 a 8,8 0 0 0 2,-5.4 V 35.7 l 17,45.1 a 12.68,12.68 0 0 0 3.7,5.4 c 1.6,1.3 4,2 7.2,2 a 12.54,12.54 0 0 0 5.9,-1.4 8.41,8.41 0 0 0 3.9,-5 l 18.1,-50 V 81 a 8.53,8.53 0 0 0 2.1,6.1 c 1.4,1.4 3.7,2.2 6.9,2.2 3.5,0 5.9,-0.8 7.2,-2.3 a 8,8 0 0 0 2,-5.4 V 8.7 a 7.48,7.48 0 0 0 -3.3,-6.6 c -2.1,-1.4 -5,-2.1 -8.6,-2.1 a 19.3,19.3 0 0 0 -9.4,2 11.63,11.63 0 0 0 -5.1,6.8 L 74.91,67.1 54.41,8.4 A 12.4,12.4 0 0 0 49.91,2.2 C 47.81,0.7 44.91,0 41.11,0 a 16.51,16.51 0 0 0 -8.9,2.1 c -2.3,1.5 -3.5,3.9 -3.5,7.2 v 71.5 c 0,2.8 0.7,4.8 2,6.2 1.5,1.4 3.7,2.1 7,2.1 z"
           id="path4"
           inkscape:connector-curvature="0"
           style="fill:#fe5301;fill-opacity:1;stroke-width:0.41163084" />
        <path
           d="m 149,116.6 -2.4,-1.9 a 7.4,7.4 0 0 0 -9.4,0.3 19.65,19.65 0 0 1 -12.5,4.6 H 103.3 A 37.08,37.08 0 0 0 77,130.5 l -1.1,1.2 -1.1,-1.1 A 37.25,37.25 0 0 0 48.5,119.7 H 27 a 19.59,19.59 0 0 1 -12.4,-4.6 7.28,7.28 0 0 0 -9.4,-0.3 l -2.4,1.9 a 7.43,7.43 0 0 0 -2.8,5.5 7.14,7.14 0 0 0 2.4,5.7 37.28,37.28 0 0 0 24.6,9.5 h 21.6 a 19.59,19.59 0 0 1 18.9,14.4 v 0.2 c 0.1,0.7 1.2,4.4 8.5,4.4 7.3,0 8.4,-3.7 8.5,-4.4 v -0.2 a 19.59,19.59 0 0 1 18.9,-14.4 H 125 a 37.28,37.28 0 0 0 24.6,-9.5 7.42,7.42 0 0 0 2.4,-5.7 7.86,7.86 0 0 0 -3,-5.6 z"
           id="path6"
           inkscape:connector-curvature="0"
           style="fill:#fe5301;fill-opacity:1;stroke-width:0.41163084" />
      </g>
    </g>
  </g>
</svg>
