<?xml version="1.0" encoding="UTF-8" standalone="no"?>
<!-- Created with Inkscape (http://www.inkscape.org/) -->

<svg
   xmlns:dc="http://purl.org/dc/elements/1.1/"
   xmlns:cc="http://creativecommons.org/ns#"
   xmlns:rdf="http://www.w3.org/1999/02/22-rdf-syntax-ns#"
   xmlns:svg="http://www.w3.org/2000/svg"
   xmlns="http://www.w3.org/2000/svg"
   xmlns:sodipodi="http://sodipodi.sourceforge.net/DTD/sodipodi-0.dtd"
   xmlns:inkscape="http://www.inkscape.org/namespaces/inkscape"
   width="500"
   height="500"
   viewBox="0 0 132.29166 132.29167"
   version="1.1"
   id="svg8"
   inkscape:version="0.92.4 (5da689c313, 2019-01-14)"
   sodipodi:docname="caldera-forms.svg">
  <defs
     id="defs2" />
  <sodipodi:namedview
     id="base"
     pagecolor="#ffffff"
     bordercolor="#a52828"
     borderopacity="1"
     inkscape:pageopacity="0.0"
     inkscape:pageshadow="2"
     inkscape:zoom="0.5"
     inkscape:cx="-123.07248"
     inkscape:cy="388.39617"
     inkscape:document-units="px"
     inkscape:current-layer="layer1"
     showgrid="false"
     units="px"
     borderlayer="false"
     inkscape:pagecheckerboard="false"
     inkscape:window-width="1920"
     inkscape:window-height="1012"
     inkscape:window-x="-8"
     inkscape:window-y="-8"
     inkscape:window-maximized="1"
     showguides="true"
     inkscape:guide-bbox="true"
     inkscape:measure-start="249.821,63.0357"
     inkscape:measure-end="249.821,0">
    <sodipodi:guide
       position="9.5882942,66.182616"
       orientation="0,1"
       id="guide859"
       inkscape:locked="false" />
    <sodipodi:guide
       position="66.145833,14.717448"
       orientation="1,0"
       id="guide863"
       inkscape:locked="false" />
    <sodipodi:guide
       position="91.281245,132.29167"
       orientation="0,1"
       id="guide865"
       inkscape:locked="false" />
    <sodipodi:guide
       position="4.943e-007,86.758659"
       orientation="1,0"
       id="guide867"
       inkscape:locked="false" />
  </sodipodi:namedview>
  <metadata
     id="metadata5">
    <rdf:RDF>
      <cc:Work
         rdf:about="">
        <dc:format>image/svg+xml</dc:format>
        <dc:type
           rdf:resource="http://purl.org/dc/dcmitype/StillImage" />
        <dc:title></dc:title>
      </cc:Work>
    </rdf:RDF>
  </metadata>
  <g
     inkscape:label="Capa 1"
     inkscape:groupmode="layer"
     id="layer1"
     transform="translate(0,-164.70832)">
    <path
       style="opacity:1;fill:#ffffff;fill-opacity:1;fill-rule:nonzero;stroke:none;stroke-width:0.26458332;stroke-linecap:butt;stroke-linejoin:miter;stroke-miterlimit:1.41420996;stroke-dasharray:none;stroke-opacity:1;paint-order:markers stroke fill"
       d="M 0,164.70832 V 296.99998 H 132.29167 V 164.70832 Z"
       id="rect815"
       inkscape:connector-curvature="0" />
    <g
       id="g853"
       transform="matrix(3.2262705,0,0,3.2262705,6.6482523,-613.56775)"
       style="stroke-width:0.30995542">
      <path
         style="clip-rule:evenodd;fill:#ffffff;fill-rule:evenodd;stroke-width:0.06741577;stroke-linejoin:round;stroke-miterlimit:1.41420996"
         inkscape:connector-curvature="0"
         class="cls-1"
         d="M 18.403342,276.84987 A 15.18227,15.18227 0 0 1 7.6685539,250.93096 15.182595,15.182595 0 1 1 29.139986,272.40239 15.083973,15.083973 0 0 1 18.403342,276.85358"
         id="path829" />
      <path
         style="clip-rule:evenodd;fill:#404041;fill-rule:evenodd;stroke-width:0.06741577;stroke-linejoin:round;stroke-miterlimit:1.41420996"
         inkscape:connector-curvature="0"
         class="cls-2"
         d="m 18.403342,246.55395 a 15.117357,15.117357 0 0 1 5.882991,29.03846 15.117398,15.117398 0 0 1 -11.765981,-27.85147 15.022769,15.022769 0 0 1 5.88299,-1.18699 m 0,-0.1391 a 15.252747,15.252747 0 1 0 15.24904,15.25275 15.252747,15.252747 0 0 0 -15.24904,-15.2546"
         id="path831" />
      <path
         style="clip-rule:evenodd;fill:#404041;fill-rule:evenodd;stroke-width:0.06741577;stroke-linejoin:round;stroke-miterlimit:1.41420996"
         inkscape:connector-curvature="0"
         class="cls-2"
         d="m 27.543121,252.52226 c 0,0 -0.927331,-1.14804 -1.083123,-1.63767 -0.155792,-0.48963 -2.277526,1.81015 -2.520487,1.79903 -0.242961,-0.0111 0,0.23368 -0.406171,0.55639 -0.406171,0.32272 -3.82246,1.96038 -3.82246,1.96038 l -1.34834,-0.81234 -0.927332,0.81791 -5.437871,1.74338 -0.433991,0.0797 -0.537852,-0.75485 h 0.05008 a 0.13539039,0.13539039 0 0 0 0.118698,-0.0742 0.13539039,0.13539039 0 0 0 -0.0093,-0.1391 l -0.456247,-0.64543 a 0.13724505,0.13724505 0 0 0 0.0612,-0.0593 0.13539039,0.13539039 0 0 0 -0.0093,-0.1391 l -0.411734,-0.58236 a 0.13353573,0.13353573 0 0 0 -0.218851,0 l -0.4117346,0.58236 a 0.13539039,0.13539039 0 0 0 0,0.1391 0.13168106,0.13168106 0 0 0 0.061204,0.0593 l -0.4636656,0.64172 a 0.13724505,0.13724505 0 0 0 0.109425,0.21514 h 0.050076 l -0.5953467,0.84201 a 0.13539039,0.13539039 0 0 0 0.1094251,0.21329 h 0.9143489 l -1.0682859,0.18547 v 2.80981 l 7.4390528,4.39184 13.336881,-6.17973 z"
         id="path833" />
      <path
         style="clip-rule:evenodd;fill:#00a69c;fill-rule:evenodd;stroke-width:0.06741577;stroke-linejoin:round;stroke-miterlimit:1.41420996"
         inkscape:connector-curvature="0"
         class="cls-3"
         d="m 6.0438694,261.56745 c 0.3449672,2.12544 6.1537706,3.02125 12.9566746,1.99747 6.802903,-1.02377 12.033053,-3.57579 11.684377,-5.70123 -0.348679,-2.12545 -6.155627,-3.01939 -12.95853,-1.99191 -6.802904,1.02748 -12.033053,3.57579 -11.6843764,5.70123"
         id="path835" />
      <path
         style="clip-rule:evenodd;fill:#0e4c45;fill-rule:evenodd;stroke-width:0.06741577;stroke-linejoin:round;stroke-miterlimit:1.41420996"
         inkscape:connector-curvature="0"
         class="cls-4"
         d="m 9.3562971,262.46696 c -0.8549994,-0.56753 -0.456247,-1.23706 0.2151409,-1.80459 0.671388,-0.56752 0.7159,-0.41729 1.541225,-0.61018 1.090542,-0.25594 1.34834,-0.5564 2.151409,-1.1536 1.034902,-0.75856 1.227787,-1.31681 2.672569,-1.27415 1.062722,0.0315 1.277863,0.48592 2.3072,0.22998 l 1.112798,-0.53044 a 1.6803245,1.6803245 0 0 1 1.776767,0.026 c 0.927332,-0.0186 2.372114,-0.27078 3.49233,-0.18547 0.285618,1.27415 6.676786,0.26707 6.396732,0.51745 -2.169955,1.92885 -15.835111,9.43282 -18.984328,7.58743 a 7.3296276,7.3296276 0 0 1 -2.6818429,-2.8024"
         id="path837" />
      <path
         style="clip-rule:evenodd;fill:#a2bd61;fill-rule:evenodd;stroke-width:0.06741577;stroke-linejoin:round;stroke-miterlimit:1.41420996"
         inkscape:connector-curvature="0"
         class="cls-5"
         d="m 34.023314,260.1542 c 0,0 -2.438884,-8.05109 -3.08987,-8.2143 -0.650986,-0.16321 -0.569381,-2.27753 -1.381723,-2.27753 -0.812343,0 -2.357277,4.14703 -2.357277,4.14703 0,0 -0.650986,3.25307 -1.298264,2.92851 -0.647277,-0.32457 -1.708144,1.22037 -1.381723,2.19592 0.32642,0.97555 -1.958525,2.68741 -3.178893,1.46518 -1.220368,-1.22222 -2.596528,0.8142 -2.926658,0.48778 -0.33013,-0.32642 -1.057158,0.32456 -1.381723,1.01264 -0.324566,0.68808 -0.893948,-0.0371 -1.220369,-0.0371 -0.32642,0 -1.057157,0.32457 -2.846907,-0.9737 -1.78975,-1.29826 -1.544934,-0.0835 -1.78975,0 -0.244815,0.0835 -0.732591,-0.48221 -0.975552,-0.076 -0.242961,0.40617 -1.381724,-0.90136 -1.2185136,-1.78789 0.1632101,-0.88653 -0.380206,-1.91216 -0.7845227,-3.3996 -0.016693,-0.84758 -0.2207048,-1.62468 -0.8197609,-1.93998 0.1057159,0.0186 0.2114317,0.0278 0.3152929,0.0501 -0.4172993,-1.52453 -1.5041317,-2.88586 -2.3999339,-4.16928 0.1502277,1.84353 -0.9124941,2.96746 -1.452201,4.62738 a 6.4115695,6.4115695 0 0 1 0.9087848,0.0501 c -0.495195,0.25965 -0.170629,0.38577 -0.2986007,0.82903 -0.2262689,0.79936 -0.4080259,1.56534 -0.7047719,2.35171 -0.4377005,0.13354 -0.836453,1.40027 -0.8754009,1.97151 a 4.6681863,4.6681863 0 0 0 0.2911821,1.85466 2.5724174,2.5724174 0 0 0 -0.046367,0.51004 15.252747,15.252747 0 0 0 30.4313088,1.51711 19.562984,19.562984 0 0 0 0.482213,-3.12325"
         id="path839" />
      <path
         style="clip-rule:evenodd;fill:#f1f1f2;fill-rule:evenodd;stroke-width:0.06741577;stroke-linejoin:round;stroke-miterlimit:1.41420996"
         inkscape:connector-curvature="0"
         class="cls-6"
         d="m 14.389852,258.08068 c -0.82718,0.22998 -2.166246,-0.25779 -2.735628,0.51931 0.370933,0.62688 3.729727,0.18547 4.493848,0.17248 -0.804923,-0.0278 -1.402125,0.25224 -2.155118,0.40061 a 15.920426,15.920426 0 0 1 -3.40887,0.22256 c -0.7418651,-0.84758 1.398416,-1.26117 1.882483,-1.39285 0.927331,-0.25224 5.476819,-1.92143 5.866298,-1.12949 -1.216659,0.57123 -2.301636,0.71219 -3.642558,0.92733 -0.389479,0.0612 -0.556398,0.0204 -0.843871,0.18547"
         id="path841" />
      <path
         style="clip-rule:evenodd;fill:#7e923c;fill-rule:evenodd;stroke-width:0.06741577;stroke-linejoin:round;stroke-miterlimit:1.41420996"
         inkscape:connector-curvature="0"
         class="cls-7"
         d="m 28.830257,251.63944 c 0.03153,1.62283 0.220705,3.36992 0.957007,3.19929 0.324564,-0.076 0.771538,0.0352 0.92733,0.37094 0.510032,1.17029 0.446974,2.32389 0.185467,3.55353 a 0.7641211,0.7641211 0 0 1 -0.617603,0.5564 c 0.05378,0.91435 0.241107,1.76378 -0.224414,2.667 a 0.80492369,0.80492369 0 0 1 -0.702916,0.40247 h -0.22627 c -0.254089,1.38543 -0.593492,2.65958 -1.904739,3.5016 -2.058676,1.32237 -4.822124,2.35728 -7.301808,2.28494 -1.298264,-0.0389 -2.654022,-0.28747 -3.744564,-1.03861 -0.346822,-0.23925 -1.01821,-0.89765 -1.472602,-0.84572 -0.485922,0.0556 -0.903221,0.35609 -1.396562,0.39875 -1.947395,0.16877 -2.420334,-1.68774 -3.4533815,-2.85989 -0.5322882,0.18547 -1.155455,-0.0797 -1.155455,-0.72703 0,-1.29826 0.1261171,-3.05834 -0.5397068,-4.28242 -0.2781996,0.10758 -0.5563989,0.19845 -0.8401624,0.32086 -0.3097287,0.13725 -0.7418652,0.18547 -0.984826,-0.12612 -0.6750974,-0.84201 -0.9848259,-1.80458 -1.2240774,-2.81537 a 14.238247,14.238247 0 1 0 23.7192831,-4.56062"
         id="path843" />
      <path
         style="clip-rule:evenodd;fill:#e6e7e8;fill-rule:evenodd;stroke-width:0.06741577;stroke-linejoin:round;stroke-miterlimit:1.41420996"
         inkscape:connector-curvature="0"
         class="cls-8"
         d="m 14.821988,248.68496 c 0,0 -5.3284457,1.2519 -6.2891613,3.77981 -0.5230148,1.38357 2.4926673,-1.28714 6.2891613,-3.77981"
         id="path845" />
    </g>
  </g>
</svg>
