<?xml version="1.0" encoding="UTF-8" standalone="no"?>
<!-- Created with Inkscape (http://www.inkscape.org/) -->

<svg
   xmlns:dc="http://purl.org/dc/elements/1.1/"
   xmlns:cc="http://creativecommons.org/ns#"
   xmlns:rdf="http://www.w3.org/1999/02/22-rdf-syntax-ns#"
   xmlns:svg="http://www.w3.org/2000/svg"
   xmlns="http://www.w3.org/2000/svg"
   xmlns:sodipodi="http://sodipodi.sourceforge.net/DTD/sodipodi-0.dtd"
   xmlns:inkscape="http://www.inkscape.org/namespaces/inkscape"
   width="500"
   height="500"
   viewBox="0 0 132.29166 132.29167"
   version="1.1"
   id="svg8"
   inkscape:version="0.92.4 (5da689c313, 2019-01-14)"
   sodipodi:docname="thrive-quiz-builder.svg">
  <defs
     id="defs2" />
  <sodipodi:namedview
     id="base"
     pagecolor="#ffffff"
     bordercolor="#a52828"
     borderopacity="1"
     inkscape:pageopacity="0.0"
     inkscape:pageshadow="2"
     inkscape:zoom="1.4"
     inkscape:cx="183.89094"
     inkscape:cy="242.34548"
     inkscape:document-units="px"
     inkscape:current-layer="layer1"
     showgrid="false"
     units="px"
     borderlayer="false"
     inkscape:pagecheckerboard="false"
     inkscape:window-width="1920"
     inkscape:window-height="1012"
     inkscape:window-x="-8"
     inkscape:window-y="-8"
     inkscape:window-maximized="1"
     showguides="true"
     inkscape:guide-bbox="true"
     inkscape:measure-start="249.821,63.0357"
     inkscape:measure-end="249.821,0">
    <sodipodi:guide
       position="9.5882942,66.182616"
       orientation="0,1"
       id="guide859"
       inkscape:locked="false" />
    <sodipodi:guide
       position="66.145833,14.717448"
       orientation="1,0"
       id="guide863"
       inkscape:locked="false" />
    <sodipodi:guide
       position="91.281245,132.29167"
       orientation="0,1"
       id="guide865"
       inkscape:locked="false" />
    <sodipodi:guide
       position="4.943e-007,86.758659"
       orientation="1,0"
       id="guide867"
       inkscape:locked="false" />
  </sodipodi:namedview>
  <metadata
     id="metadata5">
    <rdf:RDF>
      <cc:Work
         rdf:about="">
        <dc:format>image/svg+xml</dc:format>
        <dc:type
           rdf:resource="http://purl.org/dc/dcmitype/StillImage" />
        <dc:title></dc:title>
      </cc:Work>
    </rdf:RDF>
  </metadata>
  <g
     inkscape:label="Capa 1"
     inkscape:groupmode="layer"
     id="layer1"
     transform="translate(0,-164.70832)">
    <path
       style="opacity:1;fill:#ffffff;fill-opacity:1;fill-rule:nonzero;stroke:none;stroke-width:0.26458332;stroke-linecap:butt;stroke-linejoin:miter;stroke-miterlimit:1.41420996;stroke-dasharray:none;stroke-opacity:1;paint-order:markers stroke fill"
       d="M 0,164.70832 V 296.99998 H 132.29167 V 164.70832 Z"
       id="rect815"
       inkscape:connector-curvature="0" />
    <path
       d="m 86.79085,249.37437 c 0.286246,0 0.143123,0 0.214684,-0.0715 m -0.214684,0.0715 c 0.286246,0 0.143123,0 0.214684,-0.0715"
       class="st4"
       id="XMLID_640_-7"
       inkscape:connector-curvature="0"
       style="fill:#424242;stroke-width:0.26458332" />
    <g
       transform="matrix(0.71559888,0,0,0.71559888,9.2199278,186.61633)"
       id="XMLID_636_-6"
       style="stroke-width:0.36973694">
      <path
         d="m 24.8,35.4 c -7.5,0 -13.7,-6.1 -13.7,-13.7 0,-7.6 6.1,-13.6 13.7,-13.6 7.6,0 13.7,6.1 13.7,13.7 0,7.6 -6.2,13.6 -13.7,13.6 z m 0,-21.5 c -4.4,0 -7.9,3.5 -7.9,7.9 0,4.4 3.5,7.9 7.9,7.9 4.4,0 7.9,-3.5 7.9,-7.9 0,-4.4 -3.6,-7.9 -7.9,-7.9 z"
         class="st5"
         id="XMLID_637_-3"
         inkscape:connector-curvature="0"
         style="fill:#434343;stroke-width:0.36973694" />
    </g>
    <g
       transform="matrix(0.71559888,0,0,0.71559888,9.2199278,186.61633)"
       id="XMLID_632_-9"
       style="stroke-width:0.36973694">
      <path
         d="m 24.8,99.6 c -7.5,0 -13.7,-6.1 -13.7,-13.7 0,-7.5 6.1,-13.7 13.7,-13.7 7.6,0 13.7,6.1 13.7,13.7 -0.1,7.5 -6.2,13.7 -13.7,13.7 z m 0,-21.6 c -4.4,0 -7.9,3.5 -7.9,7.9 0,4.4 3.5,7.9 7.9,7.9 4.4,0 7.9,-3.5 7.9,-7.9 0,-4.3 -3.6,-7.9 -7.9,-7.9 z"
         class="st5"
         id="XMLID_633_-7"
         inkscape:connector-curvature="0"
         style="fill:#434343;stroke-width:0.36973694" />
    </g>
    <path
       d="m 26.394304,214.66782 c -5.796351,0 -10.519304,4.72295 -10.519304,10.51929 0,5.79634 4.722953,10.5193 10.519304,10.5193 5.796351,0 10.519304,-4.72296 10.519304,-10.5193 0.07156,-5.79634 -4.651392,-10.51929 -10.519304,-10.51929 z m 6.798191,8.80185 -7.44223,7.44222 c -0.429359,0.35781 -0.787159,0.71562 -1.144959,1.14499 -0.357797,0.28617 -0.644036,0.42933 -1.073398,0.28617 -0.143123,-0.0714 -0.357797,-0.21472 -0.429359,-0.3578 -1.502756,-1.50276 -3.077073,-3.00552 -4.579833,-4.50827 -0.214685,-0.21472 -0.429359,-0.42937 -0.644039,-0.64406 -0.357797,-0.3578 -0.286246,-0.93026 0.07156,-1.21651 0.429358,-0.42937 0.930278,-0.9303 1.431198,-1.43119 0.357797,-0.35781 0.930278,-0.35781 1.359637,0.0715 1.00184,1.00182 2.003676,2.07521 3.077074,3.07707 0.07156,0.0715 0.143123,0.0715 0.214684,-0.0715 1.788999,-1.789 3.577997,-3.578 5.366992,-5.29544 0.715601,-0.78714 1.502757,-1.57432 2.289919,-2.36146 0.357797,-0.35781 0.787159,-0.42937 1.216517,-0.21472 0.07156,0.0715 0.143123,0.14326 0.214685,0.21472 0.429358,0.42933 0.930278,0.93026 1.359636,1.35963 0.143123,0.14326 0.214685,0.35781 0.214685,0.64402 0,0.21472 -0.07156,0.42937 -0.286246,0.64405 -0.429359,0.42937 -0.787159,0.78715 -1.216517,1.21651 z"
       class="st6"
       id="XMLID_629_-8"
       inkscape:connector-curvature="0"
       style="clip-rule:evenodd;fill:#4f9543;fill-rule:evenodd;stroke-width:0.26458332" />
    <path
       d="M 96.022077,208.29899 H 40.205363 c -0.572478,0 -1.00184,-0.42937 -1.00184,-1.00183 v -9.58903 c 0,-0.57249 0.429362,-1.00186 1.00184,-1.00186 h 55.816714 c 0.57248,0 1.00184,0.42937 1.00184,1.00186 v 9.58903 c 0.0716,0.57246 -0.42936,1.00183 -1.00184,1.00183 z"
       class="st7"
       id="XMLID_628_-2"
       inkscape:connector-curvature="0"
       style="clip-rule:evenodd;fill:#434343;fill-rule:evenodd;stroke-width:0.26458332" />
    <path
       d="M 96.022077,230.84033 H 40.205363 c -0.572478,0 -1.00184,-0.42933 -1.00184,-1.00182 v -9.58903 c 0,-0.57246 0.429362,-1.00183 1.00184,-1.00183 h 55.816714 c 0.57248,0 1.00184,0.42937 1.00184,1.00183 v 9.58903 c 0.0716,0.57249 -0.42936,1.00182 -1.00184,1.00182 z"
       class="st7"
       id="XMLID_627_-9"
       inkscape:connector-curvature="0"
       style="clip-rule:evenodd;fill:#434343;fill-rule:evenodd;stroke-width:0.26458332" />
    <path
       d="m 44.999874,242.21836 h 36.137745 c -0.64404,0.42937 -1.288079,0.85874 -2.003677,1.28807 l -1.431198,1.07343 c -0.214684,0.14326 -0.429358,0.3578 -0.572478,0.50089 l -0.214684,0.14326 c -0.143123,0.14326 -0.3578,0.28618 -0.50092,0.42937 -0.50092,0.35781 -0.930278,0.71562 -1.288079,1.14495 -0.07156,0.0715 -0.143123,0.21472 -0.214684,0.28618 -1.001836,0.71561 -2.933954,3.07707 -3.220193,3.50644 l -1.645876,2.2899 c -0.214684,0.35781 -0.429362,0.64405 -0.572481,0.9303 H 44.999874 c -3.148632,0 -5.796351,-2.57615 -5.796351,-5.79634 0,-3.2202 2.647719,-5.79638 5.796351,-5.79638 z"
       class="st7"
       id="XMLID_626_-6"
       inkscape:connector-curvature="0"
       style="clip-rule:evenodd;fill:#434343;fill-rule:evenodd;stroke-width:0.26458332" />
    <path
       d="m 116.34509,239.06973 c -0.85873,0 -1.14496,0.14326 -1.71744,0.3578 -0.64404,0.21472 -1.28807,0.71562 -1.86056,1.21651 l -1.28808,1.21652 c -0.0716,0.14326 -0.14312,0.14326 -0.21468,0.28617 -2.43304,3.00551 -2.93396,3.50644 -4.86607,7.29913 -0.93028,1.78901 -1.93212,3.43485 -3.07708,5.08073 -0.7156,1.14498 -1.4312,2.28993 -2.28992,3.36332 l -0.14312,0.14326 c -0.0716,0.0715 -0.0716,0.0715 -0.14312,0.14326 -0.50092,0.64405 -1.216523,1.21651 -1.789003,1.789 -0.42936,0.35781 -0.93028,0.71558 -1.4312,1.07339 -0.42936,0.21472 -0.85872,0.50093 -1.21652,0.78718 l -0.71559,0.3578 c -0.14313,0.0715 -0.21469,0.14292 -0.3578,0.21472 -0.0716,0.0715 -0.21469,0.14326 -0.35781,0.14326 -0.14312,0.0715 -0.21468,0.14326 -0.35779,0.14326 -2.647718,1.28808 -6.154153,2.14681 -9.159669,2.50462 l -1.717437,0.14326 c -0.50092,0.0715 -2.003676,0.14292 -3.363317,0.14292 -1.144955,0 -2.218357,-0.0715 -2.504596,-0.14292 l 0.214685,-0.50093 c 0.429358,-1.00186 0.930278,-2.00368 1.502756,-2.93395 0.07156,-0.14326 0.143123,-0.28618 0.214684,-0.42937 l 1.14496,-1.86056 2.790835,-3.86422 2.504596,-2.57617 c 0.07156,-0.0715 0.143123,-0.14327 0.143123,-0.21472 0.143122,-0.0715 0.143122,-0.0715 0.214684,-0.14326 l 0.572478,-0.5009 c 0.07156,-0.0715 0.143123,-0.0715 0.214684,-0.14326 0.143123,-0.14326 0.214685,-0.21472 0.357801,-0.35781 l 2.647712,-1.789 c 0.85872,-0.57246 1.788998,-1.14495 2.719276,-1.64588 l 2.862395,-1.57432 c 1.0734,-0.50089 2.93396,-1.50275 3.9358,-1.86053 l 3.005513,-1.43123 c -0.42936,0.0715 -1.00184,0.28618 -1.4312,0.42937 -0.42935,0.14326 -0.85872,0.28618 -1.35964,0.42937 l -2.719273,0.93027 c -1.28808,0.42936 -2.64772,1.00186 -3.935794,1.57431 l -2.504596,1.14499 c -0.930278,0.35777 -2.361477,1.14495 -3.363316,1.64584 -1.073398,0.64405 -2.075238,1.28811 -3.077074,1.86057 l -3.506436,2.50461 c -0.07156,0.0715 -0.143123,0.14326 -0.214684,0.14326 l -2.00368,1.71744 c -0.572478,0.64402 -1.288075,1.21651 -1.788995,1.86053 -0.07156,0.14326 -0.07156,0.14326 -0.214684,0.21472 -0.50092,0.50093 -1.001837,1.14495 -1.431199,1.71744 -0.644039,0.85874 -1.216517,1.789 -1.788995,2.79083 l -0.930278,1.71744 c -0.3578,0.71562 -1.86056,4.29362 -2.003676,5.29545 h -0.07156 c 0,-0.14327 -0.429358,-1.78901 -0.500916,-3.14864 v -1.21651 c 0,-0.0715 0,-0.0715 0,-0.0715 0.143123,-0.78717 0.143123,-1.2881 0.214684,-2.21837 0.429359,-2.6477 1.574318,-5.29544 3.077078,-7.51378 l 1.502756,-2.14681 c 0.429358,-0.57246 2.003676,-2.36146 2.504596,-2.79083 0.429358,-0.3578 0.930278,-0.93026 1.431198,-1.28807 0.214684,-0.14326 0.429358,-0.35781 0.644039,-0.57249 0.214685,-0.14326 0.429359,-0.35781 0.715598,-0.50093 l 1.431198,-1.07339 c 1.431198,-1.00182 3.005516,-2.00369 4.579833,-2.79083 1.717438,-0.8587 3.434875,-1.57431 5.223873,-2.21837 2.289915,-0.93026 5.43855,-1.57432 7.80003,-2.07521 2.504593,-0.50093 8.873433,-1.64588 11.878943,-1.64588 h 0.64404 c 1.71744,-0.0715 4.15047,0 4.72295,0.8587 z"
       class="st6"
       id="XMLID_625_-8"
       inkscape:connector-curvature="0"
       style="clip-rule:evenodd;fill:#4f9543;fill-rule:evenodd;stroke-width:0.26458332" />
    <path
       d="m 103.10651,243.36335 c -0.21469,0 -0.0716,0 -0.14313,0.0714 0.21469,0 0.0716,0 0.14313,-0.0714 z m 0,0 c -0.21469,0 -0.0716,0 -0.14313,0.0714 0.21469,0 0.0716,0 0.14313,-0.0714 m 0.0716,-0.0715 -0.14312,0.0715 m -0.0716,0.0714 c -0.42936,0.0715 -1.00184,0.28618 -1.43119,0.42934 -0.42937,0.14326 -0.85872,0.28617 -1.35964,0.42937 l -2.719283,0.93026 c -1.28808,0.42937 -2.64771,1.00186 -3.935792,1.57432 l -2.504596,1.14498 c -0.930278,0.35778 -2.361476,1.14495 -3.363316,1.64588 -1.073398,0.64402 -2.075237,1.28807 -3.077074,1.86053 l -3.506435,2.50462 c -0.07156,0.0715 -0.143123,0.14326 -0.214685,0.14326 l -2.003679,1.71744 c -0.572478,0.64402 -1.288079,1.21651 -1.788995,1.86053 -0.07156,0.14326 -0.07156,0.14326 -0.214685,0.21472 -0.50092,0.50093 -1.00184,1.14498 -1.431198,1.71744 -0.644039,0.85873 -1.216517,1.789 -1.788995,2.79083 l -0.930282,1.71744 c -0.357797,0.71561 -1.860557,4.29361 -2.003676,5.29544 h -0.07156 c 0,-0.14326 -0.429359,-1.789 -0.50092,-3.14863 V 265.046 c 0,-0.0715 0,-0.0715 0,-0.0715 0.143123,-0.78718 0.143123,-1.28807 0.214684,-2.21837 0.429358,-2.64771 1.574318,-5.29541 3.077074,-7.51378 l 1.50276,-2.14681 c 0.429358,-0.57246 2.003676,-2.36146 2.504596,-2.79083 0.429358,-0.35781 0.930278,-0.93027 1.431198,-1.28807 0.214684,-0.14327 0.429358,-0.35781 0.644039,-0.5725 0.214684,-0.14326 0.429358,-0.35777 0.715597,-0.50089 l 1.431199,-1.07342 c 1.431198,-1.00183 3.005515,-2.00366 4.579833,-2.79083 1.717437,-0.8587 3.434874,-1.57432 5.22387,-2.21837 2.289918,-0.93027 5.438548,-1.57432 7.800028,-2.07522 2.504603,-0.50093 8.873433,-1.64587 11.878943,-1.64587 h 0.0716 0.14312 0.50091 c 1.57432,0 4.00736,0.0714 4.57984,0.93026 -0.85872,0 -1.14496,0.14326 -1.71744,0.35781 -0.64404,0.21472 -1.28808,0.71561 -1.86056,1.21651 l -1.28808,1.21651 c -0.0716,0.14326 -0.14312,0.14326 -0.21468,0.28617 -2.43304,3.00552 -2.93396,3.50645 -4.86608,7.29914 -0.93028,1.789 -1.93212,3.43484 -3.07707,5.08072 -0.7156,1.14498 -1.4312,2.28993 -2.28992,3.36332 -0.0716,0.0715 -0.0716,0.0715 -0.14312,0.14326 -0.0716,0.0715 -0.0716,0.0715 -0.14313,0.14326 -0.50092,0.64406 -1.216513,1.21651 -1.789003,1.78901 -0.42935,0.3578 -0.93027,0.71558 -1.43119,1.07338 -0.42936,0.21472 -0.85872,0.50093 -1.21652,0.78718 l -0.7156,0.35781 c -0.14312,0.0715 -0.21468,0.14291 -0.3578,0.21472 -0.0716,0.0715 -0.21468,0.14326 -0.3578,0.14326 -0.14312,0.0715 -0.21468,0.14326 -0.3578,0.14326 -2.647711,1.28807 -6.154147,2.14681 -9.159663,2.50461 l -1.788998,0.14326 c -0.500917,0.0715 -2.003677,0.14292 -3.363313,0.14292 -1.14496,0 -2.218357,-0.0715 -2.504596,-0.14292 l 0.214684,-0.50093 c 0.429362,-1.00186 0.930282,-2.00368 1.50276,-2.93395 0.07156,-0.14326 0.143123,-0.28617 0.214684,-0.42937 l 1.144956,-1.86056 2.790835,-3.86421 2.504596,-2.57618 c 0.07156,-0.0715 0.143123,-0.14326 0.143123,-0.21472 0.143123,-0.0715 0.143123,-0.0715 0.214684,-0.14326 l 0.572481,-0.5009 c 0.07156,-0.0715 0.143123,-0.0715 0.214685,-0.14326 0.143123,-0.14326 0.214684,-0.21472 0.3578,-0.35781 l 2.647716,-1.789 c 0.85872,-0.57246 1.788995,-1.14495 2.719277,-1.64588 l 2.862389,-1.57432 c 1.0734,-0.50089 2.93396,-1.50275 3.9358,-1.86052 l 3.148633,-1.50279"
       class="st8"
       id="XMLID_615_-9"
       inkscape:connector-curvature="0"
       style="fill:none;stroke-width:0.26458332" />
  </g>
</svg>
