<?xml version="1.0" encoding="UTF-8" standalone="no"?>
<!-- Created with Inkscape (http://www.inkscape.org/) -->

<svg
   xmlns:dc="http://purl.org/dc/elements/1.1/"
   xmlns:cc="http://creativecommons.org/ns#"
   xmlns:rdf="http://www.w3.org/1999/02/22-rdf-syntax-ns#"
   xmlns:svg="http://www.w3.org/2000/svg"
   xmlns="http://www.w3.org/2000/svg"
   xmlns:sodipodi="http://sodipodi.sourceforge.net/DTD/sodipodi-0.dtd"
   xmlns:inkscape="http://www.inkscape.org/namespaces/inkscape"
   width="500"
   height="500"
   viewBox="0 0 132.29166 132.29167"
   version="1.1"
   id="svg8"
   inkscape:version="0.92.4 (5da689c313, 2019-01-14)"
   sodipodi:docname="thrive-leads.svg">
  <defs
     id="defs2" />
  <sodipodi:namedview
     id="base"
     pagecolor="#ffffff"
     bordercolor="#a52828"
     borderopacity="1"
     inkscape:pageopacity="0.0"
     inkscape:pageshadow="2"
     inkscape:zoom="1.4"
     inkscape:cx="234.60522"
     inkscape:cy="213.05976"
     inkscape:document-units="px"
     inkscape:current-layer="layer1"
     showgrid="false"
     units="px"
     borderlayer="false"
     inkscape:pagecheckerboard="false"
     inkscape:window-width="1920"
     inkscape:window-height="1002"
     inkscape:window-x="-8"
     inkscape:window-y="-8"
     inkscape:window-maximized="1"
     showguides="true"
     inkscape:guide-bbox="true"
     inkscape:measure-start="249.821,63.0357"
     inkscape:measure-end="249.821,0">
    <sodipodi:guide
       position="9.5882942,66.182616"
       orientation="0,1"
       id="guide859"
       inkscape:locked="false" />
    <sodipodi:guide
       position="66.145833,14.717448"
       orientation="1,0"
       id="guide863"
       inkscape:locked="false" />
    <sodipodi:guide
       position="91.281245,132.29167"
       orientation="0,1"
       id="guide865"
       inkscape:locked="false" />
    <sodipodi:guide
       position="4.943e-007,86.758659"
       orientation="1,0"
       id="guide867"
       inkscape:locked="false" />
  </sodipodi:namedview>
  <metadata
     id="metadata5">
    <rdf:RDF>
      <cc:Work
         rdf:about="">
        <dc:format>image/svg+xml</dc:format>
        <dc:type
           rdf:resource="http://purl.org/dc/dcmitype/StillImage" />
        <dc:title></dc:title>
      </cc:Work>
    </rdf:RDF>
  </metadata>
  <g
     inkscape:label="Capa 1"
     inkscape:groupmode="layer"
     id="layer1"
     transform="translate(0,-164.70832)">
    <path
       style="opacity:1;fill:#ffffff;fill-opacity:1;fill-rule:nonzero;stroke:none;stroke-width:0.26458332;stroke-linecap:butt;stroke-linejoin:miter;stroke-miterlimit:1.41420996;stroke-dasharray:none;stroke-opacity:1;paint-order:markers stroke fill"
       d="M 0,164.70832 V 296.99998 H 132.29167 V 164.70832 Z"
       id="rect815"
       inkscape:connector-curvature="0" />
    <g
       transform="matrix(1.5709635,0,0,1.5709635,16.105685,180.9863)"
       id="b"
       style="stroke-width:0.16842106">
      <path
         d="m 16.77,29.49 c 0,0 11.11,-19.55 41.54,-22.29 -1.62,0.92 -5.8,4.18 -7.84,11.15 -2.04,6.97 -4.37,12.46 -4.37,12.46 l -13.94,10.58 -7.74,-5.7 c 0,0 2.75,-9.27 19.64,-20.25 -1.83,0.71 -13.43,6.41 -22.9,17.6 l -4.4,-3.57 v 0.02 z"
         style="fill:#4f961b;stroke-width:0.16842106"
         id="path7"
         inkscape:connector-curvature="0" />
      <path
         d="m 56.28,14.01 h 0.03 l -0.27,0.51 -1.32,2.73 5.35,2.87 L 32.19,41.38 4.3,20.13 32.04,5.18 38.7,8.84 43.25,6.78 v 0 L 31.86,0.48 0.21,18.3 c 0,0 -0.21,36.02 -0.21,39.59 0,3.57 5.59,5.59 5.59,5.59 0,0 48.23,0.1 52.71,0 4.48,-0.1 5.7,-5.8 5.7,-5.8 V 18.3 l -7.76,-4.29 h 0.03 z M 4.29,56.97 V 25.22 L 22.1,39.37 c 0,0 -17.81,17.6 -17.81,17.6 z m 3.36,2.75 18.02,-18.32 6.36,4.67 6.36,-4.67 18.42,18.32 H 7.64 Z M 60.05,56.97 42.14,39.37 60.05,25.22 Z"
         style="fill:#424242;stroke-width:0.16842106"
         id="path9"
         inkscape:connector-curvature="0" />
    </g>
  </g>
</svg>
