<?xml version="1.0" encoding="UTF-8" standalone="no"?>
<!-- Created with Inkscape (http://www.inkscape.org/) -->

<svg
   xmlns:dc="http://purl.org/dc/elements/1.1/"
   xmlns:cc="http://creativecommons.org/ns#"
   xmlns:rdf="http://www.w3.org/1999/02/22-rdf-syntax-ns#"
   xmlns:svg="http://www.w3.org/2000/svg"
   xmlns="http://www.w3.org/2000/svg"
   xmlns:sodipodi="http://sodipodi.sourceforge.net/DTD/sodipodi-0.dtd"
   xmlns:inkscape="http://www.inkscape.org/namespaces/inkscape"
   width="500"
   height="500"
   viewBox="0 0 132.29166 132.29167"
   version="1.1"
   id="svg8"
   inkscape:version="0.92.4 (5da689c313, 2019-01-14)"
   sodipodi:docname="icon-template.svg">
  <defs
     id="defs2" />
  <sodipodi:namedview
     id="base"
     pagecolor="#ffffff"
     bordercolor="#a52828"
     borderopacity="1"
     inkscape:pageopacity="0.0"
     inkscape:pageshadow="2"
     inkscape:zoom="0.98994949"
     inkscape:cx="81.653069"
     inkscape:cy="230.95006"
     inkscape:document-units="px"
     inkscape:current-layer="layer1"
     showgrid="false"
     units="px"
     borderlayer="false"
     inkscape:pagecheckerboard="false"
     inkscape:window-width="1920"
     inkscape:window-height="1012"
     inkscape:window-x="-8"
     inkscape:window-y="-8"
     inkscape:window-maximized="1"
     showguides="true"
     inkscape:guide-bbox="true"
     inkscape:measure-start="249.821,63.0357"
     inkscape:measure-end="249.821,0">
    <sodipodi:guide
       position="9.5882942,66.182616"
       orientation="0,1"
       id="guide859"
       inkscape:locked="false" />
    <sodipodi:guide
       position="66.145833,14.717448"
       orientation="1,0"
       id="guide863"
       inkscape:locked="false" />
    <sodipodi:guide
       position="91.281245,132.29167"
       orientation="0,1"
       id="guide865"
       inkscape:locked="false" />
    <sodipodi:guide
       position="4.943e-007,86.758659"
       orientation="1,0"
       id="guide867"
       inkscape:locked="false" />
  </sodipodi:namedview>
  <metadata
     id="metadata5">
    <rdf:RDF>
      <cc:Work
         rdf:about="">
        <dc:format>image/svg+xml</dc:format>
        <dc:type
           rdf:resource="http://purl.org/dc/dcmitype/StillImage" />
        <dc:title></dc:title>
      </cc:Work>
    </rdf:RDF>
  </metadata>
  <g
     inkscape:label="Capa 1"
     inkscape:groupmode="layer"
     id="layer1"
     transform="translate(0,-164.70832)">
    <path
       style="opacity:1;fill:#ffffff;fill-opacity:1;fill-rule:nonzero;stroke:none;stroke-width:0.26458332;stroke-linecap:butt;stroke-linejoin:miter;stroke-miterlimit:1.41420996;stroke-dasharray:none;stroke-opacity:1;paint-order:markers stroke fill"
       d="M 0,164.70832 V 296.99998 H 132.29167 V 164.70832 Z"
       id="rect815"
       inkscape:connector-curvature="0" />
    <g
       style="stroke-width:0.98671973"
       transform="matrix(0.13407217,0.23221984,-0.23221984,0.13407217,17.493473,327.3613)"
       id="g986">
      <path
         style="display:inline;opacity:1;fill:#9ab927;fill-opacity:1;fill-rule:evenodd;stroke:none;stroke-width:19.73439598;stroke-linecap:butt;stroke-linejoin:miter;stroke-miterlimit:4;stroke-dasharray:none;stroke-opacity:1;paint-order:stroke fill markers"
         d="m -95.668525,-293.14894 c -3.507713,107.77652 -93.473125,155.21557 -166.112695,141.39897 -8.93206,-1.69895 -32.97852,-9.86371 -54.08738,-24.06684 -32.99898,-22.20341 -65.97853,-59.7152 -63.32077,-108.4435 -0.57037,-23.32475 7.62165,-42.24182 14.45876,-62.65098 7.65537,-20.46749 17.82853,-43.50917 27.67136,-67.81911 10.85105,-26.80007 18.08492,-52.81845 31.12711,-74.73042 17.28244,-29.03595 50.1843,-47.48792 84.38582,-49.0447 25.59369,1.16118 47.95976,6.26345 72.7963,32.43883 34.8517,33.68853 32.93926,70.1741 40.24657,117.64421 4.53004,29.4282 14.084925,56.86656 12.834925,95.27354 z"
         id="path868"
         inkscape:connector-curvature="0"
         sodipodi:nodetypes="sssccssccss" />
      <path
         style="color:#000000;font-style:normal;font-variant:normal;font-weight:normal;font-stretch:normal;font-size:medium;line-height:normal;font-family:sans-serif;font-variant-ligatures:normal;font-variant-position:normal;font-variant-caps:normal;font-variant-numeric:normal;font-variant-alternates:normal;font-feature-settings:normal;text-indent:0;text-align:start;text-decoration:none;text-decoration-line:none;text-decoration-style:solid;text-decoration-color:#000000;letter-spacing:normal;word-spacing:normal;text-transform:none;writing-mode:lr-tb;direction:ltr;text-orientation:mixed;dominant-baseline:auto;baseline-shift:baseline;text-anchor:start;white-space:normal;shape-padding:0;clip-rule:nonzero;display:inline;overflow:visible;visibility:visible;opacity:1;isolation:auto;mix-blend-mode:normal;color-interpolation:sRGB;color-interpolation-filters:linearRGB;solid-color:#000000;solid-opacity:1;vector-effect:none;fill:#000000;fill-opacity:1;fill-rule:evenodd;stroke:none;stroke-width:7.89375782;stroke-linecap:butt;stroke-linejoin:miter;stroke-miterlimit:4;stroke-dasharray:none;stroke-dashoffset:0;stroke-opacity:1;paint-order:stroke fill markers;color-rendering:auto;image-rendering:auto;shape-rendering:auto;text-rendering:auto;enable-background:accumulate"
         d="m -202.49023,-375.63281 -8.09766,19.1914 c -8.99835,-3.36904 -18.72748,-5.25697 -28.89063,-5.29687 -23.49209,-0.0922 -42.71533,8.55988 -55.93164,22.66601 -0.18892,0.20165 -0.36431,0.41534 -0.55078,0.61915 L -312.75,-352.25 c 0,0 -13.09298,10.92322 -21.88477,35.7207 -5.79173,16.33575 -2.24023,46.4043 -2.24023,46.4043 l 21.66406,-2.70703 c 5.1646,30.32121 31.65884,56.5692 62.80274,64.09375 l -3.39453,20.47851 c 0,0 19.05907,6.47662 44.875,1.40235 23.66804,-4.65209 40.81054,-19.32227 40.81054,-19.32227 l -13.42383,-16.90625 c 17.14402,-13.34691 27.63761,-33.98821 27.05469,-59.03125 -0.18179,-7.8102 -1.56123,-15.4027 -3.94531,-22.60742 l 19.87695,-6.32812 c 0,0 -4.1737,-17.31604 -22.61523,-38.3125 -13.7257,-15.62729 -39.32031,-26.26758 -39.32031,-26.26758 z m -37.01954,21.89453 c 40.93445,0.1607 74.13009,33.34517 75.02539,71.80859 0.95223,40.90861 -29.19571,67.63023 -70.48437,67.3711 -37.47223,-0.23519 -73.615,-34.38775 -73.15039,-69.66211 0.2566,-19.48195 6.8417,-36.8876 18.54687,-49.38086 11.70517,-12.49326 28.52706,-20.22127 50.0625,-20.13672 z"
         id="path871"
         inkscape:connector-curvature="0" />
      <path
         style="color:#000000;font-style:normal;font-variant:normal;font-weight:normal;font-stretch:normal;font-size:medium;line-height:normal;font-family:sans-serif;font-variant-ligatures:normal;font-variant-position:normal;font-variant-caps:normal;font-variant-numeric:normal;font-variant-alternates:normal;font-feature-settings:normal;text-indent:0;text-align:start;text-decoration:none;text-decoration-line:none;text-decoration-style:solid;text-decoration-color:#000000;letter-spacing:normal;word-spacing:normal;text-transform:none;writing-mode:lr-tb;direction:ltr;text-orientation:mixed;dominant-baseline:auto;baseline-shift:baseline;text-anchor:start;white-space:normal;shape-padding:0;clip-rule:nonzero;display:inline;overflow:visible;visibility:visible;opacity:1;isolation:auto;mix-blend-mode:normal;color-interpolation:sRGB;color-interpolation-filters:linearRGB;solid-color:#000000;solid-opacity:1;vector-effect:none;fill:#000000;fill-opacity:1;fill-rule:evenodd;stroke:none;stroke-width:29.60159111;stroke-linecap:butt;stroke-linejoin:miter;stroke-miterlimit:4;stroke-dasharray:none;stroke-dashoffset:0;stroke-opacity:1;paint-order:stroke fill markers;color-rendering:auto;image-rendering:auto;shape-rendering:auto;text-rendering:auto;enable-background:accumulate"
         d="m -217.78711,-500.04297 -8.49414,16.5625 c -6.84929,0.3849 -13.32812,2.33156 -19.0625,5.48438 l -17.10547,-11.20118 -12.33203,12.08399 11.9707,16.30078 c -3.10266,5.47442 -5.04451,11.6637 -5.49609,18.25195 l -17.1875,7.98243 5.13867,17.02929 17.66211,-0.6582 c 3.89177,6.78301 9.55627,12.45401 16.33594,16.41211 l -0.44336,16.83008 17.0039,5 8.26172,-15.75391 c 7.05518,-0.35054 13.72223,-2.36407 19.59766,-5.64258 l 16.73828,10.96094 12.33008,-12.08203 -11.7793,-16.04297 c 3.23327,-5.74757 5.19155,-12.27755 5.49024,-19.22656 l 17.05078,-7.72852 -4.96289,-17.29297 -18.23828,0.96485 c -3.85212,-6.39761 -9.295,-11.76024 -15.76368,-15.5586 l 0.66602,-17.50781 z m -5.97656,46.48633 c 8.46521,0 14.6543,6.26534 14.65429,13.94726 0,7.68194 -6.18908,13.94727 -14.65429,13.94727 -8.46521,0 -14.65625,-6.26532 -14.65625,-13.94727 0,-7.68193 6.19104,-13.94726 14.65625,-13.94726 z"
         id="path915"
         inkscape:connector-curvature="0" />
      <path
         inkscape:connector-curvature="0"
         id="path964"
         d="m -219.35156,-526.94141 c -16.31204,-0.38652 -33.2475,4.1 -50.07813,14.59766 l -0.20703,0.13086 -0.19922,0.14258 c -20.11796,14.45115 -29.70628,31.82012 -42.9082,64.11328 -0.004,0.0102 -0.008,0.0172 -0.0117,0.0273 -13.44257,31.6775 -24.54076,63.69977 -38.875,97.95313 l -0.008,0.0176 -0.006,0.0156 c -17.86727,43.28056 -19.99916,62.65918 -13.73438,91.29102 7.33636,33.52922 33.51027,61.88649 64.62891,79.27929 34.92331,21.45367 89.7429,29.35629 136.87695,-2.69336 l 0.01,-0.008 c 35.68592,-24.04075 58.10314,-62.37089 57.26367,-124.80273 -0.29012,-21.5765 -6.49772,-48.42445 -13.69922,-83.2461 -4.86623,-23.52983 -4.27351,-47.20034 -12.60547,-71.39453 -6.19426,-17.98681 -16.87679,-30.66057 -27.53906,-41.61328 l -0.29883,-0.30469 -0.33008,-0.27148 c -17.36403,-14.18529 -37.30668,-22.73742 -58.27929,-23.23438 z m -0.0371,14.41016 c 17.08531,0.3622 33.16527,7.74404 48.52929,20.22266 9.98819,10.29565 18.64817,20.79113 23.77344,35.67382 7.23193,20.99993 6.80969,43.9798 12.09766,69.54883 7.23044,34.96162 13.13848,61.66017 13.39062,80.41211 0.79233,58.92621 -18.4781,90.49377 -50.65429,112.16602 l -0.0156,0.0117 -0.0137,0.01 c -41.76481,28.4155 -90.44165,20.95771 -120.7832,2.24024 l -0.13867,-0.0859 -0.14454,-0.0801 c -28.16278,-15.71508 -51.27681,-41.56596 -57.37695,-69.44531 -5.87412,-26.8464 -4.54221,-39.9949 12.93164,-82.32813 l 0.0137,-0.0332 c 14.56061,-34.79785 25.67844,-66.86615 38.8711,-97.94336 l 0.0195,-0.0449 0.0195,-0.0469 c 12.93738,-31.64983 20.256,-44.96998 37.59375,-57.48632 14.66145,-9.09837 28.57922,-13.07314 41.88672,-12.79102 z"
         style="color:#000000;font-style:normal;font-variant:normal;font-weight:normal;font-stretch:normal;font-size:medium;line-height:normal;font-family:sans-serif;font-variant-ligatures:normal;font-variant-position:normal;font-variant-caps:normal;font-variant-numeric:normal;font-variant-alternates:normal;font-feature-settings:normal;text-indent:0;text-align:start;text-decoration:none;text-decoration-line:none;text-decoration-style:solid;text-decoration-color:#000000;letter-spacing:normal;word-spacing:normal;text-transform:none;writing-mode:lr-tb;direction:ltr;text-orientation:mixed;dominant-baseline:auto;baseline-shift:baseline;text-anchor:start;white-space:normal;shape-padding:0;clip-rule:nonzero;display:inline;overflow:visible;visibility:visible;opacity:1;isolation:auto;mix-blend-mode:normal;color-interpolation:sRGB;color-interpolation-filters:linearRGB;solid-color:#000000;solid-opacity:1;vector-effect:none;fill:#000000;fill-opacity:1;fill-rule:evenodd;stroke:none;stroke-width:14.8007946;stroke-linecap:butt;stroke-linejoin:miter;stroke-miterlimit:4;stroke-dasharray:none;stroke-dashoffset:0;stroke-opacity:1;paint-order:stroke fill markers;color-rendering:auto;image-rendering:auto;shape-rendering:auto;text-rendering:auto;enable-background:accumulate" />
    </g>
  </g>
</svg>
