<?xml version="1.0" encoding="UTF-8" standalone="no"?>
<!-- Created with Inkscape (http://www.inkscape.org/) -->

<svg
   xmlns:dc="http://purl.org/dc/elements/1.1/"
   xmlns:cc="http://creativecommons.org/ns#"
   xmlns:rdf="http://www.w3.org/1999/02/22-rdf-syntax-ns#"
   xmlns:svg="http://www.w3.org/2000/svg"
   xmlns="http://www.w3.org/2000/svg"
   xmlns:sodipodi="http://sodipodi.sourceforge.net/DTD/sodipodi-0.dtd"
   xmlns:inkscape="http://www.inkscape.org/namespaces/inkscape"
   width="500"
   height="500"
   viewBox="0 0 132.29166 132.29167"
   version="1.1"
   id="svg8"
   inkscape:version="0.92.4 (5da689c313, 2019-01-14)"
   sodipodi:docname="groundhogg.svg">
  <defs
     id="defs2" />
  <sodipodi:namedview
     id="base"
     pagecolor="#ffffff"
     bordercolor="#a52828"
     borderopacity="1"
     inkscape:pageopacity="0.0"
     inkscape:pageshadow="2"
     inkscape:zoom="1.4"
     inkscape:cx="197.88975"
     inkscape:cy="214.47609"
     inkscape:document-units="px"
     inkscape:current-layer="layer1"
     showgrid="false"
     units="px"
     borderlayer="false"
     inkscape:pagecheckerboard="false"
     inkscape:window-width="1920"
     inkscape:window-height="1012"
     inkscape:window-x="-8"
     inkscape:window-y="-8"
     inkscape:window-maximized="1"
     showguides="true"
     inkscape:guide-bbox="true"
     inkscape:measure-start="249.821,63.0357"
     inkscape:measure-end="249.821,0">
    <sodipodi:guide
       position="9.5882942,66.182616"
       orientation="0,1"
       id="guide859"
       inkscape:locked="false" />
    <sodipodi:guide
       position="66.145833,14.717448"
       orientation="1,0"
       id="guide863"
       inkscape:locked="false" />
    <sodipodi:guide
       position="91.281245,132.29167"
       orientation="0,1"
       id="guide865"
       inkscape:locked="false" />
    <sodipodi:guide
       position="4.943e-007,86.758659"
       orientation="1,0"
       id="guide867"
       inkscape:locked="false" />
  </sodipodi:namedview>
  <metadata
     id="metadata5">
    <rdf:RDF>
      <cc:Work
         rdf:about="">
        <dc:format>image/svg+xml</dc:format>
        <dc:type
           rdf:resource="http://purl.org/dc/dcmitype/StillImage" />
        <dc:title></dc:title>
      </cc:Work>
    </rdf:RDF>
  </metadata>
  <g
     inkscape:label="Capa 1"
     inkscape:groupmode="layer"
     id="layer1"
     transform="translate(0,-164.70832)">
    <path
       style="opacity:1;fill:#ffffff;fill-opacity:1;fill-rule:nonzero;stroke:none;stroke-width:0.26458332;stroke-linecap:butt;stroke-linejoin:miter;stroke-miterlimit:1.41420996;stroke-dasharray:none;stroke-opacity:1;paint-order:markers stroke fill"
       d="M 0,164.70832 V 296.99998 H 132.29167 V 164.70832 Z"
       id="rect815"
       inkscape:connector-curvature="0" />
    <g
       id="g14"
       transform="matrix(0.28636068,0,0,0.28636068,10.79906,178.76368)"
       style="display:inline;stroke-width:0.80543238">
      <path
         style="fill:#ff7b01;stroke-width:0.80543238"
         inkscape:connector-curvature="0"
         id="path2"
         d="M 348.93,258.42 V 107.24 C 348.927,98.919 344.486,91.231 337.28,87.07 L 206.35,11.47 c -7.206,-4.16 -16.084,-4.16 -23.29,0 L 52.13,87.08 c -7.204,4.162 -11.641,11.85 -11.64,20.17 v 151.18 c 10e-4,8.319 4.437,16.007 11.64,20.17 l 130.93,75.6 c 7.208,4.164 16.092,4.164 23.3,0 l 130.92,-75.6 c 7.206,-4.161 11.647,-11.849 11.65,-20.17 v -0.01" />
      <path
         style="fill:#ffffff;stroke-width:0.80543238"
         inkscape:connector-curvature="0"
         id="path4"
         d="m 88.07,257.31 c -0.578,-1.344 -1.317,-2.614 -2.2,-3.78 0,0 -10.08,6.3 -19.22,-7.24 -9.13,-13.55 -6.3,-57.33 -6.3,-57.33 0,0 -17.63,-0.63 -21.73,-17.95 -4.1,-17.32 15.12,-33.07 22.36,-36.85 1.9,-15.75 4.73,-22.99 4.73,-22.99 0,0 -19.84,-9.45 -15.43,-38.11 4.4,-28.66 36.53,-43.78 58.26,-27.4 46.3,-34.02 105.83,-36.22 148.98,-10.08 13.86,-9.45 33.38,-11.65 49.76,6.62 16.38,18.26 5.04,41.25 -1.57,46.92 5.35,7.88 8.5,18.27 8.5,18.27 0,0 18.26,9.45 23.62,24.57 5.35,15.12 -10.08,23.3 -10.08,23.3 0,0 9.27,24.96 8.19,46.3 -1.26,24.89 -10.4,33.7 -18.27,32.76 -2.96,10.069 -8.002,19.404 -14.8,27.4 6.997,7.333 13.445,19.153 17.221,26.806 L 206.36,354.2 c -7.208,4.164 -16.092,4.164 -23.3,0 L 57.495,281.698 c 7.509,-7.049 22.046,-20.163 30.575,-24.388 z" />
      <path
         style="fill:#cfa756;stroke-width:0.80543238"
         inkscape:connector-curvature="0"
         id="path6"
         d="m 114.83,259.62 c -8.434,-10.148 -15.818,-21.124 -22.04,-32.76 0,0 -14.4,15.41 -15.7,-10.56 -1.3,-25.97 -0.68,-41.72 -0.68,-41.72 0,0 -26.45,-0.63 -22.67,-11.34 3.77,-10.7 24.56,-25.82 24.56,-25.82 0,0 1.26,-23.31 6.93,-35.9 C 69.48,95.22 63.81,85.14 70.74,68.76 77.67,52.38 99.09,48.6 109.17,63.09 155.78,25.92 225.7,26.55 259.72,55.53 c 12.6,-15.75 28.34,-17.64 39.05,-1.9 10.71,15.76 -10.7,31.5 -10.7,31.5 l 12.6,28.35 c 0,0 21.16,12.72 21.6,22.42 0.44,9.7 -10.9,5.3 -10.9,5.3 0,0 12.6,38.42 11.34,59.2 -1.26,20.8 -13.23,13.23 -13.23,13.23 -5.171,17.211 -13.98,33.11 -25.83,46.62 11.636,15.502 18.14,28.444 21.612,36.839 L 206.36,354.2 c -7.208,4.164 -16.091,4.164 -23.3,0 L 70.841,289.404 C 84.305,277.838 99.062,267.842 114.83,259.62 Z M 220.19,58.11 c -19.107,-11.032 -42.99,2.758 -42.99,24.82 0,10.239 5.463,19.701 14.33,24.82 19.107,11.032 42.99,-2.758 42.99,-24.82 0,-10.239 -5.463,-19.701 -14.33,-24.82 z m 50.015,85.577 c -14.933,-9.045 -34.058,1.468 -34.425,18.923 -0.177,8.442 4.35,16.284 11.75,20.351 15.3,8.411 33.967,-2.896 33.6,-20.351 -0.163,-7.762 -4.285,-14.901 -10.925,-18.923 z m -104.754,9.094 c -14.642,-8.872 -33.398,1.432 -33.761,18.549 -0.176,8.282 4.266,15.975 11.526,19.963 15.005,8.244 33.307,-2.846 32.944,-19.963 -0.161,-7.608 -4.201,-14.605 -10.709,-18.549 z m 36.319,96.129 27.08,-3.78 1.89,-19.53 -16.38,-5.67 -17.63,10.08 z" />
      <path
         style="fill:#ff7b01;stroke-width:0.80543238"
         inkscape:connector-curvature="0"
         id="path8"
         d="m 206.8,128.81 c -70.96,6.71 -111.7,20.57 -149.5,40.31 -8.4,-2.94 7.14,-20.58 21,-31.71 -0.16,-12.314 2.198,-24.53 6.93,-35.9 0,0 10.71,0.42 19.95,-3.36 3.36,-11.34 13.02,-21 13.02,-21 -1.938,-4.784 -4.478,-9.3 -7.56,-13.44 13.01,-18.47 63.83,-36.95 115.9,-24.77 52.07,12.18 72.65,75.16 72.65,75.16 0,0 24.36,10.93 23.1,25.2 -17.64,-8.4 -66.87,-15.1 -115.49,-10.5 z m 13.39,-70.7 c -19.107,-11.031 -42.99,2.758 -42.99,24.82 0,10.24 5.462,19.701 14.33,24.821 19.106,11.031 42.99,-2.758 42.99,-24.821 0,-10.239 -5.463,-19.7 -14.33,-24.82 z" />
      <path
         inkscape:connector-curvature="0"
         id="path10"
         d="m 265.93,176.4 c -9.723,-0.007 -15.792,-10.536 -10.925,-18.952 4.144,-7.167 13.946,-8.476 19.825,-2.648 -0.28,-0.653 -0.6,-1.287 -0.96,-1.9 -7.04,-12.19 -24.62,-12.19 -31.65,0 -7.04,12.18 1.76,27.4 15.82,27.4 4.5,0.007 8.842,-1.653 12.19,-4.66 -1.378,0.504 -2.833,0.761 -4.3,0.76 z m -86.59,-4.14 c 0,4.62 -1.21,9.16 -3.53,13.17 -1.065,1.853 -2.347,3.572 -3.82,5.12 -10.04,11.17 -21.44,11.13 -20.59,10.61 0.84,-0.52 2.78,-1.56 4.96,-2.78 -10.534,1.39 -20.864,-3.727 -26.14,-12.95 -10.13,-17.55 2.53,-39.5 22.8,-39.5 14.54,0 26.326,11.79 26.32,26.33 z m -9.66,-9.62 c -7.4,-12.83 -25.92,-12.83 -33.33,0 -7.4,12.83 1.85,28.87 16.67,28.87 5.56,0 10.58,-2.37 14.1,-6.15 -9.251,4.683 -20.103,-2.404 -19.534,-12.758 0.57,-10.353 12.134,-16.208 20.816,-10.537 0.592,0.387 1.153,0.82 1.678,1.295 z m 93.18,26.48 c -4.76,0.54 -15.29,-2.39 -20.71,-7.62 -2.348,-1.935 -4.327,-4.28 -5.84,-6.92 -9.66,-16.73 2.41,-37.65 21.73,-37.65 19.322,-0.002 31.401,20.913 21.741,37.648 0,0 -0.001,0.001 -0.001,0.002 -4.405,7.729 -12.604,12.515 -21.5,12.55 2.82,1.08 6.18,1.8 4.58,1.99 z M 107.78,86.48 c 1.772,-2.909 3.939,-5.558 6.44,-7.87 -1.58,-3.74 -7.07,-14.52 -18.8,-18 -14.29,-4.25 -25.48,15.64 -19.11,27.6 5.38,10.12 20.97,8.38 27.19,7.36 1.058,-3.193 2.495,-6.248 4.28,-9.1 z M 126.5,72.77 c 1.35,0.77 -6.6,4.94 -13.51,16.03 -4.085,6.266 -7.393,13.005 -9.85,20.07 -0.48,1.16 -1.45,-1.02 -1.23,-5.2 -3.36,1.323 -6.854,2.278 -10.42,2.85 -2.383,6.975 -4.196,14.132 -5.42,21.4 1.245,-0.692 2.495,-1.375 3.75,-2.05 39.52,-21.15 67.2,-27.9 85.54,-30.83 -8.64,-20.9 6.62,-44.86 30.17,-44.86 22.591,10e-4 38.315,22.447 30.6,43.68 21.46,2.42 40.67,7.36 55,12.52 -4.52,-11.07 -16.09,-33.9 -39.71,-50.79 -33.21,-23.75 -93.64,-17.57 -123.56,2.51 -3.564,2.385 -6.956,5.018 -10.15,7.88 1.357,2.558 2.466,5.24 3.31,8.01 2.8,-1.3 4.9,-1.55 5.48,-1.22 z M 66.27,99.22 C 52.37,84.16 61.63,57.13 79.4,50.57 c 10.89,-4.02 21.84,-2.03 30.12,5.05 22.07,-18.31 54.43,-28.75 84.75,-28.6 20.18,0.1 43.97,5.06 65.34,19.84 2.525,-3.712 6.042,-6.64 10.15,-8.45 11.02,-5.12 32.1,1.41 36.87,20.78 3.42,13.87 -6.28,23.77 -11.38,27.88 4.53,8.258 8.319,16.902 11.32,25.83 1.64,0.83 3.1,1.63 4.37,2.4 21.37,12.62 20.6,23.95 16.48,28.32 -0.93,1 -4.1,2.87 -9.33,5.26 2.2,6.17 4.82,15.25 7.52,28.47 6.95,33.98 -3.86,51.22 -12.61,45.56 -3.821,14.94 -11.763,28.505 -22.92,39.15 9.335,8.854 16.621,19.585 21.407,31.434 l -11.439,6.606 c -7.731,-15.209 -16.811,-25.344 -20.788,-29.38 -7.19,4.7 -13.15,6.6 -15.17,5.73 -5.4,-2.31 4.9,-3.08 21.88,-28.31 16.99,-25.23 17.5,-46.6 17.5,-46.6 0,0 6.19,6.96 8.5,5.93 2.32,-1.04 6.7,-12.1 0,-38.1 -5.06,-19.66 -10.56,-29.75 -12.94,-33.5 -4.19,-0.96 -9.15,-1.9 -14.95,-2.71 1.05,2.84 -2.9,3.35 -5.83,1.2 -1.545,-1.026 -3.211,-1.855 -4.96,-2.47 -8.064,-0.752 -16.153,-1.199 -24.25,-1.34 -4.19,1.53 -8.06,3.37 -10.17,3.04 -1.9,-0.3 -1.56,-1.82 -0.92,-3.1 -9.35,0.09 -19.66,0.48 -31,1.3 -12.1,0.85 -23.41,2.16 -33.98,3.77 2.14,2.85 1.65,6.01 0,6.01 -1.34,0 -4.87,-3.06 -11.66,-4.05 -8.312,1.522 -16.57,3.323 -24.76,5.4 -5.75,3.6 -6.64,7.17 -9.15,6.63 -1.76,-0.38 -2.04,-2.05 -1.87,-3.66 -13.154,3.78 -26.07,8.341 -38.68,13.66 -0.87,5.52 -2.4,16.9 -3.47,33.5 -1.54,24.2 0.26,38.87 10.81,20.34 11.59,27.8 22.09,45.68 45.05,59.72 3.04,1.85 -6.31,4.48 -21.6,-5.67 -17.917,8.514 -30.8,18.534 -39.167,26.371 L 67.014,287.194 C 78.339,275.482 91.455,265.595 105.9,257.92 99.887,252.079 94.418,245.702 89.56,238.87 c -4.38,6.95 -18.02,9.53 -20.08,-18.53 -1,-13.76 -0.35,-28.02 0.59,-38.97 -9.4,-1 -13.83,-2.69 -17.31,-5.56 -8.27,-6.8 -7.44,-20.5 17.9,-38.3 0.38,-5.58 1.74,-17.14 6.66,-31.54 -4.245,-1.165 -8.076,-3.505 -11.05,-6.75 z m 216.1,-51.35 c -7.19,-0.77 -11.76,3.06 -14.01,5.72 7.864,6.767 14.782,14.56 20.57,23.17 14.91,-9.5 3.7,-27.8 -6.56,-28.9 z m 18.54,73.36 c -20.8,-10.68 -46.64,-16.37 -69.79,-18.33 -12.5,16.04 -36.75,16.53 -49.97,1.47 -19.16,2.64 -44.5,8.44 -69.96,21.24 -27.31,13.73 -49.27,28.56 -50.2,37.74 9.52,-5.8 35.94,-19.22 91.9,-31.3 69.12,-14.94 129.68,-8.7 162.91,1.66 -0.93,-3.8 -5.91,-7.87 -14.89,-12.48 z m -72.6,-38.48 c 0,-4 -1.05,-7.93 -3.05,-11.4 -8.77,-15.18 -30.69,-15.18 -39.46,0 -8.77,15.2 2.2,34.18 19.73,34.18 12.581,0 22.78,-10.199 22.78,-22.78 z m 22.14,150.97 c -6.7,12.36 -18.28,32.18 -37.58,33.72 -19.3,1.55 -33.8,-13.16 -53.29,-37.07 -5.66,-6.95 3.1,-5.47 5.4,-4.89 6.652,1.645 13.488,2.425 20.34,2.32 12.88,-0.4 24.2,-12.1 28.32,-12.1 4.12,0 12.87,5.92 18.28,5.92 5.4,0 20.33,-3.86 23.42,-5.15 3.1,-1.28 1.8,4.9 -4.89,17.25 z m -24.72,-6.88 c -5.2,-1.54 -8.68,-4.25 -11,-3.86 -2.31,0.39 -12.16,6.95 -12.16,6.95 0,0 2.9,12.35 4.63,13.13 1.74,0.77 13.13,-0.39 14.3,-1.16 1.15,-0.78 3.85,-7.73 4.23,-15.06 z m -98.33,75.61 c -1.471,3.681 -3.629,10.07 -5.668,16.339 l -8.935,-5.16 c 9.636,-13.863 17.16,-17.562 14.603,-11.179 z m 135.92,9.78 c -2.537,-4.735 0.061,-7.158 9.518,3.582 l -5.963,3.443 c -1.287,-2.632 -2.537,-5.118 -3.555,-7.015 z M 213.64,209.78 c -7.38,1.3 -12.27,-2.7 -15.1,-7.16 -9,-0.87 -13.26,-4.25 -13.99,-8.28 -1.03,-5.67 9.01,-12.1 25.23,-13.65 18.48,-1.76 25.48,3.6 25.48,8.5 0,3.32 -2.38,7.24 -9.64,10.06 -1.46,5.46 -5.42,9.37 -11.98,10.53 z"
         style="stroke-width:0.80543238" />
      <path
         style="fill:none;stroke-width:0.80543238"
         inkscape:connector-curvature="0"
         id="path12"
         d="M 348.93,262.44 V 103.22 c 0,-5.83 -1.65,-70.96 -6.7,-73.88 L 202.88,9.47 c -5.055,-2.921 -11.285,-2.921 -16.34,0 L 44.92,24.52 c -5.05,2.92 -4.43,72.87 -4.43,78.7 v 159.22 c 0,5.83 3.11,11.23 8.17,14.15 l 137.88,79.6 c 5.055,2.921 11.285,2.921 16.34,0 l 137.88,-79.6 c 5.055,-2.919 8.17,-8.313 8.17,-14.15 z" />
    </g>
  </g>
</svg>
