<?xml version="1.0" encoding="UTF-8" standalone="no"?>
<!-- Created with Inkscape (http://www.inkscape.org/) -->

<svg
   xmlns:dc="http://purl.org/dc/elements/1.1/"
   xmlns:cc="http://creativecommons.org/ns#"
   xmlns:rdf="http://www.w3.org/1999/02/22-rdf-syntax-ns#"
   xmlns:svg="http://www.w3.org/2000/svg"
   xmlns="http://www.w3.org/2000/svg"
   xmlns:sodipodi="http://sodipodi.sourceforge.net/DTD/sodipodi-0.dtd"
   xmlns:inkscape="http://www.inkscape.org/namespaces/inkscape"
   width="500"
   height="500"
   viewBox="0 0 132.29166 132.29167"
   version="1.1"
   id="svg8"
   inkscape:version="0.92.3 (2405546, 2018-03-11)"
   sodipodi:docname="icon-template.svg">
  <defs
     id="defs2" />
  <sodipodi:namedview
     id="base"
     pagecolor="#ffffff"
     bordercolor="#a52828"
     borderopacity="1"
     inkscape:pageopacity="0.0"
     inkscape:pageshadow="2"
     inkscape:zoom="0.98994949"
     inkscape:cx="196.04083"
     inkscape:cy="283.52232"
     inkscape:document-units="px"
     inkscape:current-layer="layer1"
     showgrid="false"
     units="px"
     borderlayer="false"
     inkscape:pagecheckerboard="false"
     inkscape:window-width="1920"
     inkscape:window-height="1012"
     inkscape:window-x="-8"
     inkscape:window-y="-8"
     inkscape:window-maximized="1"
     showguides="true"
     inkscape:guide-bbox="true"
     inkscape:measure-start="249.821,63.0357"
     inkscape:measure-end="249.821,0">
    <sodipodi:guide
       position="9.5882942,66.182616"
       orientation="0,1"
       id="guide859"
       inkscape:locked="false" />
    <sodipodi:guide
       position="66.145833,14.717448"
       orientation="1,0"
       id="guide863"
       inkscape:locked="false" />
    <sodipodi:guide
       position="91.281245,132.29167"
       orientation="0,1"
       id="guide865"
       inkscape:locked="false" />
    <sodipodi:guide
       position="4.943e-007,86.758659"
       orientation="1,0"
       id="guide867"
       inkscape:locked="false" />
  </sodipodi:namedview>
  <metadata
     id="metadata5">
    <rdf:RDF>
      <cc:Work
         rdf:about="">
        <dc:format>image/svg+xml</dc:format>
        <dc:type
           rdf:resource="http://purl.org/dc/dcmitype/StillImage" />
        <dc:title></dc:title>
      </cc:Work>
    </rdf:RDF>
  </metadata>
  <g
     inkscape:label="Capa 1"
     inkscape:groupmode="layer"
     id="layer1"
     transform="translate(0,-164.70832)">
    <path
       style="opacity:1;fill:#ffffff;fill-opacity:1;fill-rule:nonzero;stroke:none;stroke-width:0.26458332;stroke-linecap:butt;stroke-linejoin:miter;stroke-miterlimit:1.41420996;stroke-dasharray:none;stroke-opacity:1;paint-order:markers stroke fill"
       d="M 0,164.70832 V 296.99998 H 132.29167 V 164.70832 Z"
       id="rect815"
       inkscape:connector-curvature="0"
       sodipodi:insensitive="true" />
    <g
       id="g847"
       clip-path="url(#_clip1)"
       transform="matrix(0.49092663,0,0,0.49092663,2.9099977,167.77673)"
       style="clip-rule:evenodd;fill-rule:evenodd;stroke-width:0.53894675;stroke-linejoin:round;stroke-miterlimit:1.41420996">
      <path
         id="path841"
         style="fill:#466dd8;stroke-width:0.53894675"
         d="m 89.312,154.275 -6.883,-3.93 -18.485,31.852 C 47.232,158.996 43.888,127.729 56.866,100.789 l 0.195,-0.197 c 0.788,-1.769 1.771,-3.344 2.556,-4.915 13.176,-22.814 36.185,-36.775 60.568,-39.33 4.327,-5.898 9.047,-11.013 14.356,-15.928 C 99.734,38.453 64.926,55.755 46.246,88.008 22.255,129.695 33.269,182.001 70.237,210.714 l 18.484,-54.866 c 0.199,-0.391 0.396,-0.983 0.591,-1.573 m 112.481,-50.932 c 9.833,22.617 9.243,49.358 -3.933,72.171 -0.786,1.574 -1.769,3.142 -2.752,4.719 l -0.198,0.199 c -16.91,24.776 -45.62,37.556 -74.134,34.606 l 18.486,-31.857 -6.884,-3.934 c -0.393,0.398 -0.786,0.789 -1.18,1.185 L 93.049,223.89 c 43.263,17.699 94.193,0.983 118.182,-40.709 18.683,-32.245 16.324,-70.987 -2.947,-100.089 -1.574,6.88 -3.541,13.763 -6.491,20.251"
         inkscape:connector-curvature="0" />
      <path
         id="path843"
         style="fill:#2295ff;stroke-width:0.53894675"
         d="m 137.884,153.094 c -4.918,6.492 -12.783,9.836 -21.237,10.621 -2.556,0.199 -4.917,-1.179 -6.097,-3.539 -3.541,-7.672 -4.718,-16.125 -1.376,-23.598 L 70.63,114.356 c -2.554,-1.572 -3.734,-4.129 -2.948,-6.881 0.59,-2.754 2.948,-4.721 5.704,-4.721 l 39.13,-1.375 c 2.95,-11.996 7.866,-23.401 14.946,-34.021 11.208,-16.715 27.137,-29.103 45.817,-36.575 4.525,-1.77 9.047,-3.341 13.571,-4.523 3.34,-0.787 6.683,1.182 7.471,4.33 1.376,4.519 2.361,9.24 3.146,13.957 2.753,20.06 -0.197,40.116 -8.847,58.207 -5.507,11.407 -13.178,21.24 -22.026,29.89 l 18.288,34.413 c 1.378,2.556 0.983,5.507 -1.179,7.474 -1.967,1.966 -4.918,2.164 -7.276,0.786 z m 29.103,-82.392 c 5.899,3.539 7.865,11.012 4.523,16.91 -3.343,5.9 -11.01,7.868 -16.911,4.524 -5.899,-3.344 -7.865,-11.013 -4.524,-16.912 3.541,-5.899 11.014,-7.866 16.912,-4.522"
         inkscape:connector-curvature="0" />
      <path
         id="path845"
         style="fill:#f8954f;stroke-width:0.53894675"
         d="m 80.266,219.759 41.689,-47.392 c -1.572,0.197 -3.146,0.393 -4.72,0.59 -6.293,0.394 -12.192,-2.951 -14.942,-8.847 -0.789,-1.377 -1.379,-2.755 -1.968,-4.328 z"
         inkscape:connector-curvature="0" />
    </g>
  </g>
</svg>
